<svg xmlns="http://www.w3.org/2000/svg" width="66.956" height="66.956" viewBox="0 0 66.956 66.956"><defs><style>.a{fill:#004b87;}</style></defs><g transform="translate(-1051.819 -965.188)"><path class="a" d="M1085.3,965.188a33.478,33.478,0,1,0,33.477,33.478A33.517,33.517,0,0,0,1085.3,965.188Zm-8.173,2.875.353,3.812.043.205a16.651,16.651,0,0,0,3.133,5.477,11.212,11.212,0,0,1,2.37,4.337A20.378,20.378,0,0,0,1083.7,984c.756,2.062.959,2.615-2.916,4.629-2.307,1.2-3.093,1.24-3.515,1.262-1.1.055-1.279.287-3.438,3.121a32.521,32.521,0,0,0-1.955,2.847,5.122,5.122,0,0,1-.5.734,5.45,5.45,0,0,1-1.053.005c-.5-.022-1.167-.035-2.023-.047-2.492,0-3.652.341-4.139,1.2-.552.977.079,2.024.81,3.237.155.258.32.53.483.82,1.589,2.8,2.5,7.369,1.277,8.186-1.073.4-6.875-2.674-12.779-6.743a31.652,31.652,0,0,1,23.168-35.192Zm8.173,62.28a31.725,31.725,0,0,1-30.868-24.588c4.1,2.744,9.55,6.017,12.23,6.016a1.877,1.877,0,0,0,1.048-.26c2.695-1.8.852-7.881-.683-10.588-.171-.3-.344-.59-.507-.86a7.551,7.551,0,0,1-.747-1.426,6.478,6.478,0,0,1,2.536-.285c.878-.016,1.468.025,1.947.044,1.919.082,2.212-.069,3.153-1.588a31.016,31.016,0,0,1,1.858-2.7,24.567,24.567,0,0,1,1.925-2.4,1.252,1.252,0,0,1,.172-.012c.775-.04,1.8-.188,4.254-1.461,4.8-2.5,4.845-3.932,3.777-6.846a19.149,19.149,0,0,1-.624-1.929,13.006,13.006,0,0,0-2.744-5.061,14.872,14.872,0,0,1-2.764-4.788l-.366-3.964a31.679,31.679,0,1,1,6.4,62.7Z"></path><path class="a" d="M1101.082,1005.058c-4.873-.841-5.181-1.05-6.662-2.053-.5-.341-1.129-.765-2.064-1.317l-.232-.1c-1.556-.4-6.761-1.606-8.468-.207a5.82,5.82,0,0,0-2.433,5.781,8.9,8.9,0,0,0,1.788,4.384,15.212,15.212,0,0,1,1.482,2.676,12.325,12.325,0,0,1,.657,2.73c.3,1.878.618,3.818,2.769,5.016.617.341,1.213.728,1.788,1.1a6.985,6.985,0,0,0,3.225,1.49,1.711,1.711,0,0,0,.669-.133,1.971,1.971,0,0,0,1.1-1.565,4.933,4.933,0,0,0-.2-2.476c-.262-.926-.34-1.2,1.042-2.008.691-.4,1.273-.713,1.776-.982a8.809,8.809,0,0,0,4.144-3.63,15.871,15.871,0,0,1,1.314-1.65c1.367-1.58,2.781-3.214,2.2-4.834C1104.57,1006.153,1103.333,1005.445,1101.082,1005.058Zm.331,5.883a17.056,17.056,0,0,0-1.472,1.861,7.068,7.068,0,0,1-3.473,3.01c-.519.277-1.118.6-1.832,1.012-2.4,1.392-2.264,2.659-1.87,4.054a3.3,3.3,0,0,1,.17,1.635,1.305,1.305,0,0,1-.071.246,9.441,9.441,0,0,1-2.178-1.2c-.574-.372-1.223-.793-1.893-1.165-1.324-.736-1.562-1.84-1.866-3.728a14.041,14.041,0,0,0-.767-3.12,16.991,16.991,0,0,0-1.641-2.983,7.261,7.261,0,0,1-1.5-3.551,4.094,4.094,0,0,1,1.779-4.239h0a2.6,2.6,0,0,1,1.429-.26,24.436,24.436,0,0,1,5.326.786c.827.493,1.4.879,1.859,1.192,1.742,1.18,2.288,1.46,7.365,2.336,2.1.362,2.449.9,2.505,1.061C1103.506,1008.522,1102.246,1009.978,1101.413,1010.941Z"></path></g></svg>