<svg xmlns="http://www.w3.org/2000/svg" width="410" height="169.415" viewBox="0 0 410 169.415"><defs><style>.a{fill:#fff;}</style></defs><path class="a" d="M410,0H0V19.817c12.749-.917,25.717-1.382,38.544-1.382,8.913,0,17.933.224,26.807.667,8.809.439,17.715,1.106,26.469,1.981,8.695.869,17.477,1.967,26.1,3.264,8.568,1.288,17.216,2.808,25.7,4.516,8.434,1.7,16.938,3.628,25.275,5.737,8.29,2.1,16.639,4.427,24.817,6.926,8.134,2.486,16.319,5.206,24.328,8.085,7.968,2.865,15.978,5.964,23.809,9.213,7.794,3.234,15.62,6.7,23.259,10.31,7.608,3.592,15.238,7.42,22.679,11.376,7.414,3.942,14.839,8.117,22.07,12.411,7.209,4.281,14.419,8.794,21.429,13.415,6.992,4.608,13.976,9.449,20.758,14.388,6.767,4.927,13.515,10.085,20.058,15.33s13.033,10.7,19.326,16.241S403.967,163.589,410,169.415V0Z" transform="translate(410 169.415) rotate(180)"></path></svg>