<svg xmlns="http://www.w3.org/2000/svg" width="2237" height="642.415" viewBox="0 0 2237 642.415"><defs><style>.a{fill:#fff;}</style></defs><path class="a" d="M2237,0H0V75.145C69.559,71.667,140.314,69.9,210.3,69.9c48.633,0,97.843.851,146.261,2.53,48.064,1.667,96.654,4.194,144.421,7.512,47.438,3.3,95.353,7.459,142.414,12.376,46.75,4.885,93.934,10.646,140.242,17.124,46.017,6.437,92.415,13.756,137.906,21.753,45.228,7.951,90.784,16.788,135.4,26.264,44.378,9.426,89.037,19.741,132.736,30.659,43.472,10.862,87.177,22.616,129.9,34.936,42.527,12.263,85.224,25.417,126.9,39.1,41.51,13.622,83.143,28.135,123.741,43.137,40.45,14.947,80.963,30.781,120.413,47.062,39.334,16.233,78.672,33.348,116.919,50.869,38.148,17.475,76.254,35.831,113.26,54.558,36.921,18.684,73.741,38.242,109.436,58.13,35.633,19.853,71.11,40.573,105.446,61.585,34.3,20.987,68.375,42.83,101.292,64.921V0Z" transform="translate(2237 642.415) rotate(180)"></path></svg>