<svg xmlns="http://www.w3.org/2000/svg" viewBox="0 0 76 76"><defs><style>.cls-1{fill:#004b87;}.cls-2{fill:none;}</style></defs><g id="Layer_2" data-name="Layer 2"><g id="Layer_1-2" data-name="Layer 1"><path class="cls-1" d="M11.48,67.19a7,7,0,0,1-7-7V25.38a7,7,0,0,1,7-7H27.27V12.25a3.45,3.45,0,0,1,3.44-3.44H45.29a3.45,3.45,0,0,1,3.44,3.44v6.16H64.52a7,7,0,0,1,7,7V60.21a7,7,0,0,1-7,7Zm-5.41-7a5.41,5.41,0,0,0,5.41,5.41h53a5.41,5.41,0,0,0,5.41-5.41V35.07L43,43.14v3.15a3,3,0,0,1-3,3H36.06a3,3,0,0,1-3-3V43.14L6.07,35.07Zm30-21.52a1.47,1.47,0,0,0-1.47,1.47v6.13a1.47,1.47,0,0,0,1.47,1.46h3.88a1.47,1.47,0,0,0,1.47-1.46V40.16a1.47,1.47,0,0,0-1.47-1.47Zm3.88-1.57a3,3,0,0,1,3,3V41.5l27-8.07v-8A5.41,5.41,0,0,0,64.52,20h-53a5.41,5.41,0,0,0-5.41,5.4v8.05L33,41.5V40.16a3,3,0,0,1,3-3ZM30.71,10.38a1.87,1.87,0,0,0-1.87,1.87v6.16H47.16V12.25a1.87,1.87,0,0,0-1.87-1.87Z"></path><rect class="cls-2" width="76" height="76"></rect></g></g></svg>