<svg xmlns="http://www.w3.org/2000/svg" width="61.744" height="42.869" viewBox="0 0 61.744 42.869"><defs><style>.a{fill:#004b87;}</style></defs><path class="a" d="M1352.224,622.094a.459.459,0,0,1-.463-.432.407.407,0,0,1,.4-.432h.061c.111,0,.22-.005.328-.016a.443.443,0,0,1,.473.388.434.434,0,0,1-.388.473C1352.5,622.087,1352.364,622.094,1352.224,622.094Zm-2.453-.872a.428.428,0,0,1-.272-.1,4.06,4.06,0,0,1-.355-.323.432.432,0,1,1,.617-.606,3.638,3.638,0,0,0,.283.258.432.432,0,0,1-.272.768Zm5.139-.2a.432.432,0,0,1-.3-.744c.093-.09.181-.184.264-.281a.432.432,0,0,1,.661.557,4.423,4.423,0,0,1-.326.347A.427.427,0,0,1,1354.91,621.019Zm-6.554-2.385a.432.432,0,0,1-.429-.383,4.2,4.2,0,0,1-.027-.481c0-.092,0-.182.009-.272a.411.411,0,0,1,.458-.4.432.432,0,0,1,.4.458c0,.072-.007.145-.007.219a3.275,3.275,0,0,0,.022.383.432.432,0,0,1-.381.478Zm7.757-.308h-.017a.435.435,0,0,1-.415-.45l0-.106c0-.093,0-.186-.01-.277a.433.433,0,0,1,.863-.064c.009.113.012.226.012.341l0,.141A.433.433,0,0,1,1356.112,618.326Zm-6.788-2.717a.432.432,0,0,1-.323-.719,4.473,4.473,0,0,1,.339-.34.432.432,0,0,1,.578.643,3.462,3.462,0,0,0-.27.271A.431.431,0,0,1,1349.324,615.609Zm5.758-.046a.428.428,0,0,1-.317-.139c-.088-.094-.181-.183-.277-.269a.432.432,0,0,1,.569-.65,4.61,4.61,0,0,1,.342.332.432.432,0,0,1-.316.726Zm-3.106-1.244a.432.432,0,0,1-.027-.864c.091-.006.182-.009.274-.009l.2,0a.433.433,0,0,1-.036.865l-.168,0c-.074,0-.148,0-.22.007Z" transform="translate(-1344.726 -599.542)"/><path class="a" d="M1406.432,622.094a.459.459,0,0,1-.463-.432.407.407,0,0,1,.4-.432h.062c.111,0,.22-.005.328-.016a.445.445,0,0,1,.473.388.434.434,0,0,1-.388.473C1406.708,622.087,1406.572,622.094,1406.432,622.094Zm-2.453-.872a.428.428,0,0,1-.272-.1,4.188,4.188,0,0,1-.355-.323.432.432,0,1,1,.617-.606,3.66,3.66,0,0,0,.283.258.432.432,0,0,1-.271.768Zm5.139-.2a.432.432,0,0,1-.3-.744c.093-.09.181-.184.264-.281a.432.432,0,0,1,.661.557,4.423,4.423,0,0,1-.326.347A.427.427,0,0,1,1409.118,621.019Zm-6.554-2.385a.432.432,0,0,1-.429-.383,4.232,4.232,0,0,1-.027-.481c0-.092,0-.182.009-.272a.417.417,0,0,1,.458-.4.432.432,0,0,1,.4.458c0,.072-.007.145-.007.219a3.275,3.275,0,0,0,.022.383.432.432,0,0,1-.381.478Zm7.757-.308h-.017a.435.435,0,0,1-.415-.45l0-.106c0-.093,0-.186-.01-.277a.432.432,0,0,1,.4-.463.438.438,0,0,1,.464.4c.009.113.012.226.012.341l0,.141A.433.433,0,0,1,1410.32,618.326Zm-6.788-2.717a.432.432,0,0,1-.323-.719,4.5,4.5,0,0,1,.339-.34.432.432,0,0,1,.578.643,3.485,3.485,0,0,0-.27.271A.431.431,0,0,1,1403.532,615.609Zm5.758-.046a.428.428,0,0,1-.317-.139c-.088-.094-.181-.183-.277-.269a.432.432,0,0,1,.569-.65,4.634,4.634,0,0,1,.342.332.432.432,0,0,1-.317.726Zm-3.106-1.244a.432.432,0,0,1-.027-.864c.091-.006.182-.009.274-.009l.2,0a.433.433,0,0,1,.414.451.453.453,0,0,1-.45.414l-.168,0c-.074,0-.147,0-.22.007Z" transform="translate(-1352.058 -599.542)"/><path class="a" d="M1368.973,641.892a.459.459,0,0,1-.463-.432.407.407,0,0,1,.4-.432h.061c.111,0,.22-.005.328-.016a.441.441,0,0,1,.473.388.434.434,0,0,1-.388.473C1369.249,641.885,1369.113,641.892,1368.973,641.892Zm-2.454-.872a.428.428,0,0,1-.272-.1,4.206,4.206,0,0,1-.355-.323.432.432,0,1,1,.617-.606,3.624,3.624,0,0,0,.283.258.432.432,0,0,1-.271.768Zm5.14-.2a.432.432,0,0,1-.3-.744c.093-.09.181-.184.264-.282a.432.432,0,0,1,.661.558,4.568,4.568,0,0,1-.326.347A.427.427,0,0,1,1371.659,640.817Zm-6.554-2.385a.432.432,0,0,1-.429-.383,4.2,4.2,0,0,1-.027-.481c0-.092,0-.182.009-.273a.42.42,0,0,1,.458-.4.432.432,0,0,1,.4.458c0,.073-.007.146-.007.22a3.3,3.3,0,0,0,.021.383.432.432,0,0,1-.381.478Zm7.758-.308h-.017a.435.435,0,0,1-.415-.451l0-.1c0-.1,0-.2-.01-.286a.432.432,0,0,1,.4-.464.436.436,0,0,1,.464.4c.009.112.012.226.012.341,0,.041,0,.091,0,.141A.433.433,0,0,1,1372.862,638.124Zm-6.789-2.718a.432.432,0,0,1-.323-.719,4.377,4.377,0,0,1,.339-.34.432.432,0,1,1,.578.643,3.43,3.43,0,0,0-.27.271A.431.431,0,0,1,1366.073,635.406Zm5.758-.046a.429.429,0,0,1-.317-.138,3.86,3.86,0,0,0-.278-.269.432.432,0,1,1,.569-.65,4.573,4.573,0,0,1,.342.332.431.431,0,0,1-.317.726Zm-3.106-1.244a.432.432,0,0,1-.027-.864c.092-.006.182-.009.274-.009l.2,0a.433.433,0,0,1,.414.451.464.464,0,0,1-.45.414l-.168,0c-.074,0-.147,0-.22.007Z" transform="translate(-1346.992 -602.22)"/><path class="a" d="M1357.377,631.728a1.7,1.7,0,1,1,1.7-1.7A1.7,1.7,0,0,1,1357.377,631.728Zm0-2.531a.833.833,0,1,0,.833.834A.834.834,0,0,0,1357.377,629.2Z" transform="translate(-1345.779 -601.555)"/><path class="a" d="M1381.39,631.728a1.7,1.7,0,1,1,1.7-1.7A1.7,1.7,0,0,1,1381.39,631.728Zm0-2.531a.833.833,0,1,0,.834.834A.834.834,0,0,0,1381.39,629.2Z" transform="translate(-1349.026 -601.555)"/><path class="a" d="M1402.793,631.728a1.7,1.7,0,1,1,1.7-1.7A1.7,1.7,0,0,1,1402.793,631.728Zm0-2.531a.833.833,0,1,0,.833.834A.834.834,0,0,0,1402.793,629.2Z" transform="translate(-1351.921 -601.555)"/><path class="a" d="M1392.479,609.418a.605.605,0,0,1-.605-.605V598.58h-14.382v10.233a.606.606,0,0,1-1.212,0V597.973a.606.606,0,0,1,.605-.605h15.593a.606.606,0,0,1,.605.605v10.839A.606.606,0,0,1,1392.479,609.418Z" transform="translate(-1348.565 -597.368)"/><g transform="translate(17.078 3.844)"><path class="a" d="M1371.56,604.718h-5.8a.605.605,0,1,1,0-1.211h5.8a.605.605,0,1,1,0,1.211Z" transform="translate(-1364.138 -602.042)"/><path class="a" d="M1366.159,606.173a.6.6,0,0,1-.428-.177l-1.574-1.574a.6.6,0,0,1,0-.856l1.574-1.575a.605.605,0,0,1,.856.856l-1.146,1.147,1.146,1.146a.605.605,0,0,1-.428,1.033Z" transform="translate(-1363.979 -601.813)"/><g transform="translate(30.051)"><path class="a" d="M1405.141,604.974h-5.8a.605.605,0,1,1,0-1.211h5.8a.605.605,0,0,1,0,1.211Z" transform="translate(-1398.731 -602.077)"/><path class="a" d="M1405.4,606.173a.605.605,0,0,1-.428-1.033l1.147-1.146-1.147-1.147a.605.605,0,0,1,.856-.856l1.576,1.575a.606.606,0,0,1,0,.856L1405.827,606A.6.6,0,0,1,1405.4,606.173Z" transform="translate(-1399.551 -601.813)"/></g></g><path class="a" d="M1366.188,641.934a7.48,7.48,0,0,1-7.472-7.471v-6.75a2.856,2.856,0,0,0-2.852-2.854H1351.7a7.471,7.471,0,1,1,0-14.942h46.8a7.471,7.471,0,1,1,0,14.942h-21.99a2.857,2.857,0,0,0-2.854,2.854v6.75A7.479,7.479,0,0,1,1366.188,641.934ZM1351.7,611.128a6.26,6.26,0,0,0,0,12.521h4.162a4.069,4.069,0,0,1,4.063,4.064v6.75a6.26,6.26,0,1,0,12.52,0v-6.75a4.069,4.069,0,0,1,4.065-4.064h21.99a6.26,6.26,0,0,0,0-12.521Z" transform="translate(-1344.23 -599.065)"/></svg>