<svg xmlns="http://www.w3.org/2000/svg" width="61.744" height="42.848" viewBox="0 0 61.744 42.848"><defs><style>.a{fill:#004b87;}</style></defs><g transform="translate(0 0)"><path class="a" d="M1191.4,621.855a.459.459,0,0,1-.463-.432.407.407,0,0,1,.4-.432h.061a3.154,3.154,0,0,0,.328-.016.444.444,0,0,1,.473.389.434.434,0,0,1-.388.473C1191.675,621.848,1191.538,621.855,1191.4,621.855Zm-2.454-.872a.427.427,0,0,1-.272-.1,4.069,4.069,0,0,1-.355-.323.432.432,0,0,1,.617-.606,3.6,3.6,0,0,0,.283.258.432.432,0,0,1-.272.768Zm5.14-.2a.432.432,0,0,1-.3-.744q.139-.135.264-.282a.432.432,0,1,1,.66.558,4.217,4.217,0,0,1-.326.347A.423.423,0,0,1,1194.085,620.78Zm-6.554-2.385a.433.433,0,0,1-.43-.383,4.409,4.409,0,0,1-.026-.481c0-.092,0-.182.009-.273a.418.418,0,0,1,.458-.4.431.431,0,0,1,.4.458c0,.073-.007.146-.007.22a3.288,3.288,0,0,0,.022.382.433.433,0,0,1-.381.479Zm7.757-.308h-.017a.435.435,0,0,1-.415-.451l0-.105c0-.093,0-.186-.01-.277a.433.433,0,1,1,.863-.064c.008.112.012.226.012.341l0,.141A.433.433,0,0,1,1195.287,618.087Zm-6.788-2.718a.432.432,0,0,1-.323-.719,4.344,4.344,0,0,1,.339-.341.433.433,0,0,1,.578.644,3.31,3.31,0,0,0-.27.271A.435.435,0,0,1,1188.5,615.369Zm5.758-.046a.427.427,0,0,1-.317-.138,3.713,3.713,0,0,0-.278-.269.432.432,0,1,1,.57-.65,4.734,4.734,0,0,1,.341.331.432.432,0,0,1-.316.726Zm-3.106-1.244a.432.432,0,0,1-.027-.864c.091-.006.182-.009.274-.009l.2,0a.433.433,0,0,1,.414.45.456.456,0,0,1-.45.415l-.168,0c-.073,0-.148,0-.221.007Z" transform="translate(-1184.328 -599.531)"/><path class="a" d="M1246.435,642.306a.459.459,0,0,1-.463-.432.407.407,0,0,1,.4-.432h.061c.111,0,.22-.005.328-.016a.442.442,0,0,1,.473.388.434.434,0,0,1-.388.473C1246.711,642.3,1246.574,642.306,1246.435,642.306Zm-2.455-.872a.428.428,0,0,1-.272-.1,4.178,4.178,0,0,1-.355-.323.432.432,0,1,1,.617-.606,3.479,3.479,0,0,0,.283.258.432.432,0,0,1-.272.768Zm5.141-.2a.432.432,0,0,1-.3-.744c.093-.09.181-.184.264-.282a.432.432,0,1,1,.66.558,4.39,4.39,0,0,1-.325.347A.427.427,0,0,1,1249.121,641.231Zm-6.554-2.385a.432.432,0,0,1-.429-.383,4.2,4.2,0,0,1-.027-.481c0-.094,0-.184.01-.273a.417.417,0,0,1,.458-.4.432.432,0,0,1,.4.458c0,.074-.007.149-.008.224a3.283,3.283,0,0,0,.022.379.432.432,0,0,1-.381.478Zm7.757-.307h-.017a.435.435,0,0,1-.415-.451l0-.106c0-.093,0-.186-.01-.277a.433.433,0,1,1,.863-.064c.008.113.012.226.012.341l0,.142A.433.433,0,0,1,1250.323,638.539Zm-6.787-2.721a.432.432,0,0,1-.322-.721,4.463,4.463,0,0,1,.337-.337.432.432,0,1,1,.578.643,3.652,3.652,0,0,0-.271.271A.428.428,0,0,1,1243.536,635.818Zm5.758-.044a.427.427,0,0,1-.317-.138,3.713,3.713,0,0,0-.278-.269.432.432,0,0,1,.57-.65,4.572,4.572,0,0,1,.342.332.431.431,0,0,1-.317.726Zm-3.106-1.244a.432.432,0,0,1-.027-.864c.091-.006.182-.009.273-.009l.2.005a.433.433,0,0,1,.414.451.454.454,0,0,1-.45.414l-.174-.005c-.068,0-.141,0-.214.007Z" transform="translate(-1191.772 -602.296)"/><g transform="translate(5.04)"><path class="a" d="M1205.924,609.441a.6.6,0,0,1-.605-.605V598.6h-14.383v10.233a.605.605,0,1,1-1.211,0V598a.6.6,0,0,1,.605-.605h15.593a.6.6,0,0,1,.605.605v10.838A.6.6,0,0,1,1205.924,609.441Z" transform="translate(-1189.726 -597.392)"/></g><g transform="translate(28.153 7.308)"><path class="a" d="M1229.455,625.13a.6.6,0,0,1-.48-.973l6.206-8.136-11.435-8.724-6.206,8.137a.606.606,0,0,1-.963-.735l6.573-8.617a.606.606,0,0,1,.4-.232.592.592,0,0,1,.449.118l12.4,9.459a.607.607,0,0,1,.113.848l-6.574,8.617A.6.6,0,0,1,1229.455,625.13Z" transform="translate(-1216.454 -605.843)"/></g><g transform="translate(41.269 6.072)"><path class="a" d="M1237.825,610.116a.6.6,0,0,1-.369-.126l-4.594-3.55a.605.605,0,1,1,.74-.957l4.593,3.549a.605.605,0,0,1-.37,1.084Z" transform="translate(-1231.758 -604.541)"/><path class="a" d="M1232.509,608.116a.605.605,0,0,1-.6-.528l-.283-2.209a.605.605,0,0,1,.523-.677l2.209-.284a.605.605,0,0,1,.154,1.2l-1.609.207.207,1.608a.6.6,0,0,1-.524.677A.6.6,0,0,1,1232.509,608.116Z" transform="translate(-1231.622 -604.413)"/></g><path class="a" d="M1238.567,641.946h-12.443a7.531,7.531,0,0,1-4.553-1.543l-19.976-15.276a4.591,4.591,0,0,0-2.771-.938h-7.852a7.091,7.091,0,0,1,0-14.182h12.445a7.53,7.53,0,0,1,4.551,1.542l19.976,15.277a4.592,4.592,0,0,0,2.771.938h7.851a7.091,7.091,0,0,1,0,14.182Zm-47.595-30.729a5.88,5.88,0,0,0,0,11.761h7.852a5.8,5.8,0,0,1,3.506,1.188l19.975,15.276a6.326,6.326,0,0,0,3.819,1.293h12.443a5.88,5.88,0,0,0,0-11.761h-7.851a5.806,5.806,0,0,1-3.507-1.188l-19.975-15.277a6.324,6.324,0,0,0-3.817-1.292Z" transform="translate(-1183.898 -599.098)"/></g><path class="a" d="M1201.437,631.066a1.7,1.7,0,1,1,1.7-1.7A1.7,1.7,0,0,1,1201.437,631.066Zm0-2.531a.833.833,0,1,0,.834.834A.834.834,0,0,0,1201.437,628.535Z" transform="translate(-1186.041 -601.487)"/></svg>