<svg xmlns="http://www.w3.org/2000/svg" width="45" height="45" viewBox="0 0 45 45"><g id="Group_4289" data-name="Group 4289" transform="translate(-595 -1947)"><rect id="Rectangle_1794" data-name="Rectangle 1794" width="45" height="45" transform="translate(595 1947)" fill="none"></rect><path id="fruits_icon" data-name="fruits icon" d="M184.732,249.1a.816.816,0,0,0-.969-.31l-7.351,2.833-2.177-5.858a.791.791,0,0,0-.831-.539.782.782,0,0,0-.716.621l-1.363,6.377-3.061-2.449a.818.818,0,0,0-.9-.074.791.791,0,0,0-.39.8l.7,4.961a12.892,12.892,0,0,0-7.823.528.394.394,0,0,0-.113.041,16.073,16.073,0,0,0-2.1.979.409.409,0,0,0-.106.059,17.429,17.429,0,0,0-2.787,1.955.63.63,0,0,0-.216.184q-.234.207-.464.425c-.319.3-.641.632-.968.993a15.239,15.239,0,0,0-4.143,10.134.5.5,0,0,0,0,.23,9.635,9.635,0,0,0,2.561,6.5,8.981,8.981,0,0,0,1.008.913,10.21,10.21,0,0,0,6.319,2.026,13.732,13.732,0,0,0,4.424-.758l.078-.025a17.1,17.1,0,0,0,6.132-3.767,16.149,16.149,0,0,0,4.989-9.183c.047-.32.079-.635.1-.931a.478.478,0,0,0,.006-.081,11.53,11.53,0,0,0-.1-2.538l5.764.669a.789.789,0,0,0,.825-.481.81.81,0,0,0-.253-.951l-2.143-1.7L184,258.671a.781.781,0,0,0,.509-.806.83.83,0,0,0-.666-.743l-4.8-.934,5.626-6.094A.8.8,0,0,0,184.732,249.1Zm-19.76,7.24a9.214,9.214,0,0,1,4.256,1.106,25.222,25.222,0,0,0-.648,2.658,31.755,31.755,0,0,1-4.264-.3A34.553,34.553,0,0,1,164.972,256.336Zm4.318,14.36a27,27,0,0,1-4.487,0,20.8,20.8,0,0,1-.719-3.984,31.135,31.135,0,0,0,4.2.175A13.984,13.984,0,0,0,169.29,270.7Zm-5.126-9.64a32.147,32.147,0,0,0,4.205.317,22.3,22.3,0,0,0-.2,4.225,31.057,31.057,0,0,1-4.162-.2A31.579,31.579,0,0,1,164.164,261.056Zm1.318,14.228a29.013,29.013,0,0,1-4.085.052,20.1,20.1,0,0,1-1.661-4.265,26.312,26.312,0,0,0,4.088.8A15.429,15.429,0,0,0,165.482,275.284Zm-5.568-.083a19.884,19.884,0,0,1-3.808-.829,22.05,22.05,0,0,1-1.046-5.15,23.781,23.781,0,0,0,3.268,1.41A21.457,21.457,0,0,0,159.914,275.2Zm.571-18.108a13.11,13.11,0,0,1,3.169-.711c-.167.692-.409,1.81-.608,3.187a11.572,11.572,0,0,1-3.032-1.036C160.211,257.849,160.389,257.351,160.485,257.093Zm-.794,2.687a13.486,13.486,0,0,0,3.2,1.049,32.382,32.382,0,0,0-.189,4.374,18.879,18.879,0,0,1-3.631-1A25.652,25.652,0,0,1,159.691,259.78Zm3.074,6.754a22.366,22.366,0,0,0,.658,4.015,24.6,24.6,0,0,1-4-.883,22.49,22.49,0,0,1-.387-4.095A20.689,20.689,0,0,0,162.765,266.534Zm-3.836-8.782-.008.027-.017-.015Zm-3.333,2.2a16.231,16.231,0,0,1,2.146-1.55,5.732,5.732,0,0,0,.635.572c.058.045.118.088.178.131a27.1,27.1,0,0,0-.72,4.548,11.925,11.925,0,0,1-2.569-1.738C155.394,260.97,155.529,260.274,155.6,259.951Zm-.5,3.476.023.018a13.865,13.865,0,0,0,2.657,1.6,24.141,24.141,0,0,0,.282,4.143,22.46,22.46,0,0,1-3.089-1.457A33.531,33.531,0,0,1,155.093,263.427ZM153.57,262q.168.189.344.369a34.678,34.678,0,0,0-.264,4.55,22.125,22.125,0,0,1-2.172-1.649A15.584,15.584,0,0,1,153.57,262Zm-2.605,4.491c.2.167.4.33.6.486a22.983,22.983,0,0,0,2.136,1.471,24.687,24.687,0,0,0,.87,5.328,12.941,12.941,0,0,1-4.371-3.134A12.164,12.164,0,0,1,150.965,266.495Zm2.325,10.9a7.853,7.853,0,0,1-2.9-4.791c.2.178.406.346.611.507a15.243,15.243,0,0,0,4.094,2.236,16.2,16.2,0,0,0,1.954,3.673A8.381,8.381,0,0,1,153.29,277.4Zm5.528,1.772h-.043a13.829,13.829,0,0,1-2.086-3.313,22.955,22.955,0,0,0,3.924.679,21.958,21.958,0,0,0,1.431,2.185A12.224,12.224,0,0,1,158.818,279.17Zm4.5-.863c-.424-.547-.819-1.11-1.177-1.682a30.937,30.937,0,0,0,4.209-.158c.048.061.1.119.148.179A15.412,15.412,0,0,1,163.319,278.307Zm5.4-3.473c-.288.061-.917.183-1.8.3a13.6,13.6,0,0,1-1.682-3.138,28.419,28.419,0,0,0,4.661-.088,10.881,10.881,0,0,0,.594.917A16.764,16.764,0,0,1,168.721,274.834Zm4.485-8.332a13.361,13.361,0,0,1-1.187,3.807c-.256.055-.74.149-1.406.241a12.51,12.51,0,0,1-1.044-3.713,36.333,36.333,0,0,0,3.646-.4Zm-3.753-.95a21.657,21.657,0,0,1,.215-4.18c1.306-.021,2.354-.1,2.958-.148a9.2,9.2,0,0,1,.7,3.91A35.536,35.536,0,0,1,169.453,265.552Zm.434-5.458c.151-.774.314-1.425.448-1.91a8.115,8.115,0,0,1,.767.707,7.767,7.767,0,0,1,.874,1.111C171.429,260.039,170.711,260.077,169.887,260.094Zm7.813-4.32a.9.9,0,0,0-.191.9.96.96,0,0,0,.728.644l3.8.739-4.41,1.659a.882.882,0,0,0-.568.7.952.952,0,0,0,.353.888l1.337,1.059-4.565-.532a9.168,9.168,0,0,0-2.166-3.812,8.964,8.964,0,0,0-1.008-.913c-.214-.166-.436-.319-.653-.459l-.059-.037a9.2,9.2,0,0,0-1.29-.684.487.487,0,0,0-.006-.076l-.616-4.361,2.585,2.067a.94.94,0,0,0,.894.153.884.884,0,0,0,.573-.654l1.154-5.4,1.741,4.692a.969.969,0,0,0,.507.543.916.916,0,0,0,.715.023l5.868-2.261Z" transform="translate(451.067 1706.783)" fill="#004b87"></path></g></svg>