<svg xmlns="http://www.w3.org/2000/svg" width="76" height="76" viewBox="0 0 76 76"><g id="Group_4315" data-name="Group 4315" transform="translate(-238 -2953)"><rect id="Rectangle_1818" data-name="Rectangle 1818" width="76" height="76" transform="translate(238 2953)" fill="none"></rect><g id="Blog" transform="translate(-1296.284 1983.687)"><path id="Path_9818" data-name="Path 9818" d="M1604.924,983.254a6.324,6.324,0,0,0-4.449-1.865h0a5.7,5.7,0,0,0-4.081,1.67l-2.561,2.559-.031.031v-3.364a2.976,2.976,0,0,0-2.973-2.972h-50.571a2.975,2.975,0,0,0-2.972,2.972v43.7a2.976,2.976,0,0,0,2.972,2.973h4.852l6.17,6.949a.9.9,0,0,0,.673.3h0a.9.9,0,0,0,.675-.309l6.054-6.943h32.143a2.977,2.977,0,0,0,2.973-2.973v-22.8c0-.024-.012-.044-.014-.068l3.084-3.084,5.686-5.685,2.542-2.544A6.075,6.075,0,0,0,1604.924,983.254Zm-8.69,14.865-6.179-6.179,4.412-4.412,6.179,6.179Zm-19.116,19.116-6.179-6.178,17.843-17.844,6.178,6.179Zm-6.978-4.431,5.23,5.23-7.078,1.85ZM1592,1025.98a1.172,1.172,0,0,1-1.172,1.172h-32.553a.905.905,0,0,0-.678.309l-5.651,6.481-5.759-6.487a.9.9,0,0,0-.673-.3h-5.257a1.172,1.172,0,0,1-1.171-1.172v-43.7a1.173,1.173,0,0,1,1.171-1.171h50.571a1.173,1.173,0,0,1,1.172,1.171v5.165l-3.853,3.854-19.117,19.116a.928.928,0,0,0-.174.262c-.011.026-.022.051-.032.078s-.022.045-.028.069l-2.633,10.086a.9.9,0,0,0,.871,1.128.929.929,0,0,0,.228-.029l10.084-2.635c.024-.006.045-.02.069-.028s.052-.021.078-.033a.905.905,0,0,0,.262-.173L1592,1004.9Zm11.824-35.453-1.9,1.906-6.178-6.179,1.926-1.924a3.916,3.916,0,0,1,2.807-1.142h0a4.516,4.516,0,0,1,3.173,1.335A4.271,4.271,0,0,1,1603.823,990.527Z" fill="#004b87"></path><path id="Path_9819" data-name="Path 9819" d="M1546.282,990.813h32.333a.9.9,0,1,0,0-1.8h-32.333a.9.9,0,1,0,0,1.8Z" fill="#004b87"></path><path id="Path_9820" data-name="Path 9820" d="M1546.282,997.767h24.25a.9.9,0,1,0,0-1.8h-24.25a.9.9,0,0,0,0,1.8Z" fill="#004b87"></path><path id="Path_9821" data-name="Path 9821" d="M1564.065,1002.433h-17.783a.9.9,0,1,0,0,1.8h17.783a.9.9,0,1,0,0-1.8Z" fill="#004b87"></path><path id="Path_9822" data-name="Path 9822" d="M1557.6,1008.9h-11.317a.9.9,0,0,0,0,1.8H1557.6a.9.9,0,0,0,0-1.8Z" fill="#004b87"></path></g></g></svg>