<svg xmlns="http://www.w3.org/2000/svg" width="76" height="76" viewBox="0 0 76 76"><g id="Group_4319" data-name="Group 4319" transform="translate(-1109 -2953)"><rect id="Rectangle_1822" data-name="Rectangle 1822" width="76" height="76" transform="translate(1109 2953)" fill="none"></rect><g id="Contact_us" data-name="Contact us" transform="translate(581.792 1994.667)"><path id="Path_9845" data-name="Path 9845" d="M601.422,966.333H571.634a2.078,2.078,0,0,0-2.075,2.075v25.749a2.077,2.077,0,0,0,2.075,2.075h2.725l3.513,3.957a.9.9,0,0,0,.673.3h0a.9.9,0,0,0,.674-.308l3.445-3.952h18.754a2.077,2.077,0,0,0,2.075-2.075V968.408A2.078,2.078,0,0,0,601.422,966.333Zm.275,27.824a.276.276,0,0,1-.275.275H582.259a.9.9,0,0,0-.678.308l-3.042,3.489-3.1-3.495a.9.9,0,0,0-.673-.3h-3.13a.275.275,0,0,1-.275-.275V968.408a.275.275,0,0,1,.275-.274h29.788a.275.275,0,0,1,.275.274Z" transform="translate(-0.789)" fill="#004b87"></path><path id="Path_9846" data-name="Path 9846" d="M583.654,1008.453a27.349,27.349,0,0,0-10.244-6.372,4.578,4.578,0,0,0-4.454,1.039l-3.371,3.358c-.025.015-.107.046-.1.075a38,38,0,0,1-17.927-17.6c0-.053.022-.129.017-.132l3.4-3.386a4.387,4.387,0,0,0,1.027-4.409,26.959,26.959,0,0,0-6.5-10.1c-.479-.472-.993-.94-1.574-1.43a4.788,4.788,0,0,0-4.5-.67,81.605,81.605,0,0,0-9.671,4.779,4.214,4.214,0,0,0-2.014,4.135c1.6,10.43,7.992,21.787,17.521,31.158s21.046,15.63,31.592,17.158a3.628,3.628,0,0,0,.531.038,4.32,4.32,0,0,0,3.641-2.052,80.543,80.543,0,0,0,4.779-9.6A4.5,4.5,0,0,0,585.1,1010C584.646,1009.469,584.158,1008.951,583.654,1008.453Zm.493,5.317a78.78,78.78,0,0,1-4.673,9.386,2.458,2.458,0,0,1-2.348,1.14c-10.175-1.474-21.324-7.546-30.587-16.658h0c-9.262-9.107-15.462-20.1-17.01-30.162a2.443,2.443,0,0,1,1.141-2.33,79.668,79.668,0,0,1,9.456-4.673,2.471,2.471,0,0,1,.933-.169,2.777,2.777,0,0,1,1.71.552c.542.458,1.023.894,1.469,1.334a25.192,25.192,0,0,1,6.075,9.442,2.654,2.654,0,0,1-.609,2.551l-3.4,3.385a2,2,0,0,0-.421,2.031,36.8,36.8,0,0,0,7.835,10.9,37.255,37.255,0,0,0,11.072,7.694,2.115,2.115,0,0,0,2.04-.43l3.406-3.386a2.767,2.767,0,0,1,2.578-.616,25.561,25.561,0,0,1,9.574,5.955c.471.464.927.95,1.356,1.442A2.758,2.758,0,0,1,584.147,1013.77Z" transform="translate(0 0)" fill="#004b87"></path><path id="Path_9847" data-name="Path 9847" d="M593.432,973.482H576.47a.9.9,0,0,0,0,1.8h16.962a.9.9,0,0,0,0-1.8Z" transform="translate(-0.789)" fill="#004b87"></path><path id="Path_9848" data-name="Path 9848" d="M584.118,979.855a.9.9,0,1,0,0-1.8H576.8a.9.9,0,1,0,0,1.8Z" transform="translate(-0.57 -0.126)" fill="#004b87"></path><path id="Path_9849" data-name="Path 9849" d="M588.607,982.627H576.3a.9.9,0,0,0,0,1.8h12.3a.9.9,0,0,0,0-1.8Z" transform="translate(-0.61 -0.175)" fill="#004b87"></path></g></g></svg>