<svg xmlns="http://www.w3.org/2000/svg" width="45" height="45" viewBox="0 0 45 45"><g id="Group_4285" data-name="Group 4285" transform="translate(-242 -1947)"><rect id="Rectangle_1790" data-name="Rectangle 1790" width="45" height="45" transform="translate(242 1947)" fill="none"></rect><path id="Path_9734" data-name="Path 9734" d="M125.238,246.206h0c-.854-.887-2.534-1.186-4.857-.865-4.439.617-12.1,3.72-19.082,10.434a42.2,42.2,0,0,0-9.738,13.97c-1.875,4.542-2.159,8.122-.759,9.576a4.818,4.818,0,0,0,3.527,1.114,12.514,12.514,0,0,0,1.7-.125c5.847-.813,13.293-5.1,19.921-11.475,6.044-5.812,8.583-10.839,9.648-14.032C126.852,251.036,126.715,247.743,125.238,246.206Zm-13.715,3.619.04.01a17.68,17.68,0,0,1,2.067.639l.06.021c.388.137.756.268,1.117.375.958.288,1.858.5,2.523.662.317.076.662.158.944.234a5.724,5.724,0,0,1-3.98.512c-.55-.082-2.243-.575-3.479-.934l-.195-.057c-.383-.11-.755-.218-1.1-.314C110.181,250.572,110.85,250.187,111.523,249.825Zm-9.371,6.836q.267-.254.535-.5a.6.6,0,0,0,.131.055c.828.243,2.129.774,3.277,1.241.667.273,1.243.507,1.653.657,1.074.389,2.085.7,2.823.929.381.118.8.246,1.128.359a7.385,7.385,0,0,1-4.583.071c-.628-.142-2.277-.714-3.749-1.226-.779-.27-1.523-.528-2.091-.714Q101.7,257.1,102.152,256.661ZM95.835,264.3c.816.177,2.052.528,3.1.827.564.161,1.05.3,1.376.382.972.246,1.88.423,2.543.552.308.06.665.13.959.195a5.744,5.744,0,0,1-3.954.68c-.547-.057-2.018-.4-3.34-.716-.592-.141-1.165-.275-1.636-.38C95.186,265.334,95.5,264.819,95.835,264.3Zm28.592-9.893c-1.021,3.062-3.47,7.9-9.333,13.534-9.556,9.19-17.139,10.851-19.236,11.141-1.975.275-3.531.042-4.169-.62-.808-.841-.836-3.781,1.011-8.252a34.829,34.829,0,0,1,1.554-3.246c.51.107,1.231.276,1.986.455l.077.019c1.377.324,2.8.659,3.419.723a10.3,10.3,0,0,0,2.439-.013,4.1,4.1,0,0,0,3.128-1.736.728.728,0,0,0,.045-.676c-.218-.488-.813-.6-2.255-.884-.689-.134-1.546-.3-2.475-.537-.323-.082-.819-.223-1.423-.4-.827-.234-1.828-.518-2.628-.714a43.115,43.115,0,0,1,3.763-4.687l.008,0c.53.155,1.533.5,2.594.872l.1.033c1.538.533,3.129,1.086,3.817,1.241a11.076,11.076,0,0,0,3.881.277,3.787,3.787,0,0,0,2.482-1.193.714.714,0,0,0,.143-.668c-.156-.526-.726-.7-2.416-1.225-.77-.238-1.728-.534-2.765-.911-.387-.141-.968-.377-1.609-.638-.893-.364-1.971-.8-2.826-1.1a43.688,43.688,0,0,1,4.388-3.347c.537.132,1.459.4,2.354.66,1.484.43,3.02.876,3.638.966a9.8,9.8,0,0,0,2.746.056,3.946,3.946,0,0,0,2.891-1.565.726.726,0,0,0,.074-.675c-.2-.5-.788-.638-2.22-.981-.682-.163-1.531-.366-2.445-.639-.354-.107-.725-.239-1.118-.377-.313-.112-.609-.216-.9-.313a26.468,26.468,0,0,1,7.412-2.44c1.835-.257,3.255-.069,3.8.5C125.216,247.961,125.756,250.427,124.427,254.412Z" transform="translate(156.314 1706.785)" fill="#004b87"></path></g></svg>