<svg xmlns="http://www.w3.org/2000/svg" width="76" height="76" viewBox="0 0 76 76"><g id="Group_4312" data-name="Group 4312" transform="translate(-941 -2690)"><rect id="Rectangle_1815" data-name="Rectangle 1815" width="76" height="76" transform="translate(941 2690)" fill="none"></rect><path id="Catalogs" d="M1406.033,982.086l-.706-.166c-.882-.208-1.78-.392-2.675-.568v-1.381a.9.9,0,0,0-.66-.867l-.625-.173a56.723,56.723,0,0,0-30.042-.064l-.387.106a.8.8,0,0,0-.134-.041,47.3,47.3,0,0,1-23.215-9.259l-2.48-1.885a.9.9,0,0,0-1.445.717v9.555c-1.136.236-2.275.5-3.391.807l-.862.236a.9.9,0,0,0-.663.868v1.389c-.805.157-1.612.317-2.4.5l-.976.226a.9.9,0,0,0-.7.877v52.57a.9.9,0,0,0,1.1.879l1.616-.358c12.54-2.787,23.678-3.027,33.1-.713a.918.918,0,0,0,.411.005l1.616-.359c9.514-2.115,20.653-1.634,33.1,1.42a.887.887,0,0,0,.215.027.9.9,0,0,0,.9-.9v-52.57A.9.9,0,0,0,1406.033,982.086Zm-5.181-1.431v49.432a56.7,56.7,0,0,0-28.951-.062l-.3.079V980.658l.2-.054A54.95,54.95,0,0,1,1400.852,980.655Zm-55.387-10.336,1.034.787a49.063,49.063,0,0,0,23.3,9.516v48.828a47.217,47.217,0,0,1-22.75-9.5l-1.585-1.236Zm-4.916,10.339.2-.054c.96-.261,1.938-.491,2.917-.7v39.253a.9.9,0,0,0,.347.71l1.931,1.507a48.327,48.327,0,0,0,12.171,6.883,56.721,56.721,0,0,0-17.263,1.769l-.3.079Zm31.572,52.571-1.411.313c-9.652-2.326-20.993-2.073-33.716.753l-.52.116V983.678l.278-.065c.656-.151,1.328-.281,2-.415v48.073a.9.9,0,0,0,1.128.871l1.429-.374a54.909,54.909,0,0,1,29.145.367c.016,0,.032,0,.048.007s.042.005.063.009a1,1,0,0,0,.139.02.888.888,0,0,0,.171-.028c.019,0,.038,0,.057,0l1.428-.374a54.9,54.9,0,0,1,29.146.367.888.888,0,0,0,.25.036.9.9,0,0,0,.9-.9V983.192c.757.152,1.516.3,2.263.48l.012,50.719C1392.655,1031.511,1381.623,1031.119,1372.121,1033.229Z" transform="translate(-391.673 1726.395)" fill="#004b87"></path></g></svg>