<svg xmlns="http://www.w3.org/2000/svg" width="76" height="76" viewBox="0 0 76 76"><g id="Group_4310" data-name="Group 4310" transform="translate(-552 -2690)"><rect id="Rectangle_1813" data-name="Rectangle 1813" width="76" height="76" transform="translate(552 2690)" fill="none"></rect><g id="Videos" transform="translate(-290.162 1731.634)"><path id="Path_9806" data-name="Path 9806" d="M913.482,971.366h-66.42a2.9,2.9,0,0,0-2.9,2.9v44.414a2.9,2.9,0,0,0,2.9,2.9h66.42a2.9,2.9,0,0,0,2.9-2.9V974.267A2.9,2.9,0,0,0,913.482,971.366Zm1.1,47.315a1.1,1.1,0,0,1-1.1,1.1h-66.42a1.1,1.1,0,0,1-1.1-1.1V974.267a1.1,1.1,0,0,1,1.1-1.1h66.42a1.1,1.1,0,0,1,1.1,1.1Z" fill="#004b87"></path><path id="Path_9807" data-name="Path 9807" d="M892.315,995.63l-17.7-10.851a.9.9,0,0,0-1.37.776l.191,22.006a.9.9,0,0,0,1.383.751l17.509-11.156a.9.9,0,0,0-.013-1.526Zm-17.093,10.291-.163-18.758,15.087,9.249Z" fill="#004b87"></path></g></g></svg>