<svg xmlns="http://www.w3.org/2000/svg" width="45" height="45" viewBox="0 0 45 45"><g id="Group_4290" data-name="Group 4290" transform="translate(-683 -1947)"><rect id="Rectangle_1795" data-name="Rectangle 1795" width="45" height="45" transform="translate(683 1947)" fill="none"></rect><path id="Vegetables_icon" data-name="Vegetables icon" d="M231.064,255.8h0a.836.836,0,0,0-.758-.6,38.746,38.746,0,0,1-4.754-.539,28.748,28.748,0,0,0,4.133-5.486.693.693,0,0,0-.022-.719.681.681,0,0,0-.646-.311,13.484,13.484,0,0,0-6.67,2.5,7.15,7.15,0,0,0-1.617-5.165.9.9,0,0,0-.768-.291.861.861,0,0,0-.659.467,20.42,20.42,0,0,0-2.13,7.494l-.1-.028a5.764,5.764,0,0,0-6.545,2.189L196.1,277.553a1.823,1.823,0,0,0-.193,1.672,1.957,1.957,0,0,0,1.284,1.172,1.828,1.828,0,0,0,.485.066,1.866,1.866,0,0,0,1.066-.343l21.819-15.056a5.363,5.363,0,0,0,2.288-4.057,6.638,6.638,0,0,0-.244-2.385,10.01,10.01,0,0,0,8.161-1.9A.841.841,0,0,0,231.064,255.8Zm-9.468,5.1a4.124,4.124,0,0,1-1.748,3.123l-21.819,15.056a.571.571,0,0,1-.5.1.684.684,0,0,1-.442-.4.57.57,0,0,1,.073-.538l6.915-10.66a4.764,4.764,0,0,1,1.43,1.508.618.618,0,0,0,.372.284.625.625,0,0,0,.492-.064.631.631,0,0,0,.22-.863,6.052,6.052,0,0,0-1.827-1.922l1.082-1.667a7.191,7.191,0,0,1,2.3,2.23.619.619,0,0,0,.369.28.643.643,0,0,0,.5-.068.633.633,0,0,0,.211-.866,8.316,8.316,0,0,0-2.685-2.637l1.333-2.055a.615.615,0,0,0,.315.242c1.5.471,3.406,2.766,3.713,3.345a.633.633,0,0,0,.228.383.625.625,0,0,0,.226.117.677.677,0,0,0,.167.022.628.628,0,0,0,.492-.237.671.671,0,0,0,.11-.626c-.189-.62-2.519-3.566-4.557-4.206h0c-.021-.007-.042,0-.063-.007l3.1-4.772a4.521,4.521,0,0,1,5.151-1.658,6.694,6.694,0,0,1,2.865,1.671A6.257,6.257,0,0,1,221.6,260.9Zm.426-3.74a8.191,8.191,0,0,0-3.607-3.52,18.311,18.311,0,0,1,1.738-6.851,7.006,7.006,0,0,1,.773,5.119.753.753,0,0,0,1.331.613c1.485-1.9,4.193-2.66,5.719-2.95a29.857,29.857,0,0,1-3.845,4.741.836.836,0,0,0-.219.813.869.869,0,0,0,.6.6,29.408,29.408,0,0,0,4.5.656A8.956,8.956,0,0,1,222.022,257.163Z" transform="translate(492.211 1706.813)" fill="#004b87"></path></g></svg>