<svg xmlns="http://www.w3.org/2000/svg" width="76" height="76" viewBox="0 0 76 76"><g id="Group_4317" data-name="Group 4317" transform="translate(-626 -2953)"><rect id="Rectangle_1820" data-name="Rectangle 1820" width="76" height="76" transform="translate(626 2953)" fill="none"></rect><g id="Press_release" data-name="Press release" transform="translate(-999.119 1984.548)"><path id="Path_9823" data-name="Path 9823" d="M1688.4,996.295a.9.9,0,0,0-1.559.9c4.407,7.648,5.515,14.31,2.755,16.578-1.743,1.437-5.049,1.01-9.07-1.164A52.282,52.282,0,0,1,1658.8,986.2c-1.358-4.364-1.136-7.69.608-9.124,2.779-2.289,9.4.269,16.1,6.223a.9.9,0,0,0,1.195-1.346c-7.6-6.764-14.845-9.224-18.437-6.267a6.508,6.508,0,0,0-2.109,4.916.874.874,0,0,0-.1.37,35.76,35.76,0,0,1-11.209,24.832c-.009.008-.011.019-.019.028s-.031.011-.043.022l-7.1,6.08a10.245,10.245,0,0,0,13.332,15.56l1.846-1.581a31.95,31.95,0,0,0,13.361,11.721l.732.361a.882.882,0,0,0,.4.094.9.9,0,0,0,.675-.306l4.108-4.661a.9.9,0,0,0-.288-1.407l-.349-.167a30.443,30.443,0,0,1-12.58-10.638,36.766,36.766,0,0,1,25.5-4.813,10.626,10.626,0,0,0,2.47.313,5.874,5.874,0,0,0,3.839-1.248C1694.306,1012.225,1693.41,1004.995,1688.4,996.295Zm-38.541,29.832a8.445,8.445,0,1,1-10.989-12.826l6.207-5.319a35.039,35.039,0,0,0,10.991,12.826Zm20.159,6.692-2.87,3.257-.113-.055a30.219,30.219,0,0,1-12.782-11.283l0,0,3.228-2.765A31.92,31.92,0,0,0,1670.013,1032.819Zm-12.391-13.227-.072.045a33.166,33.166,0,0,1-11.076-12.918,37.991,37.991,0,0,0,10.712-19.687,49.058,49.058,0,0,0,8.865,15.34,49.776,49.776,0,0,0,12.868,11.384A38.531,38.531,0,0,0,1657.622,1019.592Z" fill="#004b87"></path><path id="Path_9824" data-name="Path 9824" d="M1677,985.4l-9.54,3.69a.9.9,0,0,0,.648,1.68l7.713-2.983a10.844,10.844,0,0,0,6.77,7.914l-4.073,7.153a.9.9,0,0,0,1.565.89l4.9-8.6c1.36-1.468.154-4.465-1.825-6.761-1.847-2.145-4.4-3.712-6.075-2.993C1677.058,985.391,1677.03,985.387,1677,985.4Zm4.795,4.155c1.739,2.017,2.1,3.736,1.921,4.254a.851.851,0,0,0-.136.156h0c-.433.191-2.164-.373-4-2.5-1.922-2.231-2.173-4.113-1.853-4.389a.4.4,0,0,1,.26-.067C1678.631,987,1680.18,987.673,1681.8,989.552Z" fill="#004b87"></path></g></g></svg>