<svg xmlns="http://www.w3.org/2000/svg" width="76" height="76" viewBox="0 0 76 76"><g id="Group_4311" data-name="Group 4311" transform="translate(-743 -2690)"><rect id="Rectangle_1814" data-name="Rectangle 1814" width="76" height="76" transform="translate(743 2690)" fill="none"></rect><g id="Gallery" transform="translate(-205.334 1726.375)"><path id="Path_9803" data-name="Path 9803" d="M1016.02,978.2l-6.637-.545V973.64a3.019,3.019,0,0,0-3.015-3.015h-49.02a3.018,3.018,0,0,0-3.014,3.015v49.02a3.018,3.018,0,0,0,3.014,3.015h2.784a3.22,3.22,0,0,0,2.952,3.413l48.428,3.978c.091.008.18.012.27.012a3.229,3.229,0,0,0,3.213-2.966l3.979-48.425A3.235,3.235,0,0,0,1016.02,978.2Zm-59.886,44.457V973.64a1.215,1.215,0,0,1,1.214-1.214h49.02a1.215,1.215,0,0,1,1.214,1.214v49.02a1.215,1.215,0,0,1-1.214,1.214h-49.02A1.215,1.215,0,0,1,956.134,1022.66Zm57.067,7.3a1.42,1.42,0,0,1-.5.973,1.384,1.384,0,0,1-1.041.334l-48.428-3.979a1.427,1.427,0,0,1-1.306-1.541c0-.027-.009-.051-.009-.077h44.452a3.019,3.019,0,0,0,3.015-3.015V979.465l6.489.532a1.432,1.432,0,0,1,1.307,1.542Z" fill="#004b87"></path><path id="Path_9804" data-name="Path 9804" d="M993.187,1000.383a4.235,4.235,0,0,0-5.986,0l-7.359,7.358a.857.857,0,0,0-.072.109l-3.255-3.254a4.239,4.239,0,0,0-5.985,0l-7.359,7.359a.9.9,0,0,0,1.273,1.274l7.359-7.36a2.435,2.435,0,0,1,3.44,0l7.359,7.36a.9.9,0,0,0,1.273-1.274l-2.869-2.869a.748.748,0,0,0,.108-.071l7.36-7.359a2.489,2.489,0,0,1,3.439,0l7.358,7.359a.9.9,0,0,0,1.274-1.274Z" fill="#004b87"></path><path id="Path_9805" data-name="Path 9805" d="M968.3,991.6a5.389,5.389,0,1,0-5.388-5.389A5.395,5.395,0,0,0,968.3,991.6Zm0-8.977a3.588,3.588,0,1,1-3.588,3.588A3.592,3.592,0,0,1,968.3,982.624Z" fill="#004b87"></path></g></g></svg>