<svg xmlns="http://www.w3.org/2000/svg" width="45" height="45" viewBox="0 0 45 45"><g id="Group_4295" data-name="Group 4295" transform="translate(-242 -2047)"><rect id="Rectangle_1800" data-name="Rectangle 1800" width="45" height="45" transform="translate(242 2047)" fill="none"></rect><g id="Marble_and_Ceramic_icon" data-name="Marble and Ceramic icon" transform="translate(-391.156 1807.663)"><path id="Path_9722" data-name="Path 9722" d="M674.986,261.453h0l-15.411-15.412a2.043,2.043,0,0,0-2.733,0l-1.115,1.116-1.355-1.355a1.6,1.6,0,0,0-2.256,0l-15.889,15.889a1.6,1.6,0,0,0,0,2.256l15.889,15.888a1.593,1.593,0,0,0,2.256,0l1.354-1.354,1.116,1.116a1.915,1.915,0,0,0,1.362.564h0a1.918,1.918,0,0,0,1.367-.564l15.411-15.412a1.93,1.93,0,0,0,0-2.733Zm-21.51,17.487a.33.33,0,0,1-.463,0l-15.889-15.889a.317.317,0,0,1-.1-.231.325.325,0,0,1,.1-.231L653.013,246.7a.327.327,0,0,1,.462,0l15.889,15.889a.324.324,0,0,1,.095.231.32.32,0,0,1-.095.231Zm20.614-15.651L658.678,278.7a.667.667,0,0,1-.939,0l-1.116-1.117,13.638-13.637a1.6,1.6,0,0,0,0-2.256l-13.637-13.638,1.116-1.115a.66.66,0,0,1,.467-.186h0a.665.665,0,0,1,.47.186l15.411,15.411a.664.664,0,0,1,0,.939Z" fill="#004b87"></path><path id="Path_9723" data-name="Path 9723" d="M664.751,258.7a.635.635,0,0,0-.634-.635h0a.63.63,0,0,0-.448.186l-3.676,3.675-5.852-5.851,3.676-3.676a.635.635,0,0,0-.9-.9l-3.676,3.677-3.677-3.678a.635.635,0,1,0-.9.9l3.676,3.676-5.852,5.851-3.676-3.675a.63.63,0,0,0-.449-.186h0a.634.634,0,0,0-.448,1.083l3.676,3.676-3.676,3.675a.635.635,0,0,0,.9.9l3.676-3.676,5.852,5.852-3.677,3.675a.638.638,0,0,0,0,.9.649.649,0,0,0,.9,0l3.676-3.676,3.676,3.676a.636.636,0,0,0,.9,0,.637.637,0,0,0,0-.9l-3.676-3.675,5.852-5.852,3.676,3.676a.635.635,0,0,0,.9-.9l-3.676-3.675,3.676-3.676A.629.629,0,0,0,664.751,258.7Zm-11.507,9.976-5.852-5.852,5.852-5.853,5.852,5.853Z" fill="#004b87"></path></g></g></svg>