<svg xmlns="http://www.w3.org/2000/svg" width="92" height="92" viewBox="0 0 92 92"><g id="Group_4271" data-name="Group 4271" transform="translate(-890 -864)"><rect id="Rectangle_1773" data-name="Rectangle 1773" width="92" height="92" transform="translate(890 864)" fill="none"></rect><g id="Group_4252" data-name="Group 4252" transform="translate(-546.794 738.338)"><path id="Path_9671" data-name="Path 9671" d="M1502.07,164.125a.755.755,0,0,0-1.066-.048l-3.251,2.975a6.225,6.225,0,0,1-4.214,1.636h0l-8.708-.011-11.558.011h-.006a6.225,6.225,0,0,1-4.215-1.636l-3.253-2.975a.754.754,0,0,0-1.018,1.113l3.253,2.974a7.729,7.729,0,0,0,5.233,2.031h.007l11.557-.012,8.707.012h.006a7.731,7.731,0,0,0,5.233-2.031l3.251-2.974A.755.755,0,0,0,1502.07,164.125Z" fill="#004b87"></path><path id="Path_9672" data-name="Path 9672" d="M1513.923,184.456h-12.509v-1.579a3.993,3.993,0,0,1,3.4-3.931l9.217-1.269a.753.753,0,0,0-.206-1.492l-9.223,1.268a5.513,5.513,0,0,0-4.691,5.424v2.332a.753.753,0,0,0,.754.754h13.263a.754.754,0,0,0,0-1.507Z" fill="#004b87"></path><path id="Path_9673" data-name="Path 9673" d="M1461.362,177.453l-9.219-1.268a.768.768,0,0,0-.849.643.753.753,0,0,0,.643.849l9.213,1.269a3.993,3.993,0,0,1,3.4,3.931v1.579H1452.04a.754.754,0,0,0,0,1.507H1465.3a.753.753,0,0,0,.753-.754v-2.332A5.512,5.512,0,0,0,1461.362,177.453Z" fill="#004b87"></path><path id="Path_9674" data-name="Path 9674" d="M1523.277,158.531h-7.9l-7.086-13.566a8.38,8.38,0,0,0-6.646-3.3h-37.329a8.4,8.4,0,0,0-6.714,3.409l-7.02,13.46h-7.9a2.894,2.894,0,0,0-2.892,2.892v4.337a2.86,2.86,0,0,0,.882,2.076l3.463,3.761v22.509a7.464,7.464,0,1,0,14.928,0v-.065h47.827v.065a7.465,7.465,0,0,0,14.93,0V171.6l3.42-3.719a2.893,2.893,0,0,0,.924-2.117v-4.337A2.893,2.893,0,0,0,1523.277,158.531Zm1.384,7.229a1.438,1.438,0,0,1-.484,1.055l-3.661,3.976a.759.759,0,0,0-.2.511v22.8a5.958,5.958,0,0,1-11.916,0v-.065h5.522a.754.754,0,0,0,0-1.507H1452.04a.754.754,0,0,0,0,1.507h5.521v.065a5.958,5.958,0,0,1-11.915,0V171.3a.646.646,0,0,0-.022-.106.734.734,0,0,0-.033-.167.665.665,0,0,0-.084-.138.68.68,0,0,0-.06-.1l-3.7-4.017a1.4,1.4,0,0,1-.442-1.014v-4.337a1.386,1.386,0,0,1,1.385-1.385h8.354a.75.75,0,0,0,.667-.4l7.165-13.759a6.867,6.867,0,0,1,5.445-2.7h37.329a6.853,6.853,0,0,1,5.377,2.6l7.231,13.865a.752.752,0,0,0,.668.4h8.355a1.386,1.386,0,0,1,1.384,1.385Z" fill="#004b87"></path><path id="Path_9675" data-name="Path 9675" d="M1488.266,184.456H1477.7a.754.754,0,0,0,0,1.507h10.569a.754.754,0,0,0,0-1.507Z" fill="#004b87"></path><path id="Path_9676" data-name="Path 9676" d="M1457.359,158.11H1508.6a.753.753,0,0,0,.668-1.1l-4.862-9.322a.8.8,0,0,0-.12-.168,3.647,3.647,0,0,0-2.644-1.145h-37.329a3.65,3.65,0,0,0-2.645,1.145.787.787,0,0,0-.119.168l-4.862,9.322a.753.753,0,0,0,.668,1.1Zm5.479-9.628a2.132,2.132,0,0,1,1.479-.6h37.329a2.132,2.132,0,0,1,1.479.6l4.235,8.121H1458.6Z" fill="#004b87"></path></g></g></svg>