<svg xmlns="http://www.w3.org/2000/svg" width="92" height="92" viewBox="0 0 92 92"><g id="Group_4265" data-name="Group 4265" transform="translate(-890 -538)"><rect id="Rectangle_1769" data-name="Rectangle 1769" width="92" height="92" transform="translate(890 538)" fill="none"></rect><g id="Snacks" transform="translate(7.505 417.091)"><path id="Path_9663" data-name="Path 9663" d="M917.059,155.472a16.493,16.493,0,1,0,11.647-4.815A16.49,16.49,0,0,0,917.059,155.472ZM943.7,167.119a14.983,14.983,0,1,1-4.389-10.609A14.905,14.905,0,0,1,943.7,167.119Z" transform="translate(-0.21 -0.21)" fill="#004b87"></path><path id="Path_9664" data-name="Path 9664" d="M924.557,156.028c-1.928-.636-4.473.766-6.055,3.337a7.5,7.5,0,0,0,.983,9.581c2.331,2.33,4.787,3.24,7.514,2.776l.08-.013.045.067a8.465,8.465,0,0,0,3.286,3.053,7.885,7.885,0,0,0,3,.59,6.509,6.509,0,0,0,5.49-2.6c.95-1.534.52-3.268-1.178-4.754h0a5.7,5.7,0,0,0-2.759-1.013,6.582,6.582,0,0,1-4.1-1.9,13.79,13.79,0,0,1-2.04-3.795,12.5,12.5,0,0,0-2.35-4.138A4.763,4.763,0,0,0,924.557,156.028Zm12.193,13.135.006.007c1.511,1.335,1.174,2.439.838,2.978-1.026,1.655-4.247,2.3-6.629,1.325a4.442,4.442,0,0,1-1.382-1,9.907,9.907,0,0,1-.881-1.021l-.105-.136.162-.057a25.389,25.389,0,0,0,2.951-1.319l.448-.229C933.7,168.922,935.438,168.029,936.75,169.163Zm-7-3.053a6.663,6.663,0,0,0,2.492,1.705l.261.109-.257.119c-.38.176-.759.367-1.137.556l-.061.031c-3.212,1.611-6.531,3.277-10.529-.721a6.09,6.09,0,0,1-.771-7.777c1.21-1.964,3.078-3.128,4.348-2.71,1.728.57,2.526,2.482,3.371,4.505A15.043,15.043,0,0,0,929.753,166.11Z" transform="translate(-0.208 -0.202)" fill="#004b87"></path><path id="Path_9665" data-name="Path 9665" d="M974.459,162.032l-41.087-41.086a.123.123,0,0,0-.175,0l-1,.992c-1.167,1.155-2.323,2.3-2.544,2.551a5.583,5.583,0,0,0-.931,1.773c-.059.155-.117.308-.178.457-4.22,10.392-10.868,17.563-16.768,23.47s-13.047,12.536-23.469,16.767c-.136.056-.274.109-.414.161l-.045.018a5.6,5.6,0,0,0-1.771.93c-.265.236-1.642,1.625-2.552,2.544l-.992,1a.124.124,0,0,0,0,.176l41.087,41.086a.121.121,0,0,0,.088.036.119.119,0,0,0,.088-.036l1-.992c1.194-1.181,2.326-2.306,2.544-2.551a5.565,5.565,0,0,0,.932-1.773l-.116-.045.126.017c.056-.144.11-.288.168-.428,3.806-9.373,9.456-16.161,16.768-23.469,5.905-5.9,13.074-12.549,23.47-16.768.125-.052.253-.1.382-.151l.075-.028a5.569,5.569,0,0,0,1.771-.931c.266-.236,1.642-1.625,2.552-2.544l.992-1A.125.125,0,0,0,974.459,162.032ZM923.708,210.9l-39.2-39.2,2.41-2.411,39.2,39.2Zm44.861-45.559c-8.341,3.28-15.9,8.586-24.509,17.2-8.58,8.589-13.865,16.126-17.136,24.439l-.069.177L888.247,168.55l.177-.07c8.315-3.272,15.853-8.556,24.44-17.135,8.618-8.611,13.923-16.169,17.2-24.509l.069-.176,38.61,38.607Zm1.5-.805-39.2-39.2,2.41-2.411,39.2,39.2Z" transform="translate(0 0)" fill="#004b87"></path></g></g></svg>