<svg xmlns="http://www.w3.org/2000/svg" width="92" height="92" viewBox="0 0 92 92"><g id="Group_4272" data-name="Group 4272" transform="translate(-1220 -864)"><rect id="Rectangle_1774" data-name="Rectangle 1774" width="92" height="92" transform="translate(1220 864)" fill="none"></rect><g id="Group_4253" data-name="Group 4253" transform="translate(-327.118 744.865)"><path id="Path_9677" data-name="Path 9677" d="M1630.036,177.217l-7.427-21.349a5.853,5.853,0,0,0-7.454-3.606,5.744,5.744,0,0,0-2.375,1.575,5.809,5.809,0,0,0-5.341-.763,5.726,5.726,0,0,0-2.433,1.668,5.822,5.822,0,0,0-5.253-.707,5.7,5.7,0,0,0-1.615.891l-3.246-9.039a5.854,5.854,0,1,0-11.02,3.957l8.8,24.514-2.567-2.156a5.854,5.854,0,1,0-7.531,8.964l20.011,16.811a4.634,4.634,0,0,0,.459.328l.039.022a17.459,17.459,0,0,0,10.834,3.743,17.682,17.682,0,0,0,17.663-17.662A17.478,17.478,0,0,0,1630.036,177.217Zm-16.117,23.253a15.941,15.941,0,0,1-9.9-3.441l-.1-.066a2.837,2.837,0,0,1-.3-.212L1583.6,179.942a4.255,4.255,0,0,1,5.473-6.516l4.836,4.063a.8.8,0,0,0,1.267-.883l-9.8-27.3a4.255,4.255,0,1,1,8.009-2.875l3.667,10.211a.8.8,0,0,0,.619.519.812.812,0,0,0,.755-.286,4.171,4.171,0,0,1,1.861-1.33,4.249,4.249,0,0,1,4.318.925.8.8,0,0,0,1.221-.153,4.2,4.2,0,0,1,6.517-.761.791.791,0,0,0,.641.221.809.809,0,0,0,.58-.35,4.24,4.24,0,0,1,7.532.97l7.439,21.382a.51.51,0,0,0,.026.065,15.894,15.894,0,0,1,1.42,6.567A16.081,16.081,0,0,1,1613.919,200.47Z" fill="#004b87"></path><path id="Path_9678" data-name="Path 9678" d="M1571.131,141.463H1557.81l3.179-3.179a.8.8,0,0,0-1.131-1.131l-4.505,4.505a.8.8,0,0,0,0,1.13l4.505,4.505a.8.8,0,0,0,1.131-1.131l-3.1-3.1h13.241a.8.8,0,1,0,0-1.6Z" fill="#004b87"></path><path id="Path_9679" data-name="Path 9679" d="M1604.988,142.983h13.322l-3.179,3.179a.8.8,0,1,0,1.131,1.131l4.5-4.505a.8.8,0,0,0,0-1.13l-4.5-4.505a.8.8,0,0,0-1.131,1.131l3.1,3.1h-13.242a.8.8,0,1,0,0,1.6Z" fill="#004b87"></path><path id="Path_9680" data-name="Path 9680" d="M1582.717,154.287a.8.8,0,0,0,.333-1.527,11.531,11.531,0,1,1,14.782-4.715.8.8,0,0,0,1.385.8,13.138,13.138,0,0,0-10.986-19.707,13.135,13.135,0,0,0-5.847,25.074A.806.806,0,0,0,1582.717,154.287Z" fill="#004b87"></path></g></g></svg>