<svg xmlns="http://www.w3.org/2000/svg" width="76" height="76" viewBox="0 0 76 76"><g id="Group_4316" data-name="Group 4316" transform="translate(-446 -2953)"><rect id="Rectangle_1819" data-name="Rectangle 1819" width="76" height="76" transform="translate(446 2953)" fill="none"></rect><g id="Events" transform="translate(-1277.339 1986.299)"><path id="Path_9825" data-name="Path 9825" d="M1766.033,1001.392a6.922,6.922,0,0,0-4.99,2.807,7.058,7.058,0,0,0-5.028-2.807,6.187,6.187,0,0,0-5.779,4.189,7.946,7.946,0,0,0,2.261,8.758l8.094,7.794a.9.9,0,0,0,1.255-.007l7.926-7.794a8.04,8.04,0,0,0,2.07-8.876A6.263,6.263,0,0,0,1766.033,1001.392Zm2.478,11.657-7.3,7.18-7.484-7.208a6.083,6.083,0,0,1-1.807-6.794,4.424,4.424,0,0,1,4.1-3.035c1.443,0,3.384,1.4,4.239,3.059a.9.9,0,0,0,1.606-.013c.8-1.623,2.753-3.046,4.173-3.046a4.494,4.494,0,0,1,4.143,2.946A6.27,6.27,0,0,1,1768.511,1013.049Z" fill="#004b87"></path><path id="Path_9826" data-name="Path 9826" d="M1782.658,979.433h-3.743V976.6a.9.9,0,1,0-1.8,0v2.832h-9.5V976.6a.9.9,0,1,0-1.8,0v2.832h-9.5V976.6a.9.9,0,1,0-1.8,0v2.832h-9.5V976.6a.9.9,0,1,0-1.8,0v2.832h-3.743a7.146,7.146,0,0,0-7.137,7.137v39.015a7.146,7.146,0,0,0,7.137,7.138h43.182a7.146,7.146,0,0,0,7.138-7.138V986.57A7.146,7.146,0,0,0,1782.658,979.433Zm-43.182,1.8h3.743v3.158a.8.8,0,0,0,.033.162,2.1,2.1,0,1,0,1.735,0,.886.886,0,0,0,.033-.162v-3.158h9.5v3.158a.8.8,0,0,0,.033.162,2.1,2.1,0,1,0,1.734,0,.8.8,0,0,0,.033-.162v-3.158h9.5v3.158a.876.876,0,0,0,.033.162,2.1,2.1,0,1,0,1.735,0,.8.8,0,0,0,.033-.162v-3.158h9.5v3.158a.876.876,0,0,0,.033.162,2.1,2.1,0,1,0,1.735,0,.8.8,0,0,0,.033-.162v-3.158h3.743a5.342,5.342,0,0,1,5.337,5.337v4.786H1734.14V986.57A5.342,5.342,0,0,1,1739.476,981.233Zm4.643,4.928a.3.3,0,1,1-.3.3A.3.3,0,0,1,1744.119,986.161Zm11.3,0a.3.3,0,1,1-.3.3A.3.3,0,0,1,1755.418,986.161Zm11.3,0a.3.3,0,1,1-.3.3A.3.3,0,0,1,1766.717,986.161Zm11.3,0a.3.3,0,1,1-.3.3A.3.3,0,0,1,1778.015,986.161Zm4.643,44.761h-43.182a5.342,5.342,0,0,1-5.336-5.337V993.157h53.855v32.428A5.342,5.342,0,0,1,1782.658,1030.922Z" fill="#004b87"></path></g></g></svg>