<svg xmlns="http://www.w3.org/2000/svg" width="76" height="76" viewBox="0 0 76 76"><g id="Group_4321" data-name="Group 4321" transform="translate(-1487 -2953)"><rect id="Rectangle_1824" data-name="Rectangle 1824" width="76" height="76" transform="translate(1487 2953)" fill="none"></rect><g id="FAQ" transform="translate(763.725 1996.398)"><path id="Path_9835" data-name="Path 9835" d="M752.447,971.907a6.378,6.378,0,0,0-6.831,3.319.9.9,0,0,0,1.577.867A4.581,4.581,0,0,1,752,973.65c1.312.337,2.034,1.505,2.034,3.288,0,1.334-.692,1.97-1.915,2.979-1.3,1.072-2.918,2.407-2.918,5.267a.9.9,0,1,0,1.8,0c0-2.011,1.05-2.876,2.265-3.879s2.569-2.119,2.569-4.367C755.834,974.332,754.568,972.451,752.447,971.907Z" fill="#004b87"></path><path id="Path_9836" data-name="Path 9836" d="M750.192,989.815a.886.886,0,0,0-.991.8,6.934,6.934,0,0,0-.04.753.9.9,0,1,0,1.8,0,5.224,5.224,0,0,1,.029-.559A.9.9,0,0,0,750.192,989.815Z" fill="#004b87"></path><path id="Path_9837" data-name="Path 9837" d="M779.36,992.313a.9.9,0,0,0-.993.795l-1.384,12.467a.9.9,0,0,0,.8.994.846.846,0,0,0,.1.006.9.9,0,0,0,.893-.8l1.384-12.466A.9.9,0,0,0,779.36,992.313Z" fill="#004b87"></path><path id="Path_9838" data-name="Path 9838" d="M777.678,1010.3a.9.9,0,0,0-1.037.737,6.974,6.974,0,0,0-.086.747.9.9,0,0,0,.843.954l.057,0a.9.9,0,0,0,.9-.845,5.166,5.166,0,0,1,.064-.557A.9.9,0,0,0,777.678,1010.3Z" fill="#004b87"></path><path id="Path_9839" data-name="Path 9839" d="M772.433,981.175a.887.887,0,0,0-.668.31c-.352-11.02-9.963-19.884-21.736-19.884-11.995,0-21.754,9.2-21.754,20.507s9.759,20.509,21.754,20.509c.233,0,.465-.017.7-.024a19.768,19.768,0,0,0,6.317,13.585l.04,9.552c0,.014.007.026.008.039a.944.944,0,0,0,.035.173,1,1,0,0,0,.053.174c.006.012.005.025.011.037a.914.914,0,0,0,.154.207l.025.019a.9.9,0,0,0,.229.154.828.828,0,0,0,.077.032.886.886,0,0,0,.306.061h.006a.887.887,0,0,0,.388-.1c.011-.005.023,0,.034-.008,4.045-2.176,5.513-3.1,7.7-5.21a22.98,22.98,0,0,0,6.328.882c11.995,0,21.754-9.2,21.754-20.508S784.428,981.175,772.433,981.175Zm-42.358.933c0-10.315,8.951-18.707,19.954-18.707s19.953,8.392,19.953,18.707a18.017,18.017,0,0,1-6.068,13.435.9.9,0,0,0-.295.662l-.036,8.438a23.281,23.281,0,0,1-6.341-4.562.9.9,0,0,0-.635-.262.919.919,0,0,0-.268.041,21.1,21.1,0,0,1-6.31.956C739.026,1000.816,730.075,992.424,730.075,982.108Zm42.358,38.284a21.172,21.172,0,0,1-6.311-.956.9.9,0,0,0-.9.22,23.271,23.271,0,0,1-6.342,4.561l-.035-8.438a.9.9,0,0,0-.294-.662,18.026,18.026,0,0,1-6.027-12.647,22.7,22.7,0,0,0,3.835-.736c2.181,2.114,3.65,3.034,7.7,5.21a.9.9,0,0,0,1.326-.789l.04-9.551a19.765,19.765,0,0,0,6.337-13.955.887.887,0,0,0,.679.327c11,0,19.954,8.392,19.954,18.708S783.435,1020.392,772.433,1020.392Z" fill="#004b87"></path><path id="Path_9840" data-name="Path 9840" d="M772.11,1010.3a.9.9,0,0,0-1.039.734,6.981,6.981,0,0,0-.086.749.9.9,0,0,0,.843.954l.056,0a.9.9,0,0,0,.9-.845,4.7,4.7,0,0,1,.064-.555A.9.9,0,0,0,772.11,1010.3Z" fill="#004b87"></path><path id="Path_9841" data-name="Path 9841" d="M766.54,1010.3a.9.9,0,0,0-1.039.734,7,7,0,0,0-.086.749.9.9,0,0,0,.842.954l.057,0a.9.9,0,0,0,.9-.845,5.156,5.156,0,0,1,.064-.555A.9.9,0,0,0,766.54,1010.3Z" fill="#004b87"></path></g></g></svg>