<svg xmlns="http://www.w3.org/2000/svg" width="45" height="45" viewBox="0 0 45 45"><g id="Group_4287" data-name="Group 4287" transform="translate(-418 -1947)"><rect id="Rectangle_1792" data-name="Rectangle 1792" width="45" height="45" transform="translate(418 1947)" fill="none"></rect><g id="Poultry_icon" data-name="Poultry icon" transform="translate(179.459 1706.745)"><path id="Path_9694" data-name="Path 9694" d="M278.5,250.571a3.81,3.81,0,0,0-1-1.981,2.1,2.1,0,0,0-1.688-.69,2.354,2.354,0,0,0-.661-1.512,3.632,3.632,0,0,0-2.554-1.13,3.543,3.543,0,0,0-2.6,1.007,3.651,3.651,0,0,0-.666,4.426l-2.607,2.383a80.7,80.7,0,0,0-15.175,5.425l-.46.229.145.495a3.891,3.891,0,0,1-3.518,5.009l-.417.023-.131.4a3.241,3.241,0,0,1-2.933,2.236,3.33,3.33,0,0,1-.656-.032l-.54-.082-.144.526a10.1,10.1,0,0,0-.217,4.453,10.538,10.538,0,0,0,4.487,6.894,10.209,10.209,0,0,0,5.73,1.744,10.85,10.85,0,0,0,2.295-.248,12.8,12.8,0,0,0,3.229-1.14c10.015-5.887,11.9-20.546,12.09-22.187a.668.668,0,0,0,.156-.165l2.24-2.053a3.828,3.828,0,0,0,5.6-4.027Zm-9.722,1.981,0,0h-.01Zm-1.427,1.293Zm1.951,2.7a.815.815,0,0,0-.022.12c-.176,1.59-1.987,15.691-11.472,21.267a11.76,11.76,0,0,1-2.881,1.006,9.1,9.1,0,0,1-7.079-1.314,9.308,9.308,0,0,1-3.964-6.087,8.883,8.883,0,0,1,.07-3.423c.115,0,.228,0,.34,0a4.438,4.438,0,0,0,3.892-2.7,5.139,5.139,0,0,0,4.43-5.347,5,5,0,0,0-.083-.689,80.387,80.387,0,0,1,14.482-5.116.854.854,0,0,0,.083-.027.658.658,0,0,0,.373-.174l.5-.355.166.989a1.371,1.371,0,0,0,.808,1.094l.51.3A.61.61,0,0,0,269.3,256.55Zm7.224-3.433a2.6,2.6,0,0,1-3.329.217l-.406-.3-2.389,2.188a.5.5,0,0,0-.078-.041l-.792-.469-.074-.035a.181.181,0,0,1-.105-.157l-.319-1.9,1.932-1.773-.355-.448a2.409,2.409,0,0,1,.23-3.252,2.31,2.31,0,0,1,1.729-.668,2.4,2.4,0,0,1,1.7.75,1.26,1.26,0,0,1,.254,1.275l-.7,1.733,1.6-.981a.934.934,0,0,1,1.2.175A2.607,2.607,0,0,1,276.525,253.117Z" fill="#004b87"></path><path id="Path_9695" data-name="Path 9695" d="M266.748,261.946a.615.615,0,0,0-.77.4c-3.807,12.188-11.265,14.508-11.34,14.53a.62.62,0,0,0-.368.294.606.606,0,0,0-.052.465.612.612,0,0,0,.589.446.58.58,0,0,0,.169-.024c.331-.094,8.148-2.459,12.175-15.345a.63.63,0,0,0,.019-.289A.61.61,0,0,0,266.748,261.946Z" fill="#004b87"></path></g></g></svg>