<svg xmlns="http://www.w3.org/2000/svg" width="92" height="92" viewBox="0 0 92 92"><g id="Group_4270" data-name="Group 4270" transform="translate(-561 -864)"><rect id="Rectangle_1772" data-name="Rectangle 1772" width="92" height="92" transform="translate(561 864)" fill="none"></rect><g id="Group_4251" data-name="Group 4251" transform="translate(-758.573 743.977)"><path id="Path_9666" data-name="Path 9666" d="M1399.289,178.926l-6.2-11.318,5.326-2.932-17.25-4.365-5.529,16.909,6.384-3.516,5.2,9.427h-15.429v12.637h13.032c.64.041,1.265.063,1.865.063q.951,0,1.822-.069h.039c.023,0,.045-.006.069-.007a12.3,12.3,0,0,0,2.69-.411c.023,0,.049-.008.071-.014l.02-.005.009,0h0a11.5,11.5,0,0,0,7.292-5.03l.017-.025q.294-.411.539-.828l.307-.472h-.045A10.709,10.709,0,0,0,1399.289,178.926Zm-14.474,15.128H1373.5v-9.209h14.66l.15.273a7.766,7.766,0,0,1-.826,7.017A3.656,3.656,0,0,1,1384.815,194.054Zm12.463-4.737-.164.225v.023a9.88,9.88,0,0,1-6.144,4.1h0a16.193,16.193,0,0,1-2.563.39l-.267.02a8.079,8.079,0,0,0,.768-.988,9.516,9.516,0,0,0,.961-8.671l-.455-.837-.018-.032-6.706-12.167-4.078,2.246,3.681-11.257,11.482,2.906-3.016,1.661,7.026,12.818A8.9,8.9,0,0,1,1397.278,189.317Z" fill="#004b87"></path><path id="Path_9667" data-name="Path 9667" d="M1354.519,183.137l-10.761.03,7.407-13.532-11.085-6.07-6.2,11.316-.059.057-.035.1a26.406,26.406,0,0,0-1.767,3.255c-.012.024-.024.05-.038.082s-.016.042-.025.063a12.225,12.225,0,0,0-.87,2.406l-.019.058,0,.017,0,.01h0a11.516,11.516,0,0,0,.9,8.865l.014.027a10.606,10.606,0,0,0,9.661,5.955h.006l12.907-.007.013,6.078,12.114-13.031L1354.5,175.848Zm-19.241-7.224.046-.049.036-.109,5.4-9.863,8.078,4.424-7.038,12.857h-.312a7.773,7.773,0,0,1-5.755-4.086A3.783,3.783,0,0,1,1335.278,175.913Zm29.054,12.914-8.063,8.674-.008-3.442-14.618.007h-.005a8.9,8.9,0,0,1-8.143-5.04l-.519-1.1a9.994,9.994,0,0,1-.252-6.566,16.46,16.46,0,0,1,.824-2.278l.032-.068c.043-.1.087-.192.132-.29a8.168,8.168,0,0,0,.505,1.163,9.52,9.52,0,0,0,7.139,4.995l.045.005,14.837-.043-.013-4.654Z" fill="#004b87"></path><path id="Path_9668" data-name="Path 9668" d="M1366.256,156.563l-6.289-3.683,5.434-9.289,7.9,13.25,10.854-6.475-6.557-10.991v-.126l-.159-.154a26.626,26.626,0,0,0-1.876-3.122l-.036-.05c-.012-.018-.026-.033-.038-.051a12.294,12.294,0,0,0-1.668-2.019c-.015-.015-.029-.033-.043-.048l-.013-.013-.008-.008h0a11.509,11.509,0,0,0-8.091-3.72h-.014a10.607,10.607,0,0,0-10.052,5.307l-6.54,11.127-5.247-3.07,5.086,17.048Zm9.631-16.689v.1l.178.173,5.743,9.626-7.909,4.718-7.51-12.59.157-.268a7.772,7.772,0,0,1,6.444-2.886A3.928,3.928,0,0,1,1375.887,139.874Zm-26.214,8.968,7.407-12.6a8.9,8.9,0,0,1,8.477-4.464l.935.083v-.01a9.94,9.94,0,0,1,6.059,3.149,16.431,16.431,0,0,1,1.552,1.876l.038.07.041.041.141.2a8.177,8.177,0,0,0-1.252-.154,9.516,9.516,0,0,0-7.932,3.618l-7.517,12.842,4.017,2.352-11.553,2.605L1346.7,147.1Z" fill="#004b87"></path></g></g></svg>