<svg xmlns="http://www.w3.org/2000/svg" width="76" height="76" viewBox="0 0 76 76"><g id="Group_4313" data-name="Group 4313" transform="translate(-1130 -2690)"><rect id="Rectangle_1816" data-name="Rectangle 1816" width="76" height="76" transform="translate(1130 2690)" fill="none"></rect><g id="Certificats" transform="translate(-15.198 1729.471)"><path id="Path_9810" data-name="Path 9810" d="M1219.444,968.762a6.732,6.732,0,0,0-4.794-2.222c-.02,0-.036-.012-.056-.012h-40.882a6.694,6.694,0,0,0-6.651,5.7l-7.325,46.212H1147.47a.9.9,0,0,0-.9.822l-.348,3.945a6.892,6.892,0,0,0,6.864,7.5h41.691a6.757,6.757,0,0,0,6.675-5.755l7.419-47.994H1220a.9.9,0,0,0,.894-.8l.234-2.173A6.734,6.734,0,0,0,1219.444,968.762Zm-66.355,60.144a5.089,5.089,0,0,1-5.071-5.54l.276-3.124h39.951l-.271,3.072a6.806,6.806,0,0,0,1.755,5.186c.129.142.265.277.406.406Zm54.694-56.674-8.107,52.444a4.994,4.994,0,0,1-9.909-1.2l.358-4.052a.9.9,0,0,0-.9-.98h-27.671l7.281-45.933a4.905,4.905,0,0,1,4.873-4.179h36.152A6.7,6.7,0,0,0,1207.783,972.232Zm11.558,1.555-.148,1.369h-10.041l.411-2.648a4.932,4.932,0,0,1,9.778,1.279Z" fill="#004b87"></path><path id="Path_9811" data-name="Path 9811" d="M1198.459,981.2H1172.3a.9.9,0,1,0,0,1.8h26.161a.9.9,0,0,0,0-1.8Z" fill="#004b87"></path><path id="Path_9812" data-name="Path 9812" d="M1170.349,990.405h15.388a.9.9,0,1,0,0-1.8h-15.388a.9.9,0,1,0,0,1.8Z" fill="#004b87"></path><path id="Path_9813" data-name="Path 9813" d="M1192.611,996.009h-23.289a.9.9,0,0,0,0,1.8h23.289a.9.9,0,1,0,0-1.8Z" fill="#004b87"></path><path id="Path_9814" data-name="Path 9814" d="M1189.431,1003.413h-21.75a.9.9,0,1,0,0,1.8h21.75a.9.9,0,0,0,0-1.8Z" fill="#004b87"></path></g></g></svg>