<svg xmlns="http://www.w3.org/2000/svg" width="45" height="45" viewBox="0 0 45 45"><g id="Group_4286" data-name="Group 4286" transform="translate(-330 -1947)"><rect id="Rectangle_1791" data-name="Rectangle 1791" width="45" height="45" transform="translate(330 1947)" fill="none"></rect><g id="Dairy_icon" data-name="Dairy icon" transform="translate(-20.967 1706.727)"><path id="Path_9689" data-name="Path 9689" d="M392.433,253.213l-1.175-1.16,0,0-6.352-6.31a1.6,1.6,0,0,0-1.135-.467h0a1.484,1.484,0,0,0-.412.063.732.732,0,0,0-.13.034L358.6,255.077a2.932,2.932,0,0,0-1.473,1.32c-1.151,2.164-4.507,9.576.147,14.89l-.021.022,8.663,8.6a1.6,1.6,0,0,0,1.132.466h.005a1.594,1.594,0,0,0,1.134-.474l24.254-24.418a1.606,1.606,0,0,0-.007-2.274Zm-4.379-2.622,1.812,1.8a1.393,1.393,0,0,1-.471.082h-.006a1.4,1.4,0,0,1-1-.412A1.427,1.427,0,0,1,388.054,250.591Zm-4.736-4.987Zm-25.11,11.37a1.668,1.668,0,0,1,.837-.757l21.676-8.541-22.585,22.738C354.083,265.678,357.156,258.946,358.208,256.974Zm23.255,7.825a1.622,1.622,0,0,1,2.118-2.131Zm10.109-10.176-7.091,7.139a2.806,2.806,0,0,0-1.524-.444h-.009a2.828,2.828,0,0,0-2.012.841,2.859,2.859,0,0,0-.372,3.546l-13.247,13.336a.373.373,0,0,1-.27.113.473.473,0,0,1-.269-.111l-7.8-7.743,24.524-24.689a.391.391,0,0,1,.139-.087.363.363,0,0,1,.4.085l3.093,3.072a2.66,2.66,0,0,0,.391,3.249,2.629,2.629,0,0,0,1.863.768h.008a2.606,2.606,0,0,0,1.381-.4l.789.783A.39.39,0,0,1,391.572,254.623Z" fill="#004b87"></path><path id="Path_9690" data-name="Path 9690" d="M372.244,269.549a1.637,1.637,0,0,0-1.159-.476h0a1.632,1.632,0,0,0-1.158.484,1.655,1.655,0,0,0-.294.4,1.643,1.643,0,0,0,1.459,2.4h0a1.628,1.628,0,0,0,1.159-.485,1.608,1.608,0,0,0,.294-.4,1.637,1.637,0,0,0-.3-1.92Zm-.786,1.356a.4.4,0,0,1-.075.1.425.425,0,0,1-.3.123.4.4,0,0,1-.291-.121.413.413,0,0,1-.076-.487.389.389,0,0,1,.073-.1.418.418,0,0,1,.3-.123.416.416,0,0,1,.37.606Z" fill="#004b87"></path><path id="Path_9691" data-name="Path 9691" d="M363.869,268.348h-.009a2.375,2.375,0,0,0-1.692.707,2.422,2.422,0,0,0-.428.587,2.394,2.394,0,0,0,2.128,3.495h.008a2.381,2.381,0,0,0,1.692-.706,2.436,2.436,0,0,0,.428-.587,2.4,2.4,0,0,0-2.127-3.5Zm1.039,2.933a1.209,1.209,0,0,1-.21.287,1.167,1.167,0,0,1-.825.345h0a1.17,1.17,0,0,1,0-2.34h0a1.171,1.171,0,0,1,1.041,1.708Z" fill="#004b87"></path><path id="Path_9692" data-name="Path 9692" d="M382.86,250.93h0a1.928,1.928,0,0,0-1.368.572,1.972,1.972,0,0,0-.347.475,1.938,1.938,0,0,0,1.72,2.829h.008a1.938,1.938,0,0,0-.009-3.876Zm.637,2.265a.693.693,0,0,1-.128.174.706.706,0,0,1-.5.211.737.737,0,0,1-.505-.207.709.709,0,0,1-.131-.832.721.721,0,0,1,.128-.175.707.707,0,0,1,.5-.21h0a.712.712,0,0,1,.634,1.039Z" fill="#004b87"></path><path id="Path_9693" data-name="Path 9693" d="M375.061,258.1h-.008a2.625,2.625,0,0,0,.01,5.251h.008a2.6,2.6,0,0,0,1.854-.775,2.694,2.694,0,0,0,.47-.644,2.627,2.627,0,0,0-2.334-3.832Zm1.245,3.27a1.427,1.427,0,0,1-.251.342,1.388,1.388,0,0,1-.988.413h-.006a1.4,1.4,0,0,1-1.243-2.044,1.429,1.429,0,0,1,.251-.342,1.4,1.4,0,0,1,.989-.413h.006a1.4,1.4,0,0,1,1.242,2.044Z" fill="#004b87"></path></g></g></svg>