<svg xmlns="http://www.w3.org/2000/svg" xmlns:xlink="http://www.w3.org/1999/xlink" width="446" height="310" viewBox="0 0 446 310"><defs><clipPath id="clip-path"><path id="Rectangle_1969" data-name="Rectangle 1969" d="M0,0H445a0,0,0,0,1,0,0V270a40,40,0,0,1-40,40H0a0,0,0,0,1,0,0V0A0,0,0,0,1,0,0Z" transform="translate(1040 146)" fill="#004b87"></path></clipPath></defs><g id="Group_4928" data-name="Group 4928" transform="translate(-663 -146)"><path id="Rectangle_1790" data-name="Rectangle 1790" d="M0,0H445a0,0,0,0,1,0,0V270a40,40,0,0,1-40,40H0a0,0,0,0,1,0,0V0A0,0,0,0,1,0,0Z" transform="translate(663 146)" fill="#004b87"></path><g id="Mask_Group_4871" data-name="Mask Group 4871" transform="translate(-376)" clip-path="url(#clip-path)"><g id="Element_2-01" data-name="Element 2-01" transform="translate(1022.5 171.8)"><path id="Path_15761" data-name="Path 15761" d="M178,198.2h-.2l.1-.1h.2Z" fill="#44aee3"></path><path id="Path_15762" data-name="Path 15762" d="M192.1,195.1l-.5-.1.1-.3.4.2Z" fill="#44aee3"></path><path id="Path_15763" data-name="Path 15763" d="M206.1,191.4c.2.2,0,.4-.3.4-.4,0-.8-.4-.6-.6l.1-.1a1.136,1.136,0,0,1,.8.3Z" fill="#44aee3"></path><path id="Path_15764" data-name="Path 15764" d="M219.7,187.6c.3.3.1.5-.3.5-.6,0-1.1-.4-.8-.7a.349.349,0,0,1,.2-.1,3.178,3.178,0,0,1,.9.3Z" fill="#44aee3"></path><path id="Path_15765" data-name="Path 15765" d="M233,183.7c.3.2.2.6-.3.6-.7,0-1.4-.5-1.1-.8.1-.1.1-.1.2-.1a1.676,1.676,0,0,1,1.2.3Z" fill="#44aee3"></path><path id="Path_15766" data-name="Path 15766" d="M246,179.4c.4.3.3.6-.2.7-.8.1-1.8-.5-1.5-.9,0-.1.1-.1.2-.1a2.248,2.248,0,0,1,1.5.3Z" fill="#44aee3"></path><path id="Path_15767" data-name="Path 15767" d="M258.7,175c.5.3.4.7-.1.8-.9.2-2.2-.5-1.9-.9l.2-.2a2.2,2.2,0,0,1,1.8.3Z" fill="#44aee3"></path><path id="Path_15768" data-name="Path 15768" d="M271,170.3c.5.3.6.7.1.8-.9.3-2.6-.4-2.3-.9l.2-.2a2.694,2.694,0,0,1,2,.3Z" fill="#44aee3"></path><path id="Path_15769" data-name="Path 15769" d="M282.9,165.3c.6.3.7.7.2.9-.9.3-2.8-.4-2.5-.9,0-.1.1-.1.2-.2a3.528,3.528,0,0,1,2.1.2Z" fill="#44aee3"></path><path id="Path_15770" data-name="Path 15770" d="M294.4,160.2c.7.3.8.7.3.9-.9.3-2.9-.3-2.7-.9,0-.1.1-.1.2-.2a2.833,2.833,0,0,1,2.2.2Z" fill="#44aee3"></path><path id="Path_15771" data-name="Path 15771" d="M305.5,154.8c.7.3.9.7.4.9-.9.4-3-.3-2.8-.8,0-.1.1-.1.2-.2a2.834,2.834,0,0,1,2.2.1Z" fill="#44aee3"></path><path id="Path_15772" data-name="Path 15772" d="M316.1,149.2c.8.3,1,.7.5.9-1,.4-3.3-.3-3-.9,0-.1.1-.1.2-.1a3.655,3.655,0,0,1,2.3.1Z" fill="#44aee3"></path><path id="Path_15773" data-name="Path 15773" d="M326.1,143.5c.8.3,1.1.7.6.9-.9.4-3.4-.2-3.1-.8,0-.1.1-.1.1-.2a3.355,3.355,0,0,1,2.4.1Z" fill="#44aee3"></path><path id="Path_15774" data-name="Path 15774" d="M335.3,137.7c.8.2,1.1.6.7.8-.9.4-3.3-.1-3.1-.7a.1.1,0,0,1,.1-.1,3.04,3.04,0,0,1,2.3,0Z" fill="#44aee3"></path><path id="Path_15775" data-name="Path 15775" d="M343.8,131.8c.8.2,1.1.5.7.8-.8.4-3.2-.1-3.1-.6,0-.1,0-.1.1-.1a3.059,3.059,0,0,1,2.3-.1Z" fill="#44aee3"></path><path id="Path_15776" data-name="Path 15776" d="M351.6,125.9c.8.2,1.1.5.8.7-.7.4-3.2,0-3-.5a.1.1,0,0,1,.1-.1,2.938,2.938,0,0,1,2.1-.1Z" fill="#44aee3"></path><path id="Path_15777" data-name="Path 15777" d="M358.7,119.9c.8.2,1.1.4.8.6-.6.4-3,0-2.8-.4a.1.1,0,0,1,.1-.1,3.839,3.839,0,0,1,1.9-.1Z" fill="#44aee3"></path><path id="Path_15778" data-name="Path 15778" d="M365.1,113.9c.7.1,1.1.4.8.5-.5.4-2.7.1-2.6-.4v-.1a5.355,5.355,0,0,1,1.8,0Z" fill="#44aee3"></path><path id="Path_15779" data-name="Path 15779" d="M370.7,107.9c.7.1,1,.3.8.5-.4.3-2.4.1-2.4-.3V108a4.049,4.049,0,0,1,1.6-.1Z" fill="#44aee3"></path><path id="Path_15780" data-name="Path 15780" d="M375.7,101.9c.6.1.9.2.7.4-.3.3-2.1.1-2.1-.2V102a5.313,5.313,0,0,1,1.4-.1Z" fill="#44aee3"></path><path id="Path_15781" data-name="Path 15781" d="M379.9,95.9c.4.1.7.2.6.3-.3.2-1.7.1-1.6-.1h0c.1-.2.7-.2,1-.2Z" fill="#44aee3"></path><path id="Path_15782" data-name="Path 15782" d="M384,90.1l-.8.1-.5-.2.7-.1Z" fill="#44aee3"></path><path id="Path_15783" data-name="Path 15783" d="M386.6,84l-.4.1-.3-.1h.7Z" fill="#44aee3"></path><path id="Path_15784" data-name="Path 15784" d="M388.6,78l-.1.1-.1-.1h.2Z" fill="#44aee3"></path><path id="Path_15785" data-name="Path 15785" d="M108.3,222.6h-.1l.1-.1v.1Z" fill="#44aee3"></path><path id="Path_15786" data-name="Path 15786" d="M124.1,220.7l-.3-.1.2-.3.3.2Z" fill="#44aee3"></path><path id="Path_15787" data-name="Path 15787" d="M140.3,218.1c.1.3-.4.6-.8.3-.4-.2-.2-.6.1-.7h0a.72.72,0,0,1,.7.4Z" fill="#44aee3"></path><path id="Path_15788" data-name="Path 15788" d="M156.1,215.5c.2.5-.5.8-1.1.5-.5-.3-.5-.8.1-1h.1a.8.8,0,0,1,.9.5Z" fill="#44aee3"></path><path id="Path_15789" data-name="Path 15789" d="M171.7,212.5c.3.6-.5,1.1-1.3.7-.7-.3-.9-1-.2-1.3a.31.31,0,0,0,.2-.1,1.384,1.384,0,0,1,1.3.7Z" fill="#44aee3"></path><path id="Path_15790" data-name="Path 15790" d="M187.2,209.3c.4.7-.4,1.3-1.4,1s-1.3-1.2-.6-1.6a.367.367,0,0,1,.3-.1,1.494,1.494,0,0,1,1.7.7Z" fill="#44aee3"></path><path id="Path_15791" data-name="Path 15791" d="M202.5,205.8c.5.8-.3,1.4-1.4,1.2-1.2-.3-1.8-1.3-1-1.8a.367.367,0,0,1,.3-.1,1.824,1.824,0,0,1,2.1.7Z" fill="#44aee3"></path><path id="Path_15792" data-name="Path 15792" d="M217.4,202c.6.9-.2,1.6-1.5,1.4-1.4-.3-2.2-1.5-1.3-2,.1-.1.2-.1.4-.2a2.258,2.258,0,0,1,2.4.8Z" fill="#44aee3"></path><path id="Path_15793" data-name="Path 15793" d="M232.2,197.9c.7.9,0,1.7-1.3,1.6-1.5-.1-2.7-1.5-2-2.2.2-.1.3-.2.5-.3a3.01,3.01,0,0,1,2.8.9Z" fill="#44aee3"></path><path id="Path_15794" data-name="Path 15794" d="M246.6,193.6c.9.9.3,1.8-1.1,1.8-1.8,0-3.5-1.5-2.6-2.4a1.332,1.332,0,0,1,.5-.3,3.31,3.31,0,0,1,3.2.9Z" fill="#44aee3"></path><path id="Path_15795" data-name="Path 15795" d="M260.7,189c1,.9.5,1.9-1,1.9-2,0-3.8-1.5-3-2.4.2-.2.3-.3.5-.3a3.773,3.773,0,0,1,3.5.8Z" fill="#44aee3"></path><path id="Path_15796" data-name="Path 15796" d="M274.3,184.1c1.1.9.7,1.9-.7,2-2,.2-4.4-1.4-3.6-2.5a.55.55,0,0,1,.5-.3,4.561,4.561,0,0,1,3.8.8Z" fill="#44aee3"></path><path id="Path_15797" data-name="Path 15797" d="M287.6,179c1.2.9.9,1.9-.6,2.1-2.1.3-4.8-1.4-4-2.5a1,1,0,0,1,.5-.4,5.385,5.385,0,0,1,4.1.8Z" fill="#44aee3"></path><path id="Path_15798" data-name="Path 15798" d="M300.5,173.7c1.2.8,1.2,1.8-.2,2.1-2.1.5-5.3-1.2-4.6-2.4a1,1,0,0,1,.5-.4,5.159,5.159,0,0,1,4.3.7Z" fill="#44aee3"></path><path id="Path_15799" data-name="Path 15799" d="M312.9,168.1c1.3.8,1.4,1.9,0,2.2-2.2.5-5.7-1.2-5-2.4a1,1,0,0,1,.5-.4,5.691,5.691,0,0,1,4.5.6Z" fill="#44aee3"></path><path id="Path_15800" data-name="Path 15800" d="M324.8,162.3c1.4.8,1.6,1.8.2,2.2-2.2.6-6.1-1.2-5.2-2.4.1-.1.3-.2.4-.3a5.537,5.537,0,0,1,4.6.5Z" fill="#44aee3"></path><path id="Path_15801" data-name="Path 15801" d="M336.3,156.2c1.5.8,1.7,1.8.4,2.2-2.2.7-6.3-1.1-5.5-2.3a1.381,1.381,0,0,1,.4-.3c1.3-.7,3.5-.2,4.7.4Z" fill="#44aee3"></path><path id="Path_15802" data-name="Path 15802" d="M347,150c1.6.7,1.9,1.8.7,2.2-2.1.7-6.4-.9-5.8-2.2l.3-.3a6.129,6.129,0,0,1,4.8.3Z" fill="#44aee3"></path><path id="Path_15803" data-name="Path 15803" d="M356.9,143.7c1.6.6,2,1.5,1.1,2-1.8.9-6.5-.7-6-1.9l.3-.3c1.1-.7,3.4-.3,4.6.2Z" fill="#44aee3"></path><path id="Path_15804" data-name="Path 15804" d="M366.1,137.3c1.6.6,2.1,1.5,1.3,1.9-1.7.9-6.4-.5-6.1-1.8,0-.1.2-.2.2-.3,1.1-.6,3.3-.2,4.6.2Z" fill="#44aee3"></path><path id="Path_15805" data-name="Path 15805" d="M374.4,131c1.6.5,2.2,1.3,1.4,1.8-1.5.9-6.2-.4-6-1.6,0-.1.1-.2.2-.3,1-.7,3.2-.4,4.4.1Z" fill="#44aee3"></path><path id="Path_15806" data-name="Path 15806" d="M382,124.5c1.6.5,2.2,1.2,1.5,1.7-1.4.9-6.3-.4-5.9-1.5,0-.1.1-.1.1-.2,1-.6,3.1-.4,4.3,0Z" fill="#44aee3"></path><path id="Path_15807" data-name="Path 15807" d="M388.8,118.1c1.6.5,2.3,1.2,1.5,1.6-1.4.7-5.7-.4-5.5-1.4,0-.1.1-.1.1-.2.8-.6,2.7-.4,3.9,0Z" fill="#44aee3"></path><path id="Path_15808" data-name="Path 15808" d="M394.9,111.6c1.5.4,2.3,1.1,1.5,1.5-1.3.7-5.5-.2-5.3-1.2,0-.1.1-.1.1-.2.6-.6,2.5-.4,3.7-.1Z" fill="#44aee3"></path><path id="Path_15809" data-name="Path 15809" d="M400.2,105.1c1.5.3,2.2,1,1.6,1.3-1.2.7-5.4-.2-5-1.1v-.1c.5-.5,2.3-.4,3.4-.1Z" fill="#44aee3"></path><path id="Path_15810" data-name="Path 15810" d="M404.7,98.6c1.3.3,2,.8,1.5,1.2-1,.6-4.8-.1-4.6-.9v-.1c.5-.5,2.1-.4,3.1-.2Z" fill="#44aee3"></path><path id="Path_15811" data-name="Path 15811" d="M408.5,92.1c1.2.2,1.9.7,1.5,1-.8.6-4.2,0-4.1-.7v-.1c.3-.4,1.7-.3,2.6-.2Z" fill="#44aee3"></path><path id="Path_15812" data-name="Path 15812" d="M411.5,85.7c1.1.2,1.7.6,1.4.8-.7.5-3.7,0-3.7-.5v-.1c.3-.4,1.5-.3,2.3-.2Z" fill="#44aee3"></path><path id="Path_15813" data-name="Path 15813" d="M413.8,79.3c.9.1,1.4.4,1.2.7-.5.4-3,.1-3-.4h0c.1-.4,1.1-.4,1.8-.3Z" fill="#44aee3"></path><path id="Path_15814" data-name="Path 15814" d="M415.4,72.9c.7.1,1.2.3,1,.5-.3.3-2.3.1-2.4-.3h0c.1-.2.9-.2,1.4-.2Z" fill="#44aee3"></path><path id="Path_15815" data-name="Path 15815" d="M416.2,66.6c.5.1.9.2.7.4-.3.2-1.7.1-1.7-.2,0-.2.6-.2,1-.2Z" fill="#44aee3"></path><path id="Path_15816" data-name="Path 15816" d="M416.8,60.5l-.6.1-.5-.1.5-.1Z" fill="#44aee3"></path><path id="Path_15817" data-name="Path 15817" d="M415.8,54.2l-.2.1-.2-.1h.4Z" fill="#44aee3"></path><path id="Path_15818" data-name="Path 15818" d="M76.8,240l-.3-.2.2-.2.3.2Z" fill="#44aee3"></path><path id="Path_15819" data-name="Path 15819" d="M94.3,238.2a.537.537,0,0,1-.9.3.436.436,0,0,1,.4-.7.4.4,0,0,1,.5.4Z" fill="#44aee3"></path><path id="Path_15820" data-name="Path 15820" d="M111.6,236.3a.885.885,0,0,1-1.5.5c-.4-.4-.3-1.1.5-1.2a.841.841,0,0,1,1,.7Z" fill="#44aee3"></path><path id="Path_15821" data-name="Path 15821" d="M128.7,234c.1.8-1.1,1.3-1.9.8-.7-.5-.5-1.5.5-1.7a1.153,1.153,0,0,1,1.4.9Z" fill="#44aee3"></path><path id="Path_15822" data-name="Path 15822" d="M145.8,231.5c.2,1.1-1.2,1.7-2.3,1a1.121,1.121,0,0,1,.3-2.1h.1c1.2-.1,1.8.5,1.9,1.1Z" fill="#44aee3"></path><path id="Path_15823" data-name="Path 15823" d="M162.7,228.6c.3,1.2-1.3,2-2.6,1.3a1.3,1.3,0,0,1,.2-2.5h.2a1.83,1.83,0,0,1,2.2,1.2Z" fill="#44aee3"></path><path id="Path_15824" data-name="Path 15824" d="M179.5,225.4c.5,1.3-1.2,2.3-2.7,1.6s-1.6-2.3-.3-2.8c.1,0,.3-.1.4-.1a2.455,2.455,0,0,1,2.6,1.3Z" fill="#44aee3"></path><path id="Path_15825" data-name="Path 15825" d="M196,221.9c.7,1.5-1.1,2.6-2.9,1.8-1.7-.7-2-2.5-.6-3.1.1,0,.3-.1.4-.1a2.875,2.875,0,0,1,3.1,1.4Z" fill="#44aee3"></path><path id="Path_15826" data-name="Path 15826" d="M212.3,218.2c.8,1.5-.9,2.8-2.9,2.2s-2.7-2.6-1.3-3.4a1.421,1.421,0,0,1,.6-.2,3.033,3.033,0,0,1,3.6,1.4Z" fill="#44aee3"></path><path id="Path_15827" data-name="Path 15827" d="M228.5,214.1c1,1.6-.6,3-2.8,2.5-2.4-.5-3.6-2.8-2-3.9.2-.1.5-.2.7-.3a4.23,4.23,0,0,1,4.1,1.7Z" fill="#44aee3"></path><path id="Path_15828" data-name="Path 15828" d="M244.2,209.7c1.2,1.7-.4,3.2-2.8,2.7-2.6-.5-4.1-2.9-2.5-4,.2-.2.5-.2.7-.3a4.507,4.507,0,0,1,4.6,1.6Z" fill="#44aee3"></path><path id="Path_15829" data-name="Path 15829" d="M259.6,205.1c1.3,1.7,0,3.3-2.4,3-3-.3-5.1-3-3.3-4.3a2.506,2.506,0,0,1,.7-.4,5.128,5.128,0,0,1,5,1.7Z" fill="#44aee3"></path><path id="Path_15830" data-name="Path 15830" d="M274.6,200.1c1.5,1.7.3,3.5-2.3,3.2-3.2-.3-5.6-3-3.8-4.5a2.506,2.506,0,0,1,.7-.4,6.151,6.151,0,0,1,5.4,1.7Z" fill="#44aee3"></path><path id="Path_15831" data-name="Path 15831" d="M289.3,194.9c1.6,1.7.7,3.4-1.8,3.4-3.4,0-6.5-3-4.7-4.6a2.506,2.506,0,0,1,.7-.4,6.578,6.578,0,0,1,5.8,1.6Z" fill="#44aee3"></path><path id="Path_15832" data-name="Path 15832" d="M303.5,189.4c1.8,1.7,1,3.5-1.6,3.6-3.5.1-7-3-5.2-4.6a2.506,2.506,0,0,1,.7-.4c2.3-.8,4.9.4,6.1,1.4Z" fill="#44aee3"></path><path id="Path_15833" data-name="Path 15833" d="M317.3,183.7c2,1.7,1.3,3.6-1.4,3.8-3.6.2-7.5-2.9-5.8-4.7a3.039,3.039,0,0,1,.7-.5c2.3-.9,5.2.3,6.5,1.4Z" fill="#44aee3"></path><path id="Path_15834" data-name="Path 15834" d="M330.5,177.7c2,1.6,1.6,3.4-.8,3.8-3.6.5-8.2-2.7-6.6-4.6a3.039,3.039,0,0,1,.7-.5c2.3-.9,5.3.2,6.7,1.3Z" fill="#44aee3"></path><path id="Path_15835" data-name="Path 15835" d="M343.2,171.4c2.1,1.5,1.9,3.4-.5,3.8-3.6.6-8.5-2.5-7-4.4a3.039,3.039,0,0,1,.7-.5c2.2-1,5.3.1,6.8,1.1Z" fill="#44aee3"></path><path id="Path_15836" data-name="Path 15836" d="M355.4,164.9c2.3,1.5,2.2,3.4-.2,3.9-3.6.7-8.8-2.3-7.4-4.3a2.652,2.652,0,0,1,.6-.5c2.2-1.1,5.4-.1,7,.9Z" fill="#44aee3"></path><path id="Path_15837" data-name="Path 15837" d="M366.8,158.3c2.4,1.4,2.5,3.3.2,3.8-3.4.7-8.8-2.1-7.7-4.1.1-.2.4-.4.5-.5,2.1-1.1,5.3-.2,7,.8Z" fill="#44aee3"></path><path id="Path_15838" data-name="Path 15838" d="M377.3,151.6c2.3,1.3,2.7,3,.9,3.6-3.1,1.1-9.2-1.7-8.3-3.8a1.205,1.205,0,0,1,.5-.5c2-1.1,5.2-.3,6.9.7Z" fill="#44aee3"></path><path id="Path_15839" data-name="Path 15839" d="M387,144.8c2.3,1.2,2.9,2.9,1.2,3.5-2.9,1.1-9-1.6-8.3-3.6a2.182,2.182,0,0,1,.4-.5c1.8-1.1,5-.3,6.7.6Z" fill="#44aee3"></path><path id="Path_15840" data-name="Path 15840" d="M395.9,137.9c2.3,1.1,3,2.7,1.5,3.3-2.8,1.1-9.2-1.6-8.2-3.5l.3-.3c1.5-1,4.7-.3,6.4.5Z" fill="#44aee3"></path><path id="Path_15841" data-name="Path 15841" d="M404,131.1c2.3,1,3.2,2.5,1.7,3.2-2.5,1.1-9-1.4-8.2-3.2,0-.1.2-.2.2-.3,1.4-1.1,4.5-.5,6.3.3Z" fill="#44aee3"></path><path id="Path_15842" data-name="Path 15842" d="M411.2,124.2c2.3.9,3.2,2.3,1.9,2.9-2.2,1.1-8.5-1.2-8-2.9,0-.1.1-.2.2-.3,1.2-1,4.2-.4,5.9.3Z" fill="#44aee3"></path><path id="Path_15843" data-name="Path 15843" d="M417.6,117.2c2.2.8,3.2,2.1,2.1,2.7-2,1.1-8.1-1-7.8-2.6,0-.1.1-.2.2-.3.9-.7,3.5-.5,5.5.2Z" fill="#44aee3"></path><path id="Path_15844" data-name="Path 15844" d="M423.2,110.3c2.2.8,3.2,1.9,2.2,2.5-1.9,1.1-8-.9-7.4-2.4l.1-.1c.8-.9,3.5-.5,5.1,0Z" fill="#44aee3"></path><path id="Path_15845" data-name="Path 15845" d="M427.9,103.4c2.1.7,3.2,1.8,2.1,2.3-1.9.8-7.2-.9-6.8-2.2a.1.1,0,0,1,.1-.1c.7-.8,3.2-.5,4.6,0Z" fill="#44aee3"></path><path id="Path_15846" data-name="Path 15846" d="M431.9,96.5c2,.6,3,1.6,2,2.1-1.6.8-6.5-.7-6.3-1.9v-.1c.7-.8,2.9-.5,4.3-.1Z" fill="#44aee3"></path><path id="Path_15847" data-name="Path 15847" d="M435.1,89.6c1.9.5,2.9,1.4,2.1,1.9-1.2.7-6.2-.4-5.9-1.7.5-.7,2.5-.6,3.8-.2Z" fill="#44aee3"></path><path id="Path_15848" data-name="Path 15848" d="M437.5,82.8c1.6.4,2.6,1.2,1.9,1.6-1,.6-5.4-.3-5.2-1.4.4-.7,2.2-.5,3.3-.2Z" fill="#44aee3"></path><path id="Path_15849" data-name="Path 15849" d="M439.1,76c1.5.3,2.4,1,1.9,1.4-.8.5-4.7-.2-4.7-1.1.2-.7,1.8-.6,2.8-.3Z" fill="#44aee3"></path><path id="Path_15850" data-name="Path 15850" d="M440,69.2c1.1.2,2.1.8,1.7,1.1-.6.5-3.9-.1-4-.9.1-.4,1.4-.3,2.3-.2Z" fill="#44aee3"></path><path id="Path_15851" data-name="Path 15851" d="M440,62.6c1,.2,1.7.6,1.4.9-.5.4-3.1,0-3.3-.7.1-.4,1.2-.4,1.9-.2Z" fill="#44aee3"></path><path id="Path_15852" data-name="Path 15852" d="M439.3,56c.8.1,1.4.5,1.1.7-.4.3-2.3,0-2.4-.5,0-.3.7-.3,1.3-.2Z" fill="#44aee3"></path><path id="Path_15853" data-name="Path 15853" d="M437.8,49.5c.6.1,1,.3.8.4-.2.2-1.6,0-1.7-.3,0-.2.6-.1.9-.1Z" fill="#44aee3"></path><path id="Path_15854" data-name="Path 15854" d="M436,43.3l-.4.1-.5-.2.4-.1Z" fill="#44aee3"></path><path id="Path_15855" data-name="Path 15855" d="M432.6,36.9h0l-.1-.1h0Z" fill="#44aee3"></path><path id="Path_15856" data-name="Path 15856" d="M41.2,257.6l-.2-.2.3-.2.1.2Z" fill="#44aee3"></path><path id="Path_15857" data-name="Path 15857" d="M59.8,256.4a.6.6,0,0,1-1,.3c-.2-.3-.1-.7.5-.8a.536.536,0,0,1,.5.5Z" fill="#44aee3"></path><path id="Path_15858" data-name="Path 15858" d="M78.1,255.1a.953.953,0,0,1-1.6.5c-.4-.5-.1-1.2.7-1.3a.729.729,0,0,1,.9.8Z" fill="#44aee3"></path><path id="Path_15859" data-name="Path 15859" d="M96.4,253.4a1.208,1.208,0,0,1-2.1.7,1.026,1.026,0,0,1,.8-1.7,1.051,1.051,0,0,1,1.3,1Z" fill="#44aee3"></path><path id="Path_15860" data-name="Path 15860" d="M114.8,251.3c.1,1.3-1.8,2-2.8,1-.7-.7-.6-2.1,1-2.3a1.5,1.5,0,0,1,1.8,1.3Z" fill="#44aee3"></path><path id="Path_15861" data-name="Path 15861" d="M133,248.9c.2,1.5-1.8,2.3-3.1,1.3-1-.8-1-2.5.9-2.9a2.059,2.059,0,0,1,2.2,1.6Z" fill="#44aee3"></path><path id="Path_15862" data-name="Path 15862" d="M151.1,246.2c.3,1.7-2,2.8-3.6,1.7a1.825,1.825,0,0,1,.8-3.4,2.3,2.3,0,0,1,2.8,1.7Z" fill="#44aee3"></path><path id="Path_15863" data-name="Path 15863" d="M169.1,243.1c.5,2-2.1,3.2-4,2-1.5-1-1.8-3.3.7-3.9a2.952,2.952,0,0,1,3.3,1.9Z" fill="#44aee3"></path><path id="Path_15864" data-name="Path 15864" d="M186.9,239.8c.6,2.1-1.9,3.6-4.1,2.4-2.3-1.1-2.3-3.8,0-4.5a.367.367,0,0,0,.3-.1,3.46,3.46,0,0,1,3.8,2.2Z" fill="#44aee3"></path><path id="Path_15865" data-name="Path 15865" d="M204.5,236.1c.8,2.3-1.8,4-4.4,2.8s-2.8-4.1-.3-4.9c.1,0,.2-.1.3-.1a3.86,3.86,0,0,1,4.4,2.2Z" fill="#44aee3"></path><path id="Path_15866" data-name="Path 15866" d="M221.8,232c1,2.4-1.5,4.2-4.3,3.2-3-1-3.8-4.2-1.3-5.4a1.421,1.421,0,0,1,.6-.2,4.881,4.881,0,0,1,5,2.4Z" fill="#44aee3"></path><path id="Path_15867" data-name="Path 15867" d="M238.9,227.7c1.3,2.5-1.3,4.6-4.5,3.6-3.2-1.1-4.3-4.5-1.8-5.7a1.854,1.854,0,0,1,.7-.2,4.966,4.966,0,0,1,5.6,2.3Z" fill="#44aee3"></path><path id="Path_15868" data-name="Path 15868" d="M255.6,223c1.6,2.7-1.1,5-4.6,3.9-3.6-1.1-5-4.7-2.3-6.1.2-.1.5-.2.7-.3a5.968,5.968,0,0,1,6.2,2.5Z" fill="#44aee3"></path><path id="Path_15869" data-name="Path 15869" d="M271.9,218.1c1.7,2.6-.6,5.1-4.1,4.4-3.9-.8-6-4.6-3.6-6.4a2.355,2.355,0,0,1,1-.5,6.369,6.369,0,0,1,6.7,2.5Z" fill="#44aee3"></path><path id="Path_15870" data-name="Path 15870" d="M287.9,212.8c2,2.7-.3,5.4-4.1,4.7-4.1-.7-6.7-4.7-4.3-6.6a2.355,2.355,0,0,1,1-.5,7.269,7.269,0,0,1,7.4,2.4Z" fill="#44aee3"></path><path id="Path_15871" data-name="Path 15871" d="M303.4,207.3c2.1,2.7.3,5.3-3.4,5-4.5-.4-7.9-4.7-5.4-6.8a2.664,2.664,0,0,1,1-.6,7.658,7.658,0,0,1,7.8,2.4Z" fill="#44aee3"></path><path id="Path_15872" data-name="Path 15872" d="M318.5,201.4c2.4,2.7.7,5.5-3.2,5.3-4.7-.3-8.5-4.7-6-7a2.664,2.664,0,0,1,1-.6,8.288,8.288,0,0,1,8.2,2.3Z" fill="#44aee3"></path><path id="Path_15873" data-name="Path 15873" d="M333.1,195.3c2.6,2.7,1,5.7-2.9,5.5-4.8-.2-9-4.6-6.6-7a6.07,6.07,0,0,1,1-.7c3.2-1.2,6.9.6,8.5,2.2Z" fill="#44aee3"></path><path id="Path_15874" data-name="Path 15874" d="M347.1,188.9c2.7,2.6,1.6,5.5-2,5.6-4.9.2-10-4.4-7.7-7a6.07,6.07,0,0,1,1-.7c3.1-1.2,7,.5,8.7,2.1Z" fill="#44aee3"></path><path id="Path_15875" data-name="Path 15875" d="M360.6,182.3c2.9,2.5,2,5.5-1.7,5.8-5,.4-10.5-4.3-8.3-7a2.757,2.757,0,0,1,.9-.7c3.2-1.4,7.2.2,9.1,1.9Z" fill="#44aee3"></path><path id="Path_15876" data-name="Path 15876" d="M373.5,175.3c3.1,2.5,2.4,5.5-1.3,5.9-4.9.5-10.7-4.1-8.8-6.8a3.24,3.24,0,0,1,.9-.8c3.1-1.4,7.2.1,9.2,1.7Z" fill="#44aee3"></path><path id="Path_15877" data-name="Path 15877" d="M385.4,168.3c3.2,2.4,2.8,5.4-.8,5.7-5,.6-11.2-4.2-8.9-6.8a2.652,2.652,0,0,1,.6-.5c3-1.4,7.1.1,9.1,1.6Z" fill="#44aee3"></path><path id="Path_15878" data-name="Path 15878" d="M396.5,161.2c3.1,2.1,3.2,4.9.2,5.5-4.4,1-11.3-3.4-9.9-6.2a5.716,5.716,0,0,1,.7-.8c2.8-1.4,6.9,0,9,1.5Z" fill="#44aee3"></path><path id="Path_15879" data-name="Path 15879" d="M406.8,154c3.1,2,3.5,4.7.7,5.4-4.4,1.1-11.6-3.4-9.8-6.1.1-.2.3-.3.5-.5,2.3-1.5,6.4-.2,8.6,1.2Z" fill="#44aee3"></path><path id="Path_15880" data-name="Path 15880" d="M416.1,146.8c3.1,1.9,3.7,4.5,1.1,5.2-4.1,1.1-11.4-3.2-9.9-5.8.1-.2.3-.3.4-.5,2-1.3,5.9-.5,8.4,1.1Z" fill="#44aee3"></path><path id="Path_15881" data-name="Path 15881" d="M424.5,139.5c3.1,1.8,3.9,4.2,1.5,4.9-3.8,1.1-11-2.8-9.8-5.4.1-.2.2-.3.3-.5,2-1.3,5.9-.3,8,1Z" fill="#44aee3"></path><path id="Path_15882" data-name="Path 15882" d="M432.1,132.2c3.1,1.6,4,4,1.8,4.7-3.5,1.1-11.1-2.9-9.6-5.2,0-.1.1-.1.2-.2,1.5-1.3,5.1-.6,7.6.7Z" fill="#44aee3"></path><path id="Path_15883" data-name="Path 15883" d="M438.8,124.9c3,1.5,4,3.6,2.1,4.3-3.2,1.1-10.5-2.6-9.3-4.7,0-.1.1-.1.1-.2,1.5-1.3,5-.5,7.1.6Z" fill="#44aee3"></path><path id="Path_15884" data-name="Path 15884" d="M444.6,117.5c2.9,1.3,4,3.3,2.3,4-2.8,1.1-9.8-2.2-8.9-4.3,0-.1.1-.1.1-.2,1.1-1,4.2-.5,6.5.5Z" fill="#44aee3"></path><path id="Path_15885" data-name="Path 15885" d="M449.6,110.2c2.7,1.2,3.9,3,2.4,3.6-2.4,1-9.1-1.9-8.5-3.8,0-.1.1-.1.1-.2.9-.9,3.9-.5,6,.4Z" fill="#44aee3"></path><path id="Path_15886" data-name="Path 15886" d="M453.8,102.9c2.5,1,3.8,2.7,2.5,3.3-2.1,1-8.3-1.6-8-3.3a.31.31,0,0,1,.1-.2c.7-.9,3.4-.6,5.4.2Z" fill="#44aee3"></path><path id="Path_15887" data-name="Path 15887" d="M457.1,95.7c2.4.9,3.7,2.4,2.6,3-1.6.9-8-1.3-7.5-3.1.6-1,3-.7,4.9.1Z" fill="#44aee3"></path><path id="Path_15888" data-name="Path 15888" d="M459.6,88.4c2.3.9,3.5,2.2,2.4,2.7-1.6.6-6.9-1.2-6.6-2.7.3-.8,2.5-.6,4.2,0Z" fill="#44aee3"></path><path id="Path_15889" data-name="Path 15889" d="M461.3,81.2c2.1.7,3.3,1.9,2.3,2.3-1.4.6-6.1-1-6.1-2.3.3-.7,2.2-.5,3.8,0Z" fill="#44aee3"></path><path id="Path_15890" data-name="Path 15890" d="M462.1,74.1c1.8.6,2.9,1.6,2.2,2-1.1.5-5.2-.8-5.3-1.9.1-.7,1.9-.5,3.1-.1Z" fill="#44aee3"></path><path id="Path_15891" data-name="Path 15891" d="M462.2,67.1c1.6.5,2.6,1.4,2,1.7-.9.5-4.5-.6-4.7-1.6.1-.6,1.6-.5,2.7-.1Z" fill="#44aee3"></path><path id="Path_15892" data-name="Path 15892" d="M461.4,60.1c1.4.4,2.3,1.1,1.8,1.4-.7.4-3.7-.4-3.9-1.3-.1-.5,1.2-.4,2.1-.1Z" fill="#44aee3"></path><path id="Path_15893" data-name="Path 15893" d="M459.8,53.2c1.1.3,1.8.8,1.5,1-.5.3-2.8-.3-3.1-.9-.1-.3.8-.3,1.6-.1Z" fill="#44aee3"></path><path id="Path_15894" data-name="Path 15894" d="M457.4,46.5c.8.2,1.4.6,1.1.8a2.885,2.885,0,0,1-2.3-.7c-.1-.3.6-.2,1.2-.1Z" fill="#44aee3"></path><path id="Path_15895" data-name="Path 15895" d="M454.1,39.8c.5.1,1,.4.8.5a2.146,2.146,0,0,1-1.5-.4c0-.2.3-.2.7-.1Z" fill="#44aee3"></path><path id="Path_15896" data-name="Path 15896" d="M450.6,33.5l-.4.1-.5-.2.4-.1Z" fill="#44aee3"></path><path id="Path_15897" data-name="Path 15897" d="M21.2,275l-.2-.2.3-.2.2.2Z" fill="#44aee3"></path><path id="Path_15898" data-name="Path 15898" d="M40.7,274.2a.684.684,0,0,1-1.2.3.621.621,0,0,1,.6-.9.526.526,0,0,1,.6.6Z" fill="#44aee3"></path><path id="Path_15899" data-name="Path 15899" d="M60,273.1a1.015,1.015,0,0,1-1.8.5c-.4-.5-.1-1.4.9-1.5a.961.961,0,0,1,.9,1Z" fill="#44aee3"></path><path id="Path_15900" data-name="Path 15900" d="M79.3,271.7a1.453,1.453,0,0,1-2.5.8,1.236,1.236,0,0,1,1-2c1.2-.1,1.5.7,1.5,1.2Z" fill="#44aee3"></path><path id="Path_15901" data-name="Path 15901" d="M98.7,269.9a1.856,1.856,0,0,1-3.2,1.1,1.654,1.654,0,0,1,1.2-2.7,1.71,1.71,0,0,1,2,1.6Z" fill="#44aee3"></path><path id="Path_15902" data-name="Path 15902" d="M117.9,267.7c.1,1.8-2.2,2.7-3.6,1.5-1.2-1-.8-3,1.2-3.4a2.12,2.12,0,0,1,2.4,1.9Z" fill="#44aee3"></path><path id="Path_15903" data-name="Path 15903" d="M137.1,265.2c.2,2-2.5,3.2-4.2,1.8-1.5-1.2-1.1-3.5,1.2-4a2.685,2.685,0,0,1,3,2.2Z" fill="#44aee3"></path><path id="Path_15904" data-name="Path 15904" d="M156.2,262.3c.3,2.3-2.6,3.7-4.7,2.2a2.438,2.438,0,0,1,1.1-4.5,3.067,3.067,0,0,1,3.6,2.3Z" fill="#44aee3"></path><path id="Path_15905" data-name="Path 15905" d="M175.2,259.1c.5,2.6-2.8,4.3-5.2,2.6a2.8,2.8,0,0,1,1-5.2,3.71,3.71,0,0,1,4.2,2.6Z" fill="#44aee3"></path><path id="Path_15906" data-name="Path 15906" d="M193.9,255.5c.7,2.7-2.5,4.7-5.4,3.2-2.8-1.5-2.7-5,.1-5.9.1,0,.2-.1.4-.1a4.3,4.3,0,0,1,4.9,2.8Z" fill="#44aee3"></path><path id="Path_15907" data-name="Path 15907" d="M212.4,251.6c1,3-2.5,5.2-5.7,3.6-3.1-1.6-3.2-5.4-.2-6.4.1,0,.3-.1.4-.1a4.86,4.86,0,0,1,5.5,2.9Z" fill="#44aee3"></path><path id="Path_15908" data-name="Path 15908" d="M230.7,247.4c1.2,3.2-2.4,5.7-6,4-3.5-1.7-3.9-5.8-.5-7,.1,0,.3-.1.4-.1a5.366,5.366,0,0,1,6.1,3.1Z" fill="#44aee3"></path><path id="Path_15909" data-name="Path 15909" d="M248.6,242.8c1.4,3.3-1.9,6-5.8,4.6-4-1.4-5.1-5.9-1.9-7.5.2-.1.6-.2.8-.3a5.963,5.963,0,0,1,6.9,3.2Z" fill="#44aee3"></path><path id="Path_15910" data-name="Path 15910" d="M266.3,237.9c1.7,3.5-1.7,6.5-5.9,5.1-4.3-1.4-5.8-6.2-2.4-8a7.929,7.929,0,0,1,.9-.4,6.667,6.667,0,0,1,7.4,3.3Z" fill="#44aee3"></path><path id="Path_15911" data-name="Path 15911" d="M283.5,232.6c2,3.7-1.4,6.9-6,5.5-4.7-1.4-6.5-6.5-3-8.4.3-.1.6-.3.9-.4a7.285,7.285,0,0,1,8.1,3.3Z" fill="#44aee3"></path><path id="Path_15912" data-name="Path 15912" d="M300.4,227c2.2,3.6-.8,7.1-5.4,6.1-5.3-1.1-8-6.8-4.3-9.1a3.552,3.552,0,0,1,.9-.4,8.488,8.488,0,0,1,8.8,3.4Z" fill="#44aee3"></path><path id="Path_15913" data-name="Path 15913" d="M316.8,221.2c2.5,3.8-.4,7.5-5.3,6.5-5.7-1.1-8.8-7-5-9.4.3-.2.7-.3,1-.5a8.7,8.7,0,0,1,9.3,3.4Z" fill="#44aee3"></path><path id="Path_15914" data-name="Path 15914" d="M332.7,215c2.9,3.9,0,7.8-5.1,6.9-5.9-1-9.5-7.1-5.7-9.7a4.672,4.672,0,0,1,1-.5c4-1.4,8.2,1.1,9.8,3.3Z" fill="#44aee3"></path><path id="Path_15915" data-name="Path 15915" d="M348.1,208.5c3.2,4,.4,8.1-4.9,7.3-6.1-.9-10.2-7.1-6.5-10,.3-.2.7-.4,1-.6,4.1-1.4,8.6,1.1,10.4,3.3Z" fill="#44aee3"></path><path id="Path_15916" data-name="Path 15916" d="M362.9,201.8c3.3,3.8,1.2,7.9-3.9,7.7-6.4-.3-11.7-7.1-7.9-10.2l.9-.6c4.2-1.7,8.9.8,10.9,3.1Z" fill="#44aee3"></path><path id="Path_15917" data-name="Path 15917" d="M377,194.7c3.5,3.8,1.7,8.1-3.4,7.9-6.5-.2-12.3-7-8.7-10.2a2.838,2.838,0,0,1,.9-.6c4.2-1.8,9.1.6,11.2,2.9Z" fill="#44aee3"></path><path id="Path_15918" data-name="Path 15918" d="M390.5,187.4c3.7,3.7,2.1,8-2.9,8-6.5-.1-12.5-6.7-9.2-10a2.838,2.838,0,0,1,.9-.6c4-1.9,8.9.4,11.2,2.6Z" fill="#44aee3"></path><path id="Path_15919" data-name="Path 15919" d="M403.1,180c3.9,3.6,2.7,7.9-2.3,7.9-6.3,0-12.7-6.4-9.7-9.8a2.407,2.407,0,0,1,.8-.6c3.8-1.9,8.8.3,11.2,2.5Z" fill="#44aee3"></path><path id="Path_15920" data-name="Path 15920" d="M414.7,172.5c3.8,3.3,3.3,7.3-.9,7.7-6,.6-13.4-5.9-10.6-9.4a3.736,3.736,0,0,1,.7-.6c3.4-1.9,8.3.2,10.8,2.3Z" fill="#44aee3"></path><path id="Path_15921" data-name="Path 15921" d="M425.3,165c3.8,3.1,3.7,6.9-.3,7.4-5.5.7-13.1-5.5-10.7-8.8.1-.2.4-.4.6-.6,3.1-1.9,7.9,0,10.4,2Z" fill="#44aee3"></path><path id="Path_15922" data-name="Path 15922" d="M435,157.4c3.8,2.9,4,6.6.3,7.1-5.5.8-13.2-5.6-10.5-8.6l.3-.3c2.7-1.9,7.4-.1,9.9,1.8Z" fill="#44aee3"></path><path id="Path_15923" data-name="Path 15923" d="M443.7,149.8c3.8,2.7,4.2,6.2.8,6.7-5,.8-12.8-5.1-10.5-8.1l.3-.3c2.5-1.7,7-.1,9.4,1.7Z" fill="#44aee3"></path><path id="Path_15924" data-name="Path 15924" d="M451.6,142.1c3.7,2.5,4.3,5.8,1.3,6.3-4.6.8-12.1-4.7-10.3-7.5.1-.1.1-.2.2-.3,2.1-1.6,6.4-.1,8.8,1.5Z" fill="#44aee3"></path><path id="Path_15925" data-name="Path 15925" d="M458.6,134.4c3.5,2.3,4.4,5.4,1.7,5.9-4.1.8-11.5-4.2-10-6.9a.215.215,0,0,1,.2-.2c1.5-1.4,5.4-.5,8.1,1.2Z" fill="#44aee3"></path><path id="Path_15926" data-name="Path 15926" d="M464.7,126.8c3.4,2.1,4.4,4.9,2,5.4-3.4.8-11.1-3.7-9.4-6.4,1.4-1.6,5.2-.3,7.4,1Z" fill="#44aee3"></path><path id="Path_15927" data-name="Path 15927" d="M469.9,119.1c3.3,1.9,4.4,4.5,2.2,5-3,.8-10.4-3.3-9.1-5.9,1.1-1.3,4.4-.5,6.9.9Z" fill="#44aee3"></path><path id="Path_15928" data-name="Path 15928" d="M474.2,111.4c3.1,1.7,4.3,4,2.4,4.6-2.6.8-9.5-2.9-8.6-5.3.9-1.2,3.9-.5,6.2.7Z" fill="#44aee3"></path><path id="Path_15929" data-name="Path 15929" d="M477.6,103.8c2.8,1.5,4.1,3.6,2.5,4.1-2.2.7-8.7-2.6-8.1-4.7.8-1.1,3.5-.5,5.6.6Z" fill="#44aee3"></path><path id="Path_15930" data-name="Path 15930" d="M480.2,96.2c2.6,1.3,3.9,3.2,2.6,3.6-1.9.7-7.7-2.2-7.4-4.1.5-1,3.1-.3,4.8.5Z" fill="#44aee3"></path><path id="Path_15931" data-name="Path 15931" d="M481.9,88.7c2.3,1.1,3.6,2.8,2.5,3.2-1.6.6-6.9-1.8-6.8-3.5.5-1.1,2.8-.5,4.3.3Z" fill="#44aee3"></path><path id="Path_15932" data-name="Path 15932" d="M482.8,81.2c2.1,1,3.4,2.4,2.5,2.9-1.3.6-6.1-1.5-6.2-3.1.2-.9,2.1-.6,3.7.2Z" fill="#44aee3"></path><path id="Path_15933" data-name="Path 15933" d="M482.8,73.8c1.8.8,3.1,2,2.3,2.4-1,.5-5.2-1.2-5.4-2.6.1-.8,1.9-.3,3.1.2Z" fill="#44aee3"></path><path id="Path_15934" data-name="Path 15934" d="M482,66.5c1.7.7,2.8,1.8,2.1,2.1-.9.3-4.3-1.1-4.6-2.2-.1-.7,1.4-.4,2.5.1Z" fill="#44aee3"></path><path id="Path_15935" data-name="Path 15935" d="M480.3,59.3c1.4.6,2.4,1.4,1.8,1.6-.7.3-3.5-.8-3.8-1.7-.1-.5.9-.3,2,.1Z" fill="#44aee3"></path><path id="Path_15936" data-name="Path 15936" d="M477.7,52.1c1.1.4,1.9,1.1,1.6,1.3a4.986,4.986,0,0,1-3.1-1.3c-.1-.4.8-.2,1.5,0Z" fill="#44aee3"></path><path id="Path_15937" data-name="Path 15937" d="M474.3,45.2c.8.3,1.5.8,1.3,1a3.365,3.365,0,0,1-2.3-1c-.2-.4.5-.2,1,0Z" fill="#44aee3"></path><path id="Path_15938" data-name="Path 15938" d="M470.1,38.3c.5.2,1,.5.8.6a2.4,2.4,0,0,1-1.5-.6c-.1-.2.3-.1.5,0Z" fill="#44aee3"></path><path id="Path_15939" data-name="Path 15939" d="M465.4,31.9h-.2l-.5-.3h.2Z" fill="#44aee3"></path><path id="Path_15940" data-name="Path 15940" d="M19.6,293.2l-.4-.3.4-.4.4.3Z" fill="#44aee3"></path><path id="Path_15941" data-name="Path 15941" d="M40.1,292.2a.852.852,0,0,1-1.5.4.8.8,0,0,1,.7-1.2c.7-.1.9.4.8.8Z" fill="#44aee3"></path><path id="Path_15942" data-name="Path 15942" d="M60.3,291.1a1.292,1.292,0,0,1-2.2.7,1.135,1.135,0,0,1,1-1.8,1.031,1.031,0,0,1,1.2,1.1Z" fill="#44aee3"></path><path id="Path_15943" data-name="Path 15943" d="M80.5,289.6a1.7,1.7,0,0,1-3,.9,1.576,1.576,0,0,1,1.2-2.5,1.63,1.63,0,0,1,1.8,1.6Z" fill="#44aee3"></path><path id="Path_15944" data-name="Path 15944" d="M100.7,287.7a2.161,2.161,0,0,1-3.6,1.4,1.935,1.935,0,0,1,1.3-3.3,1.968,1.968,0,0,1,2.3,1.9Z" fill="#44aee3"></path><path id="Path_15945" data-name="Path 15945" d="M120.9,285.4a2.456,2.456,0,0,1-4.2,1.7,2.294,2.294,0,0,1,1.4-4,2.676,2.676,0,0,1,2.8,2.3Z" fill="#44aee3"></path><path id="Path_15946" data-name="Path 15946" d="M141,282.8c.2,2.4-2.9,3.8-4.8,2.1a2.628,2.628,0,0,1,1.4-4.7,3.034,3.034,0,0,1,3.4,2.6Z" fill="#44aee3"></path><path id="Path_15947" data-name="Path 15947" d="M161,279.8c.4,2.7-3.1,4.4-5.5,2.6a3,3,0,0,1,1.4-5.4,3.5,3.5,0,0,1,4.1,2.8Z" fill="#44aee3"></path><path id="Path_15948" data-name="Path 15948" d="M180.7,276.4c.5,3-3.2,4.9-5.9,3-2.2-1.6-2.3-5.2,1.3-6a3.9,3.9,0,0,1,4.6,3Z" fill="#44aee3"></path><path id="Path_15949" data-name="Path 15949" d="M200.4,272.7c.8,3.4-3.4,5.6-6.5,3.4-2.7-1.9-2.6-5.8,1.1-6.7a4.624,4.624,0,0,1,5.4,3.3Z" fill="#44aee3"></path><path id="Path_15950" data-name="Path 15950" d="M219.7,268.6c.9,3.5-3,6-6.5,4.1s-3.4-6.3.1-7.5c.1,0,.3-.1.4-.1a5.211,5.211,0,0,1,6,3.5Z" fill="#44aee3"></path><path id="Path_15951" data-name="Path 15951" d="M238.8,264.1c1.2,3.8-2.9,6.5-6.8,4.6-3.8-1.9-4-6.8-.3-8.1a4.331,4.331,0,0,1,.5-.1,5.754,5.754,0,0,1,6.6,3.6Z" fill="#44aee3"></path><path id="Path_15952" data-name="Path 15952" d="M257.6,259.3c1.5,4.1-2.8,7.2-7.1,5.1-4.2-2-4.7-7.3-.8-8.8.1-.1.3-.1.5-.2a6.536,6.536,0,0,1,7.4,3.9Z" fill="#44aee3"></path><path id="Path_15953" data-name="Path 15953" d="M276.1,254.2c1.8,4.3-2.7,7.7-7.4,5.6-4.6-2.1-5.4-7.7-1.2-9.4.2-.1.4-.1.5-.2a7.33,7.33,0,0,1,8.1,4Z" fill="#44aee3"></path><path id="Path_15954" data-name="Path 15954" d="M294.2,248.7c2,4.4-2,8.1-7,6.4-5.4-1.8-6.9-8.2-2.4-10.2.2-.1.4-.1.5-.2a7.7,7.7,0,0,1,8.9,4Z" fill="#44aee3"></path><path id="Path_15955" data-name="Path 15955" d="M311.8,242.8c2.4,4.6-1.7,8.7-7.1,7-5.9-1.9-7.8-8.7-3-10.9a1.421,1.421,0,0,1,.6-.2,8.33,8.33,0,0,1,9.5,4.1Z" fill="#44aee3"></path><path id="Path_15956" data-name="Path 15956" d="M329,236.7c2.7,4.8-1.5,9.2-7.1,7.5-6.2-1.9-8.6-9-3.7-11.4a1.421,1.421,0,0,1,.6-.2c4.6-1.5,8.7,1.5,10.2,4.1Z" fill="#44aee3"></path><path id="Path_15957" data-name="Path 15957" d="M345.7,230.2c2.9,4.8-.6,9.4-6.4,8.3-6.6-1.3-10.2-8.7-5.8-11.8.3-.2.8-.4,1.1-.6,4.9-1.7,9.5,1.4,11.1,4.1Z" fill="#44aee3"></path><path id="Path_15958" data-name="Path 15958" d="M361.9,223.3c3.3,5-.2,9.9-6.2,8.8-6.9-1.2-11.1-8.9-6.6-12.3a5.972,5.972,0,0,1,1.1-.6c4.9-1.8,9.8,1.3,11.7,4.1Z" fill="#44aee3"></path><path id="Path_15959" data-name="Path 15959" d="M377.5,216.2c3.7,5.1.4,10.4-5.9,9.4-7.2-1.1-12-9.1-7.5-12.7a6.725,6.725,0,0,1,1.1-.7c4.9-2,10.2,1.1,12.3,4Z" fill="#44aee3"></path><path id="Path_15960" data-name="Path 15960" d="M392.4,208.8c4.1,5.3,1,10.8-5.6,9.9-7.8-1.1-13.1-10.1-7.9-13.6a2.092,2.092,0,0,0,.6-.4c5.1-2.1,10.6,1.1,12.9,4.1Z" fill="#44aee3"></path><path id="Path_15961" data-name="Path 15961" d="M406.6,201.1c4.4,5.2,1.4,11.1-5.1,10.3-7.9-.9-13.7-10-8.7-13.7.2-.1.4-.3.6-.4,4.9-2.4,10.7.8,13.2,3.8Z" fill="#44aee3"></path><path id="Path_15962" data-name="Path 15962" d="M419.6,193.3c4.3,4.8,2.4,10.3-3.4,10.2-7.4-.1-14.4-8.7-10.5-12.9a7.006,7.006,0,0,1,1-.8c4.6-2.4,10.3.6,12.9,3.5Z" fill="#44aee3"></path><path id="Path_15963" data-name="Path 15963" d="M431.5,185.6c4.3,4.5,2.9,9.8-2.5,9.7-7.3,0-14.5-8.9-10.2-12.6a2.181,2.181,0,0,1,.5-.4c4.1-2.3,9.6.6,12.2,3.3Z" fill="#44aee3"></path><path id="Path_15964" data-name="Path 15964" d="M442.4,177.8c4.2,4.2,3.3,9.2-1.7,9.2-6.7.1-13.9-8.2-10.3-11.8.1-.1.3-.2.4-.4,3.8-2.2,9,.4,11.6,3Z" fill="#44aee3"></path><path id="Path_15965" data-name="Path 15965" d="M452.4,169.9c4.2,3.9,3.7,8.6-.9,8.7-6.1.1-13.2-7.6-10.2-10.9.1-.1.3-.2.4-.3,3.2-2.3,8.2.1,10.7,2.5Z" fill="#44aee3"></path><path id="Path_15966" data-name="Path 15966" d="M461.5,161.9c4,3.6,3.9,8-.2,8.2-5.6.2-12.7-6.9-10.1-10.2l.3-.3c2.5-1.8,7.1-.2,10,2.3Z" fill="#44aee3"></path><path id="Path_15967" data-name="Path 15967" d="M469.6,154c3.9,3.3,4.1,7.5.4,7.7-4.9.2-12.5-6.4-9.7-9.7,2.4-2,6.9-.1,9.3,2Z" fill="#44aee3"></path><path id="Path_15968" data-name="Path 15968" d="M476.9,146c3.8,3,4.2,6.9.9,7.1-4.4.3-11.7-5.7-9.4-8.9,1.8-1.7,5.8-.4,8.5,1.8Z" fill="#44aee3"></path><path id="Path_15969" data-name="Path 15969" d="M483.2,138c3.6,2.8,4.3,6.3,1.3,6.6-3.9.3-10.9-5.2-9.1-8.2,1.7-1.8,5.6-.1,7.8,1.6Z" fill="#44aee3"></path><path id="Path_15970" data-name="Path 15970" d="M488.6,130c3.4,2.5,4.3,5.7,1.6,6-3.5.4-10.1-4.6-8.7-7.4,1.4-1.6,5-.2,7.1,1.4Z" fill="#44aee3"></path><path id="Path_15971" data-name="Path 15971" d="M493.1,122c3.2,2.2,4.2,5.2,1.9,5.5-2.9.4-9.3-4.2-8.3-6.7,1-1.4,4.1-.5,6.4,1.2Z" fill="#44aee3"></path><path id="Path_15972" data-name="Path 15972" d="M496.7,114c3,2,4.1,4.7,2.1,5-2.6.4-8.5-3.7-7.8-6,.7-1.3,3.5-.5,5.7,1Z" fill="#44aee3"></path><path id="Path_15973" data-name="Path 15973" d="M499.3,106.1c2.7,1.8,4,4.2,2.3,4.4-2.2.3-7.6-3.2-7.2-5.3.6-1.2,3.3-.2,4.9.9Z" fill="#44aee3"></path><path id="Path_15974" data-name="Path 15974" d="M501.1,98.2c2.5,1.6,3.8,3.7,2.4,4-1.8.3-6.8-2.9-6.7-4.7.3-1,2.5-.4,4.3.7Z" fill="#44aee3"></path><path id="Path_15975" data-name="Path 15975" d="M502,90.4c2.3,1.4,3.5,3.2,2.3,3.5-1.5.3-6-2.4-6-4,.2-1.1,2.4-.3,3.7.5Z" fill="#44aee3"></path><path id="Path_15976" data-name="Path 15976" d="M502,82.6c2,1.2,3.2,2.8,2.3,3-1.2.3-5.2-2.1-5.4-3.5.1-.8,1.9-.2,3.1.5Z" fill="#44aee3"></path><path id="Path_15977" data-name="Path 15977" d="M501.1,75c1.7,1,2.9,2.3,2.1,2.5-.9.3-4.4-1.7-4.7-2.9,0-.6,1.4-.3,2.6.4Z" fill="#44aee3"></path><path id="Path_15978" data-name="Path 15978" d="M499.3,67.5c1.5.8,2.5,1.9,2,2.1-.7.2-3.6-1.4-4-2.4-.1-.7,1.1-.2,2,.3Z" fill="#44aee3"></path><path id="Path_15979" data-name="Path 15979" d="M496.7,60c1.2.6,2.1,1.5,1.7,1.7-.5.2-2.9-1.1-3.3-1.9-.2-.5.8-.1,1.6.2Z" fill="#44aee3"></path><path id="Path_15980" data-name="Path 15980" d="M493.1,52.7c.9.5,1.7,1.2,1.4,1.3a5.16,5.16,0,0,1-2.6-1.4c-.2-.4.5-.1.7-.1.2.1.3.2.5.2Z" fill="#44aee3"></path><path id="Path_15981" data-name="Path 15981" d="M488.7,45.6c.7.3,1.2.8,1,.9a3.291,3.291,0,0,1-1.8-1s-.1-.2.2-.1a1.422,1.422,0,0,1,.6.2Z" fill="#44aee3"></path><path id="Path_15982" data-name="Path 15982" d="M483.3,38.6c.4.2.8.5.7.5a2.424,2.424,0,0,1-1.1-.6s-.1-.1.1-.1c.1.1.2.1.3.2Z" fill="#44aee3"></path><path id="Path_15983" data-name="Path 15983" d="M477.3,31.9h-.1l-.2-.1h.1Z" fill="#44aee3"></path><path id="Path_15984" data-name="Path 15984" d="M18.4,312.4,18,312l.4-.4.4.4Z" fill="#44aee3"></path><path id="Path_15985" data-name="Path 15985" d="M39.7,311.3a.846.846,0,0,1-1.5.4.8.8,0,0,1,.7-1.2.781.781,0,0,1,.8.8Z" fill="#44aee3"></path><path id="Path_15986" data-name="Path 15986" d="M60.6,310.2a1.272,1.272,0,0,1-2.1.8,1.251,1.251,0,0,1,.9-2,1.145,1.145,0,0,1,1.2,1.2Z" fill="#44aee3"></path><path id="Path_15987" data-name="Path 15987" d="M81.6,308.6a1.732,1.732,0,0,1-2.9,1.1,1.6,1.6,0,0,1,1.1-2.7c1.3,0,1.9.8,1.8,1.6Z" fill="#44aee3"></path><path id="Path_15988" data-name="Path 15988" d="M102.6,306.7a2.039,2.039,0,0,1-3.5,1.4,2,2,0,1,1,3.5-1.4Z" fill="#44aee3"></path><path id="Path_15989" data-name="Path 15989" d="M123.5,304.3a2.447,2.447,0,0,1-4.1,1.8,2.288,2.288,0,0,1,1.4-4,2.373,2.373,0,0,1,2.7,2.2Z" fill="#44aee3"></path><path id="Path_15990" data-name="Path 15990" d="M144.4,301.6a2.86,2.86,0,0,1-4.8,2.2A2.716,2.716,0,0,1,141,299a2.969,2.969,0,0,1,3.4,2.6Z" fill="#44aee3"></path><path id="Path_15991" data-name="Path 15991" d="M165.2,298.5c.3,2.8-3.2,4.5-5.5,2.6a3.14,3.14,0,0,1,1.4-5.6,3.635,3.635,0,0,1,4.1,3Z" fill="#44aee3"></path><path id="Path_15992" data-name="Path 15992" d="M185.8,295c.5,3.2-3.3,5.1-6,3.1-2.3-1.8-2-5.5,1.4-6.2a3.877,3.877,0,0,1,4.6,3.1Z" fill="#44aee3"></path><path id="Path_15993" data-name="Path 15993" d="M206.1,291.1c.7,3.5-3.5,5.7-6.5,3.5-2.7-1.9-2.5-6,1.2-6.9a4.505,4.505,0,0,1,5.3,3.4Z" fill="#44aee3"></path><path id="Path_15994" data-name="Path 15994" d="M226.3,286.8c.9,3.6-3.2,6.2-6.7,4.2s-3.3-6.6.3-7.8c.1,0,.3-.1.4-.1a5.257,5.257,0,0,1,6,3.7Z" fill="#44aee3"></path><path id="Path_15995" data-name="Path 15995" d="M246.1,282.2c1.1,3.9-3.2,6.8-7,4.7s-3.8-7.1-.1-8.5a4.331,4.331,0,0,1,.5-.1,5.756,5.756,0,0,1,6.6,3.9Z" fill="#44aee3"></path><path id="Path_15996" data-name="Path 15996" d="M265.7,277.2c1.3,4.3-3.2,7.5-7.4,5.3-4.1-2.1-4.7-7.8.1-9.3a6.168,6.168,0,0,1,7.3,4Z" fill="#44aee3"></path><path id="Path_15997" data-name="Path 15997" d="M284.8,271.9c1.6,4.6-3,8.1-7.6,5.8-4.5-2.2-5.4-8.3-.3-10a6.663,6.663,0,0,1,7.9,4.2Z" fill="#44aee3"></path><path id="Path_15998" data-name="Path 15998" d="M303.6,266.2c1.9,4.8-2.8,8.7-7.9,6.4-4.8-2.3-6.1-8.7-.8-10.7a7.456,7.456,0,0,1,8.7,4.3Z" fill="#44aee3"></path><path id="Path_15999" data-name="Path 15999" d="M321.9,260.1c2.1,4.8-2.1,9-7.4,7.1-5.7-2-7.3-9.1-2.5-11.3a1.421,1.421,0,0,1,.6-.2,8.071,8.071,0,0,1,9.3,4.4Z" fill="#44aee3"></path><path id="Path_16000" data-name="Path 16000" d="M339.8,253.7c2.4,5.1-1.8,9.6-7.4,7.7-6.1-2-8-9.5-3.1-11.9l.6-.3c4.6-1.4,8.6,1.8,9.9,4.5Z" fill="#44aee3"></path><path id="Path_16001" data-name="Path 16001" d="M357,247c2.8,5.3-1.5,10.1-7.3,8.2-6.4-2-8.7-9.8-3.7-12.4l.6-.3c4.8-1.5,9,1.7,10.4,4.5Z" fill="#44aee3"></path><path id="Path_16002" data-name="Path 16002" d="M373.8,239.9c3,5.4-1.2,10.5-7.2,8.8-6.6-2-9.4-10-4.4-12.9l.6-.3c4.9-1.7,9.3,1.5,11,4.4Z" fill="#44aee3"></path><path id="Path_16003" data-name="Path 16003" d="M389.9,232.5c3.4,5.5-.7,11-7,9.3-6.9-1.9-10.1-10.2-5.1-13.3l.6-.3c4.9-2,9.7,1.4,11.5,4.3Z" fill="#44aee3"></path><path id="Path_16004" data-name="Path 16004" d="M405.3,224.9c3.5,5.3.2,10.9-5.8,9.8-7.3-1.2-11.6-10.3-6.6-13.7l.6-.3c4.9-2.2,9.8,1.1,11.8,4.2Z" fill="#44aee3"></path><path id="Path_16005" data-name="Path 16005" d="M420,216.9c3.7,5.3.8,11-5.3,10.1-7.3-1.1-12-10.2-7.2-13.8.2-.1.4-.3.6-.4,4.7-2.1,9.8,1.1,11.9,4.1Z" fill="#44aee3"></path><path id="Path_16006" data-name="Path 16006" d="M433.6,208.9c3.9,5.2,1.3,10.7-4.5,9.9-7-1-12.1-9.9-7.7-13.4.1-.1.4-.3.5-.4,4.4-2.2,9.5.9,11.7,3.9Z" fill="#44aee3"></path><path id="Path_16007" data-name="Path 16007" d="M446.1,200.8c3.9,5,1.9,10.4-3.6,9.7-6.7-.8-12-9.4-8-12.9.1-.1.3-.2.5-.4,3.9-2.2,8.8.7,11.1,3.6Z" fill="#44aee3"></path><path id="Path_16008" data-name="Path 16008" d="M457.5,192.6c3.9,4.7,2.4,9.9-2.8,9.3-6-.7-12.2-9-7.8-12.6,3.6-2.2,8.4.6,10.6,3.3Z" fill="#44aee3"></path><path id="Path_16009" data-name="Path 16009" d="M468,184.4c3.9,4.4,2.8,9.4-2,8.9-5.6-.6-11.7-8.4-7.9-11.9,3.1-2.1,7.7.5,9.9,3Z" fill="#44aee3"></path><path id="Path_16010" data-name="Path 16010" d="M477.5,176.1c3.6,3.9,3.3,8.4-.7,8.5-5.1,0-12-7.6-8.6-11.2,2.7-2.1,7.1.4,9.3,2.7Z" fill="#44aee3"></path><path id="Path_16011" data-name="Path 16011" d="M486,167.8c3.5,3.6,3.5,7.9-.1,7.9-4.6.1-11.3-7-8.5-10.4,2.4-1.9,6.4.3,8.6,2.5Z" fill="#44aee3"></path><path id="Path_16012" data-name="Path 16012" d="M493.5,159.5c3.4,3.4,3.7,7.4.4,7.5-4.2.1-10.7-6.5-8.3-9.7,2-1.9,5.9.1,7.9,2.2Z" fill="#44aee3"></path><path id="Path_16013" data-name="Path 16013" d="M500.1,151.2c3.3,3.1,3.7,6.7.9,6.9-3.7.2-9.9-5.9-8-8.8,1.6-1.8,5.1,0,7.1,1.9Z" fill="#44aee3"></path><path id="Path_16014" data-name="Path 16014" d="M505.7,142.8c3.1,2.8,3.8,6.2,1.3,6.3-3.2.2-9.2-5.3-7.7-8.1,1.3-1.5,4.5.1,6.4,1.8Z" fill="#44aee3"></path><path id="Path_16015" data-name="Path 16015" d="M510.4,134.5c2.9,2.6,3.8,5.6,1.6,5.8-2.8.2-8.4-4.8-7.4-7.4,1.1-1.4,4,.1,5.8,1.6Z" fill="#44aee3"></path><path id="Path_16016" data-name="Path 16016" d="M514.2,126.2c2.7,2.3,3.7,5.1,1.8,5.3-2.4.2-7.7-4.3-7-6.7.8-1.3,3.5,0,5.2,1.4Z" fill="#44aee3"></path><path id="Path_16017" data-name="Path 16017" d="M517,118c2.5,2,3.6,4.6,2,4.7-2,.2-6.9-3.8-6.5-5.9.5-1.2,2.9-.1,4.5,1.2Z" fill="#44aee3"></path><path id="Path_16018" data-name="Path 16018" d="M518.8,109.8c2.3,1.8,3.4,4.1,2.1,4.2-1.7.2-6.2-3.3-6-5.3.4-1.1,2.5,0,3.9,1.1Z" fill="#44aee3"></path><path id="Path_16019" data-name="Path 16019" d="M519.8,101.7c2,1.6,3.1,3.5,2.1,3.7-1.4.2-5.4-2.9-5.4-4.6.2-1,2.1-.1,3.3.9Z" fill="#44aee3"></path><path id="Path_16020" data-name="Path 16020" d="M519.8,93.6c1.8,1.3,2.9,3.1,2.1,3.2-1.1.2-4.7-2.5-4.9-3.9.1-.9,1.7-.1,2.8.7Z" fill="#44aee3"></path><path id="Path_16021" data-name="Path 16021" d="M518.9,85.7c1.6,1.1,2.6,2.6,2,2.7-.9.2-4-2.1-4.3-3.3-.1-.8,1.3-.1,2.3.6Z" fill="#44aee3"></path><path id="Path_16022" data-name="Path 16022" d="M517,77.8c1.3.9,2.2,2.1,1.8,2.2-.6.2-3.2-1.7-3.6-2.7-.1-.5.9-.1,1.8.5Z" fill="#44aee3"></path><path id="Path_16023" data-name="Path 16023" d="M514.2,70.1c1.1.7,1.9,1.7,1.6,1.8a5.8,5.8,0,0,1-3-2.2c-.1-.4.6-.1.8,0,.3.1.4.3.6.4Z" fill="#44aee3"></path><path id="Path_16024" data-name="Path 16024" d="M510.5,62.5c.8.5,1.5,1.2,1.3,1.3a4.624,4.624,0,0,1-2.2-1.6c0-.1-.1-.3.3-.1a5.931,5.931,0,0,0,.6.4Z" fill="#44aee3"></path><path id="Path_16025" data-name="Path 16025" d="M505.9,55.1c.5.3,1,.8.9.9s-1.2-.6-1.5-1c0,0-.1-.1.1-.1.1-.1.3,0,.5.2Z" fill="#44aee3"></path><path id="Path_16026" data-name="Path 16026" d="M500.9,48.2l-.2-.1-.6-.4.3.1Z" fill="#44aee3"></path><path id="Path_16027" data-name="Path 16027" d="M494.1,40.8h0l-.2-.1h.1Z" fill="#44aee3"></path><path id="Path_16028" data-name="Path 16028" d="M17.6,332.4h-.1l.1-.1v.1Z" fill="#44aee3"></path><path id="Path_16029" data-name="Path 16029" d="M38.8,332.1l-.5-.5.5-.5.4.5Z" fill="#44aee3"></path><path id="Path_16030" data-name="Path 16030" d="M60.9,330.5a.886.886,0,0,1-1.5.6.925.925,0,0,1,.6-1.5c.6-.1.9.5.9.9Z" fill="#44aee3"></path><path id="Path_16031" data-name="Path 16031" d="M82.6,328.9a1.29,1.29,0,1,1-1.4-1.3,1.237,1.237,0,0,1,1.4,1.3Z" fill="#44aee3"></path><path id="Path_16032" data-name="Path 16032" d="M104.3,326.8a1.759,1.759,0,1,1-1.9-1.8,1.871,1.871,0,0,1,1.9,1.8Z" fill="#44aee3"></path><path id="Path_16033" data-name="Path 16033" d="M125.9,324.4a2.172,2.172,0,0,1-3.6,1.6,2.082,2.082,0,0,1,1.2-3.6,2.126,2.126,0,0,1,2.4,2Z" fill="#44aee3"></path><path id="Path_16034" data-name="Path 16034" d="M147.5,321.6a2.5,2.5,0,0,1-4.2,1.9,2.462,2.462,0,0,1,1.3-4.3,2.643,2.643,0,0,1,2.9,2.4Z" fill="#44aee3"></path><path id="Path_16035" data-name="Path 16035" d="M169,318.4a2.95,2.95,0,0,1-4.9,2.4,2.873,2.873,0,0,1,1.3-5.1,3.107,3.107,0,0,1,3.6,2.7Z" fill="#44aee3"></path><path id="Path_16036" data-name="Path 16036" d="M190.2,314.8c.4,2.9-3.1,4.6-5.4,2.8a3.172,3.172,0,0,1,1.3-5.7,3.5,3.5,0,0,1,4.1,2.9Z" fill="#44aee3"></path><path id="Path_16037" data-name="Path 16037" d="M211.2,310.8a3.587,3.587,0,0,1-5.9,3.2,3.531,3.531,0,0,1,1.2-6.4,3.886,3.886,0,0,1,4.7,3.2Z" fill="#44aee3"></path><path id="Path_16038" data-name="Path 16038" d="M232,306.4c.7,3.4-3,5.7-6.1,3.9-3-1.8-3.1-6.3.8-7.3a4.363,4.363,0,0,1,5.3,3.4Z" fill="#44aee3"></path><path id="Path_16039" data-name="Path 16039" d="M252.5,301.6c.9,3.6-3.1,6.3-6.4,4.3-3.3-1.9-3.5-6.7.6-8a5.024,5.024,0,0,1,5.8,3.7Z" fill="#44aee3"></path><path id="Path_16040" data-name="Path 16040" d="M272.7,296.5c1.1,4-3,6.9-6.8,4.9-3.7-2-4.1-7.3.3-8.7a5.4,5.4,0,0,1,6.5,3.8Z" fill="#44aee3"></path><path id="Path_16041" data-name="Path 16041" d="M292.5,291c1.3,4.2-3,7.4-7,5.3-3.9-2-4.5-7.8,0-9.3a5.93,5.93,0,0,1,7,4Z" fill="#44aee3"></path><path id="Path_16042" data-name="Path 16042" d="M311.8,285.1c1.5,4.5-2.9,8-7.2,5.8-4.2-2.1-5-8.2-.3-9.9a6.281,6.281,0,0,1,7.5,4.1Z" fill="#44aee3"></path><path id="Path_16043" data-name="Path 16043" d="M330.7,278.9c1.8,4.7-2.7,8.5-7.3,6.3-4.5-2.2-5.6-8.4-.7-10.4a6.662,6.662,0,0,1,8,4.1Z" fill="#44aee3"></path><path id="Path_16044" data-name="Path 16044" d="M349.1,272.3c2,4.9-2.4,9-7.3,6.7-4.7-2.2-6.2-8.7-1.1-10.9a7.1,7.1,0,0,1,8.4,4.2Z" fill="#44aee3"></path><path id="Path_16045" data-name="Path 16045" d="M366.9,265.4c2.1,4.8-1.7,9.1-6.7,7.4-5.5-1.9-7.1-9-2.7-11.3a1.69,1.69,0,0,1,.5-.2c4.3-1.5,7.8,1.5,8.9,4.1Z" fill="#44aee3"></path><path id="Path_16046" data-name="Path 16046" d="M384.2,258.1c2.4,4.9-1.4,9.4-6.5,7.8-5.6-1.8-7.6-9.1-3.2-11.7a2.186,2.186,0,0,0,.5-.3c4.2-1.5,7.9,1.6,9.2,4.2Z" fill="#44aee3"></path><path id="Path_16047" data-name="Path 16047" d="M400.7,250.6c2.6,5-1,9.7-6.3,8.1-5.5-1.7-8.4-9.4-3.2-12.2,4.3-1.7,8.2,1.4,9.5,4.1Z" fill="#44aee3"></path><path id="Path_16048" data-name="Path 16048" d="M416.6,242.7c2.8,5.1-.6,9.9-5.9,8.4-5.6-1.6-8.7-9.4-3.7-12.3,4.2-1.8,8.1,1.2,9.6,3.9Z" fill="#44aee3"></path><path id="Path_16049" data-name="Path 16049" d="M431.8,234.5c3,5-.2,10-5.5,8.6-5.5-1.5-9-9.3-4.1-12.3,4-1.9,8,1,9.6,3.7Z" fill="#44aee3"></path><path id="Path_16050" data-name="Path 16050" d="M445.9,226.2c3.1,4.9.3,9.9-4.8,8.5-5.4-1.4-9.1-9-4.6-12.1,3.8-1.9,7.8.9,9.4,3.6Z" fill="#44aee3"></path><path id="Path_16051" data-name="Path 16051" d="M459,217.8c3,4.5,1,9.3-3.5,8.5-5.3-.8-9.9-8.7-5.6-12,3.5-1.9,7.4.9,9.1,3.5Z" fill="#44aee3"></path><path id="Path_16052" data-name="Path 16052" d="M471,209.3c3,4.3,1.4,9-2.8,8.3-5-.8-9.7-8.4-5.9-11.6,3.2-1.9,7,.8,8.7,3.3Z" fill="#44aee3"></path><path id="Path_16053" data-name="Path 16053" d="M482,200.7c3,4.1,1.9,8.7-2.1,8.1-4.7-.7-9.5-8-6.1-11.1,2.7-1.9,6.5.6,8.2,3Z" fill="#44aee3"></path><path id="Path_16054" data-name="Path 16054" d="M491.9,192.2c3,3.9,2.2,8.2-1.5,7.7-4.3-.6-9.1-7.5-6.2-10.5,2.4-1.8,6,.5,7.7,2.8Z" fill="#44aee3"></path><path id="Path_16055" data-name="Path 16055" d="M500.8,183.5c2.9,3.6,2.4,7.7-.9,7.3-3.9-.5-8.7-7-6.2-9.9,2.1-1.7,5.4.5,7.1,2.6Z" fill="#44aee3"></path><path id="Path_16056" data-name="Path 16056" d="M508.7,174.9c2.9,3.4,2.7,7.3-.4,6.9-3.6-.4-8.2-6.5-6.2-9.2,1.8-1.7,4.9.3,6.6,2.3Z" fill="#44aee3"></path><path id="Path_16057" data-name="Path 16057" d="M515.6,166.3c2.7,3.1,2.8,6.7.1,6.4-3.2-.4-7.7-6-6.1-8.6,1.5-1.5,4.4.3,6,2.2Z" fill="#44aee3"></path><path id="Path_16058" data-name="Path 16058" d="M521.5,157.6c2.5,2.7,2.9,5.9.8,6-2.8.1-7.6-5.3-6.2-7.9,1.2-1.5,3.8.2,5.4,1.9Z" fill="#44aee3"></path><path id="Path_16059" data-name="Path 16059" d="M526.4,149c2.4,2.5,3,5.4,1.1,5.5-2.4.1-7-4.9-6-7.2,1-1.4,3.4.1,4.9,1.7Z" fill="#44aee3"></path><path id="Path_16060" data-name="Path 16060" d="M530.3,140.4c2.2,2.2,2.9,4.9,1.3,5-2,.1-6.3-4.3-5.6-6.5.7-1.3,2.9.1,4.3,1.5Z" fill="#44aee3"></path><path id="Path_16061" data-name="Path 16061" d="M533.2,131.8c2,2,2.8,4.4,1.5,4.5-1.7.1-5.7-3.9-5.3-5.9.6-1,2.6.2,3.8,1.4Z" fill="#44aee3"></path><path id="Path_16062" data-name="Path 16062" d="M535.2,123.3c1.8,1.8,2.7,3.9,1.6,4-1.4.1-5-3.4-4.8-5.2.3-.9,2.1.2,3.2,1.2Z" fill="#44aee3"></path><path id="Path_16063" data-name="Path 16063" d="M536.2,114.9c1.6,1.5,2.5,3.4,1.7,3.5-1.1.1-4.3-2.9-4.3-4.5.1-.9,1.6.1,2.6,1Z" fill="#44aee3"></path><path id="Path_16064" data-name="Path 16064" d="M536.2,106.6c1.4,1.3,2.3,2.9,1.6,3-.9.1-3.7-2.5-3.8-3.8.1-.8,1.3,0,2.2.8Z" fill="#44aee3"></path><path id="Path_16065" data-name="Path 16065" d="M535.3,98.3c1.2,1.1,2.1,2.5,1.6,2.5-.6.1-3.1-2.2-3.4-3.3,0-.5,1,.1,1.8.8Z" fill="#44aee3"></path><path id="Path_16066" data-name="Path 16066" d="M533.4,90.2c1,.9,1.7,1.9,1.4,2-.4.1-2.4-1.7-2.7-2.6-.1-.4.4-.1.7,0a3.392,3.392,0,0,0,.6.6Z" fill="#44aee3"></path><path id="Path_16067" data-name="Path 16067" d="M530.6,82.2c.8.7,1.4,1.5,1.2,1.5-.3.1-1.8-1.3-2.1-1.9,0-.1-.1-.3.2-.1.2.1.5.4.7.5Z" fill="#44aee3"></path><path id="Path_16068" data-name="Path 16068" d="M526.8,74.4c.6.5,1,1,.9,1.1a4.514,4.514,0,0,1-1.5-1.4c0-.1-.1-.2.1-.1a3.611,3.611,0,0,0,.5.4Z" fill="#44aee3"></path><path id="Path_16069" data-name="Path 16069" d="M522,66.7c.4.3.7.6.6.6a5.771,5.771,0,0,1-1-.8v-.1c.1,0,.4.2.4.3Z" fill="#44aee3"></path><path id="Path_16070" data-name="Path 16070" d="M516.5,59.3l-.1-.1-.2-.1h.1Z" fill="#44aee3"></path><path id="Path_16071" data-name="Path 16071" d="M60.9,352.1l-.3-.3.3-.3.3.3Z" fill="#44aee3"></path><path id="Path_16072" data-name="Path 16072" d="M83.5,350.2a.741.741,0,0,1-1.2.5.626.626,0,0,1,.4-1.1.608.608,0,0,1,.8.6Z" fill="#44aee3"></path><path id="Path_16073" data-name="Path 16073" d="M105.8,348.1a1.115,1.115,0,0,1-1.9.8,1.148,1.148,0,0,1,.7-1.9,1.133,1.133,0,0,1,1.2,1.1Z" fill="#44aee3"></path><path id="Path_16074" data-name="Path 16074" d="M128.1,345.6a1.482,1.482,0,0,1-2.5,1.1,1.461,1.461,0,0,1,.8-2.5,1.583,1.583,0,0,1,1.7,1.4Z" fill="#44aee3"></path><path id="Path_16075" data-name="Path 16075" d="M150.3,342.7a1.939,1.939,0,0,1-3.2,1.5,1.9,1.9,0,0,1,.9-3.3,2.078,2.078,0,0,1,2.3,1.8Z" fill="#44aee3"></path><path id="Path_16076" data-name="Path 16076" d="M172.3,339.4a2.254,2.254,0,0,1-3.8,1.8,2.3,2.3,0,0,1,1.1-4,2.5,2.5,0,0,1,2.7,2.2Z" fill="#44aee3"></path><path id="Path_16077" data-name="Path 16077" d="M194.1,335.7a2.572,2.572,0,1,1-3.1-2.3,2.651,2.651,0,0,1,3.1,2.3Z" fill="#44aee3"></path><path id="Path_16078" data-name="Path 16078" d="M215.8,331.6a2.884,2.884,0,0,1-4.7,2.6,2.922,2.922,0,0,1,1.1-5.2,3.234,3.234,0,0,1,3.6,2.6Z" fill="#44aee3"></path><path id="Path_16079" data-name="Path 16079" d="M237.2,327.1a3.283,3.283,0,1,1-4.2-2.8,3.6,3.6,0,0,1,4.2,2.8Z" fill="#44aee3"></path><path id="Path_16080" data-name="Path 16080" d="M258.2,322.3a3.494,3.494,0,0,1-5.6,3.4c-2.2-1.6-2.5-5.4.9-6.5a3.927,3.927,0,0,1,4.7,3.1Z" fill="#44aee3"></path><path id="Path_16081" data-name="Path 16081" d="M278.9,317a3.691,3.691,0,0,1-5.6,4c-2.9-1.7-3.1-6.1.5-7.2a4.2,4.2,0,0,1,5.1,3.2Z" fill="#44aee3"></path><path id="Path_16082" data-name="Path 16082" d="M299.3,311.4a3.893,3.893,0,0,1-5.8,4.4c-3.1-1.8-3.5-6.5.3-7.8a4.592,4.592,0,0,1,5.5,3.4Z" fill="#44aee3"></path><path id="Path_16083" data-name="Path 16083" d="M319.2,305.3a4.1,4.1,0,0,1-6,4.8c-3.3-1.8-3.8-6.9,0-8.3a5.069,5.069,0,0,1,6,3.5Z" fill="#44aee3"></path><path id="Path_16084" data-name="Path 16084" d="M338.6,299a4.259,4.259,0,0,1-6.1,5.2c-3.5-1.8-4.2-7.1-.2-8.7,3.2-1,5.6,1.4,6.3,3.5Z" fill="#44aee3"></path><path id="Path_16085" data-name="Path 16085" d="M357.5,292.2c1.4,4.1-2.3,7.5-6.1,5.6-3.7-1.9-4.7-7.4-.6-9.2,3.4-1,5.9,1.5,6.7,3.6Z" fill="#44aee3"></path><path id="Path_16086" data-name="Path 16086" d="M375.8,285.2c1.6,4.2-2.1,7.7-6,5.9s-5-7.5-.9-9.4c3.4-1.2,6,1.3,6.9,3.5Z" fill="#44aee3"></path><path id="Path_16087" data-name="Path 16087" d="M393.5,277.7c1.8,4.3-1.8,8.1-5.9,6.2-4-1.9-5.3-7.7-1.2-9.8,3.4-1.2,6.2,1.4,7.1,3.6Z" fill="#44aee3"></path><path id="Path_16088" data-name="Path 16088" d="M410.6,270c1.8,4.2-1.2,8-5.2,6.6-4.3-1.5-6.3-7.9-2.1-10.2,3.4-1.3,6.3,1.3,7.3,3.6Z" fill="#44aee3"></path><path id="Path_16089" data-name="Path 16089" d="M426.9,261.9c1.9,4.1-.9,8.1-4.9,6.8-4.3-1.4-6.5-7.8-2.4-10.2,3.3-1.4,6.3,1.2,7.3,3.4Z" fill="#44aee3"></path><path id="Path_16090" data-name="Path 16090" d="M442.6,253.5c2.1,4.2-.6,8.2-4.6,7-4.3-1.3-6.6-7.7-2.7-10.2,3.2-1.6,6.2.9,7.3,3.2Z" fill="#44aee3"></path><path id="Path_16091" data-name="Path 16091" d="M457.3,244.9c2.2,4.1-.2,8.1-4.1,7-4.2-1.2-6.7-7.6-3.1-10.2,3-1.5,6,1,7.2,3.2Z" fill="#44aee3"></path><path id="Path_16092" data-name="Path 16092" d="M470.8,236.3c2.2,4,.2,7.9-3.5,6.9-4-1.2-6.7-7.4-3.4-9.9,2.8-1.6,5.7.8,6.9,3Z" fill="#44aee3"></path><path id="Path_16093" data-name="Path 16093" d="M483.3,227.5c2.3,3.9.6,7.7-2.9,6.7-3.7-1.1-6.6-7.1-3.6-9.6,2.4-1.4,5.3.8,6.5,2.9Z" fill="#44aee3"></path><path id="Path_16094" data-name="Path 16094" d="M494.7,218.7c2.2,3.5,1.1,7.2-2,6.6-3.6-.6-7-6.8-4.2-9.3,2.2-1.5,5,.7,6.2,2.7Z" fill="#44aee3"></path><path id="Path_16095" data-name="Path 16095" d="M505,209.8c2.2,3.4,1.4,6.9-1.5,6.4-3.3-.6-6.8-6.5-4.4-8.9,2-1.5,4.7.6,5.9,2.5Z" fill="#44aee3"></path><path id="Path_16096" data-name="Path 16096" d="M514.3,200.9c2.1,3.1,1.6,6.6-1,6.1-3-.5-6.5-6.1-4.5-8.5,1.8-1.4,4.3.6,5.5,2.4Z" fill="#44aee3"></path><path id="Path_16097" data-name="Path 16097" d="M522.5,192c2.1,3,1.8,6.2-.5,5.8-2.8-.5-6.2-5.7-4.5-8,1.5-1.3,3.8.5,5,2.2Z" fill="#44aee3"></path><path id="Path_16098" data-name="Path 16098" d="M529.7,183.1c2,2.7,1.9,5.7-.2,5.4-2.4-.4-5.7-5.2-4.4-7.4,1.3-1.3,3.4.4,4.6,2Z" fill="#44aee3"></path><path id="Path_16099" data-name="Path 16099" d="M535.9,174.2c1.9,2.5,2,5.3.2,5-2.2-.3-5.3-4.8-4.2-6.8.9-1.2,2.8.3,4,1.8Z" fill="#44aee3"></path><path id="Path_16100" data-name="Path 16100" d="M541,165.3c1.8,2.3,2.1,4.8.5,4.6-1.9-.3-4.9-4.4-4.1-6.2.7-1.2,2.5.2,3.6,1.6Z" fill="#44aee3"></path><path id="Path_16101" data-name="Path 16101" d="M545.1,156.4c1.7,2.1,2,4.3.7,4.1-1.6-.3-4.4-3.9-3.8-5.6.5-1,2.1.3,3.1,1.5Z" fill="#44aee3"></path><path id="Path_16102" data-name="Path 16102" d="M548.2,147.6c1.5,1.8,2,3.8.9,3.6-1.3-.2-3.9-3.4-3.5-4.9.3-.9,1.7.2,2.6,1.3Z" fill="#44aee3"></path><path id="Path_16103" data-name="Path 16103" d="M550.2,138.8c1.3,1.5,1.8,3.2,1.1,3.2-1,0-3.5-2.9-3.3-4.3.2-.8,1.5.2,2.2,1.1Z" fill="#44aee3"></path><path id="Path_16104" data-name="Path 16104" d="M551.3,130.1c1.1,1.3,1.7,2.7,1.1,2.8-.8,0-3-2.5-3-3.7.2-.7,1.2.1,1.9.9Z" fill="#44aee3"></path><path id="Path_16105" data-name="Path 16105" d="M551.4,121.5c1,1.1,1.5,2.3,1.1,2.3-.6,0-2.5-2.1-2.6-3.1,0-.6.9.1,1.5.8Z" fill="#44aee3"></path><path id="Path_16106" data-name="Path 16106" d="M550.5,113c.8.8,1.3,1.8,1,1.8-.4,0-1.9-1.7-2.1-2.4,0-.4.6.1.7.2l.4.4Z" fill="#44aee3"></path><path id="Path_16107" data-name="Path 16107" d="M548.6,104.6c.6.6,1,1.3.8,1.3a4.833,4.833,0,0,1-1.6-1.8c0-.1,0-.2.2-.1.1.2.4.4.6.6Z" fill="#44aee3"></path><path id="Path_16108" data-name="Path 16108" d="M545.7,96.3c.4.4.7.9.6.9a4.407,4.407,0,0,1-1.1-1.2v-.1c.1.1.3.2.5.4Z" fill="#44aee3"></path><path id="Path_16109" data-name="Path 16109" d="M542.1,88.6l-.2-.1-.3-.4.2.1Z" fill="#44aee3"></path><path id="Path_16110" data-name="Path 16110" d="M537,80.3h-.1v0Z" fill="#44aee3"></path><path id="Path_16111" data-name="Path 16111" d="M107,370.6l-.2-.2.2-.2.2.2Z" fill="#44aee3"></path><path id="Path_16112" data-name="Path 16112" d="M129.5,368.5l-.6-.6.5-.6.6.5Z" fill="#44aee3"></path><path id="Path_16113" data-name="Path 16113" d="M152.7,364.9a.9.9,0,0,1-1.5.7.868.868,0,0,1,.5-1.5c.6-.1.9.5,1,.8Z" fill="#44aee3"></path><path id="Path_16114" data-name="Path 16114" d="M175.3,361.6a1.243,1.243,0,0,1-2.1,1,1.257,1.257,0,0,1,.6-2.2,1.357,1.357,0,0,1,1.5,1.2Z" fill="#44aee3"></path><path id="Path_16115" data-name="Path 16115" d="M197.7,357.8a1.586,1.586,0,0,1-2.6,1.4,1.625,1.625,0,1,1,2.6-1.4Z" fill="#44aee3"></path><path id="Path_16116" data-name="Path 16116" d="M219.9,353.6a1.879,1.879,0,0,1-3.1,1.7,1.912,1.912,0,0,1,.7-3.4,1.99,1.99,0,0,1,2.4,1.7Z" fill="#44aee3"></path><path id="Path_16117" data-name="Path 16117" d="M241.7,349a2.136,2.136,0,0,1-3.5,2,2.236,2.236,0,0,1,.8-4,2.365,2.365,0,0,1,2.7,2Z" fill="#44aee3"></path><path id="Path_16118" data-name="Path 16118" d="M263.3,344a2.421,2.421,0,0,1-3.9,2.4,2.6,2.6,0,0,1,.7-4.6,2.748,2.748,0,0,1,3.2,2.2Z" fill="#44aee3"></path><path id="Path_16119" data-name="Path 16119" d="M284.5,338.7a2.575,2.575,0,0,1-3.9,2.8c-1.9-1.2-2-4.4.4-5.2a2.92,2.92,0,0,1,3.5,2.4Z" fill="#44aee3"></path><path id="Path_16120" data-name="Path 16120" d="M305.3,332.9a2.779,2.779,0,0,1-4.1,3.2c-2.2-1.3-2.4-4.7.3-5.6a3.011,3.011,0,0,1,3.8,2.4Z" fill="#44aee3"></path><path id="Path_16121" data-name="Path 16121" d="M325.7,326.8a2.957,2.957,0,0,1-4.3,3.5c-2.4-1.4-2.6-5,.2-6.1a3.328,3.328,0,0,1,4.1,2.6Z" fill="#44aee3"></path><path id="Path_16122" data-name="Path 16122" d="M345.6,320.3c.8,2.9-1.9,5.2-4.4,3.8s-2.9-5.3,0-6.4a3.52,3.52,0,0,1,4.4,2.6Z" fill="#44aee3"></path><path id="Path_16123" data-name="Path 16123" d="M365,313.4c.9,3-1.8,5.5-4.5,4.1-2.6-1.4-3.2-5.5-.2-6.8a3.747,3.747,0,0,1,4.7,2.7Z" fill="#44aee3"></path><path id="Path_16124" data-name="Path 16124" d="M383.8,306.2c1,3.2-1.7,5.8-4.5,4.4-2.7-1.4-3.4-5.7-.4-7.1a3.816,3.816,0,0,1,4.9,2.7Z" fill="#44aee3"></path><path id="Path_16125" data-name="Path 16125" d="M402,298.6c1.1,3.2-1.5,6-4.4,4.6-2.8-1.4-3.6-5.8-.6-7.3,2.6-1,4.4,1.1,5,2.7Z" fill="#44aee3"></path><path id="Path_16126" data-name="Path 16126" d="M419.5,290.7c1.2,3.3-1.4,6.1-4.2,4.8s-3.7-5.9-.8-7.4c2.4-1.1,4.4.9,5,2.6Z" fill="#44aee3"></path><path id="Path_16127" data-name="Path 16127" d="M436.4,282.4c1.3,3.3-1.1,6.3-4,4.9-2.8-1.3-3.9-5.9-1-7.5,2.2-1,4.3.9,5,2.6Z" fill="#44aee3"></path><path id="Path_16128" data-name="Path 16128" d="M452.5,273.8c1.4,3.3-.9,6.4-3.8,5.1-2.8-1.3-4-5.9-1.3-7.6,2.3-1.1,4.4.8,5.1,2.5Z" fill="#44aee3"></path><path id="Path_16129" data-name="Path 16129" d="M467.6,265c1.4,3.1-.4,6.1-3.1,5.2-2.9-1-4.6-5.9-1.9-7.7,2.2-1.1,4.3.8,5,2.5Z" fill="#44aee3"></path><path id="Path_16130" data-name="Path 16130" d="M481.6,256.1c1.4,3-.1,6-2.7,5.1-2.8-.9-4.5-5.7-2.1-7.6,2-1,4,.9,4.8,2.5Z" fill="#44aee3"></path><path id="Path_16131" data-name="Path 16131" d="M494.5,247.2c1.5,2.9.2,5.9-2.3,5.1-2.7-.9-4.5-5.5-2.3-7.4,1.9-1.1,3.8.6,4.6,2.3Z" fill="#44aee3"></path><path id="Path_16132" data-name="Path 16132" d="M506.3,238.1c1.5,2.9.5,5.7-1.9,4.9-2.5-.8-4.4-5.3-2.4-7.1,1.6-1,3.5.7,4.3,2.2Z" fill="#44aee3"></path><path id="Path_16133" data-name="Path 16133" d="M517,229c1.5,2.7.6,5.4-1.5,4.7-2.3-.8-4.1-5-2.5-6.7,1.4-1,3.2.6,4,2Z" fill="#44aee3"></path><path id="Path_16134" data-name="Path 16134" d="M526.6,219.9c1.4,2.4.9,4.9-.9,4.5-2.1-.5-4.3-4.6-2.8-6.4,1.3-1,2.9.5,3.7,1.9Z" fill="#44aee3"></path><path id="Path_16135" data-name="Path 16135" d="M535.1,210.7c1.3,2.2,1,4.6-.5,4.2-1.9-.4-4-4.3-2.8-6,1-.9,2.6.5,3.3,1.8Z" fill="#44aee3"></path><path id="Path_16136" data-name="Path 16136" d="M542.6,201.5c1.3,2.1,1.2,4.3-.2,4-1.7-.4-3.8-4-2.7-5.6.7-.9,2.2.4,2.9,1.6Z" fill="#44aee3"></path><path id="Path_16137" data-name="Path 16137" d="M549,192.3c1.2,1.9,1.2,3.9,0,3.6-1.4-.3-3.4-3.7-2.7-5.1.7-.8,2,.4,2.7,1.5Z" fill="#44aee3"></path><path id="Path_16138" data-name="Path 16138" d="M554.3,183.2c1.1,1.7,1.2,3.5.2,3.2-1.2-.3-3-3.2-2.5-4.5.6-.7,1.7.3,2.3,1.3Z" fill="#44aee3"></path><path id="Path_16139" data-name="Path 16139" d="M558.6,174c1,1.5,1.2,3.1.4,2.9-1-.2-2.7-2.9-2.3-4,.3-.7,1.3.3,1.9,1.1Z" fill="#44aee3"></path><path id="Path_16140" data-name="Path 16140" d="M561.8,165c.9,1.3,1.2,2.7.5,2.5-.8-.2-2.3-2.5-2.1-3.5.3-.6,1.2.3,1.6,1Z" fill="#44aee3"></path><path id="Path_16141" data-name="Path 16141" d="M564,155.9c.8,1.1,1.1,2.2.5,2.1a4.429,4.429,0,0,1-1.8-2.9c.2-.4.8.1,1.3.8Z" fill="#44aee3"></path><path id="Path_16142" data-name="Path 16142" d="M565.2,147c.6.8.9,1.6.6,1.6-.4,0-1.5-1.6-1.5-2.3,0-.3.6.2.9.7Z" fill="#44aee3"></path><path id="Path_16143" data-name="Path 16143" d="M565.3,138.1c.5.6.7,1.3.5,1.3-.3,0-1.1-1.2-1.2-1.7,0-.3.3,0,.4.2.2,0,.3.1.3.2Z" fill="#44aee3"></path><path id="Path_16144" data-name="Path 16144" d="M564.4,129.4c.3.4.5.8.4.8-.2,0-.7-.8-.8-1.1,0,0,0-.1.1,0q.3.15.3.3Z" fill="#44aee3"></path><path id="Path_16145" data-name="Path 16145" d="M562.7,121.1l-.1-.1-.2-.4.1.2Z" fill="#44aee3"></path><path id="Path_16146" data-name="Path 16146" d="M177.9,384.8v-.1h.1Z" fill="#44aee3"></path><path id="Path_16147" data-name="Path 16147" d="M200.6,381.2l-.4-.2.3-.4.3.3Z" fill="#44aee3"></path><path id="Path_16148" data-name="Path 16148" d="M223.5,376.6c.1.5-.6,1-1,.6a.715.715,0,0,1,.2-1.2c.5,0,.8.3.8.6Z" fill="#44aee3"></path><path id="Path_16149" data-name="Path 16149" d="M245.8,372a.84.84,0,0,1-1.4.8.918.918,0,0,1,.3-1.6.9.9,0,0,1,1.1.8Z" fill="#44aee3"></path><path id="Path_16150" data-name="Path 16150" d="M267.9,366.9a1.14,1.14,0,0,1-1.8,1.1,1.181,1.181,0,0,1,.4-2.1,1.141,1.141,0,0,1,1.4,1Z" fill="#44aee3"></path><path id="Path_16151" data-name="Path 16151" d="M289.6,361.4a1.306,1.306,0,0,1-2,1.4,1.5,1.5,0,0,1,.3-2.7,1.581,1.581,0,0,1,1.7,1.3Z" fill="#44aee3"></path><path id="Path_16152" data-name="Path 16152" d="M310.9,355.6a1.523,1.523,0,0,1-2.3,1.7,1.7,1.7,0,0,1,.3-3.1,1.666,1.666,0,0,1,2,1.4Z" fill="#44aee3"></path><path id="Path_16153" data-name="Path 16153" d="M331.6,349.3a1.64,1.64,0,0,1-2.4,1.9,1.936,1.936,0,0,1,.2-3.4,1.909,1.909,0,0,1,2.2,1.5Z" fill="#44aee3"></path><path id="Path_16154" data-name="Path 16154" d="M352,342.7c.4,1.7-1.1,3.1-2.6,2.2-1.4-.8-1.6-3.2.1-3.9a2.148,2.148,0,0,1,2.5,1.7Z" fill="#44aee3"></path><path id="Path_16155" data-name="Path 16155" d="M371.8,335.7a1.926,1.926,0,0,1-2.7,2.4,2.351,2.351,0,0,1,0-4.1,2.168,2.168,0,0,1,2.7,1.7Z" fill="#44aee3"></path><path id="Path_16156" data-name="Path 16156" d="M391.1,328.4c.5,1.9-1.1,3.5-2.7,2.6s-1.9-3.5-.1-4.4a2.414,2.414,0,0,1,2.8,1.8Z" fill="#44aee3"></path><path id="Path_16157" data-name="Path 16157" d="M409.7,320.7c.6,2-1,3.7-2.7,2.8-1.5-.8-2.1-3.6-.2-4.6,1.6-.6,2.6.8,2.9,1.8Z" fill="#44aee3"></path><path id="Path_16158" data-name="Path 16158" d="M427.7,312.6c.7,2-1,3.8-2.7,3-1.7-.9-2.1-3.7-.3-4.7,1.6-.7,2.6.7,3,1.7Z" fill="#44aee3"></path><path id="Path_16159" data-name="Path 16159" d="M444.9,304.2c.7,2.1-.8,4-2.5,3.1s-2.2-3.8-.5-4.8c1.5-.7,2.7.6,3,1.7Z" fill="#44aee3"></path><path id="Path_16160" data-name="Path 16160" d="M461.5,295.4c.8,2.1-.7,4-2.4,3.1-1.7-.8-2.3-3.7-.6-4.8,1.4-.6,2.6.6,3,1.7Z" fill="#44aee3"></path><path id="Path_16161" data-name="Path 16161" d="M477,286.4c.8,2.1-.5,4-2.2,3.2-1.6-.8-2.3-3.7-.7-4.8,1.3-.7,2.5.5,2.9,1.6Z" fill="#44aee3"></path><path id="Path_16162" data-name="Path 16162" d="M491.4,277.3c.8,1.9-.2,3.7-1.7,3.2-1.6-.6-2.5-3.6-1-4.7,1.2-.7,2.3.5,2.7,1.5Z" fill="#44aee3"></path><path id="Path_16163" data-name="Path 16163" d="M504.7,268.2c.8,1.8-.1,3.6-1.5,3.1-1.5-.6-2.5-3.4-1.1-4.6,1.1-.7,2.2.5,2.6,1.5Z" fill="#44aee3"></path><path id="Path_16164" data-name="Path 16164" d="M516.8,258.9c.8,1.7.1,3.4-1.2,2.9-1.4-.5-2.3-3.3-1.2-4.3,1-.6,2,.5,2.4,1.4Z" fill="#44aee3"></path><path id="Path_16165" data-name="Path 16165" d="M527.9,249.6c.8,1.6.2,3.2-.9,2.7-1.3-.5-2.2-3-1.2-4,.7-.6,1.7.4,2.1,1.3Z" fill="#44aee3"></path><path id="Path_16166" data-name="Path 16166" d="M537.8,240.3c.7,1.5.3,3-.7,2.6-1.1-.4-2.1-2.8-1.3-3.8.8-.6,1.6.4,2,1.2Z" fill="#44aee3"></path><path id="Path_16167" data-name="Path 16167" d="M546.6,230.8c.7,1.3.4,2.7-.4,2.4-1-.3-2.1-2.6-1.4-3.5.6-.5,1.4.4,1.8,1.1Z" fill="#44aee3"></path><path id="Path_16168" data-name="Path 16168" d="M554.3,221.5c.5,1,.5,2.3-.2,2.1-.9-.2-1.8-2.2-1.2-3,.4-.5,1.1.2,1.4.9Z" fill="#44aee3"></path><path id="Path_16169" data-name="Path 16169" d="M561,212c.5,1,.5,2-.1,1.9a2.728,2.728,0,0,1-1.2-2.7c.4-.4,1,.3,1.3.8Z" fill="#44aee3"></path><path id="Path_16170" data-name="Path 16170" d="M566.5,202.7c.4.8.5,1.8,0,1.6a2.712,2.712,0,0,1-1.1-2.3c.3-.4.8.2,1.1.7Z" fill="#44aee3"></path><path id="Path_16171" data-name="Path 16171" d="M571,193.3c.4.7.4,1.4.1,1.3a2.269,2.269,0,0,1-.9-1.8c.2-.3.5.1.8.5Z" fill="#44aee3"></path><path id="Path_16172" data-name="Path 16172" d="M574.4,184c.3.5.4,1,.1.9a1.71,1.71,0,0,1-.7-1.3c.1-.2.4.1.6.4Z" fill="#44aee3"></path><path id="Path_16173" data-name="Path 16173" d="M576.9,175.3l-.3-.2-.2-.6.2.2Z" fill="#44aee3"></path><path id="Path_16174" data-name="Path 16174" d="M578,165.8l-.1-.1-.1-.2.1.1Z" fill="#44aee3"></path><path id="Path_16175" data-name="Path 16175" d="M315.8,379.4l-.1-.1v-.1l.1.1Z" fill="#44aee3"></path><path id="Path_16176" data-name="Path 16176" d="M336.9,373.2l-.2-.1.1-.3.2.2Z" fill="#44aee3"></path><path id="Path_16177" data-name="Path 16177" d="M357.6,366.7l-.5-.2.2-.6.5.3Z" fill="#44aee3"></path><path id="Path_16178" data-name="Path 16178" d="M377.7,359.8l-.6-.4.3-.7.6.4Z" fill="#44aee3"></path><path id="Path_16179" data-name="Path 16179" d="M397.3,352.4l-.7-.4.3-.8.7.4Z" fill="#44aee3"></path><path id="Path_16180" data-name="Path 16180" d="M416.7,343.8c.1.6-.3,1.1-.8.8a.8.8,0,0,1,0-1.4c.4-.1.7.3.8.6Z" fill="#44aee3"></path><path id="Path_16181" data-name="Path 16181" d="M435,335.7c.2.7-.3,1.2-.8.9a.942.942,0,0,1-.1-1.5c.5-.2.8.2.9.6Z" fill="#44aee3"></path><path id="Path_16182" data-name="Path 16182" d="M452.7,327.1c.2.7-.3,1.4-.9,1a1.082,1.082,0,0,1-.1-1.7.9.9,0,0,1,1,.7Z" fill="#44aee3"></path><path id="Path_16183" data-name="Path 16183" d="M469.6,318.2c.2.7-.2,1.4-.8,1.1a1.082,1.082,0,0,1-.1-1.7c.4-.2.8.2.9.6Z" fill="#44aee3"></path><path id="Path_16184" data-name="Path 16184" d="M485.5,309.1c.2.7-.2,1.4-.7,1.1a1.16,1.16,0,0,1-.2-1.7c.5-.3.8.2.9.6Z" fill="#44aee3"></path><path id="Path_16185" data-name="Path 16185" d="M500.3,299.8c.2.7-.1,1.2-.6,1-.4-.2-.7-1.2-.2-1.5.4-.3.7.2.8.5Z" fill="#44aee3"></path><path id="Path_16186" data-name="Path 16186" d="M513.9,290.4c.2.5-.1,1.1-.5.9s-.7-1.1-.3-1.4a.688.688,0,0,1,.8.5Z" fill="#44aee3"></path><path id="Path_16187" data-name="Path 16187" d="M526.4,281c.2.5,0,1-.4.8-.4-.1-.6-.9-.3-1.3.4-.1.6.3.7.5Z" fill="#44aee3"></path><path id="Path_16188" data-name="Path 16188" d="M537.7,272.2l-.5-.3v-.8l.6.4Z" fill="#44aee3"></path><path id="Path_16189" data-name="Path 16189" d="M548,262.5l-.4-.2v-.6l.4.2Z" fill="#44aee3"></path><path id="Path_16190" data-name="Path 16190" d="M557.1,252.8l-.3-.2v-.4l.3.1Z" fill="#44aee3"></path><path id="Path_16191" data-name="Path 16191" d="M565,242.9h-.1v-.2l.1.1Z" fill="#44aee3"></path></g></g></g></svg>