<svg xmlns="http://www.w3.org/2000/svg" width="76" height="76" viewBox="0 0 76 76"><g id="Group_4318" data-name="Group 4318" transform="translate(-810 -2953)"><rect id="Rectangle_1821" data-name="Rectangle 1821" width="76" height="76" transform="translate(810 2953)" fill="none"></rect><g id="Case-studies" transform="translate(-1011.671 1985.572)"><path id="Path_9827" data-name="Path 9827" d="M1894.059,1022.911l-7.445-7.968a14.712,14.712,0,0,0-12.327-22.772c-.479,0-.952.027-1.42.072v-9.034a2.78,2.78,0,0,0-2.777-2.777H1858.7a2.761,2.761,0,0,0-.968.183v-2.236a2.872,2.872,0,0,0-2.777-2.951h-11.389a2.621,2.621,0,0,1-3.729,0h-11.389a2.872,2.872,0,0,0-2.777,2.951v54.985a2.871,2.871,0,0,0,2.777,2.951h11.389a2.621,2.621,0,0,1,3.729,0h11.389a2.664,2.664,0,0,0,1.845-.762,2.764,2.764,0,0,0,1.9.762h11.39a2.78,2.78,0,0,0,2.777-2.777v-11.977c.468.045.941.072,1.42.072a14.636,14.636,0,0,0,7.13-1.85l7.451,7.978a3.552,3.552,0,0,0,5.191-4.85Zm-54.222,11.6h-11.389a1.089,1.089,0,0,1-.976-1.151V978.379a1.088,1.088,0,0,1,.976-1.15h11.389a1.066,1.066,0,0,1,.961,1.056c0,.032-.009.062-.009.094a.911.911,0,0,0,.025.126v54.734a.865.865,0,0,0-.025.125c0,.032.008.062.009.094A1.067,1.067,0,0,1,1839.837,1034.515Zm15.118,0h-11.389a1.067,1.067,0,0,1-.96-1.057c0-.032.009-.062.009-.094V978.379c0-.032-.008-.062-.009-.094a1.066,1.066,0,0,1,.96-1.056h11.389a1.089,1.089,0,0,1,.977,1.15v4.743c0,.03-.009.057-.009.087s.008.028.009.043v50.112A1.09,1.09,0,0,1,1854.955,1034.515Zm16.111-.977a.977.977,0,0,1-.976.977H1858.7a.977.977,0,0,1-.976-.977.257.257,0,0,0-.006-.026c0-.05.014-.1.014-.148v-50.2a.973.973,0,0,1,.968-.934h11.39a.977.977,0,0,1,.976.977v9.309c0,.006,0,.011,0,.018a14.719,14.719,0,0,0,0,28.731Zm-9.71-26.636a12.931,12.931,0,1,1,12.931,12.93A12.945,12.945,0,0,1,1861.356,1006.9Zm31.283,19.733a1.763,1.763,0,0,1-2.456-.1l-7.233-7.742a14.816,14.816,0,0,0,2.571-2.381l7.223,7.732a1.752,1.752,0,0,1-.1,2.495Z" fill="#004b87"></path><path id="Path_9828" data-name="Path 9828" d="M1884.248,1006.9a9.973,9.973,0,0,0-9.961-9.961.9.9,0,0,0,0,1.8,8.169,8.169,0,0,1,8.16,8.16.9.9,0,1,0,1.8,0Z" fill="#004b87"></path><path id="Path_9829" data-name="Path 9829" d="M1837.717,1027.076h-7.148a.9.9,0,0,0,0,1.8h7.148a.9.9,0,0,0,0-1.8Z" fill="#004b87"></path><path id="Path_9830" data-name="Path 9830" d="M1837.717,1022.125h-7.148a.9.9,0,0,0,0,1.8h7.148a.9.9,0,0,0,0-1.8Z" fill="#004b87"></path><path id="Path_9831" data-name="Path 9831" d="M1852.835,1027.076h-7.147a.9.9,0,1,0,0,1.8h7.147a.9.9,0,0,0,0-1.8Z" fill="#004b87"></path><path id="Path_9832" data-name="Path 9832" d="M1852.835,1022.125h-7.147a.9.9,0,1,0,0,1.8h7.147a.9.9,0,0,0,0-1.8Z" fill="#004b87"></path><path id="Path_9833" data-name="Path 9833" d="M1867.969,1027.076h-7.148a.9.9,0,0,0,0,1.8h7.148a.9.9,0,0,0,0-1.8Z" fill="#004b87"></path><path id="Path_9834" data-name="Path 9834" d="M1859.921,1023.025a.9.9,0,0,0,.9.9h7.148a.9.9,0,0,0,0-1.8h-7.148A.9.9,0,0,0,1859.921,1023.025Z" fill="#004b87"></path></g></g></svg>