<svg xmlns="http://www.w3.org/2000/svg" width="92" height="92" viewBox="0 0 92 92"><g id="Group_4269" data-name="Group 4269" transform="translate(-234 -864)"><rect id="Rectangle_1762" data-name="Rectangle 1762" width="92" height="92" transform="translate(234 864)" fill="none"></rect><g id="Group_4250" data-name="Group 4250" transform="translate(-987.351 744.178)"><path id="Path_9669" data-name="Path 9669" d="M1307.114,163.218l-32.08-32.08a3.583,3.583,0,0,0-4.952,0l-2.69,2.69-3.188-3.188a2.8,2.8,0,0,0-3.96,0l-33.073,33.073a2.8,2.8,0,0,0,0,3.96l33.073,33.073a2.8,2.8,0,0,0,3.96,0l3.187-3.187,2.691,2.691a3.506,3.506,0,0,0,4.952,0l32.08-32.08a3.5,3.5,0,0,0,0-4.953Zm-44.041,36.4a1.2,1.2,0,0,1-1.7,0L1228.3,166.543a1.2,1.2,0,0,1,0-1.7l33.073-33.073a1.2,1.2,0,0,1,1.7,0l33.074,33.075a1.2,1.2,0,0,1,0,1.7Zm42.911-32.578-32.08,32.08a1.9,1.9,0,0,1-2.691,0l-2.691-2.69,28.756-28.756a2.8,2.8,0,0,0,0-3.959l-28.755-28.756,2.691-2.69a1.947,1.947,0,0,1,2.69,0l32.08,32.08a1.9,1.9,0,0,1,0,2.69Z" fill="#004b87"></path><path id="Path_9670" data-name="Path 9670" d="M1285.423,156.544a.8.8,0,0,0-1.131,0l-8.019,8.019-12.917-12.917,8.019-8.02a.8.8,0,0,0-1.131-1.131l-8.02,8.02-8.02-8.02a.8.8,0,0,0-1.131,1.131l8.019,8.02-12.916,12.917-8.021-8.019a.8.8,0,0,0-1.13,1.131l8.02,8.02-8.02,8.019a.8.8,0,0,0,1.13,1.131l8.021-8.018,12.916,12.917-8.019,8.019a.8.8,0,0,0,1.131,1.131l8.02-8.02,8.02,8.02a.8.8,0,1,0,1.131-1.131l-8.019-8.019,12.917-12.917,8.019,8.018a.8.8,0,1,0,1.131-1.131L1277.4,165.7l8.019-8.02A.8.8,0,0,0,1285.423,156.544Zm-23.2,22.069L1249.307,165.7l12.917-12.918,12.918,12.918Z" fill="#004b87"></path></g></g></svg>