<svg xmlns="http://www.w3.org/2000/svg" width="76" height="76" viewBox="0 0 76 76"><g id="Group_4320" data-name="Group 4320" transform="translate(-1301 -2953)"><rect id="Rectangle_1823" data-name="Rectangle 1823" width="76" height="76" transform="translate(1301 2953)" fill="none"></rect><g id="Technical_help" data-name="Technical help" transform="translate(672.629 1995.061)"><path id="Path_9842" data-name="Path 9842" d="M691.985,967.939H641.271a2.9,2.9,0,0,0-2.9,2.9v43.84a2.9,2.9,0,0,0,2.9,2.9H646.2l6.169,6.949a.9.9,0,0,0,.673.3h0a.9.9,0,0,0,.674-.309l6.055-6.943h32.215a2.9,2.9,0,0,0,2.9-2.9V970.84A2.9,2.9,0,0,0,691.985,967.939Zm1.1,46.741a1.1,1.1,0,0,1-1.1,1.1H659.36a.9.9,0,0,0-.678.309l-5.651,6.481-5.759-6.487a.9.9,0,0,0-.673-.3h-5.328a1.1,1.1,0,0,1-1.1-1.1V970.84a1.1,1.1,0,0,1,1.1-1.1h50.714a1.1,1.1,0,0,1,1.1,1.1Z" fill="#004b87"></path><path id="Path_9843" data-name="Path 9843" d="M683.08,984.661a.9.9,0,0,0-1.043-.621l-4.752.978a13.033,13.033,0,0,0-1.262-1.54l1.893-4.467a.9.9,0,0,0-.4-1.145l-4.766-2.553a.9.9,0,0,0-1.177.3l-2.669,4.052a12.885,12.885,0,0,0-1.981-.2l-1.821-4.5a.9.9,0,0,0-1.1-.524l-5.175,1.566a.9.9,0,0,0-.62,1.043l.977,4.753a12.931,12.931,0,0,0-1.539,1.261l-4.469-1.894a.9.9,0,0,0-1.145.4l-2.553,4.766a.9.9,0,0,0,.3,1.177l4.053,2.669a12.921,12.921,0,0,0-.2,1.98l-4.5,1.821a.9.9,0,0,0-.524,1.1l1.565,5.176a.9.9,0,0,0,1.043.621l4.754-.978a13.1,13.1,0,0,0,1.26,1.538l-1.893,4.47a.9.9,0,0,0,.4,1.145l4.766,2.552a.9.9,0,0,0,1.176-.3l2.67-4.053a13.045,13.045,0,0,0,1.981.2l1.82,4.5a.9.9,0,0,0,1.1.524l5.175-1.565a.9.9,0,0,0,.621-1.043l-.977-4.752a12.875,12.875,0,0,0,1.54-1.263l4.469,1.894a.9.9,0,0,0,1.144-.4l2.552-4.766a.9.9,0,0,0-.3-1.177l-4.051-2.669a13.058,13.058,0,0,0,.2-1.981l4.5-1.821a.9.9,0,0,0,.524-1.1Zm-4.7,6.651a.9.9,0,0,0-.562.858,11.173,11.173,0,0,1-.276,2.78.9.9,0,0,0,.382.952l3.873,2.552-1.777,3.317-4.271-1.81a.9.9,0,0,0-1,.21,11.166,11.166,0,0,1-2.162,1.771.9.9,0,0,0-.4.944l.934,4.542-3.6,1.089-1.741-4.3a.9.9,0,0,0-.834-.563h-.024a11.561,11.561,0,0,1-2.779-.276.9.9,0,0,0-.952.382l-2.553,3.874-3.317-1.777,1.81-4.272a.9.9,0,0,0-.209-1.005,11.174,11.174,0,0,1-1.77-2.16.905.905,0,0,0-.943-.4l-4.545.934-1.089-3.6,4.3-1.742a.9.9,0,0,0,.563-.858,11.083,11.083,0,0,1,.275-2.777.9.9,0,0,0-.382-.953l-3.875-2.553,1.777-3.317,4.273,1.811a.905.905,0,0,0,1-.21,11.161,11.161,0,0,1,2.16-1.771.9.9,0,0,0,.4-.943l-.934-4.544,3.6-1.089,1.741,4.3a.92.92,0,0,0,.857.562,11.552,11.552,0,0,1,2.78.276.9.9,0,0,0,.952-.382l2.552-3.873,3.318,1.776-1.809,4.271a.9.9,0,0,0,.209,1.005,11.094,11.094,0,0,1,1.77,2.16.911.911,0,0,0,.944.4l4.543-.934,1.089,3.6Z" fill="#004b87"></path><path id="Path_9844" data-name="Path 9844" d="M670.062,986.049a7.274,7.274,0,1,0,3.528,4.3A7.213,7.213,0,0,0,670.062,986.049Zm1.392,9a5.474,5.474,0,1,1-6.412-7.823h0a5.474,5.474,0,0,1,6.411,7.823Z" fill="#004b87"></path></g></g></svg>