<svg xmlns="http://www.w3.org/2000/svg" width="45" height="45" viewBox="0 0 45 45"><g id="Group_4294" data-name="Group 4294" transform="translate(-1036 -1947)"><rect id="Rectangle_1799" data-name="Rectangle 1799" width="45" height="45" transform="translate(1036 1947)" fill="none"></rect><g id="Medical_Cosmetics" data-name="Medical &amp; Cosmetics" transform="translate(458.107 1705.938)"><path id="Path_9700" data-name="Path 9700" d="M604.568,249.608a1.168,1.168,0,1,0-.82-.336A1.162,1.162,0,0,0,604.568,249.608Z" fill="#004b87"></path><path id="Path_9701" data-name="Path 9701" d="M587.892,255.182a1.168,1.168,0,0,0-.827-1.989,1.188,1.188,0,0,0-.834.345,1.169,1.169,0,0,0,1.661,1.644Z" fill="#004b87"></path><path id="Path_9702" data-name="Path 9702" d="M594.2,252.66h.014a2.8,2.8,0,0,0-.015-5.6h-.015a2.8,2.8,0,0,0,.016,5.6Zm-1.084-3.871a1.511,1.511,0,0,1,1.075-.453h.009a1.525,1.525,0,0,1,.007,3.05H594.2a1.524,1.524,0,0,1-1.083-2.6Z" fill="#004b87"></path><path id="Path_9703" data-name="Path 9703" d="M592.094,264.282h.02a3.476,3.476,0,0,0,3.452-3.489,3.342,3.342,0,0,0-.039-.363l6.331-6.4a4.653,4.653,0,0,1,5.479-.865.639.639,0,0,0,.487.041.637.637,0,0,0,.1-1.172,5.927,5.927,0,0,0-6.971,1.1l-5.873,5.936a3.461,3.461,0,0,0-2.986-1.732h-.017a3.471,3.471,0,0,0,.017,6.942Zm-1.56-5.016a2.178,2.178,0,0,1,1.549-.652h.014a2.2,2.2,0,0,1,.01,4.395H592.1a2.2,2.2,0,0,1-1.562-3.743Z" fill="#004b87"></path><path id="Path_9704" data-name="Path 9704" d="M615.659,260.459h0a5.976,5.976,0,0,0-1.3-2.41l-.139-.156a3.266,3.266,0,0,0,.8-2.151,3.3,3.3,0,0,0-3.3-3.28h-.017a3.3,3.3,0,0,0,.018,6.593h.018a3.249,3.249,0,0,0,1.472-.372l.163.18a4.674,4.674,0,0,1-.151,6.422l-12.407,12.542a4.688,4.688,0,0,1-6.617.035l-.319-.316a5.058,5.058,0,0,0,1.357.006,4.565,4.565,0,0,0,2.716-1.3l13.669-13.817a.626.626,0,0,0,.184-.45.635.635,0,0,0-1.088-.445l-13.671,13.818a3.306,3.306,0,0,1-1.969.928,4.743,4.743,0,0,1-3.868-1.384l-1.734-1.716a4.685,4.685,0,0,1-.035-6.616l.4-.4a.639.639,0,0,0-.006-.9.649.649,0,0,0-.9.006l-.4.4a5.958,5.958,0,0,0,.045,8.416l4.723,4.673a5.916,5.916,0,0,0,4.186,1.718h.032a5.913,5.913,0,0,0,4.2-1.763l12.408-12.543A5.979,5.979,0,0,0,615.659,260.459Zm-3.918-2.677h-.012a2.024,2.024,0,0,1-.01-4.047h.009a2.024,2.024,0,0,1,.013,4.047Z" fill="#004b87"></path></g></g></svg>