<svg xmlns="http://www.w3.org/2000/svg" xmlns:xlink="http://www.w3.org/1999/xlink" width="445" height="310" viewBox="0 0 445 310"><defs><clipPath id="clip-path"><path id="Rectangle_1956" data-name="Rectangle 1956" d="M0,0H445a0,0,0,0,1,0,0V270a40,40,0,0,1-40,40H0a0,0,0,0,1,0,0V0A0,0,0,0,1,0,0Z" transform="translate(1040 146)" fill="#004b87"></path></clipPath></defs><g id="Group_4930" data-name="Group 4930" transform="translate(-1040 -146)"><path id="Rectangle_1790" data-name="Rectangle 1790" d="M0,0H445a0,0,0,0,1,0,0V270a40,40,0,0,1-40,40H0a0,0,0,0,1,0,0V0A0,0,0,0,1,0,0Z" transform="translate(1040 146)" fill="#004b87"></path><g id="Mask_Group_4861" data-name="Mask Group 4861" clip-path="url(#clip-path)"><g id="Element_2-01" data-name="Element 2-01" transform="translate(1022.5 171.8)"><path id="Path_13962" data-name="Path 13962" d="M178,198.2h-.2l.1-.1h.2Z" fill="#44aee3"></path><path id="Path_13963" data-name="Path 13963" d="M192.1,195.1l-.5-.1.1-.3.4.2Z" fill="#44aee3"></path><path id="Path_13964" data-name="Path 13964" d="M206.1,191.4c.2.2,0,.4-.3.4-.4,0-.8-.4-.6-.6l.1-.1a1.136,1.136,0,0,1,.8.3Z" fill="#44aee3"></path><path id="Path_13965" data-name="Path 13965" d="M219.7,187.6c.3.3.1.5-.3.5-.6,0-1.1-.4-.8-.7a.349.349,0,0,1,.2-.1,3.178,3.178,0,0,1,.9.3Z" fill="#44aee3"></path><path id="Path_13966" data-name="Path 13966" d="M233,183.7c.3.2.2.6-.3.6-.7,0-1.4-.5-1.1-.8.1-.1.1-.1.2-.1a1.676,1.676,0,0,1,1.2.3Z" fill="#44aee3"></path><path id="Path_13967" data-name="Path 13967" d="M246,179.4c.4.3.3.6-.2.7-.8.1-1.8-.5-1.5-.9,0-.1.1-.1.2-.1a2.248,2.248,0,0,1,1.5.3Z" fill="#44aee3"></path><path id="Path_13968" data-name="Path 13968" d="M258.7,175c.5.3.4.7-.1.8-.9.2-2.2-.5-1.9-.9l.2-.2a2.2,2.2,0,0,1,1.8.3Z" fill="#44aee3"></path><path id="Path_13969" data-name="Path 13969" d="M271,170.3c.5.3.6.7.1.8-.9.3-2.6-.4-2.3-.9l.2-.2a2.694,2.694,0,0,1,2,.3Z" fill="#44aee3"></path><path id="Path_13970" data-name="Path 13970" d="M282.9,165.3c.6.3.7.7.2.9-.9.3-2.8-.4-2.5-.9,0-.1.1-.1.2-.2a3.528,3.528,0,0,1,2.1.2Z" fill="#44aee3"></path><path id="Path_13971" data-name="Path 13971" d="M294.4,160.2c.7.3.8.7.3.9-.9.3-2.9-.3-2.7-.9,0-.1.1-.1.2-.2a2.833,2.833,0,0,1,2.2.2Z" fill="#44aee3"></path><path id="Path_13972" data-name="Path 13972" d="M305.5,154.8c.7.3.9.7.4.9-.9.4-3-.3-2.8-.8,0-.1.1-.1.2-.2a2.834,2.834,0,0,1,2.2.1Z" fill="#44aee3"></path><path id="Path_13973" data-name="Path 13973" d="M316.1,149.2c.8.3,1,.7.5.9-1,.4-3.3-.3-3-.9,0-.1.1-.1.2-.1a3.655,3.655,0,0,1,2.3.1Z" fill="#44aee3"></path><path id="Path_13974" data-name="Path 13974" d="M326.1,143.5c.8.3,1.1.7.6.9-.9.4-3.4-.2-3.1-.8,0-.1.1-.1.1-.2a3.355,3.355,0,0,1,2.4.1Z" fill="#44aee3"></path><path id="Path_13975" data-name="Path 13975" d="M335.3,137.7c.8.2,1.1.6.7.8-.9.4-3.3-.1-3.1-.7a.1.1,0,0,1,.1-.1,3.04,3.04,0,0,1,2.3,0Z" fill="#44aee3"></path><path id="Path_13976" data-name="Path 13976" d="M343.8,131.8c.8.2,1.1.5.7.8-.8.4-3.2-.1-3.1-.6,0-.1,0-.1.1-.1a3.059,3.059,0,0,1,2.3-.1Z" fill="#44aee3"></path><path id="Path_13977" data-name="Path 13977" d="M351.6,125.9c.8.2,1.1.5.8.7-.7.4-3.2,0-3-.5a.1.1,0,0,1,.1-.1,2.938,2.938,0,0,1,2.1-.1Z" fill="#44aee3"></path><path id="Path_13978" data-name="Path 13978" d="M358.7,119.9c.8.2,1.1.4.8.6-.6.4-3,0-2.8-.4a.1.1,0,0,1,.1-.1,3.839,3.839,0,0,1,1.9-.1Z" fill="#44aee3"></path><path id="Path_13979" data-name="Path 13979" d="M365.1,113.9c.7.1,1.1.4.8.5-.5.4-2.7.1-2.6-.4v-.1a5.355,5.355,0,0,1,1.8,0Z" fill="#44aee3"></path><path id="Path_13980" data-name="Path 13980" d="M370.7,107.9c.7.1,1,.3.8.5-.4.3-2.4.1-2.4-.3V108a4.049,4.049,0,0,1,1.6-.1Z" fill="#44aee3"></path><path id="Path_13981" data-name="Path 13981" d="M375.7,101.9c.6.1.9.2.7.4-.3.3-2.1.1-2.1-.2V102a5.313,5.313,0,0,1,1.4-.1Z" fill="#44aee3"></path><path id="Path_13982" data-name="Path 13982" d="M379.9,95.9c.4.1.7.2.6.3-.3.2-1.7.1-1.6-.1h0c.1-.2.7-.2,1-.2Z" fill="#44aee3"></path><path id="Path_13983" data-name="Path 13983" d="M384,90.1l-.8.1-.5-.2.7-.1Z" fill="#44aee3"></path><path id="Path_13984" data-name="Path 13984" d="M386.6,84l-.4.1-.3-.1h.7Z" fill="#44aee3"></path><path id="Path_13985" data-name="Path 13985" d="M388.6,78l-.1.1-.1-.1h.2Z" fill="#44aee3"></path><path id="Path_13986" data-name="Path 13986" d="M108.3,222.6h-.1l.1-.1v.1Z" fill="#44aee3"></path><path id="Path_13987" data-name="Path 13987" d="M124.1,220.7l-.3-.1.2-.3.3.2Z" fill="#44aee3"></path><path id="Path_13988" data-name="Path 13988" d="M140.3,218.1c.1.3-.4.6-.8.3-.4-.2-.2-.6.1-.7h0a.72.72,0,0,1,.7.4Z" fill="#44aee3"></path><path id="Path_13989" data-name="Path 13989" d="M156.1,215.5c.2.5-.5.8-1.1.5-.5-.3-.5-.8.1-1h.1a.8.8,0,0,1,.9.5Z" fill="#44aee3"></path><path id="Path_13990" data-name="Path 13990" d="M171.7,212.5c.3.6-.5,1.1-1.3.7-.7-.3-.9-1-.2-1.3a.31.31,0,0,0,.2-.1,1.384,1.384,0,0,1,1.3.7Z" fill="#44aee3"></path><path id="Path_13991" data-name="Path 13991" d="M187.2,209.3c.4.7-.4,1.3-1.4,1s-1.3-1.2-.6-1.6a.367.367,0,0,1,.3-.1,1.494,1.494,0,0,1,1.7.7Z" fill="#44aee3"></path><path id="Path_13992" data-name="Path 13992" d="M202.5,205.8c.5.8-.3,1.4-1.4,1.2-1.2-.3-1.8-1.3-1-1.8a.367.367,0,0,1,.3-.1,1.824,1.824,0,0,1,2.1.7Z" fill="#44aee3"></path><path id="Path_13993" data-name="Path 13993" d="M217.4,202c.6.9-.2,1.6-1.5,1.4-1.4-.3-2.2-1.5-1.3-2,.1-.1.2-.1.4-.2a2.258,2.258,0,0,1,2.4.8Z" fill="#44aee3"></path><path id="Path_13994" data-name="Path 13994" d="M232.2,197.9c.7.9,0,1.7-1.3,1.6-1.5-.1-2.7-1.5-2-2.2.2-.1.3-.2.5-.3a3.01,3.01,0,0,1,2.8.9Z" fill="#44aee3"></path><path id="Path_13995" data-name="Path 13995" d="M246.6,193.6c.9.9.3,1.8-1.1,1.8-1.8,0-3.5-1.5-2.6-2.4a1.332,1.332,0,0,1,.5-.3,3.31,3.31,0,0,1,3.2.9Z" fill="#44aee3"></path><path id="Path_13996" data-name="Path 13996" d="M260.7,189c1,.9.5,1.9-1,1.9-2,0-3.8-1.5-3-2.4.2-.2.3-.3.5-.3a3.773,3.773,0,0,1,3.5.8Z" fill="#44aee3"></path><path id="Path_13997" data-name="Path 13997" d="M274.3,184.1c1.1.9.7,1.9-.7,2-2,.2-4.4-1.4-3.6-2.5a.55.55,0,0,1,.5-.3,4.561,4.561,0,0,1,3.8.8Z" fill="#44aee3"></path><path id="Path_13998" data-name="Path 13998" d="M287.6,179c1.2.9.9,1.9-.6,2.1-2.1.3-4.8-1.4-4-2.5a1,1,0,0,1,.5-.4,5.385,5.385,0,0,1,4.1.8Z" fill="#44aee3"></path><path id="Path_13999" data-name="Path 13999" d="M300.5,173.7c1.2.8,1.2,1.8-.2,2.1-2.1.5-5.3-1.2-4.6-2.4a1,1,0,0,1,.5-.4,5.159,5.159,0,0,1,4.3.7Z" fill="#44aee3"></path><path id="Path_14000" data-name="Path 14000" d="M312.9,168.1c1.3.8,1.4,1.9,0,2.2-2.2.5-5.7-1.2-5-2.4a1,1,0,0,1,.5-.4,5.691,5.691,0,0,1,4.5.6Z" fill="#44aee3"></path><path id="Path_14001" data-name="Path 14001" d="M324.8,162.3c1.4.8,1.6,1.8.2,2.2-2.2.6-6.1-1.2-5.2-2.4.1-.1.3-.2.4-.3a5.537,5.537,0,0,1,4.6.5Z" fill="#44aee3"></path><path id="Path_14002" data-name="Path 14002" d="M336.3,156.2c1.5.8,1.7,1.8.4,2.2-2.2.7-6.3-1.1-5.5-2.3a1.381,1.381,0,0,1,.4-.3c1.3-.7,3.5-.2,4.7.4Z" fill="#44aee3"></path><path id="Path_14003" data-name="Path 14003" d="M347,150c1.6.7,1.9,1.8.7,2.2-2.1.7-6.4-.9-5.8-2.2l.3-.3a6.129,6.129,0,0,1,4.8.3Z" fill="#44aee3"></path><path id="Path_14004" data-name="Path 14004" d="M356.9,143.7c1.6.6,2,1.5,1.1,2-1.8.9-6.5-.7-6-1.9l.3-.3c1.1-.7,3.4-.3,4.6.2Z" fill="#44aee3"></path><path id="Path_14005" data-name="Path 14005" d="M366.1,137.3c1.6.6,2.1,1.5,1.3,1.9-1.7.9-6.4-.5-6.1-1.8,0-.1.2-.2.2-.3,1.1-.6,3.3-.2,4.6.2Z" fill="#44aee3"></path><path id="Path_14006" data-name="Path 14006" d="M374.4,131c1.6.5,2.2,1.3,1.4,1.8-1.5.9-6.2-.4-6-1.6,0-.1.1-.2.2-.3,1-.7,3.2-.4,4.4.1Z" fill="#44aee3"></path><path id="Path_14007" data-name="Path 14007" d="M382,124.5c1.6.5,2.2,1.2,1.5,1.7-1.4.9-6.3-.4-5.9-1.5,0-.1.1-.1.1-.2,1-.6,3.1-.4,4.3,0Z" fill="#44aee3"></path><path id="Path_14008" data-name="Path 14008" d="M388.8,118.1c1.6.5,2.3,1.2,1.5,1.6-1.4.7-5.7-.4-5.5-1.4,0-.1.1-.1.1-.2.8-.6,2.7-.4,3.9,0Z" fill="#44aee3"></path><path id="Path_14009" data-name="Path 14009" d="M394.9,111.6c1.5.4,2.3,1.1,1.5,1.5-1.3.7-5.5-.2-5.3-1.2,0-.1.1-.1.1-.2.6-.6,2.5-.4,3.7-.1Z" fill="#44aee3"></path><path id="Path_14010" data-name="Path 14010" d="M400.2,105.1c1.5.3,2.2,1,1.6,1.3-1.2.7-5.4-.2-5-1.1v-.1c.5-.5,2.3-.4,3.4-.1Z" fill="#44aee3"></path><path id="Path_14011" data-name="Path 14011" d="M404.7,98.6c1.3.3,2,.8,1.5,1.2-1,.6-4.8-.1-4.6-.9v-.1c.5-.5,2.1-.4,3.1-.2Z" fill="#44aee3"></path><path id="Path_14012" data-name="Path 14012" d="M408.5,92.1c1.2.2,1.9.7,1.5,1-.8.6-4.2,0-4.1-.7v-.1c.3-.4,1.7-.3,2.6-.2Z" fill="#44aee3"></path><path id="Path_14013" data-name="Path 14013" d="M411.5,85.7c1.1.2,1.7.6,1.4.8-.7.5-3.7,0-3.7-.5v-.1c.3-.4,1.5-.3,2.3-.2Z" fill="#44aee3"></path><path id="Path_14014" data-name="Path 14014" d="M413.8,79.3c.9.1,1.4.4,1.2.7-.5.4-3,.1-3-.4h0c.1-.4,1.1-.4,1.8-.3Z" fill="#44aee3"></path><path id="Path_14015" data-name="Path 14015" d="M415.4,72.9c.7.1,1.2.3,1,.5-.3.3-2.3.1-2.4-.3h0c.1-.2.9-.2,1.4-.2Z" fill="#44aee3"></path><path id="Path_14016" data-name="Path 14016" d="M416.2,66.6c.5.1.9.2.7.4-.3.2-1.7.1-1.7-.2,0-.2.6-.2,1-.2Z" fill="#44aee3"></path><path id="Path_14017" data-name="Path 14017" d="M416.8,60.5l-.6.1-.5-.1.5-.1Z" fill="#44aee3"></path><path id="Path_14018" data-name="Path 14018" d="M415.8,54.2l-.2.1-.2-.1h.4Z" fill="#44aee3"></path><path id="Path_14019" data-name="Path 14019" d="M76.8,240l-.3-.2.2-.2.3.2Z" fill="#44aee3"></path><path id="Path_14020" data-name="Path 14020" d="M94.3,238.2a.537.537,0,0,1-.9.3.436.436,0,0,1,.4-.7.4.4,0,0,1,.5.4Z" fill="#44aee3"></path><path id="Path_14021" data-name="Path 14021" d="M111.6,236.3a.885.885,0,0,1-1.5.5c-.4-.4-.3-1.1.5-1.2a.841.841,0,0,1,1,.7Z" fill="#44aee3"></path><path id="Path_14022" data-name="Path 14022" d="M128.7,234c.1.8-1.1,1.3-1.9.8-.7-.5-.5-1.5.5-1.7a1.153,1.153,0,0,1,1.4.9Z" fill="#44aee3"></path><path id="Path_14023" data-name="Path 14023" d="M145.8,231.5c.2,1.1-1.2,1.7-2.3,1a1.121,1.121,0,0,1,.3-2.1h.1c1.2-.1,1.8.5,1.9,1.1Z" fill="#44aee3"></path><path id="Path_14024" data-name="Path 14024" d="M162.7,228.6c.3,1.2-1.3,2-2.6,1.3a1.3,1.3,0,0,1,.2-2.5h.2a1.83,1.83,0,0,1,2.2,1.2Z" fill="#44aee3"></path><path id="Path_14025" data-name="Path 14025" d="M179.5,225.4c.5,1.3-1.2,2.3-2.7,1.6s-1.6-2.3-.3-2.8c.1,0,.3-.1.4-.1a2.455,2.455,0,0,1,2.6,1.3Z" fill="#44aee3"></path><path id="Path_14026" data-name="Path 14026" d="M196,221.9c.7,1.5-1.1,2.6-2.9,1.8-1.7-.7-2-2.5-.6-3.1.1,0,.3-.1.4-.1a2.875,2.875,0,0,1,3.1,1.4Z" fill="#44aee3"></path><path id="Path_14027" data-name="Path 14027" d="M212.3,218.2c.8,1.5-.9,2.8-2.9,2.2s-2.7-2.6-1.3-3.4a1.421,1.421,0,0,1,.6-.2,3.033,3.033,0,0,1,3.6,1.4Z" fill="#44aee3"></path><path id="Path_14028" data-name="Path 14028" d="M228.5,214.1c1,1.6-.6,3-2.8,2.5-2.4-.5-3.6-2.8-2-3.9.2-.1.5-.2.7-.3a4.23,4.23,0,0,1,4.1,1.7Z" fill="#44aee3"></path><path id="Path_14029" data-name="Path 14029" d="M244.2,209.7c1.2,1.7-.4,3.2-2.8,2.7-2.6-.5-4.1-2.9-2.5-4,.2-.2.5-.2.7-.3a4.507,4.507,0,0,1,4.6,1.6Z" fill="#44aee3"></path><path id="Path_14030" data-name="Path 14030" d="M259.6,205.1c1.3,1.7,0,3.3-2.4,3-3-.3-5.1-3-3.3-4.3a2.506,2.506,0,0,1,.7-.4,5.128,5.128,0,0,1,5,1.7Z" fill="#44aee3"></path><path id="Path_14031" data-name="Path 14031" d="M274.6,200.1c1.5,1.7.3,3.5-2.3,3.2-3.2-.3-5.6-3-3.8-4.5a2.506,2.506,0,0,1,.7-.4,6.151,6.151,0,0,1,5.4,1.7Z" fill="#44aee3"></path><path id="Path_14032" data-name="Path 14032" d="M289.3,194.9c1.6,1.7.7,3.4-1.8,3.4-3.4,0-6.5-3-4.7-4.6a2.506,2.506,0,0,1,.7-.4,6.578,6.578,0,0,1,5.8,1.6Z" fill="#44aee3"></path><path id="Path_14033" data-name="Path 14033" d="M303.5,189.4c1.8,1.7,1,3.5-1.6,3.6-3.5.1-7-3-5.2-4.6a2.506,2.506,0,0,1,.7-.4c2.3-.8,4.9.4,6.1,1.4Z" fill="#44aee3"></path><path id="Path_14034" data-name="Path 14034" d="M317.3,183.7c2,1.7,1.3,3.6-1.4,3.8-3.6.2-7.5-2.9-5.8-4.7a3.039,3.039,0,0,1,.7-.5c2.3-.9,5.2.3,6.5,1.4Z" fill="#44aee3"></path><path id="Path_14035" data-name="Path 14035" d="M330.5,177.7c2,1.6,1.6,3.4-.8,3.8-3.6.5-8.2-2.7-6.6-4.6a3.039,3.039,0,0,1,.7-.5c2.3-.9,5.3.2,6.7,1.3Z" fill="#44aee3"></path><path id="Path_14036" data-name="Path 14036" d="M343.2,171.4c2.1,1.5,1.9,3.4-.5,3.8-3.6.6-8.5-2.5-7-4.4a3.039,3.039,0,0,1,.7-.5c2.2-1,5.3.1,6.8,1.1Z" fill="#44aee3"></path><path id="Path_14037" data-name="Path 14037" d="M355.4,164.9c2.3,1.5,2.2,3.4-.2,3.9-3.6.7-8.8-2.3-7.4-4.3a2.652,2.652,0,0,1,.6-.5c2.2-1.1,5.4-.1,7,.9Z" fill="#44aee3"></path><path id="Path_14038" data-name="Path 14038" d="M366.8,158.3c2.4,1.4,2.5,3.3.2,3.8-3.4.7-8.8-2.1-7.7-4.1.1-.2.4-.4.5-.5,2.1-1.1,5.3-.2,7,.8Z" fill="#44aee3"></path><path id="Path_14039" data-name="Path 14039" d="M377.3,151.6c2.3,1.3,2.7,3,.9,3.6-3.1,1.1-9.2-1.7-8.3-3.8a1.205,1.205,0,0,1,.5-.5c2-1.1,5.2-.3,6.9.7Z" fill="#44aee3"></path><path id="Path_14040" data-name="Path 14040" d="M387,144.8c2.3,1.2,2.9,2.9,1.2,3.5-2.9,1.1-9-1.6-8.3-3.6a2.182,2.182,0,0,1,.4-.5c1.8-1.1,5-.3,6.7.6Z" fill="#44aee3"></path><path id="Path_14041" data-name="Path 14041" d="M395.9,137.9c2.3,1.1,3,2.7,1.5,3.3-2.8,1.1-9.2-1.6-8.2-3.5l.3-.3c1.5-1,4.7-.3,6.4.5Z" fill="#44aee3"></path><path id="Path_14042" data-name="Path 14042" d="M404,131.1c2.3,1,3.2,2.5,1.7,3.2-2.5,1.1-9-1.4-8.2-3.2,0-.1.2-.2.2-.3,1.4-1.1,4.5-.5,6.3.3Z" fill="#44aee3"></path><path id="Path_14043" data-name="Path 14043" d="M411.2,124.2c2.3.9,3.2,2.3,1.9,2.9-2.2,1.1-8.5-1.2-8-2.9,0-.1.1-.2.2-.3,1.2-1,4.2-.4,5.9.3Z" fill="#44aee3"></path><path id="Path_14044" data-name="Path 14044" d="M417.6,117.2c2.2.8,3.2,2.1,2.1,2.7-2,1.1-8.1-1-7.8-2.6,0-.1.1-.2.2-.3.9-.7,3.5-.5,5.5.2Z" fill="#44aee3"></path><path id="Path_14045" data-name="Path 14045" d="M423.2,110.3c2.2.8,3.2,1.9,2.2,2.5-1.9,1.1-8-.9-7.4-2.4l.1-.1c.8-.9,3.5-.5,5.1,0Z" fill="#44aee3"></path><path id="Path_14046" data-name="Path 14046" d="M427.9,103.4c2.1.7,3.2,1.8,2.1,2.3-1.9.8-7.2-.9-6.8-2.2a.1.1,0,0,1,.1-.1c.7-.8,3.2-.5,4.6,0Z" fill="#44aee3"></path><path id="Path_14047" data-name="Path 14047" d="M431.9,96.5c2,.6,3,1.6,2,2.1-1.6.8-6.5-.7-6.3-1.9v-.1c.7-.8,2.9-.5,4.3-.1Z" fill="#44aee3"></path><path id="Path_14048" data-name="Path 14048" d="M435.1,89.6c1.9.5,2.9,1.4,2.1,1.9-1.2.7-6.2-.4-5.9-1.7.5-.7,2.5-.6,3.8-.2Z" fill="#44aee3"></path><path id="Path_14049" data-name="Path 14049" d="M437.5,82.8c1.6.4,2.6,1.2,1.9,1.6-1,.6-5.4-.3-5.2-1.4.4-.7,2.2-.5,3.3-.2Z" fill="#44aee3"></path><path id="Path_14050" data-name="Path 14050" d="M439.1,76c1.5.3,2.4,1,1.9,1.4-.8.5-4.7-.2-4.7-1.1.2-.7,1.8-.6,2.8-.3Z" fill="#44aee3"></path><path id="Path_14051" data-name="Path 14051" d="M440,69.2c1.1.2,2.1.8,1.7,1.1-.6.5-3.9-.1-4-.9.1-.4,1.4-.3,2.3-.2Z" fill="#44aee3"></path><path id="Path_14052" data-name="Path 14052" d="M440,62.6c1,.2,1.7.6,1.4.9-.5.4-3.1,0-3.3-.7.1-.4,1.2-.4,1.9-.2Z" fill="#44aee3"></path><path id="Path_14053" data-name="Path 14053" d="M439.3,56c.8.1,1.4.5,1.1.7-.4.3-2.3,0-2.4-.5,0-.3.7-.3,1.3-.2Z" fill="#44aee3"></path><path id="Path_14054" data-name="Path 14054" d="M437.8,49.5c.6.1,1,.3.8.4-.2.2-1.6,0-1.7-.3,0-.2.6-.1.9-.1Z" fill="#44aee3"></path><path id="Path_14055" data-name="Path 14055" d="M436,43.3l-.4.1-.5-.2.4-.1Z" fill="#44aee3"></path><path id="Path_14056" data-name="Path 14056" d="M432.6,36.9h0l-.1-.1h0Z" fill="#44aee3"></path><path id="Path_14057" data-name="Path 14057" d="M41.2,257.6l-.2-.2.3-.2.1.2Z" fill="#44aee3"></path><path id="Path_14058" data-name="Path 14058" d="M59.8,256.4a.6.6,0,0,1-1,.3c-.2-.3-.1-.7.5-.8a.536.536,0,0,1,.5.5Z" fill="#44aee3"></path><path id="Path_14059" data-name="Path 14059" d="M78.1,255.1a.953.953,0,0,1-1.6.5c-.4-.5-.1-1.2.7-1.3a.729.729,0,0,1,.9.8Z" fill="#44aee3"></path><path id="Path_14060" data-name="Path 14060" d="M96.4,253.4a1.208,1.208,0,0,1-2.1.7,1.026,1.026,0,0,1,.8-1.7,1.051,1.051,0,0,1,1.3,1Z" fill="#44aee3"></path><path id="Path_14061" data-name="Path 14061" d="M114.8,251.3c.1,1.3-1.8,2-2.8,1-.7-.7-.6-2.1,1-2.3a1.5,1.5,0,0,1,1.8,1.3Z" fill="#44aee3"></path><path id="Path_14062" data-name="Path 14062" d="M133,248.9c.2,1.5-1.8,2.3-3.1,1.3-1-.8-1-2.5.9-2.9a2.059,2.059,0,0,1,2.2,1.6Z" fill="#44aee3"></path><path id="Path_14063" data-name="Path 14063" d="M151.1,246.2c.3,1.7-2,2.8-3.6,1.7a1.825,1.825,0,0,1,.8-3.4,2.3,2.3,0,0,1,2.8,1.7Z" fill="#44aee3"></path><path id="Path_14064" data-name="Path 14064" d="M169.1,243.1c.5,2-2.1,3.2-4,2-1.5-1-1.8-3.3.7-3.9a2.952,2.952,0,0,1,3.3,1.9Z" fill="#44aee3"></path><path id="Path_14065" data-name="Path 14065" d="M186.9,239.8c.6,2.1-1.9,3.6-4.1,2.4-2.3-1.1-2.3-3.8,0-4.5a.367.367,0,0,0,.3-.1,3.46,3.46,0,0,1,3.8,2.2Z" fill="#44aee3"></path><path id="Path_14066" data-name="Path 14066" d="M204.5,236.1c.8,2.3-1.8,4-4.4,2.8s-2.8-4.1-.3-4.9c.1,0,.2-.1.3-.1a3.86,3.86,0,0,1,4.4,2.2Z" fill="#44aee3"></path><path id="Path_14067" data-name="Path 14067" d="M221.8,232c1,2.4-1.5,4.2-4.3,3.2-3-1-3.8-4.2-1.3-5.4a1.421,1.421,0,0,1,.6-.2,4.881,4.881,0,0,1,5,2.4Z" fill="#44aee3"></path><path id="Path_14068" data-name="Path 14068" d="M238.9,227.7c1.3,2.5-1.3,4.6-4.5,3.6-3.2-1.1-4.3-4.5-1.8-5.7a1.854,1.854,0,0,1,.7-.2,4.966,4.966,0,0,1,5.6,2.3Z" fill="#44aee3"></path><path id="Path_14069" data-name="Path 14069" d="M255.6,223c1.6,2.7-1.1,5-4.6,3.9-3.6-1.1-5-4.7-2.3-6.1.2-.1.5-.2.7-.3a5.968,5.968,0,0,1,6.2,2.5Z" fill="#44aee3"></path><path id="Path_14070" data-name="Path 14070" d="M271.9,218.1c1.7,2.6-.6,5.1-4.1,4.4-3.9-.8-6-4.6-3.6-6.4a2.355,2.355,0,0,1,1-.5,6.369,6.369,0,0,1,6.7,2.5Z" fill="#44aee3"></path><path id="Path_14071" data-name="Path 14071" d="M287.9,212.8c2,2.7-.3,5.4-4.1,4.7-4.1-.7-6.7-4.7-4.3-6.6a2.355,2.355,0,0,1,1-.5,7.269,7.269,0,0,1,7.4,2.4Z" fill="#44aee3"></path><path id="Path_14072" data-name="Path 14072" d="M303.4,207.3c2.1,2.7.3,5.3-3.4,5-4.5-.4-7.9-4.7-5.4-6.8a2.664,2.664,0,0,1,1-.6,7.658,7.658,0,0,1,7.8,2.4Z" fill="#44aee3"></path><path id="Path_14073" data-name="Path 14073" d="M318.5,201.4c2.4,2.7.7,5.5-3.2,5.3-4.7-.3-8.5-4.7-6-7a2.664,2.664,0,0,1,1-.6,8.288,8.288,0,0,1,8.2,2.3Z" fill="#44aee3"></path><path id="Path_14074" data-name="Path 14074" d="M333.1,195.3c2.6,2.7,1,5.7-2.9,5.5-4.8-.2-9-4.6-6.6-7a6.07,6.07,0,0,1,1-.7c3.2-1.2,6.9.6,8.5,2.2Z" fill="#44aee3"></path><path id="Path_14075" data-name="Path 14075" d="M347.1,188.9c2.7,2.6,1.6,5.5-2,5.6-4.9.2-10-4.4-7.7-7a6.07,6.07,0,0,1,1-.7c3.1-1.2,7,.5,8.7,2.1Z" fill="#44aee3"></path><path id="Path_14076" data-name="Path 14076" d="M360.6,182.3c2.9,2.5,2,5.5-1.7,5.8-5,.4-10.5-4.3-8.3-7a2.757,2.757,0,0,1,.9-.7c3.2-1.4,7.2.2,9.1,1.9Z" fill="#44aee3"></path><path id="Path_14077" data-name="Path 14077" d="M373.5,175.3c3.1,2.5,2.4,5.5-1.3,5.9-4.9.5-10.7-4.1-8.8-6.8a3.24,3.24,0,0,1,.9-.8c3.1-1.4,7.2.1,9.2,1.7Z" fill="#44aee3"></path><path id="Path_14078" data-name="Path 14078" d="M385.4,168.3c3.2,2.4,2.8,5.4-.8,5.7-5,.6-11.2-4.2-8.9-6.8a2.652,2.652,0,0,1,.6-.5c3-1.4,7.1.1,9.1,1.6Z" fill="#44aee3"></path><path id="Path_14079" data-name="Path 14079" d="M396.5,161.2c3.1,2.1,3.2,4.9.2,5.5-4.4,1-11.3-3.4-9.9-6.2a5.716,5.716,0,0,1,.7-.8c2.8-1.4,6.9,0,9,1.5Z" fill="#44aee3"></path><path id="Path_14080" data-name="Path 14080" d="M406.8,154c3.1,2,3.5,4.7.7,5.4-4.4,1.1-11.6-3.4-9.8-6.1.1-.2.3-.3.5-.5,2.3-1.5,6.4-.2,8.6,1.2Z" fill="#44aee3"></path><path id="Path_14081" data-name="Path 14081" d="M416.1,146.8c3.1,1.9,3.7,4.5,1.1,5.2-4.1,1.1-11.4-3.2-9.9-5.8.1-.2.3-.3.4-.5,2-1.3,5.9-.5,8.4,1.1Z" fill="#44aee3"></path><path id="Path_14082" data-name="Path 14082" d="M424.5,139.5c3.1,1.8,3.9,4.2,1.5,4.9-3.8,1.1-11-2.8-9.8-5.4.1-.2.2-.3.3-.5,2-1.3,5.9-.3,8,1Z" fill="#44aee3"></path><path id="Path_14083" data-name="Path 14083" d="M432.1,132.2c3.1,1.6,4,4,1.8,4.7-3.5,1.1-11.1-2.9-9.6-5.2,0-.1.1-.1.2-.2,1.5-1.3,5.1-.6,7.6.7Z" fill="#44aee3"></path><path id="Path_14084" data-name="Path 14084" d="M438.8,124.9c3,1.5,4,3.6,2.1,4.3-3.2,1.1-10.5-2.6-9.3-4.7,0-.1.1-.1.1-.2,1.5-1.3,5-.5,7.1.6Z" fill="#44aee3"></path><path id="Path_14085" data-name="Path 14085" d="M444.6,117.5c2.9,1.3,4,3.3,2.3,4-2.8,1.1-9.8-2.2-8.9-4.3,0-.1.1-.1.1-.2,1.1-1,4.2-.5,6.5.5Z" fill="#44aee3"></path><path id="Path_14086" data-name="Path 14086" d="M449.6,110.2c2.7,1.2,3.9,3,2.4,3.6-2.4,1-9.1-1.9-8.5-3.8,0-.1.1-.1.1-.2.9-.9,3.9-.5,6,.4Z" fill="#44aee3"></path><path id="Path_14087" data-name="Path 14087" d="M453.8,102.9c2.5,1,3.8,2.7,2.5,3.3-2.1,1-8.3-1.6-8-3.3a.31.31,0,0,1,.1-.2c.7-.9,3.4-.6,5.4.2Z" fill="#44aee3"></path><path id="Path_14088" data-name="Path 14088" d="M457.1,95.7c2.4.9,3.7,2.4,2.6,3-1.6.9-8-1.3-7.5-3.1.6-1,3-.7,4.9.1Z" fill="#44aee3"></path><path id="Path_14089" data-name="Path 14089" d="M459.6,88.4c2.3.9,3.5,2.2,2.4,2.7-1.6.6-6.9-1.2-6.6-2.7.3-.8,2.5-.6,4.2,0Z" fill="#44aee3"></path><path id="Path_14090" data-name="Path 14090" d="M461.3,81.2c2.1.7,3.3,1.9,2.3,2.3-1.4.6-6.1-1-6.1-2.3.3-.7,2.2-.5,3.8,0Z" fill="#44aee3"></path><path id="Path_14091" data-name="Path 14091" d="M462.1,74.1c1.8.6,2.9,1.6,2.2,2-1.1.5-5.2-.8-5.3-1.9.1-.7,1.9-.5,3.1-.1Z" fill="#44aee3"></path><path id="Path_14092" data-name="Path 14092" d="M462.2,67.1c1.6.5,2.6,1.4,2,1.7-.9.5-4.5-.6-4.7-1.6.1-.6,1.6-.5,2.7-.1Z" fill="#44aee3"></path><path id="Path_14093" data-name="Path 14093" d="M461.4,60.1c1.4.4,2.3,1.1,1.8,1.4-.7.4-3.7-.4-3.9-1.3-.1-.5,1.2-.4,2.1-.1Z" fill="#44aee3"></path><path id="Path_14094" data-name="Path 14094" d="M459.8,53.2c1.1.3,1.8.8,1.5,1-.5.3-2.8-.3-3.1-.9-.1-.3.8-.3,1.6-.1Z" fill="#44aee3"></path><path id="Path_14095" data-name="Path 14095" d="M457.4,46.5c.8.2,1.4.6,1.1.8a2.885,2.885,0,0,1-2.3-.7c-.1-.3.6-.2,1.2-.1Z" fill="#44aee3"></path><path id="Path_14096" data-name="Path 14096" d="M454.1,39.8c.5.1,1,.4.8.5a2.146,2.146,0,0,1-1.5-.4c0-.2.3-.2.7-.1Z" fill="#44aee3"></path><path id="Path_14097" data-name="Path 14097" d="M450.6,33.5l-.4.1-.5-.2.4-.1Z" fill="#44aee3"></path><path id="Path_14098" data-name="Path 14098" d="M21.2,275l-.2-.2.3-.2.2.2Z" fill="#44aee3"></path><path id="Path_14099" data-name="Path 14099" d="M40.7,274.2a.684.684,0,0,1-1.2.3.621.621,0,0,1,.6-.9.526.526,0,0,1,.6.6Z" fill="#44aee3"></path><path id="Path_14100" data-name="Path 14100" d="M60,273.1a1.015,1.015,0,0,1-1.8.5c-.4-.5-.1-1.4.9-1.5a.961.961,0,0,1,.9,1Z" fill="#44aee3"></path><path id="Path_14101" data-name="Path 14101" d="M79.3,271.7a1.453,1.453,0,0,1-2.5.8,1.236,1.236,0,0,1,1-2c1.2-.1,1.5.7,1.5,1.2Z" fill="#44aee3"></path><path id="Path_14102" data-name="Path 14102" d="M98.7,269.9a1.856,1.856,0,0,1-3.2,1.1,1.654,1.654,0,0,1,1.2-2.7,1.71,1.71,0,0,1,2,1.6Z" fill="#44aee3"></path><path id="Path_14103" data-name="Path 14103" d="M117.9,267.7c.1,1.8-2.2,2.7-3.6,1.5-1.2-1-.8-3,1.2-3.4a2.12,2.12,0,0,1,2.4,1.9Z" fill="#44aee3"></path><path id="Path_14104" data-name="Path 14104" d="M137.1,265.2c.2,2-2.5,3.2-4.2,1.8-1.5-1.2-1.1-3.5,1.2-4a2.685,2.685,0,0,1,3,2.2Z" fill="#44aee3"></path><path id="Path_14105" data-name="Path 14105" d="M156.2,262.3c.3,2.3-2.6,3.7-4.7,2.2a2.438,2.438,0,0,1,1.1-4.5,3.067,3.067,0,0,1,3.6,2.3Z" fill="#44aee3"></path><path id="Path_14106" data-name="Path 14106" d="M175.2,259.1c.5,2.6-2.8,4.3-5.2,2.6a2.8,2.8,0,0,1,1-5.2,3.71,3.71,0,0,1,4.2,2.6Z" fill="#44aee3"></path><path id="Path_14107" data-name="Path 14107" d="M193.9,255.5c.7,2.7-2.5,4.7-5.4,3.2-2.8-1.5-2.7-5,.1-5.9.1,0,.2-.1.4-.1a4.3,4.3,0,0,1,4.9,2.8Z" fill="#44aee3"></path><path id="Path_14108" data-name="Path 14108" d="M212.4,251.6c1,3-2.5,5.2-5.7,3.6-3.1-1.6-3.2-5.4-.2-6.4.1,0,.3-.1.4-.1a4.86,4.86,0,0,1,5.5,2.9Z" fill="#44aee3"></path><path id="Path_14109" data-name="Path 14109" d="M230.7,247.4c1.2,3.2-2.4,5.7-6,4-3.5-1.7-3.9-5.8-.5-7,.1,0,.3-.1.4-.1a5.366,5.366,0,0,1,6.1,3.1Z" fill="#44aee3"></path><path id="Path_14110" data-name="Path 14110" d="M248.6,242.8c1.4,3.3-1.9,6-5.8,4.6-4-1.4-5.1-5.9-1.9-7.5.2-.1.6-.2.8-.3a5.963,5.963,0,0,1,6.9,3.2Z" fill="#44aee3"></path><path id="Path_14111" data-name="Path 14111" d="M266.3,237.9c1.7,3.5-1.7,6.5-5.9,5.1-4.3-1.4-5.8-6.2-2.4-8a7.929,7.929,0,0,1,.9-.4,6.667,6.667,0,0,1,7.4,3.3Z" fill="#44aee3"></path><path id="Path_14112" data-name="Path 14112" d="M283.5,232.6c2,3.7-1.4,6.9-6,5.5-4.7-1.4-6.5-6.5-3-8.4.3-.1.6-.3.9-.4a7.285,7.285,0,0,1,8.1,3.3Z" fill="#44aee3"></path><path id="Path_14113" data-name="Path 14113" d="M300.4,227c2.2,3.6-.8,7.1-5.4,6.1-5.3-1.1-8-6.8-4.3-9.1a3.552,3.552,0,0,1,.9-.4,8.488,8.488,0,0,1,8.8,3.4Z" fill="#44aee3"></path><path id="Path_14114" data-name="Path 14114" d="M316.8,221.2c2.5,3.8-.4,7.5-5.3,6.5-5.7-1.1-8.8-7-5-9.4.3-.2.7-.3,1-.5a8.7,8.7,0,0,1,9.3,3.4Z" fill="#44aee3"></path><path id="Path_14115" data-name="Path 14115" d="M332.7,215c2.9,3.9,0,7.8-5.1,6.9-5.9-1-9.5-7.1-5.7-9.7a4.672,4.672,0,0,1,1-.5c4-1.4,8.2,1.1,9.8,3.3Z" fill="#44aee3"></path><path id="Path_14116" data-name="Path 14116" d="M348.1,208.5c3.2,4,.4,8.1-4.9,7.3-6.1-.9-10.2-7.1-6.5-10,.3-.2.7-.4,1-.6,4.1-1.4,8.6,1.1,10.4,3.3Z" fill="#44aee3"></path><path id="Path_14117" data-name="Path 14117" d="M362.9,201.8c3.3,3.8,1.2,7.9-3.9,7.7-6.4-.3-11.7-7.1-7.9-10.2l.9-.6c4.2-1.7,8.9.8,10.9,3.1Z" fill="#44aee3"></path><path id="Path_14118" data-name="Path 14118" d="M377,194.7c3.5,3.8,1.7,8.1-3.4,7.9-6.5-.2-12.3-7-8.7-10.2a2.838,2.838,0,0,1,.9-.6c4.2-1.8,9.1.6,11.2,2.9Z" fill="#44aee3"></path><path id="Path_14119" data-name="Path 14119" d="M390.5,187.4c3.7,3.7,2.1,8-2.9,8-6.5-.1-12.5-6.7-9.2-10a2.838,2.838,0,0,1,.9-.6c4-1.9,8.9.4,11.2,2.6Z" fill="#44aee3"></path><path id="Path_14120" data-name="Path 14120" d="M403.1,180c3.9,3.6,2.7,7.9-2.3,7.9-6.3,0-12.7-6.4-9.7-9.8a2.407,2.407,0,0,1,.8-.6c3.8-1.9,8.8.3,11.2,2.5Z" fill="#44aee3"></path><path id="Path_14121" data-name="Path 14121" d="M414.7,172.5c3.8,3.3,3.3,7.3-.9,7.7-6,.6-13.4-5.9-10.6-9.4a3.736,3.736,0,0,1,.7-.6c3.4-1.9,8.3.2,10.8,2.3Z" fill="#44aee3"></path><path id="Path_14122" data-name="Path 14122" d="M425.3,165c3.8,3.1,3.7,6.9-.3,7.4-5.5.7-13.1-5.5-10.7-8.8.1-.2.4-.4.6-.6,3.1-1.9,7.9,0,10.4,2Z" fill="#44aee3"></path><path id="Path_14123" data-name="Path 14123" d="M435,157.4c3.8,2.9,4,6.6.3,7.1-5.5.8-13.2-5.6-10.5-8.6l.3-.3c2.7-1.9,7.4-.1,9.9,1.8Z" fill="#44aee3"></path><path id="Path_14124" data-name="Path 14124" d="M443.7,149.8c3.8,2.7,4.2,6.2.8,6.7-5,.8-12.8-5.1-10.5-8.1l.3-.3c2.5-1.7,7-.1,9.4,1.7Z" fill="#44aee3"></path><path id="Path_14125" data-name="Path 14125" d="M451.6,142.1c3.7,2.5,4.3,5.8,1.3,6.3-4.6.8-12.1-4.7-10.3-7.5.1-.1.1-.2.2-.3,2.1-1.6,6.4-.1,8.8,1.5Z" fill="#44aee3"></path><path id="Path_14126" data-name="Path 14126" d="M458.6,134.4c3.5,2.3,4.4,5.4,1.7,5.9-4.1.8-11.5-4.2-10-6.9a.215.215,0,0,1,.2-.2c1.5-1.4,5.4-.5,8.1,1.2Z" fill="#44aee3"></path><path id="Path_14127" data-name="Path 14127" d="M464.7,126.8c3.4,2.1,4.4,4.9,2,5.4-3.4.8-11.1-3.7-9.4-6.4,1.4-1.6,5.2-.3,7.4,1Z" fill="#44aee3"></path><path id="Path_14128" data-name="Path 14128" d="M469.9,119.1c3.3,1.9,4.4,4.5,2.2,5-3,.8-10.4-3.3-9.1-5.9,1.1-1.3,4.4-.5,6.9.9Z" fill="#44aee3"></path><path id="Path_14129" data-name="Path 14129" d="M474.2,111.4c3.1,1.7,4.3,4,2.4,4.6-2.6.8-9.5-2.9-8.6-5.3.9-1.2,3.9-.5,6.2.7Z" fill="#44aee3"></path><path id="Path_14130" data-name="Path 14130" d="M477.6,103.8c2.8,1.5,4.1,3.6,2.5,4.1-2.2.7-8.7-2.6-8.1-4.7.8-1.1,3.5-.5,5.6.6Z" fill="#44aee3"></path><path id="Path_14131" data-name="Path 14131" d="M480.2,96.2c2.6,1.3,3.9,3.2,2.6,3.6-1.9.7-7.7-2.2-7.4-4.1.5-1,3.1-.3,4.8.5Z" fill="#44aee3"></path><path id="Path_14132" data-name="Path 14132" d="M481.9,88.7c2.3,1.1,3.6,2.8,2.5,3.2-1.6.6-6.9-1.8-6.8-3.5.5-1.1,2.8-.5,4.3.3Z" fill="#44aee3"></path><path id="Path_14133" data-name="Path 14133" d="M482.8,81.2c2.1,1,3.4,2.4,2.5,2.9-1.3.6-6.1-1.5-6.2-3.1.2-.9,2.1-.6,3.7.2Z" fill="#44aee3"></path><path id="Path_14134" data-name="Path 14134" d="M482.8,73.8c1.8.8,3.1,2,2.3,2.4-1,.5-5.2-1.2-5.4-2.6.1-.8,1.9-.3,3.1.2Z" fill="#44aee3"></path><path id="Path_14135" data-name="Path 14135" d="M482,66.5c1.7.7,2.8,1.8,2.1,2.1-.9.3-4.3-1.1-4.6-2.2-.1-.7,1.4-.4,2.5.1Z" fill="#44aee3"></path><path id="Path_14136" data-name="Path 14136" d="M480.3,59.3c1.4.6,2.4,1.4,1.8,1.6-.7.3-3.5-.8-3.8-1.7-.1-.5.9-.3,2,.1Z" fill="#44aee3"></path><path id="Path_14137" data-name="Path 14137" d="M477.7,52.1c1.1.4,1.9,1.1,1.6,1.3a4.986,4.986,0,0,1-3.1-1.3c-.1-.4.8-.2,1.5,0Z" fill="#44aee3"></path><path id="Path_14138" data-name="Path 14138" d="M474.3,45.2c.8.3,1.5.8,1.3,1a3.365,3.365,0,0,1-2.3-1c-.2-.4.5-.2,1,0Z" fill="#44aee3"></path><path id="Path_14139" data-name="Path 14139" d="M470.1,38.3c.5.2,1,.5.8.6a2.4,2.4,0,0,1-1.5-.6c-.1-.2.3-.1.5,0Z" fill="#44aee3"></path><path id="Path_14140" data-name="Path 14140" d="M465.4,31.9h-.2l-.5-.3h.2Z" fill="#44aee3"></path><path id="Path_14141" data-name="Path 14141" d="M19.6,293.2l-.4-.3.4-.4.4.3Z" fill="#44aee3"></path><path id="Path_14142" data-name="Path 14142" d="M40.1,292.2a.852.852,0,0,1-1.5.4.8.8,0,0,1,.7-1.2c.7-.1.9.4.8.8Z" fill="#44aee3"></path><path id="Path_14143" data-name="Path 14143" d="M60.3,291.1a1.292,1.292,0,0,1-2.2.7,1.135,1.135,0,0,1,1-1.8,1.031,1.031,0,0,1,1.2,1.1Z" fill="#44aee3"></path><path id="Path_14144" data-name="Path 14144" d="M80.5,289.6a1.7,1.7,0,0,1-3,.9,1.576,1.576,0,0,1,1.2-2.5,1.63,1.63,0,0,1,1.8,1.6Z" fill="#44aee3"></path><path id="Path_14145" data-name="Path 14145" d="M100.7,287.7a2.161,2.161,0,0,1-3.6,1.4,1.935,1.935,0,0,1,1.3-3.3,1.968,1.968,0,0,1,2.3,1.9Z" fill="#44aee3"></path><path id="Path_14146" data-name="Path 14146" d="M120.9,285.4a2.456,2.456,0,0,1-4.2,1.7,2.294,2.294,0,0,1,1.4-4,2.676,2.676,0,0,1,2.8,2.3Z" fill="#44aee3"></path><path id="Path_14147" data-name="Path 14147" d="M141,282.8c.2,2.4-2.9,3.8-4.8,2.1a2.628,2.628,0,0,1,1.4-4.7,3.034,3.034,0,0,1,3.4,2.6Z" fill="#44aee3"></path><path id="Path_14148" data-name="Path 14148" d="M161,279.8c.4,2.7-3.1,4.4-5.5,2.6a3,3,0,0,1,1.4-5.4,3.5,3.5,0,0,1,4.1,2.8Z" fill="#44aee3"></path><path id="Path_14149" data-name="Path 14149" d="M180.7,276.4c.5,3-3.2,4.9-5.9,3-2.2-1.6-2.3-5.2,1.3-6a3.9,3.9,0,0,1,4.6,3Z" fill="#44aee3"></path><path id="Path_14150" data-name="Path 14150" d="M200.4,272.7c.8,3.4-3.4,5.6-6.5,3.4-2.7-1.9-2.6-5.8,1.1-6.7a4.624,4.624,0,0,1,5.4,3.3Z" fill="#44aee3"></path><path id="Path_14151" data-name="Path 14151" d="M219.7,268.6c.9,3.5-3,6-6.5,4.1s-3.4-6.3.1-7.5c.1,0,.3-.1.4-.1a5.211,5.211,0,0,1,6,3.5Z" fill="#44aee3"></path><path id="Path_14152" data-name="Path 14152" d="M238.8,264.1c1.2,3.8-2.9,6.5-6.8,4.6-3.8-1.9-4-6.8-.3-8.1a4.331,4.331,0,0,1,.5-.1,5.754,5.754,0,0,1,6.6,3.6Z" fill="#44aee3"></path><path id="Path_14153" data-name="Path 14153" d="M257.6,259.3c1.5,4.1-2.8,7.2-7.1,5.1-4.2-2-4.7-7.3-.8-8.8.1-.1.3-.1.5-.2a6.536,6.536,0,0,1,7.4,3.9Z" fill="#44aee3"></path><path id="Path_14154" data-name="Path 14154" d="M276.1,254.2c1.8,4.3-2.7,7.7-7.4,5.6-4.6-2.1-5.4-7.7-1.2-9.4.2-.1.4-.1.5-.2a7.33,7.33,0,0,1,8.1,4Z" fill="#44aee3"></path><path id="Path_14155" data-name="Path 14155" d="M294.2,248.7c2,4.4-2,8.1-7,6.4-5.4-1.8-6.9-8.2-2.4-10.2.2-.1.4-.1.5-.2a7.7,7.7,0,0,1,8.9,4Z" fill="#44aee3"></path><path id="Path_14156" data-name="Path 14156" d="M311.8,242.8c2.4,4.6-1.7,8.7-7.1,7-5.9-1.9-7.8-8.7-3-10.9a1.421,1.421,0,0,1,.6-.2,8.33,8.33,0,0,1,9.5,4.1Z" fill="#44aee3"></path><path id="Path_14157" data-name="Path 14157" d="M329,236.7c2.7,4.8-1.5,9.2-7.1,7.5-6.2-1.9-8.6-9-3.7-11.4a1.421,1.421,0,0,1,.6-.2c4.6-1.5,8.7,1.5,10.2,4.1Z" fill="#44aee3"></path><path id="Path_14158" data-name="Path 14158" d="M345.7,230.2c2.9,4.8-.6,9.4-6.4,8.3-6.6-1.3-10.2-8.7-5.8-11.8.3-.2.8-.4,1.1-.6,4.9-1.7,9.5,1.4,11.1,4.1Z" fill="#44aee3"></path><path id="Path_14159" data-name="Path 14159" d="M361.9,223.3c3.3,5-.2,9.9-6.2,8.8-6.9-1.2-11.1-8.9-6.6-12.3a5.972,5.972,0,0,1,1.1-.6c4.9-1.8,9.8,1.3,11.7,4.1Z" fill="#44aee3"></path><path id="Path_14160" data-name="Path 14160" d="M377.5,216.2c3.7,5.1.4,10.4-5.9,9.4-7.2-1.1-12-9.1-7.5-12.7a6.725,6.725,0,0,1,1.1-.7c4.9-2,10.2,1.1,12.3,4Z" fill="#44aee3"></path><path id="Path_14161" data-name="Path 14161" d="M392.4,208.8c4.1,5.3,1,10.8-5.6,9.9-7.8-1.1-13.1-10.1-7.9-13.6a2.092,2.092,0,0,0,.6-.4c5.1-2.1,10.6,1.1,12.9,4.1Z" fill="#44aee3"></path><path id="Path_14162" data-name="Path 14162" d="M406.6,201.1c4.4,5.2,1.4,11.1-5.1,10.3-7.9-.9-13.7-10-8.7-13.7.2-.1.4-.3.6-.4,4.9-2.4,10.7.8,13.2,3.8Z" fill="#44aee3"></path><path id="Path_14163" data-name="Path 14163" d="M419.6,193.3c4.3,4.8,2.4,10.3-3.4,10.2-7.4-.1-14.4-8.7-10.5-12.9a7.006,7.006,0,0,1,1-.8c4.6-2.4,10.3.6,12.9,3.5Z" fill="#44aee3"></path><path id="Path_14164" data-name="Path 14164" d="M431.5,185.6c4.3,4.5,2.9,9.8-2.5,9.7-7.3,0-14.5-8.9-10.2-12.6a2.181,2.181,0,0,1,.5-.4c4.1-2.3,9.6.6,12.2,3.3Z" fill="#44aee3"></path><path id="Path_14165" data-name="Path 14165" d="M442.4,177.8c4.2,4.2,3.3,9.2-1.7,9.2-6.7.1-13.9-8.2-10.3-11.8.1-.1.3-.2.4-.4,3.8-2.2,9,.4,11.6,3Z" fill="#44aee3"></path><path id="Path_14166" data-name="Path 14166" d="M452.4,169.9c4.2,3.9,3.7,8.6-.9,8.7-6.1.1-13.2-7.6-10.2-10.9.1-.1.3-.2.4-.3,3.2-2.3,8.2.1,10.7,2.5Z" fill="#44aee3"></path><path id="Path_14167" data-name="Path 14167" d="M461.5,161.9c4,3.6,3.9,8-.2,8.2-5.6.2-12.7-6.9-10.1-10.2l.3-.3c2.5-1.8,7.1-.2,10,2.3Z" fill="#44aee3"></path><path id="Path_14168" data-name="Path 14168" d="M469.6,154c3.9,3.3,4.1,7.5.4,7.7-4.9.2-12.5-6.4-9.7-9.7,2.4-2,6.9-.1,9.3,2Z" fill="#44aee3"></path><path id="Path_14169" data-name="Path 14169" d="M476.9,146c3.8,3,4.2,6.9.9,7.1-4.4.3-11.7-5.7-9.4-8.9,1.8-1.7,5.8-.4,8.5,1.8Z" fill="#44aee3"></path><path id="Path_14170" data-name="Path 14170" d="M483.2,138c3.6,2.8,4.3,6.3,1.3,6.6-3.9.3-10.9-5.2-9.1-8.2,1.7-1.8,5.6-.1,7.8,1.6Z" fill="#44aee3"></path><path id="Path_14171" data-name="Path 14171" d="M488.6,130c3.4,2.5,4.3,5.7,1.6,6-3.5.4-10.1-4.6-8.7-7.4,1.4-1.6,5-.2,7.1,1.4Z" fill="#44aee3"></path><path id="Path_14172" data-name="Path 14172" d="M493.1,122c3.2,2.2,4.2,5.2,1.9,5.5-2.9.4-9.3-4.2-8.3-6.7,1-1.4,4.1-.5,6.4,1.2Z" fill="#44aee3"></path><path id="Path_14173" data-name="Path 14173" d="M496.7,114c3,2,4.1,4.7,2.1,5-2.6.4-8.5-3.7-7.8-6,.7-1.3,3.5-.5,5.7,1Z" fill="#44aee3"></path><path id="Path_14174" data-name="Path 14174" d="M499.3,106.1c2.7,1.8,4,4.2,2.3,4.4-2.2.3-7.6-3.2-7.2-5.3.6-1.2,3.3-.2,4.9.9Z" fill="#44aee3"></path><path id="Path_14175" data-name="Path 14175" d="M501.1,98.2c2.5,1.6,3.8,3.7,2.4,4-1.8.3-6.8-2.9-6.7-4.7.3-1,2.5-.4,4.3.7Z" fill="#44aee3"></path><path id="Path_14176" data-name="Path 14176" d="M502,90.4c2.3,1.4,3.5,3.2,2.3,3.5-1.5.3-6-2.4-6-4,.2-1.1,2.4-.3,3.7.5Z" fill="#44aee3"></path><path id="Path_14177" data-name="Path 14177" d="M502,82.6c2,1.2,3.2,2.8,2.3,3-1.2.3-5.2-2.1-5.4-3.5.1-.8,1.9-.2,3.1.5Z" fill="#44aee3"></path><path id="Path_14178" data-name="Path 14178" d="M501.1,75c1.7,1,2.9,2.3,2.1,2.5-.9.3-4.4-1.7-4.7-2.9,0-.6,1.4-.3,2.6.4Z" fill="#44aee3"></path><path id="Path_14179" data-name="Path 14179" d="M499.3,67.5c1.5.8,2.5,1.9,2,2.1-.7.2-3.6-1.4-4-2.4-.1-.7,1.1-.2,2,.3Z" fill="#44aee3"></path><path id="Path_14180" data-name="Path 14180" d="M496.7,60c1.2.6,2.1,1.5,1.7,1.7-.5.2-2.9-1.1-3.3-1.9-.2-.5.8-.1,1.6.2Z" fill="#44aee3"></path><path id="Path_14181" data-name="Path 14181" d="M493.1,52.7c.9.5,1.7,1.2,1.4,1.3a5.16,5.16,0,0,1-2.6-1.4c-.2-.4.5-.1.7-.1.2.1.3.2.5.2Z" fill="#44aee3"></path><path id="Path_14182" data-name="Path 14182" d="M488.7,45.6c.7.3,1.2.8,1,.9a3.291,3.291,0,0,1-1.8-1s-.1-.2.2-.1a1.422,1.422,0,0,1,.6.2Z" fill="#44aee3"></path><path id="Path_14183" data-name="Path 14183" d="M483.3,38.6c.4.2.8.5.7.5a2.424,2.424,0,0,1-1.1-.6s-.1-.1.1-.1c.1.1.2.1.3.2Z" fill="#44aee3"></path><path id="Path_14184" data-name="Path 14184" d="M477.3,31.9h-.1l-.2-.1h.1Z" fill="#44aee3"></path><path id="Path_14185" data-name="Path 14185" d="M18.4,312.4,18,312l.4-.4.4.4Z" fill="#44aee3"></path><path id="Path_14186" data-name="Path 14186" d="M39.7,311.3a.846.846,0,0,1-1.5.4.8.8,0,0,1,.7-1.2.781.781,0,0,1,.8.8Z" fill="#44aee3"></path><path id="Path_14187" data-name="Path 14187" d="M60.6,310.2a1.272,1.272,0,0,1-2.1.8,1.251,1.251,0,0,1,.9-2,1.145,1.145,0,0,1,1.2,1.2Z" fill="#44aee3"></path><path id="Path_14188" data-name="Path 14188" d="M81.6,308.6a1.732,1.732,0,0,1-2.9,1.1,1.6,1.6,0,0,1,1.1-2.7c1.3,0,1.9.8,1.8,1.6Z" fill="#44aee3"></path><path id="Path_14189" data-name="Path 14189" d="M102.6,306.7a2.039,2.039,0,0,1-3.5,1.4,2,2,0,1,1,3.5-1.4Z" fill="#44aee3"></path><path id="Path_14190" data-name="Path 14190" d="M123.5,304.3a2.447,2.447,0,0,1-4.1,1.8,2.288,2.288,0,0,1,1.4-4,2.373,2.373,0,0,1,2.7,2.2Z" fill="#44aee3"></path><path id="Path_14191" data-name="Path 14191" d="M144.4,301.6a2.86,2.86,0,0,1-4.8,2.2A2.716,2.716,0,0,1,141,299a2.969,2.969,0,0,1,3.4,2.6Z" fill="#44aee3"></path><path id="Path_14192" data-name="Path 14192" d="M165.2,298.5c.3,2.8-3.2,4.5-5.5,2.6a3.14,3.14,0,0,1,1.4-5.6,3.635,3.635,0,0,1,4.1,3Z" fill="#44aee3"></path><path id="Path_14193" data-name="Path 14193" d="M185.8,295c.5,3.2-3.3,5.1-6,3.1-2.3-1.8-2-5.5,1.4-6.2a3.877,3.877,0,0,1,4.6,3.1Z" fill="#44aee3"></path><path id="Path_14194" data-name="Path 14194" d="M206.1,291.1c.7,3.5-3.5,5.7-6.5,3.5-2.7-1.9-2.5-6,1.2-6.9a4.505,4.505,0,0,1,5.3,3.4Z" fill="#44aee3"></path><path id="Path_14195" data-name="Path 14195" d="M226.3,286.8c.9,3.6-3.2,6.2-6.7,4.2s-3.3-6.6.3-7.8c.1,0,.3-.1.4-.1a5.257,5.257,0,0,1,6,3.7Z" fill="#44aee3"></path><path id="Path_14196" data-name="Path 14196" d="M246.1,282.2c1.1,3.9-3.2,6.8-7,4.7s-3.8-7.1-.1-8.5a4.331,4.331,0,0,1,.5-.1,5.756,5.756,0,0,1,6.6,3.9Z" fill="#44aee3"></path><path id="Path_14197" data-name="Path 14197" d="M265.7,277.2c1.3,4.3-3.2,7.5-7.4,5.3-4.1-2.1-4.7-7.8.1-9.3a6.168,6.168,0,0,1,7.3,4Z" fill="#44aee3"></path><path id="Path_14198" data-name="Path 14198" d="M284.8,271.9c1.6,4.6-3,8.1-7.6,5.8-4.5-2.2-5.4-8.3-.3-10a6.663,6.663,0,0,1,7.9,4.2Z" fill="#44aee3"></path><path id="Path_14199" data-name="Path 14199" d="M303.6,266.2c1.9,4.8-2.8,8.7-7.9,6.4-4.8-2.3-6.1-8.7-.8-10.7a7.456,7.456,0,0,1,8.7,4.3Z" fill="#44aee3"></path><path id="Path_14200" data-name="Path 14200" d="M321.9,260.1c2.1,4.8-2.1,9-7.4,7.1-5.7-2-7.3-9.1-2.5-11.3a1.421,1.421,0,0,1,.6-.2,8.071,8.071,0,0,1,9.3,4.4Z" fill="#44aee3"></path><path id="Path_14201" data-name="Path 14201" d="M339.8,253.7c2.4,5.1-1.8,9.6-7.4,7.7-6.1-2-8-9.5-3.1-11.9l.6-.3c4.6-1.4,8.6,1.8,9.9,4.5Z" fill="#44aee3"></path><path id="Path_14202" data-name="Path 14202" d="M357,247c2.8,5.3-1.5,10.1-7.3,8.2-6.4-2-8.7-9.8-3.7-12.4l.6-.3c4.8-1.5,9,1.7,10.4,4.5Z" fill="#44aee3"></path><path id="Path_14203" data-name="Path 14203" d="M373.8,239.9c3,5.4-1.2,10.5-7.2,8.8-6.6-2-9.4-10-4.4-12.9l.6-.3c4.9-1.7,9.3,1.5,11,4.4Z" fill="#44aee3"></path><path id="Path_14204" data-name="Path 14204" d="M389.9,232.5c3.4,5.5-.7,11-7,9.3-6.9-1.9-10.1-10.2-5.1-13.3l.6-.3c4.9-2,9.7,1.4,11.5,4.3Z" fill="#44aee3"></path><path id="Path_14205" data-name="Path 14205" d="M405.3,224.9c3.5,5.3.2,10.9-5.8,9.8-7.3-1.2-11.6-10.3-6.6-13.7l.6-.3c4.9-2.2,9.8,1.1,11.8,4.2Z" fill="#44aee3"></path><path id="Path_14206" data-name="Path 14206" d="M420,216.9c3.7,5.3.8,11-5.3,10.1-7.3-1.1-12-10.2-7.2-13.8.2-.1.4-.3.6-.4,4.7-2.1,9.8,1.1,11.9,4.1Z" fill="#44aee3"></path><path id="Path_14207" data-name="Path 14207" d="M433.6,208.9c3.9,5.2,1.3,10.7-4.5,9.9-7-1-12.1-9.9-7.7-13.4.1-.1.4-.3.5-.4,4.4-2.2,9.5.9,11.7,3.9Z" fill="#44aee3"></path><path id="Path_14208" data-name="Path 14208" d="M446.1,200.8c3.9,5,1.9,10.4-3.6,9.7-6.7-.8-12-9.4-8-12.9.1-.1.3-.2.5-.4,3.9-2.2,8.8.7,11.1,3.6Z" fill="#44aee3"></path><path id="Path_14209" data-name="Path 14209" d="M457.5,192.6c3.9,4.7,2.4,9.9-2.8,9.3-6-.7-12.2-9-7.8-12.6,3.6-2.2,8.4.6,10.6,3.3Z" fill="#44aee3"></path><path id="Path_14210" data-name="Path 14210" d="M468,184.4c3.9,4.4,2.8,9.4-2,8.9-5.6-.6-11.7-8.4-7.9-11.9,3.1-2.1,7.7.5,9.9,3Z" fill="#44aee3"></path><path id="Path_14211" data-name="Path 14211" d="M477.5,176.1c3.6,3.9,3.3,8.4-.7,8.5-5.1,0-12-7.6-8.6-11.2,2.7-2.1,7.1.4,9.3,2.7Z" fill="#44aee3"></path><path id="Path_14212" data-name="Path 14212" d="M486,167.8c3.5,3.6,3.5,7.9-.1,7.9-4.6.1-11.3-7-8.5-10.4,2.4-1.9,6.4.3,8.6,2.5Z" fill="#44aee3"></path><path id="Path_14213" data-name="Path 14213" d="M493.5,159.5c3.4,3.4,3.7,7.4.4,7.5-4.2.1-10.7-6.5-8.3-9.7,2-1.9,5.9.1,7.9,2.2Z" fill="#44aee3"></path><path id="Path_14214" data-name="Path 14214" d="M500.1,151.2c3.3,3.1,3.7,6.7.9,6.9-3.7.2-9.9-5.9-8-8.8,1.6-1.8,5.1,0,7.1,1.9Z" fill="#44aee3"></path><path id="Path_14215" data-name="Path 14215" d="M505.7,142.8c3.1,2.8,3.8,6.2,1.3,6.3-3.2.2-9.2-5.3-7.7-8.1,1.3-1.5,4.5.1,6.4,1.8Z" fill="#44aee3"></path><path id="Path_14216" data-name="Path 14216" d="M510.4,134.5c2.9,2.6,3.8,5.6,1.6,5.8-2.8.2-8.4-4.8-7.4-7.4,1.1-1.4,4,.1,5.8,1.6Z" fill="#44aee3"></path><path id="Path_14217" data-name="Path 14217" d="M514.2,126.2c2.7,2.3,3.7,5.1,1.8,5.3-2.4.2-7.7-4.3-7-6.7.8-1.3,3.5,0,5.2,1.4Z" fill="#44aee3"></path><path id="Path_14218" data-name="Path 14218" d="M517,118c2.5,2,3.6,4.6,2,4.7-2,.2-6.9-3.8-6.5-5.9.5-1.2,2.9-.1,4.5,1.2Z" fill="#44aee3"></path><path id="Path_14219" data-name="Path 14219" d="M518.8,109.8c2.3,1.8,3.4,4.1,2.1,4.2-1.7.2-6.2-3.3-6-5.3.4-1.1,2.5,0,3.9,1.1Z" fill="#44aee3"></path><path id="Path_14220" data-name="Path 14220" d="M519.8,101.7c2,1.6,3.1,3.5,2.1,3.7-1.4.2-5.4-2.9-5.4-4.6.2-1,2.1-.1,3.3.9Z" fill="#44aee3"></path><path id="Path_14221" data-name="Path 14221" d="M519.8,93.6c1.8,1.3,2.9,3.1,2.1,3.2-1.1.2-4.7-2.5-4.9-3.9.1-.9,1.7-.1,2.8.7Z" fill="#44aee3"></path><path id="Path_14222" data-name="Path 14222" d="M518.9,85.7c1.6,1.1,2.6,2.6,2,2.7-.9.2-4-2.1-4.3-3.3-.1-.8,1.3-.1,2.3.6Z" fill="#44aee3"></path><path id="Path_14223" data-name="Path 14223" d="M517,77.8c1.3.9,2.2,2.1,1.8,2.2-.6.2-3.2-1.7-3.6-2.7-.1-.5.9-.1,1.8.5Z" fill="#44aee3"></path><path id="Path_14224" data-name="Path 14224" d="M514.2,70.1c1.1.7,1.9,1.7,1.6,1.8a5.8,5.8,0,0,1-3-2.2c-.1-.4.6-.1.8,0,.3.1.4.3.6.4Z" fill="#44aee3"></path><path id="Path_14225" data-name="Path 14225" d="M510.5,62.5c.8.5,1.5,1.2,1.3,1.3a4.624,4.624,0,0,1-2.2-1.6c0-.1-.1-.3.3-.1a5.931,5.931,0,0,0,.6.4Z" fill="#44aee3"></path><path id="Path_14226" data-name="Path 14226" d="M505.9,55.1c.5.3,1,.8.9.9s-1.2-.6-1.5-1c0,0-.1-.1.1-.1.1-.1.3,0,.5.2Z" fill="#44aee3"></path><path id="Path_14227" data-name="Path 14227" d="M500.9,48.2l-.2-.1-.6-.4.3.1Z" fill="#44aee3"></path><path id="Path_14228" data-name="Path 14228" d="M494.1,40.8h0l-.2-.1h.1Z" fill="#44aee3"></path><path id="Path_14229" data-name="Path 14229" d="M17.6,332.4h-.1l.1-.1v.1Z" fill="#44aee3"></path><path id="Path_14230" data-name="Path 14230" d="M38.8,332.1l-.5-.5.5-.5.4.5Z" fill="#44aee3"></path><path id="Path_14231" data-name="Path 14231" d="M60.9,330.5a.886.886,0,0,1-1.5.6.925.925,0,0,1,.6-1.5c.6-.1.9.5.9.9Z" fill="#44aee3"></path><path id="Path_14232" data-name="Path 14232" d="M82.6,328.9a1.29,1.29,0,1,1-1.4-1.3,1.237,1.237,0,0,1,1.4,1.3Z" fill="#44aee3"></path><path id="Path_14233" data-name="Path 14233" d="M104.3,326.8a1.759,1.759,0,1,1-1.9-1.8,1.871,1.871,0,0,1,1.9,1.8Z" fill="#44aee3"></path><path id="Path_14234" data-name="Path 14234" d="M125.9,324.4a2.172,2.172,0,0,1-3.6,1.6,2.082,2.082,0,0,1,1.2-3.6,2.126,2.126,0,0,1,2.4,2Z" fill="#44aee3"></path><path id="Path_14235" data-name="Path 14235" d="M147.5,321.6a2.5,2.5,0,0,1-4.2,1.9,2.462,2.462,0,0,1,1.3-4.3,2.643,2.643,0,0,1,2.9,2.4Z" fill="#44aee3"></path><path id="Path_14236" data-name="Path 14236" d="M169,318.4a2.95,2.95,0,0,1-4.9,2.4,2.873,2.873,0,0,1,1.3-5.1,3.107,3.107,0,0,1,3.6,2.7Z" fill="#44aee3"></path><path id="Path_14237" data-name="Path 14237" d="M190.2,314.8c.4,2.9-3.1,4.6-5.4,2.8a3.172,3.172,0,0,1,1.3-5.7,3.5,3.5,0,0,1,4.1,2.9Z" fill="#44aee3"></path><path id="Path_14238" data-name="Path 14238" d="M211.2,310.8a3.587,3.587,0,0,1-5.9,3.2,3.531,3.531,0,0,1,1.2-6.4,3.886,3.886,0,0,1,4.7,3.2Z" fill="#44aee3"></path><path id="Path_14239" data-name="Path 14239" d="M232,306.4c.7,3.4-3,5.7-6.1,3.9-3-1.8-3.1-6.3.8-7.3a4.363,4.363,0,0,1,5.3,3.4Z" fill="#44aee3"></path><path id="Path_14240" data-name="Path 14240" d="M252.5,301.6c.9,3.6-3.1,6.3-6.4,4.3-3.3-1.9-3.5-6.7.6-8a5.024,5.024,0,0,1,5.8,3.7Z" fill="#44aee3"></path><path id="Path_14241" data-name="Path 14241" d="M272.7,296.5c1.1,4-3,6.9-6.8,4.9-3.7-2-4.1-7.3.3-8.7a5.4,5.4,0,0,1,6.5,3.8Z" fill="#44aee3"></path><path id="Path_14242" data-name="Path 14242" d="M292.5,291c1.3,4.2-3,7.4-7,5.3-3.9-2-4.5-7.8,0-9.3a5.93,5.93,0,0,1,7,4Z" fill="#44aee3"></path><path id="Path_14243" data-name="Path 14243" d="M311.8,285.1c1.5,4.5-2.9,8-7.2,5.8-4.2-2.1-5-8.2-.3-9.9a6.281,6.281,0,0,1,7.5,4.1Z" fill="#44aee3"></path><path id="Path_14244" data-name="Path 14244" d="M330.7,278.9c1.8,4.7-2.7,8.5-7.3,6.3-4.5-2.2-5.6-8.4-.7-10.4a6.662,6.662,0,0,1,8,4.1Z" fill="#44aee3"></path><path id="Path_14245" data-name="Path 14245" d="M349.1,272.3c2,4.9-2.4,9-7.3,6.7-4.7-2.2-6.2-8.7-1.1-10.9a7.1,7.1,0,0,1,8.4,4.2Z" fill="#44aee3"></path><path id="Path_14246" data-name="Path 14246" d="M366.9,265.4c2.1,4.8-1.7,9.1-6.7,7.4-5.5-1.9-7.1-9-2.7-11.3a1.69,1.69,0,0,1,.5-.2c4.3-1.5,7.8,1.5,8.9,4.1Z" fill="#44aee3"></path><path id="Path_14247" data-name="Path 14247" d="M384.2,258.1c2.4,4.9-1.4,9.4-6.5,7.8-5.6-1.8-7.6-9.1-3.2-11.7a2.186,2.186,0,0,0,.5-.3c4.2-1.5,7.9,1.6,9.2,4.2Z" fill="#44aee3"></path><path id="Path_14248" data-name="Path 14248" d="M400.7,250.6c2.6,5-1,9.7-6.3,8.1-5.5-1.7-8.4-9.4-3.2-12.2,4.3-1.7,8.2,1.4,9.5,4.1Z" fill="#44aee3"></path><path id="Path_14249" data-name="Path 14249" d="M416.6,242.7c2.8,5.1-.6,9.9-5.9,8.4-5.6-1.6-8.7-9.4-3.7-12.3,4.2-1.8,8.1,1.2,9.6,3.9Z" fill="#44aee3"></path><path id="Path_14250" data-name="Path 14250" d="M431.8,234.5c3,5-.2,10-5.5,8.6-5.5-1.5-9-9.3-4.1-12.3,4-1.9,8,1,9.6,3.7Z" fill="#44aee3"></path><path id="Path_14251" data-name="Path 14251" d="M445.9,226.2c3.1,4.9.3,9.9-4.8,8.5-5.4-1.4-9.1-9-4.6-12.1,3.8-1.9,7.8.9,9.4,3.6Z" fill="#44aee3"></path><path id="Path_14252" data-name="Path 14252" d="M459,217.8c3,4.5,1,9.3-3.5,8.5-5.3-.8-9.9-8.7-5.6-12,3.5-1.9,7.4.9,9.1,3.5Z" fill="#44aee3"></path><path id="Path_14253" data-name="Path 14253" d="M471,209.3c3,4.3,1.4,9-2.8,8.3-5-.8-9.7-8.4-5.9-11.6,3.2-1.9,7,.8,8.7,3.3Z" fill="#44aee3"></path><path id="Path_14254" data-name="Path 14254" d="M482,200.7c3,4.1,1.9,8.7-2.1,8.1-4.7-.7-9.5-8-6.1-11.1,2.7-1.9,6.5.6,8.2,3Z" fill="#44aee3"></path><path id="Path_14255" data-name="Path 14255" d="M491.9,192.2c3,3.9,2.2,8.2-1.5,7.7-4.3-.6-9.1-7.5-6.2-10.5,2.4-1.8,6,.5,7.7,2.8Z" fill="#44aee3"></path><path id="Path_14256" data-name="Path 14256" d="M500.8,183.5c2.9,3.6,2.4,7.7-.9,7.3-3.9-.5-8.7-7-6.2-9.9,2.1-1.7,5.4.5,7.1,2.6Z" fill="#44aee3"></path><path id="Path_14257" data-name="Path 14257" d="M508.7,174.9c2.9,3.4,2.7,7.3-.4,6.9-3.6-.4-8.2-6.5-6.2-9.2,1.8-1.7,4.9.3,6.6,2.3Z" fill="#44aee3"></path><path id="Path_14258" data-name="Path 14258" d="M515.6,166.3c2.7,3.1,2.8,6.7.1,6.4-3.2-.4-7.7-6-6.1-8.6,1.5-1.5,4.4.3,6,2.2Z" fill="#44aee3"></path><path id="Path_14259" data-name="Path 14259" d="M521.5,157.6c2.5,2.7,2.9,5.9.8,6-2.8.1-7.6-5.3-6.2-7.9,1.2-1.5,3.8.2,5.4,1.9Z" fill="#44aee3"></path><path id="Path_14260" data-name="Path 14260" d="M526.4,149c2.4,2.5,3,5.4,1.1,5.5-2.4.1-7-4.9-6-7.2,1-1.4,3.4.1,4.9,1.7Z" fill="#44aee3"></path><path id="Path_14261" data-name="Path 14261" d="M530.3,140.4c2.2,2.2,2.9,4.9,1.3,5-2,.1-6.3-4.3-5.6-6.5.7-1.3,2.9.1,4.3,1.5Z" fill="#44aee3"></path><path id="Path_14262" data-name="Path 14262" d="M533.2,131.8c2,2,2.8,4.4,1.5,4.5-1.7.1-5.7-3.9-5.3-5.9.6-1,2.6.2,3.8,1.4Z" fill="#44aee3"></path><path id="Path_14263" data-name="Path 14263" d="M535.2,123.3c1.8,1.8,2.7,3.9,1.6,4-1.4.1-5-3.4-4.8-5.2.3-.9,2.1.2,3.2,1.2Z" fill="#44aee3"></path><path id="Path_14264" data-name="Path 14264" d="M536.2,114.9c1.6,1.5,2.5,3.4,1.7,3.5-1.1.1-4.3-2.9-4.3-4.5.1-.9,1.6.1,2.6,1Z" fill="#44aee3"></path><path id="Path_14265" data-name="Path 14265" d="M536.2,106.6c1.4,1.3,2.3,2.9,1.6,3-.9.1-3.7-2.5-3.8-3.8.1-.8,1.3,0,2.2.8Z" fill="#44aee3"></path><path id="Path_14266" data-name="Path 14266" d="M535.3,98.3c1.2,1.1,2.1,2.5,1.6,2.5-.6.1-3.1-2.2-3.4-3.3,0-.5,1,.1,1.8.8Z" fill="#44aee3"></path><path id="Path_14267" data-name="Path 14267" d="M533.4,90.2c1,.9,1.7,1.9,1.4,2-.4.1-2.4-1.7-2.7-2.6-.1-.4.4-.1.7,0a3.392,3.392,0,0,0,.6.6Z" fill="#44aee3"></path><path id="Path_14268" data-name="Path 14268" d="M530.6,82.2c.8.7,1.4,1.5,1.2,1.5-.3.1-1.8-1.3-2.1-1.9,0-.1-.1-.3.2-.1.2.1.5.4.7.5Z" fill="#44aee3"></path><path id="Path_14269" data-name="Path 14269" d="M526.8,74.4c.6.5,1,1,.9,1.1a4.514,4.514,0,0,1-1.5-1.4c0-.1-.1-.2.1-.1a3.611,3.611,0,0,0,.5.4Z" fill="#44aee3"></path><path id="Path_14270" data-name="Path 14270" d="M522,66.7c.4.3.7.6.6.6a5.771,5.771,0,0,1-1-.8v-.1c.1,0,.4.2.4.3Z" fill="#44aee3"></path><path id="Path_14271" data-name="Path 14271" d="M516.5,59.3l-.1-.1-.2-.1h.1Z" fill="#44aee3"></path><path id="Path_14272" data-name="Path 14272" d="M60.9,352.1l-.3-.3.3-.3.3.3Z" fill="#44aee3"></path><path id="Path_14273" data-name="Path 14273" d="M83.5,350.2a.741.741,0,0,1-1.2.5.626.626,0,0,1,.4-1.1.608.608,0,0,1,.8.6Z" fill="#44aee3"></path><path id="Path_14274" data-name="Path 14274" d="M105.8,348.1a1.115,1.115,0,0,1-1.9.8,1.148,1.148,0,0,1,.7-1.9,1.133,1.133,0,0,1,1.2,1.1Z" fill="#44aee3"></path><path id="Path_14275" data-name="Path 14275" d="M128.1,345.6a1.482,1.482,0,0,1-2.5,1.1,1.461,1.461,0,0,1,.8-2.5,1.583,1.583,0,0,1,1.7,1.4Z" fill="#44aee3"></path><path id="Path_14276" data-name="Path 14276" d="M150.3,342.7a1.939,1.939,0,0,1-3.2,1.5,1.9,1.9,0,0,1,.9-3.3,2.078,2.078,0,0,1,2.3,1.8Z" fill="#44aee3"></path><path id="Path_14277" data-name="Path 14277" d="M172.3,339.4a2.254,2.254,0,0,1-3.8,1.8,2.3,2.3,0,0,1,1.1-4,2.5,2.5,0,0,1,2.7,2.2Z" fill="#44aee3"></path><path id="Path_14278" data-name="Path 14278" d="M194.1,335.7a2.572,2.572,0,1,1-3.1-2.3,2.651,2.651,0,0,1,3.1,2.3Z" fill="#44aee3"></path><path id="Path_14279" data-name="Path 14279" d="M215.8,331.6a2.884,2.884,0,0,1-4.7,2.6,2.922,2.922,0,0,1,1.1-5.2,3.234,3.234,0,0,1,3.6,2.6Z" fill="#44aee3"></path><path id="Path_14280" data-name="Path 14280" d="M237.2,327.1a3.283,3.283,0,1,1-4.2-2.8,3.6,3.6,0,0,1,4.2,2.8Z" fill="#44aee3"></path><path id="Path_14281" data-name="Path 14281" d="M258.2,322.3a3.494,3.494,0,0,1-5.6,3.4c-2.2-1.6-2.5-5.4.9-6.5a3.927,3.927,0,0,1,4.7,3.1Z" fill="#44aee3"></path><path id="Path_14282" data-name="Path 14282" d="M278.9,317a3.691,3.691,0,0,1-5.6,4c-2.9-1.7-3.1-6.1.5-7.2a4.2,4.2,0,0,1,5.1,3.2Z" fill="#44aee3"></path><path id="Path_14283" data-name="Path 14283" d="M299.3,311.4a3.893,3.893,0,0,1-5.8,4.4c-3.1-1.8-3.5-6.5.3-7.8a4.592,4.592,0,0,1,5.5,3.4Z" fill="#44aee3"></path><path id="Path_14284" data-name="Path 14284" d="M319.2,305.3a4.1,4.1,0,0,1-6,4.8c-3.3-1.8-3.8-6.9,0-8.3a5.069,5.069,0,0,1,6,3.5Z" fill="#44aee3"></path><path id="Path_14285" data-name="Path 14285" d="M338.6,299a4.259,4.259,0,0,1-6.1,5.2c-3.5-1.8-4.2-7.1-.2-8.7,3.2-1,5.6,1.4,6.3,3.5Z" fill="#44aee3"></path><path id="Path_14286" data-name="Path 14286" d="M357.5,292.2c1.4,4.1-2.3,7.5-6.1,5.6-3.7-1.9-4.7-7.4-.6-9.2,3.4-1,5.9,1.5,6.7,3.6Z" fill="#44aee3"></path><path id="Path_14287" data-name="Path 14287" d="M375.8,285.2c1.6,4.2-2.1,7.7-6,5.9s-5-7.5-.9-9.4c3.4-1.2,6,1.3,6.9,3.5Z" fill="#44aee3"></path><path id="Path_14288" data-name="Path 14288" d="M393.5,277.7c1.8,4.3-1.8,8.1-5.9,6.2-4-1.9-5.3-7.7-1.2-9.8,3.4-1.2,6.2,1.4,7.1,3.6Z" fill="#44aee3"></path><path id="Path_14289" data-name="Path 14289" d="M410.6,270c1.8,4.2-1.2,8-5.2,6.6-4.3-1.5-6.3-7.9-2.1-10.2,3.4-1.3,6.3,1.3,7.3,3.6Z" fill="#44aee3"></path><path id="Path_14290" data-name="Path 14290" d="M426.9,261.9c1.9,4.1-.9,8.1-4.9,6.8-4.3-1.4-6.5-7.8-2.4-10.2,3.3-1.4,6.3,1.2,7.3,3.4Z" fill="#44aee3"></path><path id="Path_14291" data-name="Path 14291" d="M442.6,253.5c2.1,4.2-.6,8.2-4.6,7-4.3-1.3-6.6-7.7-2.7-10.2,3.2-1.6,6.2.9,7.3,3.2Z" fill="#44aee3"></path><path id="Path_14292" data-name="Path 14292" d="M457.3,244.9c2.2,4.1-.2,8.1-4.1,7-4.2-1.2-6.7-7.6-3.1-10.2,3-1.5,6,1,7.2,3.2Z" fill="#44aee3"></path><path id="Path_14293" data-name="Path 14293" d="M470.8,236.3c2.2,4,.2,7.9-3.5,6.9-4-1.2-6.7-7.4-3.4-9.9,2.8-1.6,5.7.8,6.9,3Z" fill="#44aee3"></path><path id="Path_14294" data-name="Path 14294" d="M483.3,227.5c2.3,3.9.6,7.7-2.9,6.7-3.7-1.1-6.6-7.1-3.6-9.6,2.4-1.4,5.3.8,6.5,2.9Z" fill="#44aee3"></path><path id="Path_14295" data-name="Path 14295" d="M494.7,218.7c2.2,3.5,1.1,7.2-2,6.6-3.6-.6-7-6.8-4.2-9.3,2.2-1.5,5,.7,6.2,2.7Z" fill="#44aee3"></path><path id="Path_14296" data-name="Path 14296" d="M505,209.8c2.2,3.4,1.4,6.9-1.5,6.4-3.3-.6-6.8-6.5-4.4-8.9,2-1.5,4.7.6,5.9,2.5Z" fill="#44aee3"></path><path id="Path_14297" data-name="Path 14297" d="M514.3,200.9c2.1,3.1,1.6,6.6-1,6.1-3-.5-6.5-6.1-4.5-8.5,1.8-1.4,4.3.6,5.5,2.4Z" fill="#44aee3"></path><path id="Path_14298" data-name="Path 14298" d="M522.5,192c2.1,3,1.8,6.2-.5,5.8-2.8-.5-6.2-5.7-4.5-8,1.5-1.3,3.8.5,5,2.2Z" fill="#44aee3"></path><path id="Path_14299" data-name="Path 14299" d="M529.7,183.1c2,2.7,1.9,5.7-.2,5.4-2.4-.4-5.7-5.2-4.4-7.4,1.3-1.3,3.4.4,4.6,2Z" fill="#44aee3"></path><path id="Path_14300" data-name="Path 14300" d="M535.9,174.2c1.9,2.5,2,5.3.2,5-2.2-.3-5.3-4.8-4.2-6.8.9-1.2,2.8.3,4,1.8Z" fill="#44aee3"></path><path id="Path_14301" data-name="Path 14301" d="M541,165.3c1.8,2.3,2.1,4.8.5,4.6-1.9-.3-4.9-4.4-4.1-6.2.7-1.2,2.5.2,3.6,1.6Z" fill="#44aee3"></path><path id="Path_14302" data-name="Path 14302" d="M545.1,156.4c1.7,2.1,2,4.3.7,4.1-1.6-.3-4.4-3.9-3.8-5.6.5-1,2.1.3,3.1,1.5Z" fill="#44aee3"></path><path id="Path_14303" data-name="Path 14303" d="M548.2,147.6c1.5,1.8,2,3.8.9,3.6-1.3-.2-3.9-3.4-3.5-4.9.3-.9,1.7.2,2.6,1.3Z" fill="#44aee3"></path><path id="Path_14304" data-name="Path 14304" d="M550.2,138.8c1.3,1.5,1.8,3.2,1.1,3.2-1,0-3.5-2.9-3.3-4.3.2-.8,1.5.2,2.2,1.1Z" fill="#44aee3"></path><path id="Path_14305" data-name="Path 14305" d="M551.3,130.1c1.1,1.3,1.7,2.7,1.1,2.8-.8,0-3-2.5-3-3.7.2-.7,1.2.1,1.9.9Z" fill="#44aee3"></path><path id="Path_14306" data-name="Path 14306" d="M551.4,121.5c1,1.1,1.5,2.3,1.1,2.3-.6,0-2.5-2.1-2.6-3.1,0-.6.9.1,1.5.8Z" fill="#44aee3"></path><path id="Path_14307" data-name="Path 14307" d="M550.5,113c.8.8,1.3,1.8,1,1.8-.4,0-1.9-1.7-2.1-2.4,0-.4.6.1.7.2l.4.4Z" fill="#44aee3"></path><path id="Path_14308" data-name="Path 14308" d="M548.6,104.6c.6.6,1,1.3.8,1.3a4.833,4.833,0,0,1-1.6-1.8c0-.1,0-.2.2-.1.1.2.4.4.6.6Z" fill="#44aee3"></path><path id="Path_14309" data-name="Path 14309" d="M545.7,96.3c.4.4.7.9.6.9a4.407,4.407,0,0,1-1.1-1.2v-.1c.1.1.3.2.5.4Z" fill="#44aee3"></path><path id="Path_14310" data-name="Path 14310" d="M542.1,88.6l-.2-.1-.3-.4.2.1Z" fill="#44aee3"></path><path id="Path_14311" data-name="Path 14311" d="M537,80.3h-.1v0Z" fill="#44aee3"></path><path id="Path_14312" data-name="Path 14312" d="M107,370.6l-.2-.2.2-.2.2.2Z" fill="#44aee3"></path><path id="Path_14313" data-name="Path 14313" d="M129.5,368.5l-.6-.6.5-.6.6.5Z" fill="#44aee3"></path><path id="Path_14314" data-name="Path 14314" d="M152.7,364.9a.9.9,0,0,1-1.5.7.868.868,0,0,1,.5-1.5c.6-.1.9.5,1,.8Z" fill="#44aee3"></path><path id="Path_14315" data-name="Path 14315" d="M175.3,361.6a1.243,1.243,0,0,1-2.1,1,1.257,1.257,0,0,1,.6-2.2,1.357,1.357,0,0,1,1.5,1.2Z" fill="#44aee3"></path><path id="Path_14316" data-name="Path 14316" d="M197.7,357.8a1.586,1.586,0,0,1-2.6,1.4,1.625,1.625,0,1,1,2.6-1.4Z" fill="#44aee3"></path><path id="Path_14317" data-name="Path 14317" d="M219.9,353.6a1.879,1.879,0,0,1-3.1,1.7,1.912,1.912,0,0,1,.7-3.4,1.99,1.99,0,0,1,2.4,1.7Z" fill="#44aee3"></path><path id="Path_14318" data-name="Path 14318" d="M241.7,349a2.136,2.136,0,0,1-3.5,2,2.236,2.236,0,0,1,.8-4,2.365,2.365,0,0,1,2.7,2Z" fill="#44aee3"></path><path id="Path_14319" data-name="Path 14319" d="M263.3,344a2.421,2.421,0,0,1-3.9,2.4,2.6,2.6,0,0,1,.7-4.6,2.748,2.748,0,0,1,3.2,2.2Z" fill="#44aee3"></path><path id="Path_14320" data-name="Path 14320" d="M284.5,338.7a2.575,2.575,0,0,1-3.9,2.8c-1.9-1.2-2-4.4.4-5.2a2.92,2.92,0,0,1,3.5,2.4Z" fill="#44aee3"></path><path id="Path_14321" data-name="Path 14321" d="M305.3,332.9a2.779,2.779,0,0,1-4.1,3.2c-2.2-1.3-2.4-4.7.3-5.6a3.011,3.011,0,0,1,3.8,2.4Z" fill="#44aee3"></path><path id="Path_14322" data-name="Path 14322" d="M325.7,326.8a2.957,2.957,0,0,1-4.3,3.5c-2.4-1.4-2.6-5,.2-6.1a3.328,3.328,0,0,1,4.1,2.6Z" fill="#44aee3"></path><path id="Path_14323" data-name="Path 14323" d="M345.6,320.3c.8,2.9-1.9,5.2-4.4,3.8s-2.9-5.3,0-6.4a3.52,3.52,0,0,1,4.4,2.6Z" fill="#44aee3"></path><path id="Path_14324" data-name="Path 14324" d="M365,313.4c.9,3-1.8,5.5-4.5,4.1-2.6-1.4-3.2-5.5-.2-6.8a3.747,3.747,0,0,1,4.7,2.7Z" fill="#44aee3"></path><path id="Path_14325" data-name="Path 14325" d="M383.8,306.2c1,3.2-1.7,5.8-4.5,4.4-2.7-1.4-3.4-5.7-.4-7.1a3.816,3.816,0,0,1,4.9,2.7Z" fill="#44aee3"></path><path id="Path_14326" data-name="Path 14326" d="M402,298.6c1.1,3.2-1.5,6-4.4,4.6-2.8-1.4-3.6-5.8-.6-7.3,2.6-1,4.4,1.1,5,2.7Z" fill="#44aee3"></path><path id="Path_14327" data-name="Path 14327" d="M419.5,290.7c1.2,3.3-1.4,6.1-4.2,4.8s-3.7-5.9-.8-7.4c2.4-1.1,4.4.9,5,2.6Z" fill="#44aee3"></path><path id="Path_14328" data-name="Path 14328" d="M436.4,282.4c1.3,3.3-1.1,6.3-4,4.9-2.8-1.3-3.9-5.9-1-7.5,2.2-1,4.3.9,5,2.6Z" fill="#44aee3"></path><path id="Path_14329" data-name="Path 14329" d="M452.5,273.8c1.4,3.3-.9,6.4-3.8,5.1-2.8-1.3-4-5.9-1.3-7.6,2.3-1.1,4.4.8,5.1,2.5Z" fill="#44aee3"></path><path id="Path_14330" data-name="Path 14330" d="M467.6,265c1.4,3.1-.4,6.1-3.1,5.2-2.9-1-4.6-5.9-1.9-7.7,2.2-1.1,4.3.8,5,2.5Z" fill="#44aee3"></path><path id="Path_14331" data-name="Path 14331" d="M481.6,256.1c1.4,3-.1,6-2.7,5.1-2.8-.9-4.5-5.7-2.1-7.6,2-1,4,.9,4.8,2.5Z" fill="#44aee3"></path><path id="Path_14332" data-name="Path 14332" d="M494.5,247.2c1.5,2.9.2,5.9-2.3,5.1-2.7-.9-4.5-5.5-2.3-7.4,1.9-1.1,3.8.6,4.6,2.3Z" fill="#44aee3"></path><path id="Path_14333" data-name="Path 14333" d="M506.3,238.1c1.5,2.9.5,5.7-1.9,4.9-2.5-.8-4.4-5.3-2.4-7.1,1.6-1,3.5.7,4.3,2.2Z" fill="#44aee3"></path><path id="Path_14334" data-name="Path 14334" d="M517,229c1.5,2.7.6,5.4-1.5,4.7-2.3-.8-4.1-5-2.5-6.7,1.4-1,3.2.6,4,2Z" fill="#44aee3"></path><path id="Path_14335" data-name="Path 14335" d="M526.6,219.9c1.4,2.4.9,4.9-.9,4.5-2.1-.5-4.3-4.6-2.8-6.4,1.3-1,2.9.5,3.7,1.9Z" fill="#44aee3"></path><path id="Path_14336" data-name="Path 14336" d="M535.1,210.7c1.3,2.2,1,4.6-.5,4.2-1.9-.4-4-4.3-2.8-6,1-.9,2.6.5,3.3,1.8Z" fill="#44aee3"></path><path id="Path_14337" data-name="Path 14337" d="M542.6,201.5c1.3,2.1,1.2,4.3-.2,4-1.7-.4-3.8-4-2.7-5.6.7-.9,2.2.4,2.9,1.6Z" fill="#44aee3"></path><path id="Path_14338" data-name="Path 14338" d="M549,192.3c1.2,1.9,1.2,3.9,0,3.6-1.4-.3-3.4-3.7-2.7-5.1.7-.8,2,.4,2.7,1.5Z" fill="#44aee3"></path><path id="Path_14339" data-name="Path 14339" d="M554.3,183.2c1.1,1.7,1.2,3.5.2,3.2-1.2-.3-3-3.2-2.5-4.5.6-.7,1.7.3,2.3,1.3Z" fill="#44aee3"></path><path id="Path_14340" data-name="Path 14340" d="M558.6,174c1,1.5,1.2,3.1.4,2.9-1-.2-2.7-2.9-2.3-4,.3-.7,1.3.3,1.9,1.1Z" fill="#44aee3"></path><path id="Path_14341" data-name="Path 14341" d="M561.8,165c.9,1.3,1.2,2.7.5,2.5-.8-.2-2.3-2.5-2.1-3.5.3-.6,1.2.3,1.6,1Z" fill="#44aee3"></path><path id="Path_14342" data-name="Path 14342" d="M564,155.9c.8,1.1,1.1,2.2.5,2.1a4.429,4.429,0,0,1-1.8-2.9c.2-.4.8.1,1.3.8Z" fill="#44aee3"></path><path id="Path_14343" data-name="Path 14343" d="M565.2,147c.6.8.9,1.6.6,1.6-.4,0-1.5-1.6-1.5-2.3,0-.3.6.2.9.7Z" fill="#44aee3"></path><path id="Path_14344" data-name="Path 14344" d="M565.3,138.1c.5.6.7,1.3.5,1.3-.3,0-1.1-1.2-1.2-1.7,0-.3.3,0,.4.2.2,0,.3.1.3.2Z" fill="#44aee3"></path><path id="Path_14345" data-name="Path 14345" d="M564.4,129.4c.3.4.5.8.4.8-.2,0-.7-.8-.8-1.1,0,0,0-.1.1,0q.3.15.3.3Z" fill="#44aee3"></path><path id="Path_14346" data-name="Path 14346" d="M562.7,121.1l-.1-.1-.2-.4.1.2Z" fill="#44aee3"></path><path id="Path_14347" data-name="Path 14347" d="M177.9,384.8v-.1h.1Z" fill="#44aee3"></path><path id="Path_14348" data-name="Path 14348" d="M200.6,381.2l-.4-.2.3-.4.3.3Z" fill="#44aee3"></path><path id="Path_14349" data-name="Path 14349" d="M223.5,376.6c.1.5-.6,1-1,.6a.715.715,0,0,1,.2-1.2c.5,0,.8.3.8.6Z" fill="#44aee3"></path><path id="Path_14350" data-name="Path 14350" d="M245.8,372a.84.84,0,0,1-1.4.8.918.918,0,0,1,.3-1.6.9.9,0,0,1,1.1.8Z" fill="#44aee3"></path><path id="Path_14351" data-name="Path 14351" d="M267.9,366.9a1.14,1.14,0,0,1-1.8,1.1,1.181,1.181,0,0,1,.4-2.1,1.141,1.141,0,0,1,1.4,1Z" fill="#44aee3"></path><path id="Path_14352" data-name="Path 14352" d="M289.6,361.4a1.306,1.306,0,0,1-2,1.4,1.5,1.5,0,0,1,.3-2.7,1.581,1.581,0,0,1,1.7,1.3Z" fill="#44aee3"></path><path id="Path_14353" data-name="Path 14353" d="M310.9,355.6a1.523,1.523,0,0,1-2.3,1.7,1.7,1.7,0,0,1,.3-3.1,1.666,1.666,0,0,1,2,1.4Z" fill="#44aee3"></path><path id="Path_14354" data-name="Path 14354" d="M331.6,349.3a1.64,1.64,0,0,1-2.4,1.9,1.936,1.936,0,0,1,.2-3.4,1.909,1.909,0,0,1,2.2,1.5Z" fill="#44aee3"></path><path id="Path_14355" data-name="Path 14355" d="M352,342.7c.4,1.7-1.1,3.1-2.6,2.2-1.4-.8-1.6-3.2.1-3.9a2.148,2.148,0,0,1,2.5,1.7Z" fill="#44aee3"></path><path id="Path_14356" data-name="Path 14356" d="M371.8,335.7a1.926,1.926,0,0,1-2.7,2.4,2.351,2.351,0,0,1,0-4.1,2.168,2.168,0,0,1,2.7,1.7Z" fill="#44aee3"></path><path id="Path_14357" data-name="Path 14357" d="M391.1,328.4c.5,1.9-1.1,3.5-2.7,2.6s-1.9-3.5-.1-4.4a2.414,2.414,0,0,1,2.8,1.8Z" fill="#44aee3"></path><path id="Path_14358" data-name="Path 14358" d="M409.7,320.7c.6,2-1,3.7-2.7,2.8-1.5-.8-2.1-3.6-.2-4.6,1.6-.6,2.6.8,2.9,1.8Z" fill="#44aee3"></path><path id="Path_14359" data-name="Path 14359" d="M427.7,312.6c.7,2-1,3.8-2.7,3-1.7-.9-2.1-3.7-.3-4.7,1.6-.7,2.6.7,3,1.7Z" fill="#44aee3"></path><path id="Path_14360" data-name="Path 14360" d="M444.9,304.2c.7,2.1-.8,4-2.5,3.1s-2.2-3.8-.5-4.8c1.5-.7,2.7.6,3,1.7Z" fill="#44aee3"></path><path id="Path_14361" data-name="Path 14361" d="M461.5,295.4c.8,2.1-.7,4-2.4,3.1-1.7-.8-2.3-3.7-.6-4.8,1.4-.6,2.6.6,3,1.7Z" fill="#44aee3"></path><path id="Path_14362" data-name="Path 14362" d="M477,286.4c.8,2.1-.5,4-2.2,3.2-1.6-.8-2.3-3.7-.7-4.8,1.3-.7,2.5.5,2.9,1.6Z" fill="#44aee3"></path><path id="Path_14363" data-name="Path 14363" d="M491.4,277.3c.8,1.9-.2,3.7-1.7,3.2-1.6-.6-2.5-3.6-1-4.7,1.2-.7,2.3.5,2.7,1.5Z" fill="#44aee3"></path><path id="Path_14364" data-name="Path 14364" d="M504.7,268.2c.8,1.8-.1,3.6-1.5,3.1-1.5-.6-2.5-3.4-1.1-4.6,1.1-.7,2.2.5,2.6,1.5Z" fill="#44aee3"></path><path id="Path_14365" data-name="Path 14365" d="M516.8,258.9c.8,1.7.1,3.4-1.2,2.9-1.4-.5-2.3-3.3-1.2-4.3,1-.6,2,.5,2.4,1.4Z" fill="#44aee3"></path><path id="Path_14366" data-name="Path 14366" d="M527.9,249.6c.8,1.6.2,3.2-.9,2.7-1.3-.5-2.2-3-1.2-4,.7-.6,1.7.4,2.1,1.3Z" fill="#44aee3"></path><path id="Path_14367" data-name="Path 14367" d="M537.8,240.3c.7,1.5.3,3-.7,2.6-1.1-.4-2.1-2.8-1.3-3.8.8-.6,1.6.4,2,1.2Z" fill="#44aee3"></path><path id="Path_14368" data-name="Path 14368" d="M546.6,230.8c.7,1.3.4,2.7-.4,2.4-1-.3-2.1-2.6-1.4-3.5.6-.5,1.4.4,1.8,1.1Z" fill="#44aee3"></path><path id="Path_14369" data-name="Path 14369" d="M554.3,221.5c.5,1,.5,2.3-.2,2.1-.9-.2-1.8-2.2-1.2-3,.4-.5,1.1.2,1.4.9Z" fill="#44aee3"></path><path id="Path_14370" data-name="Path 14370" d="M561,212c.5,1,.5,2-.1,1.9a2.728,2.728,0,0,1-1.2-2.7c.4-.4,1,.3,1.3.8Z" fill="#44aee3"></path><path id="Path_14371" data-name="Path 14371" d="M566.5,202.7c.4.8.5,1.8,0,1.6a2.712,2.712,0,0,1-1.1-2.3c.3-.4.8.2,1.1.7Z" fill="#44aee3"></path><path id="Path_14372" data-name="Path 14372" d="M571,193.3c.4.7.4,1.4.1,1.3a2.269,2.269,0,0,1-.9-1.8c.2-.3.5.1.8.5Z" fill="#44aee3"></path><path id="Path_14373" data-name="Path 14373" d="M574.4,184c.3.5.4,1,.1.9a1.71,1.71,0,0,1-.7-1.3c.1-.2.4.1.6.4Z" fill="#44aee3"></path><path id="Path_14374" data-name="Path 14374" d="M576.9,175.3l-.3-.2-.2-.6.2.2Z" fill="#44aee3"></path><path id="Path_14375" data-name="Path 14375" d="M578,165.8l-.1-.1-.1-.2.1.1Z" fill="#44aee3"></path><path id="Path_14376" data-name="Path 14376" d="M315.8,379.4l-.1-.1v-.1l.1.1Z" fill="#44aee3"></path><path id="Path_14377" data-name="Path 14377" d="M336.9,373.2l-.2-.1.1-.3.2.2Z" fill="#44aee3"></path><path id="Path_14378" data-name="Path 14378" d="M357.6,366.7l-.5-.2.2-.6.5.3Z" fill="#44aee3"></path><path id="Path_14379" data-name="Path 14379" d="M377.7,359.8l-.6-.4.3-.7.6.4Z" fill="#44aee3"></path><path id="Path_14380" data-name="Path 14380" d="M397.3,352.4l-.7-.4.3-.8.7.4Z" fill="#44aee3"></path><path id="Path_14381" data-name="Path 14381" d="M416.7,343.8c.1.6-.3,1.1-.8.8a.8.8,0,0,1,0-1.4c.4-.1.7.3.8.6Z" fill="#44aee3"></path><path id="Path_14382" data-name="Path 14382" d="M435,335.7c.2.7-.3,1.2-.8.9a.942.942,0,0,1-.1-1.5c.5-.2.8.2.9.6Z" fill="#44aee3"></path><path id="Path_14383" data-name="Path 14383" d="M452.7,327.1c.2.7-.3,1.4-.9,1a1.082,1.082,0,0,1-.1-1.7.9.9,0,0,1,1,.7Z" fill="#44aee3"></path><path id="Path_14384" data-name="Path 14384" d="M469.6,318.2c.2.7-.2,1.4-.8,1.1a1.082,1.082,0,0,1-.1-1.7c.4-.2.8.2.9.6Z" fill="#44aee3"></path><path id="Path_14385" data-name="Path 14385" d="M485.5,309.1c.2.7-.2,1.4-.7,1.1a1.16,1.16,0,0,1-.2-1.7c.5-.3.8.2.9.6Z" fill="#44aee3"></path><path id="Path_14386" data-name="Path 14386" d="M500.3,299.8c.2.7-.1,1.2-.6,1-.4-.2-.7-1.2-.2-1.5.4-.3.7.2.8.5Z" fill="#44aee3"></path><path id="Path_14387" data-name="Path 14387" d="M513.9,290.4c.2.5-.1,1.1-.5.9s-.7-1.1-.3-1.4a.688.688,0,0,1,.8.5Z" fill="#44aee3"></path><path id="Path_14388" data-name="Path 14388" d="M526.4,281c.2.5,0,1-.4.8-.4-.1-.6-.9-.3-1.3.4-.1.6.3.7.5Z" fill="#44aee3"></path><path id="Path_14389" data-name="Path 14389" d="M537.7,272.2l-.5-.3v-.8l.6.4Z" fill="#44aee3"></path><path id="Path_14390" data-name="Path 14390" d="M548,262.5l-.4-.2v-.6l.4.2Z" fill="#44aee3"></path><path id="Path_14391" data-name="Path 14391" d="M557.1,252.8l-.3-.2v-.4l.3.1Z" fill="#44aee3"></path><path id="Path_14392" data-name="Path 14392" d="M565,242.9h-.1v-.2l.1.1Z" fill="#44aee3"></path></g></g></g></svg>