<svg xmlns="http://www.w3.org/2000/svg" width="45" height="45" viewBox="0 0 45 45"><g id="Group_4288" data-name="Group 4288" transform="translate(-507 -1947)"><rect id="Rectangle_1793" data-name="Rectangle 1793" width="45" height="45" transform="translate(507 1947)" fill="none"></rect><g id="Meat_icon" data-name="Meat icon" transform="translate(218.563 1706.998)"><path id="Path_9705" data-name="Path 9705" d="M329.763,261.377c-2.958-3.741-9.87-6.786-17.357-5.373a12.317,12.317,0,0,0-4.3,1.614A10.832,10.832,0,0,0,306,259.682a15.438,15.438,0,0,1-1.185,1.3c-1.454,1.36-3.73,2.065-5.558,2.632-.548.17-1.131.337-1.833.525-1.713.457-3.627,1.061-4.649,2.443-.9,1.218-1.294,3.475-1.643,5.467a6.529,6.529,0,0,0,1.819,5.564c1.643,1.684,4.252,2.042,6.157,2.3a75.021,75.021,0,0,0,10.182.566c1.3,0,2.6-.016,3.887-.03l1.431-.016a34.948,34.948,0,0,0,3.9-.271,57.555,57.555,0,0,0,6.6-1.276,5.912,5.912,0,0,0,3.763-2.317c1.639-2.111,2.171-5.009,2.6-7.338A9.4,9.4,0,0,0,329.763,261.377Zm.545,7.64c-.4,2.2-.909,4.943-2.37,6.826a4.764,4.764,0,0,1-3.11,1.893,45.109,45.109,0,0,1-10.232,1.513l-1.433.016a94.375,94.375,0,0,1-13.895-.525c-1.832-.25-4.112-.563-5.47-1.956a5.337,5.337,0,0,1-1.5-4.538c.31-1.768.7-3.97,1.43-4.963.794-1.076,2.482-1.6,4-2,.72-.193,1.316-.364,1.877-.536,1.945-.6,4.364-1.352,6.017-2.9a16.562,16.562,0,0,0,1.284-1.4,9.685,9.685,0,0,1,1.865-1.846,10.68,10.68,0,0,1,3.852-1.429c.322-.06.653-.112.991-.154a18.854,18.854,0,0,1,2.325-.139c4.566,0,9.959,1.523,12.895,5.238A8.264,8.264,0,0,1,330.308,269.017Z" fill="#004b87"></path><path id="Path_9706" data-name="Path 9706" d="M327.124,270.173a.574.574,0,0,0-.447-.02,33.743,33.743,0,0,1-7.744,1.828,53.731,53.731,0,0,1-8.622-.041c-.941-.056-1.881-.11-2.821-.15-.6-.024-1.207-.043-1.838-.062a46.1,46.1,0,0,1-6.457-.506,8.817,8.817,0,0,1-3.161-1.1.591.591,0,1,0-.618,1.007,9.92,9.92,0,0,0,3.574,1.261,47.061,47.061,0,0,0,6.653.525c.6.018,1.2.037,1.8.062.876.036,1.753.087,2.631.138l.17.009c1.733.1,3.5.205,5.277.205a34.535,34.535,0,0,0,3.535-.167q.284-.028.568-.065a35.537,35.537,0,0,0,7.447-1.825.591.591,0,0,0,.363-.754A.6.6,0,0,0,327.124,270.173Z" fill="#004b87"></path><path id="Path_9707" data-name="Path 9707" d="M313.489,261.824h0a5.558,5.558,0,0,0,2.31.923,6.434,6.434,0,0,0,1.111.1,5.433,5.433,0,0,0,.66-.039c1.239-.153,2.062-.723,2.2-1.523a1.843,1.843,0,0,0-.834-1.721,5.366,5.366,0,0,0-2.406-1,6.54,6.54,0,0,0-1.354-.1.578.578,0,0,0-.41.187.59.59,0,0,0,.03.839.628.628,0,0,0,.425.156,5.009,5.009,0,0,1,1.106.078,4.46,4.46,0,0,1,1.77.676c.412.291.531.549.508.68-.054.315-1.022.779-2.6.5a4.38,4.38,0,0,1-1.811-.711c-.38-.281-.489-.523-.468-.646a.593.593,0,0,0-.478-.685.605.605,0,0,0-.439.1.588.588,0,0,0-.248.385A1.888,1.888,0,0,0,313.489,261.824Z" fill="#004b87"></path><path id="Path_9708" data-name="Path 9708" d="M314.18,269.8h0a.59.59,0,0,0,.451.209.612.612,0,0,0,.073-.005.592.592,0,0,0,.378-.969l-6.2-7.32a.588.588,0,0,0-.4-.206.555.555,0,0,0-.431.139.593.593,0,0,0-.069.833Z" fill="#004b87"></path><path id="Path_9709" data-name="Path 9709" d="M323.416,260.512h0a.592.592,0,0,0-.833-.039.591.591,0,0,0-.042.835l4.7,5.187a.59.59,0,0,0,.436.194.6.6,0,0,0,.073,0,.591.591,0,0,0,.367-.984Z" fill="#004b87"></path><path id="Path_9710" data-name="Path 9710" d="M318.666,263.92a.6.6,0,0,0-.434.133.592.592,0,0,0-.08.832l3.6,4.369a.588.588,0,0,0,.456.216.629.629,0,0,0,.074-.005.569.569,0,0,0,.3-.131.591.591,0,0,0,.081-.832l-3.6-4.37A.588.588,0,0,0,318.666,263.92Z" fill="#004b87"></path><path id="Path_9711" data-name="Path 9711" d="M306.1,269.632a.588.588,0,0,0,.456.216.609.609,0,0,0,.074-.005.583.583,0,0,0,.3-.131.592.592,0,0,0,.08-.832l-3.6-4.37a.592.592,0,0,0-.913.753Z" fill="#004b87"></path><path id="Path_9712" data-name="Path 9712" d="M299.209,269.642a.589.589,0,0,0,.485.251.608.608,0,0,0,.073,0,.594.594,0,0,0,.265-.1.592.592,0,0,0,.145-.824l-1.5-2.134a.592.592,0,0,0-.967.682Z" fill="#004b87"></path><path id="Path_9713" data-name="Path 9713" d="M312.651,252.837a.579.579,0,0,0,.072-.005h0a.575.575,0,0,0,.333-.158.591.591,0,0,0,.025-.832,1.63,1.63,0,0,1-.394-1.1,2.026,2.026,0,0,1,.908-1.359,3.119,3.119,0,0,0,1.362-2.213,2.784,2.784,0,0,0-.716-1.989.591.591,0,0,0-.856.816,1.61,1.61,0,0,1,.392,1.093,2.02,2.02,0,0,1-.907,1.359,3.119,3.119,0,0,0-1.363,2.213,2.765,2.765,0,0,0,.717,1.992A.6.6,0,0,0,312.651,252.837Z" fill="#004b87"></path><path id="Path_9714" data-name="Path 9714" d="M307.283,255.015a.577.577,0,0,0,.071-.005h0A.593.593,0,0,0,307.7,254a1.4,1.4,0,0,1-.4-.963,1.7,1.7,0,0,1,.854-1.153,2.792,2.792,0,0,0,1.353-2.037,2.581,2.581,0,0,0-.757-1.9.591.591,0,0,0-.818.852,1.4,1.4,0,0,1,.395.963,1.7,1.7,0,0,1-.854,1.152,2.793,2.793,0,0,0-1.353,2.037,2.589,2.589,0,0,0,.756,1.9A.593.593,0,0,0,307.283,255.015Z" fill="#004b87"></path><path id="Path_9715" data-name="Path 9715" d="M317.489,253.684a.58.58,0,0,0,.072-.005h0a.6.6,0,0,0,.352-.177.593.593,0,0,0-.015-.835,1.4,1.4,0,0,1-.395-.963,1.707,1.707,0,0,1,.853-1.152,2.787,2.787,0,0,0,1.354-2.037,2.586,2.586,0,0,0-.756-1.9.619.619,0,0,0-.424-.165.593.593,0,0,0-.394,1.018,1.4,1.4,0,0,1,.394.957,1.7,1.7,0,0,1-.853,1.157,2.789,2.789,0,0,0-1.353,2.037,2.584,2.584,0,0,0,.755,1.9A.584.584,0,0,0,317.489,253.684Z" fill="#004b87"></path></g></g></svg>