<svg xmlns="http://www.w3.org/2000/svg" width="45" height="45" viewBox="0 0 45 45"><g id="Group_4292" data-name="Group 4292" transform="translate(-860 -1947)"><rect id="Rectangle_1797" data-name="Rectangle 1797" width="45" height="45" transform="translate(860 1947)" fill="none"></rect><g id="Snacks_icon" data-name="Snacks icon" transform="translate(389.432 1705.946)"><path id="Path_9716" data-name="Path 9716" d="M487.246,257.732a8.172,8.172,0,1,0,5.772-2.387A8.172,8.172,0,0,0,487.246,257.732Zm12.727,5.772a6.948,6.948,0,1,1-2.035-4.92A6.911,6.911,0,0,1,499.973,263.5Z" fill="#004b87"></path><path id="Path_9717" data-name="Path 9717" d="M491.1,257.938h0c-1.035-.341-2.38.379-3.2,1.71a3.84,3.84,0,0,0,.508,4.91,4.22,4.22,0,0,0,3.708,1.422,4.177,4.177,0,0,0,1.623,1.46,4.036,4.036,0,0,0,1.534.3,3.4,3.4,0,0,0,2.851-1.368,1.963,1.963,0,0,0-.614-2.6,2.969,2.969,0,0,0-1.443-.544,2.913,2.913,0,0,1-1.829-.833,6.478,6.478,0,0,1-.94-1.76,6.172,6.172,0,0,0-1.181-2.063A2.544,2.544,0,0,0,491.1,257.938Zm3.69,7.033c.833-.428,1.46-.7,1.926-.3l.163-.189-.162.19c.442.391.565.775.355,1.111a2.589,2.589,0,0,1-2.877.538,1.9,1.9,0,0,1-.582-.426c-.079-.079-.159-.168-.241-.264.433-.17.836-.372,1.2-.555Zm-1.461-1.789a3.178,3.178,0,0,0,.922.714l-.139.069-.085.042c-1.53.768-2.975,1.493-4.767-.3a2.684,2.684,0,0,1-.334-3.427,2.259,2.259,0,0,1,1.611-1.223.621.621,0,0,1,.187.027c.721.239,1.083,1.1,1.466,2.023A7.438,7.438,0,0,0,493.332,263.182Z" fill="#004b87"></path><path id="Path_9718" data-name="Path 9718" d="M515.376,260.974l-19.828-19.829-.115-.091-.249.018-.556.551c-.668.662-1.134,1.125-1.238,1.243a2.894,2.894,0,0,0-.5.933l-.084.216A42.155,42.155,0,0,1,473.529,263.3l-.218.084a2.91,2.91,0,0,0-.932.495c-.1.091-.484.473-1.242,1.24l-.478.481a.311.311,0,0,0,0,.439l19.829,19.828a.308.308,0,0,0,.219.09l.145-.017.555-.551c.709-.7,1.139-1.131,1.239-1.242a2.469,2.469,0,0,0,.429-.761h0l.018-.048.048-.126.084-.215c1.821-4.485,4.531-7.738,8.038-11.243a33.615,33.615,0,0,1,11.242-8.038l.219-.085a2.89,2.89,0,0,0,.93-.495c.114-.1.577-.567,1.126-1.12l.6-.6A.312.312,0,0,0,515.376,260.974Zm-24.669,23.4-18.564-18.563.81-.811,18.564,18.565Zm9.646-13.508c-4.073,4.077-6.619,7.67-8.219,11.613l-18.1-18.1c3.94-1.6,7.534-4.144,11.613-8.218s6.647-7.692,8.25-11.644L512,262.62C508.044,264.224,504.44,266.78,500.353,270.871ZM513.083,262l-18.564-18.564.81-.81,18.564,18.565Z" fill="#004b87"></path></g></g></svg>