<svg xmlns="http://www.w3.org/2000/svg" width="92" height="92" viewBox="0 0 92 92"><g id="Group_4267" data-name="Group 4267" transform="translate(-1553 -537)"><rect id="Rectangle_1767" data-name="Rectangle 1767" width="92" height="92" transform="translate(1553 537)" fill="none"></rect><g id="Medical_Cosmetics" data-name="Medical &amp; Cosmetics" transform="translate(445.45 415.583)"><path id="Path_9645" data-name="Path 9645" d="M1162.263,137.109a1.911,1.911,0,1,0-2.7.014A1.9,1.9,0,0,0,1162.263,137.109Z" fill="#004b87"></path><path id="Path_9646" data-name="Path 9646" d="M1126.373,148.075a1.912,1.912,0,1,0-.553,1.355A1.9,1.9,0,0,0,1126.373,148.075Z" fill="#004b87"></path><path id="Path_9647" data-name="Path 9647" d="M1139.345,144.025a5.3,5.3,0,1,0-5.331-5.276A5.311,5.311,0,0,0,1139.345,144.025Zm-.048-9a3.695,3.695,0,1,1-3.674,3.714A3.7,3.7,0,0,1,1139.3,135.026Z" fill="#004b87"></path><path id="Path_9648" data-name="Path 9648" d="M1134.976,168.218a6.7,6.7,0,1,0-6.74-6.669A6.712,6.712,0,0,0,1134.976,168.218Zm-.063-11.8a5.1,5.1,0,1,1-5.068,5.123A5.1,5.1,0,0,1,1134.913,156.418Z" fill="#004b87"></path><path id="Path_9649" data-name="Path 9649" d="M1142.314,159.749l12.579-12.714a10.21,10.21,0,0,1,12.014-1.9.807.807,0,0,0,.615.053.794.794,0,0,0,.47-.4.8.8,0,0,0-.343-1.084,11.818,11.818,0,0,0-13.9,2.192l-12.05,12.179A7.5,7.5,0,0,1,1142.314,159.749Z" fill="#004b87"></path><path id="Path_9650" data-name="Path 9650" d="M1175.844,157.338a6.342,6.342,0,1,0-6.375-6.308A6.35,6.35,0,0,0,1175.844,157.338Zm-.059-11.074a4.732,4.732,0,1,1-4.706,4.758A4.737,4.737,0,0,1,1175.785,146.264Z" fill="#004b87"></path><path id="Path_9651" data-name="Path 9651" d="M1183.486,160.915h0a11.871,11.871,0,0,0-2.591-4.8,7.159,7.159,0,0,1-1.256,1,10.247,10.247,0,0,1-.33,14.08L1153.481,197.3a10.271,10.271,0,0,1-14.508.078l-1.778-1.758,1.315.185a10.288,10.288,0,0,0,2.923.043,8.992,8.992,0,0,0,5.349-2.549l28.454-28.762a.806.806,0,0,0-.006-1.138.824.824,0,0,0-1.137.007l-28.456,28.761a7.4,7.4,0,0,1-4.4,2.085,10.4,10.4,0,0,1-8.481-3.028l-3.609-3.573a10.272,10.272,0,0,1-.078-14.507l.832-.84a.806.806,0,0,0-.006-1.138.825.825,0,0,0-1.138.006l-.832.841a11.883,11.883,0,0,0,.09,16.783l3.63,3.594,6.2,6.132a11.883,11.883,0,0,0,16.784-.09l25.829-26.107A11.922,11.922,0,0,0,1183.486,160.915Z" fill="#004b87"></path></g></g></svg>