<svg xmlns="http://www.w3.org/2000/svg" width="45" height="45" viewBox="0 0 45 45"><g id="Group_4291" data-name="Group 4291" transform="translate(-771 -1947)"><rect id="Rectangle_1796" data-name="Rectangle 1796" width="45" height="45" transform="translate(771 1947)" fill="none"></rect><g id="Fish_seafood_icon" data-name="Fish &amp; seafood icon" transform="translate(361.332 1707.271)"><path id="Path_9697" data-name="Path 9697" d="M451.12,263.517l1.457-1.625a1.3,1.3,0,0,0,0-1.734,18.487,18.487,0,0,0-5.049-4.134c-.114-.052-.6-.272-1.153-.517a1.142,1.142,0,0,0-.144-1.075,1.63,1.63,0,0,0-1.3-.676,2.059,2.059,0,0,0-1.014.3,3.253,3.253,0,0,0-.488.349c-.958-.262-1.973-.489-3.02-.674-.583-1.295-3.058-4.86-12.567-5a1.469,1.469,0,0,0-1.184.536.967.967,0,0,0-.14.891c.6,1.749-1.234,3.5-2.086,4.2a12.4,12.4,0,0,0-4.706,3.165c-.042.044-.083.087-.124.125a1.017,1.017,0,0,1-.921.287c-.772-.17-2.8-1.045-4.923-5.5a.808.808,0,0,0-.735-.468.8.8,0,0,0-.782.61c-.02.08-1.967,7.828,2.322,10.41-3.564,2.1-3.047,8.154-2.521,10.391a.809.809,0,0,0,1.515.182c2.006-4.007,4.014-5.655,5.123-5.851a1.04,1.04,0,0,1,.914.309c.237.238.679.695,1.156,1.191a12.271,12.271,0,0,0,6.138,3.526c.183.041.372.076.561.111a10.146,10.146,0,0,1-.464,2.162,1.369,1.369,0,0,0,.084,1.077,1.025,1.025,0,0,0,.652.512,10.776,10.776,0,0,0,2.556.325,7.337,7.337,0,0,0,6.309-3.234,7.026,7.026,0,0,0,.283-.66c2.681-.336,5.136-.811,5.154-.814a9.819,9.819,0,0,0,1.467-.367,1.757,1.757,0,0,0,2.494-.148,1.051,1.051,0,0,0,.283-.783c.324-.135.651-.284.967-.438a13.612,13.612,0,0,0,5.27-3.708,1.312,1.312,0,0,0-.03-1.656Zm-23.395-13.564a.6.6,0,0,1,.106-.01c6.743.1,9.606,1.986,10.781,3.29.078.086.149.171.213.252a49.65,49.65,0,0,0-6.1-.425h-.18a32.749,32.749,0,0,0-4.46.369c-.42.059-.844.136-1.284.233A4.2,4.2,0,0,0,427.725,249.953Zm.4,25.49a.238.238,0,0,1,.012-.058,11.405,11.405,0,0,0,.506-2.331,28.2,28.2,0,0,0,3.844.3h.156c.764,0,1.713-.057,2.827-.168C435.121,273.73,433.018,276.589,428.127,275.443Zm13.673-4.424a64.656,64.656,0,0,1-9.153,1.119H432.5a25.527,25.527,0,0,1-5.345-.59,11.083,11.083,0,0,1-5.53-3.181c-.576-.6-.96-1-1.172-1.208a2.279,2.279,0,0,0-1.609-.68,2.14,2.14,0,0,0-.373.033c-1.75.307-3.672,2.238-5.453,5.463-.4-2.857-.2-7.187,2.808-8.243a.784.784,0,0,0,.015-1.474c-2.981-1.117-3.109-5.43-2.652-8.263,2.1,3.9,4.159,4.885,5.231,5.122a2.241,2.241,0,0,0,2.015-.59c.06-.056.119-.116.178-.18a12.331,12.331,0,0,1,7.637-3.716,31.8,31.8,0,0,1,4.29-.356h.17a42.211,42.211,0,0,1,9.849,1.15,6.781,6.781,0,0,0-.56,1.056,17.578,17.578,0,0,0-1.359,5.717,16.054,16.054,0,0,0,0,1.887,15.641,15.641,0,0,0,.251,2.042c.062.324.133.64.212.943l.062.238c.044.158.09.315.139.478a15.881,15.881,0,0,0,1.1,2.653c.012.025.091.184.222.4A7.441,7.441,0,0,1,441.8,271.019Zm2.865.062c-.211,0-.575-.215-.967-.814a3.782,3.782,0,0,1-.21-.366,14.656,14.656,0,0,1-1.026-2.475c-.046-.148-.088-.294-.127-.434l-.059-.227c-.072-.277-.137-.569-.194-.866a14.561,14.561,0,0,1-.233-1.883,15.178,15.178,0,0,1,0-1.746,16.355,16.355,0,0,1,1.265-5.316,3.811,3.811,0,0,1,1.4-1.845.882.882,0,0,1,.41-.139.37.37,0,0,1,.294.141c-.1.205-.256.515-.428.906a17.785,17.785,0,0,0-.25,13.817c.149.363.316.731.49,1.081A.633.633,0,0,1,444.665,271.081Zm2.06-1.708c-.29.143-.584.277-.875.4-.063-.134-.125-.268-.18-.4a16.548,16.548,0,0,1,.195-12.764c.4.179.816.364,1.157.519a17.317,17.317,0,0,1,4.654,3.84.089.089,0,0,1,0,.115l-1.767,1.97a.69.69,0,0,0-.011.9l1.654,1.947a.1.1,0,0,1,0,.115A12.477,12.477,0,0,1,446.725,269.373Z" fill="#004b87"></path><path id="Path_9698" data-name="Path 9698" d="M446.654,258.93a1.544,1.544,0,1,0,1.544,1.543A1.545,1.545,0,0,0,446.654,258.93Zm0,2.045a.5.5,0,1,1,.5-.5A.5.5,0,0,1,446.654,260.975Z" fill="#004b87"></path></g></g></svg>