<svg xmlns="http://www.w3.org/2000/svg" width="45" height="45" viewBox="0 0 45 45"><g id="Group_4293" data-name="Group 4293" transform="translate(-948 -1947)"><rect id="Rectangle_1798" data-name="Rectangle 1798" width="45" height="45" transform="translate(948 1947)" fill="none"></rect><path id="Confectionery_icon" data-name="Confectionery icon" d="M568.268,255.263l-8.617-8.484-.416.368c-1.4,1.237-3.642,1.863-4.977.764a2.623,2.623,0,0,1-.266-.254l-.3-.324-.4.187a2.056,2.056,0,0,1-2.2-.154,1.567,1.567,0,0,1-.177-.173l-.28-.312-.388.158a2.53,2.53,0,0,1-1.828.111.591.591,0,0,0-.773.054.512.512,0,0,0-.067.081,2.065,2.065,0,0,1-2.611.117l-.035-.039a.6.6,0,0,0-.841,0l-2.765,2.784a1.253,1.253,0,0,0-.459-.447,1.618,1.618,0,0,0-1.988.457l-3.471,3.913-.845.913-.143.193,0,0-6.807,7.672a1.994,1.994,0,0,0-.094,2.724L542.048,280a1.62,1.62,0,0,0,.346.262,1.767,1.767,0,0,0,.873.223,2.313,2.313,0,0,0,1.526-.617l7.516-6.928.011.011,5-4.632a1.722,1.722,0,0,0,.594-1.449,1.312,1.312,0,0,0-.383-.8Zm-1.735.015-4.905,4.977-2.972-2.952,4.925-4.958Zm-6.773-6.722,2.965,2.919-4.914,4.987-2.972-2.951Zm-2.786,8.752-4.457,4.487-2.07-1.087c-.032-.017-.06-.039-.065-.04l-.162-.158a.809.809,0,0,1-.113-.185l-.614-1.432,2.03-2.045L554,254.355Zm-5.162-8.386a3.467,3.467,0,0,0,1.6-.166c.029.026.058.05.088.074a4.1,4.1,0,0,0,3.6.712l-3.109,3.13-2.974-2.953Zm1.344,4.594-4.169,4.2-.09-.212a2.263,2.263,0,0,0-1.277-1.226l-1.572-.6a.809.809,0,0,1-.471-.47l4.606-4.638Zm-2.827-5.241.014.011a2.712,2.712,0,0,0,.245.181l-.411.413-.466-.463A4.272,4.272,0,0,0,550.329,248.275Zm-5.752.3a3.228,3.228,0,0,0,3.454-.147l1.307,1.3-4.2,4.226a2.231,2.231,0,0,0-.9-.941,2.454,2.454,0,0,0-.969-.3l-.372-.035a.851.851,0,0,1-.8-.814l-.226-.57Zm-.585,30.419a.872.872,0,0,1-1.1.167l-14.52-14.424a.858.858,0,0,1,.151-1.1l6.754-7.613,16.188,16.081Zm8.344-7.693-16.273-16.165.676-.742,16.335,16.227Zm4.188-3.861-2.574,2.374-16.429-16.32,2.26-2.548c.2-.231.432-.246.539-.165l.608,1.295a2.029,2.029,0,0,0,1.007,1.522,2.141,2.141,0,0,0,.851.264l.373.036a1.114,1.114,0,0,1,.994.769l.274.851a2.007,2.007,0,0,0,1.2,1.268l1.573.6a1.074,1.074,0,0,1,.608.584l1.21,2.823a2.018,2.018,0,0,0,.905.983l3.741,1.964a1.1,1.1,0,0,1,.523.719l.12.513a2.044,2.044,0,0,0,1.659,1.551l.716.383c.016.008.047.026.054.1A.551.551,0,0,1,556.524,267.437Zm-.05-1.99-.1-.054-.156-.035a.84.84,0,0,1-.756-.656l-.12-.514a2.278,2.278,0,0,0-1.1-1.487l-.62-.327,4.2-4.227,2.974,2.954Z" transform="translate(422.966 1706.221)" fill="#004b87"></path></g></svg>