<svg xmlns="http://www.w3.org/2000/svg" width="76" height="76" viewBox="0 0 76 76"><g id="Group_4279" data-name="Group 4279" transform="translate(-1229 -1415)"><rect id="Rectangle_1789" data-name="Rectangle 1789" width="76" height="76" transform="translate(1229 1415)" fill="none"></rect><path id="Path_9932" data-name="Path 9932" d="M1193.176,736.416a.69.69,0,0,0-.158-.253l-1.86-1.859a53.663,53.663,0,0,1-4.063-4.559l-12.18-16.652c.478-2.309.084-4.186-1.161-5.431-1.507-1.506-4.044-1.742-7.144-.664a26.914,26.914,0,0,0-14.724,14.725c-1.078,3.1-.843,5.636.664,7.142a4.919,4.919,0,0,0,3.61,1.33,9.225,9.225,0,0,0,1.7-.184l16.725,12.2a53.5,53.5,0,0,1,4.58,4.08l1.859,1.859a.486.486,0,0,0,.056.037c.008.009.013.019.021.027a2.357,2.357,0,0,0,1.732.649c2.017,0,4.814-1.729,6.976-3.89C1192.634,742.153,1194.708,738.258,1193.176,736.416Zm-17.739,4.682-16.823-12.273a.679.679,0,0,0-.261-.191l-2.217-1.617a2.077,2.077,0,0,1-.83-2.071c.536-2.862,2.557-6.273,5.407-9.122a23.13,23.13,0,0,1,4.618-3.613.7.7,0,0,0-.709-1.207,24.541,24.541,0,0,0-4.9,3.83c-3.086,3.087-5.2,6.679-5.793,9.854a3.481,3.481,0,0,0,1.386,3.463l.879.641a3.609,3.609,0,0,1-2.655-.917c-1.091-1.09-1.211-3.165-.332-5.692a23.077,23.077,0,0,1,5.549-8.315c5.211-5.211,11.624-7.6,14.007-5.216a3.709,3.709,0,0,1,.949,2.8l-.742-1.014a3.477,3.477,0,0,0-3.488-1.377.7.7,0,0,0,.27,1.373,2.086,2.086,0,0,1,2.084.826l14.143,19.336a55.251,55.251,0,0,0,4.188,4.7l.4.4c-1.923.347-4.318,1.908-6.222,3.812a15.628,15.628,0,0,0-3.369,4.754,6.836,6.836,0,0,0-.433,1.426l-.385-.385A54.792,54.792,0,0,0,1175.437,741.1Zm16.456-1.42a14.268,14.268,0,0,1-3.069,4.3c-3.088,3.088-6,3.969-6.727,3.242-.368-.368-.3-1.295.172-2.422a14.25,14.25,0,0,1,3.068-4.306c2.417-2.417,4.726-3.481,5.964-3.481a1.057,1.057,0,0,1,.763.24C1192.432,737.623,1192.365,738.551,1191.893,739.678Z" transform="translate(94.781 725.668)" fill="#004b87"></path></g></svg>