<svg xmlns="http://www.w3.org/2000/svg" width="71.4" height="29.133" viewBox="0 0 71.4 29.133"><defs><style>.a{fill:#004b87;}</style></defs><g transform="translate(-1038.334 -617.808)"><path class="a" d="M1101.534,646.941h-55a8.2,8.2,0,1,1,0-16.4h55a8.2,8.2,0,0,1,0,16.4Zm-55-15a6.8,6.8,0,1,0,0,13.6h55a6.8,6.8,0,0,0,0-13.6Z"/><path class="a" d="M1047.1,643.741a.531.531,0,0,1-.536-.5.471.471,0,0,1,.464-.5h.072c.128,0,.255-.006.379-.018a.5.5,0,0,1,.1,1C1047.418,643.733,1047.26,643.741,1047.1,643.741Zm-2.839-1.008a.5.5,0,0,1-.315-.111,5,5,0,0,1-.411-.374.5.5,0,1,1,.713-.7,4.177,4.177,0,0,0,.327.3.5.5,0,0,1-.314.888Zm5.944-.235a.5.5,0,0,1-.346-.86c.108-.1.209-.213.3-.325a.5.5,0,0,1,.764.644,4.906,4.906,0,0,1-.377.4A.494.494,0,0,1,1050.2,642.5Zm-7.579-2.758a.5.5,0,0,1-.5-.443,4.87,4.87,0,0,1-.03-.556c0-.109,0-.213.01-.316a.481.481,0,0,1,.531-.468.5.5,0,0,1,.467.53c0,.086-.007.172-.008.259a3.762,3.762,0,0,0,.024.438.5.5,0,0,1-.44.553A.559.559,0,0,1,1042.625,639.74Zm8.971-.355h-.021a.5.5,0,0,1-.479-.521l0-.123c0-.107-.005-.215-.013-.32a.5.5,0,1,1,1-.074c.01.131.015.261.015.394l0,.164A.5.5,0,0,1,1051.6,639.385Zm-7.85-3.146a.5.5,0,0,1-.372-.834,4.932,4.932,0,0,1,.391-.39.5.5,0,0,1,.668.744,4.247,4.247,0,0,0-.315.314A.494.494,0,0,1,1043.746,636.239Zm6.659-.051a.5.5,0,0,1-.366-.16,4.289,4.289,0,0,0-.321-.311.5.5,0,0,1,.658-.752,5.1,5.1,0,0,1,.4.384.5.5,0,0,1-.366.839Zm-3.592-1.438a.5.5,0,0,1-.031-1c.106-.007.21-.01.317-.01l.234.006a.5.5,0,0,1,.48.521.521.521,0,0,1-.521.479l-.2-.006c-.078,0-.163,0-.247.008Z"/><path class="a" d="M1100.959,643.741a.531.531,0,0,1-.535-.5.47.47,0,0,1,.464-.5h.071c.128,0,.255-.006.379-.018a.511.511,0,0,1,.547.449.5.5,0,0,1-.449.547C1101.278,643.733,1101.12,643.741,1100.959,643.741Zm-2.838-1.008a.492.492,0,0,1-.314-.111,4.548,4.548,0,0,1-.411-.374.5.5,0,1,1,.712-.7,4.191,4.191,0,0,0,.328.3.5.5,0,0,1-.315.888Zm5.943-.235a.5.5,0,0,1-.345-.86c.107-.1.209-.213.3-.325a.5.5,0,1,1,.764.644,4.906,4.906,0,0,1-.377.4A.494.494,0,0,1,1104.064,642.5Zm-7.579-2.758a.5.5,0,0,1-.5-.443,5.1,5.1,0,0,1-.03-.556c0-.106,0-.211.01-.316a.476.476,0,0,1,.53-.468.5.5,0,0,1,.468.53c-.005.084-.008.169-.008.254a4.043,4.043,0,0,0,.024.443.5.5,0,0,1-.44.553A.559.559,0,0,1,1096.485,639.74Zm8.971-.356h-.02a.5.5,0,0,1-.48-.521l0-.122c0-.107-.005-.215-.013-.32a.5.5,0,1,1,1-.074c.01.131.015.261.015.394l0,.163A.5.5,0,0,1,1105.456,639.384Zm-7.851-3.143a.5.5,0,0,1-.374-.832,5.027,5.027,0,0,1,.393-.393.5.5,0,0,1,.668.744,4.017,4.017,0,0,0-.313.313A.5.5,0,0,1,1097.6,636.241Zm6.66-.053a.5.5,0,0,1-.367-.16,4.289,4.289,0,0,0-.321-.311.5.5,0,1,1,.658-.752,5.107,5.107,0,0,1,.4.384.5.5,0,0,1-.027.706A.489.489,0,0,1,1104.265,636.188Zm-3.592-1.438a.5.5,0,0,1-.031-1c.1-.007.211-.01.317-.01l.234,0a.5.5,0,0,1,.48.521.516.516,0,0,1-.521.479l-.193,0c-.085,0-.171,0-.255.008Z"/><path class="a" d="M1091.7,631.741a.7.7,0,0,1-.7-.7V619.208h-16.632v11.833a.7.7,0,1,1-1.4,0V618.508a.7.7,0,0,1,.7-.7H1091.7a.7.7,0,0,1,.7.7v12.533A.7.7,0,0,1,1091.7,631.741Z"/><path class="a" d="M1064.751,625.6h-6.712a.7.7,0,0,1,0-1.4h6.712a.7.7,0,0,1,0,1.4Z"/><path class="a" d="M1064.1,627.3a.7.7,0,0,1-.5-1.2l1.327-1.327-1.327-1.326a.7.7,0,0,1,.991-.99l1.82,1.821a.7.7,0,0,1,0,.991l-1.82,1.821A.7.7,0,0,1,1064.1,627.3Z"/></g></svg>