<svg id="Layer_1" data-name="Layer 1" xmlns="http://www.w3.org/2000/svg" width="23.21" height="21.97" viewBox="0 0 23.21 21.97"><path d="M5,2.41a2.4,2.4,0,0,1-2.4,2.38H2.47A2.4,2.4,0,0,1,2.31,0H2.5A2.38,2.38,0,0,1,5,2.23,1.09,1.09,0,0,1,5,2.41ZM.13,22V6.66H4.88V22Z" transform="translate(0 0)" fill="#fff"/><path d="M8.7,11.54c0-1.91-.07-3.53-.13-4.88H12.7l.22,2.1H13a5.64,5.64,0,0,1,4.73-2.44c3.13,0,5.47,2.07,5.47,6.57V22H18.46V13.48c0-2-.69-3.31-2.41-3.31A2.55,2.55,0,0,0,13.64,12a3.22,3.22,0,0,0-.18,1.19V22H8.7Z" transform="translate(0 0)" fill="#fff"/></svg>