<?xml version="1.0" encoding="UTF-8"?><svg id="Layer_2" xmlns="http://www.w3.org/2000/svg" width="21" height="21" viewBox="0 0 21 21"><defs><style>.cls-1{fill:none;}.cls-2{fill:#fff;}</style></defs><g id="Layer_1-2"><g><path class="cls-2" d="M14.78,2.41H6.22C3.46,2.41,1.21,4.66,1.21,7.42V15.98c0,2.76,2.25,5.01,5.01,5.01H14.78c2.76,.01,5.01-2.24,5.01-5V7.42c0-2.76-2.25-5.01-5.01-5.01Zm0,16.87H6.22c-1.81,0-3.29-1.48-3.29-3.29V7.42c0-1.81,1.48-3.29,3.29-3.29H14.78c1.81,0,3.29,1.48,3.29,3.29V15.99c0,1.81-1.48,3.29-3.29,3.29Z"/><path class="cls-2" d="M10.51,7.2c-2.49,0-4.52,2.03-4.52,4.52s2.03,4.52,4.52,4.52,4.52-2.03,4.52-4.52-2.03-4.52-4.52-4.52Zm2.81,4.53c0,1.55-1.26,2.81-2.81,2.81s-2.81-1.26-2.81-2.81,1.26-2.81,2.81-2.81,2.81,1.26,2.81,2.81Z"/><circle class="cls-2" cx="15.85" cy="7.31" r="1.17"/></g><rect class="cls-1" width="21" height="21"/></g></svg>