<svg xmlns="http://www.w3.org/2000/svg" width="128.012" height="40.002" viewBox="0 0 128.012 40.002"><defs><style>.a{fill:#fff;}</style></defs><g transform="translate(-140 -15.998)"><path class="a" d="M12.451-16178.888c-.033,0-.065.008-.1.008a2.387,2.387,0,0,1-2.235-1.543l-9.956-26.126a2.393,2.393,0,0,1,1.384-3.09,2.4,2.4,0,0,1,3.089,1.388l7.831,20.547,4.217-10.97c.008-.032.012-.068.02-.105,2.76-8.678,8.543-15.141,15.87-17.729a26.178,26.178,0,0,1,8-1.486,2.4,2.4,0,0,1,2.568,2.211,2.39,2.39,0,0,1-2.206,2.563,22.217,22.217,0,0,0-6.309,1.063,1.781,1.781,0,0,1-1,1.836l-.509.24a1.779,1.779,0,0,1-2.084-.428,19.254,19.254,0,0,0-3.712,2.914,1.782,1.782,0,0,1-.118,2.108l-.362.436a1.785,1.785,0,0,1-2.055.5,25.551,25.551,0,0,0-2.214,3.875.667.667,0,0,1-.024.085l-.049.135a1.773,1.773,0,0,1,.558,2.026l-.2.525a1.781,1.781,0,0,1-1.775,1.132l-6.293,16.362a2.394,2.394,0,0,1-2.235,1.534C12.52-16178.88,12.483-16178.888,12.451-16178.888Zm18.585-31.626.014-.006Zm67.553,30.319a9.318,9.318,0,0,1-3.736-3.379,9.045,9.045,0,0,1-1.343-4.872,7.648,7.648,0,0,1,3.317-6.524,13.976,13.976,0,0,1,8.3-2.238h8.413v-1.331a6,6,0,0,0-1.689-4.506c-1.107-1.046-2.853-1.579-5.19-1.579a10.8,10.8,0,0,0-4.18.822,19.8,19.8,0,0,0-4.249,2.5l-1.123.843,0,0c-.008,0-.012,0-.016.008l-.057.041,0-.013a2.4,2.4,0,0,1-3.248-.7,2.433,2.433,0,0,1,.737-3.33l1.026-.745a25.259,25.259,0,0,1,5.483-3.1,16.16,16.16,0,0,1,5.947-1.071c3.553,0,6.37.961,8.368,2.857a10.486,10.486,0,0,1,3.093,7.795l.065,7.611c.008.252.179,7.232-7.51,10.647a17.2,17.2,0,0,1-7.029,1.47A11.655,11.655,0,0,1,98.588-16180.194Zm1.282-11.169a3.133,3.133,0,0,0-1.51,2.869,4.2,4.2,0,0,0,1.5,3.4,6.551,6.551,0,0,0,4.424,1.363,11.037,11.037,0,0,0,5.979-1.53,7.624,7.624,0,0,0,1.221-.969,7.623,7.623,0,0,0,2.108-5.467v-.822h-8.254A10.359,10.359,0,0,0,99.871-16191.363Zm-21.413,9.947a10.206,10.206,0,0,1-1.9-6.6v-25a2.426,2.426,0,0,1,2.426-2.426,2.426,2.426,0,0,1,2.426,2.426v4.392h5.715a2.319,2.319,0,0,1,2.32,2.319,2.319,2.319,0,0,1-2.32,2.32H81.412v15.707c0,4.392,1.97,4.392,2.914,4.392a6.957,6.957,0,0,0,3.985-1.347h0a2.375,2.375,0,0,1,3.252.8,2.407,2.407,0,0,1-.875,3.26,11.811,11.811,0,0,1-6.63,2.19A6.882,6.882,0,0,1,78.457-16181.416Zm-17.058,0a10.206,10.206,0,0,1-1.9-6.6v-25a2.426,2.426,0,0,1,2.426-2.426,2.426,2.426,0,0,1,2.426,2.426v24.738c0,4.392,1.966,4.392,2.914,4.392a6.957,6.957,0,0,0,3.985-1.347,2.379,2.379,0,0,1,3.256.8,2.407,2.407,0,0,1-.875,3.26,11.851,11.851,0,0,1-6.63,2.19A6.882,6.882,0,0,1,61.4-16181.416Zm66-28.809a.348.348,0,0,1-.11-.261v-3.175l-1.616,3.289a.337.337,0,0,1-.322.183.366.366,0,0,1-.33-.211l-1.608-3.216v3.13a.352.352,0,0,1-.106.257.375.375,0,0,1-.517,0,.348.348,0,0,1-.1-.257v-4.6a.355.355,0,0,1,.1-.26.369.369,0,0,1,.256-.1.34.34,0,0,1,.33.2l1.986,3.928,1.966-3.933a.37.37,0,0,1,.285-.187.35.35,0,0,1,.3.1.381.381,0,0,1,.094.256v4.6a.374.374,0,0,1-.094.253.347.347,0,0,1-.26.109A.369.369,0,0,1,127.4-16210.225Zm-8.026,0a.367.367,0,0,1-.106-.261v-4.273h-1.445a.344.344,0,0,1-.244-.1.332.332,0,0,1-.1-.244.336.336,0,0,1,.1-.244.337.337,0,0,1,.244-.1h3.61a.339.339,0,0,1,.248.1.354.354,0,0,1,.1.244.348.348,0,0,1-.1.244.347.347,0,0,1-.248.1h-1.441v4.273a.352.352,0,0,1-.106.257.356.356,0,0,1-.256.105A.355.355,0,0,1,119.375-16210.225Z" transform="translate(140 16234)"/><path class="a" d="M94.812,64.865a9.25,9.25,0,0,1-3.6-3.7,11.4,11.4,0,0,1-1.331-5.554,11.143,11.143,0,0,1,1.328-5.466,9.307,9.307,0,0,1,3.6-3.677,10.479,10.479,0,0,1,5.264-1.319,10.625,10.625,0,0,1,5.3,1.322,9.089,9.089,0,0,1,3.593,3.666,11.319,11.319,0,0,1,1.305,5.475,11.6,11.6,0,0,1-1.307,5.562,9.046,9.046,0,0,1-3.591,3.688,10.628,10.628,0,0,1-5.3,1.322,10.473,10.473,0,0,1-5.263-1.319M92.335,42.21a14.4,14.4,0,0,0-5.453,5.51,16.87,16.87,0,0,0,0,15.841,14.4,14.4,0,0,0,5.453,5.509,16.228,16.228,0,0,0,15.535,0,14.213,14.213,0,0,0,5.43-5.517,17.072,17.072,0,0,0,0-15.825,14.209,14.209,0,0,0-5.429-5.517,16.23,16.23,0,0,0-15.535,0" transform="translate(80.995 -15.05)"/></g></svg>