<svg xmlns="http://www.w3.org/2000/svg" xmlns:xlink="http://www.w3.org/1999/xlink" width="471" height="226" viewBox="0 0 471 226"><defs><clipPath id="clip-path"><rect id="Rectangle_1966" data-name="Rectangle 1966" width="471" height="226" transform="translate(1449 287.488)" fill="#fff" stroke="#707070" stroke-width="1"></rect></clipPath><clipPath id="clip-path-2"><rect id="Rectangle_1938" data-name="Rectangle 1938" width="566.226" height="608.318" transform="translate(0 0)" fill="none"></rect></clipPath></defs><g id="Mask_Group_4869" data-name="Mask Group 4869" transform="translate(-1449 -287.488)" clip-path="url(#clip-path)"><g id="Group_4896" data-name="Group 4896" transform="translate(1772.187 826.43) rotate(-131)"><g id="Group_4840" data-name="Group 4840" transform="translate(0 0)" clip-path="url(#clip-path-2)"><path id="Path_10715" data-name="Path 10715" d="M730.676,519.9c-.3-.167-.217-.513.155-.667.486-.21,1.039.039.881.4a.441.441,0,0,1-.109.149.9.9,0,0,1-.928.123" transform="translate(-325.528 -246.891)" fill="#3dafe9"></path><path id="Path_10716" data-name="Path 10716" d="M707.376,502.243c-.4-.184-.326-.593.146-.815.618-.284,1.366-.007,1.2.436a.565.565,0,0,1-.132.194,1.259,1.259,0,0,1-1.209.185" transform="translate(-315.11 -217.716)" fill="#3dafe9"></path><path id="Path_10717" data-name="Path 10717" d="M684.867,484.333c-.417-.16-.505-.572.013-.863.7-.4,1.71-.152,1.522.371a.581.581,0,0,1-.154.222,1.5,1.5,0,0,1-1.381.27" transform="translate(-305.041 -188.141)" fill="#3dafe9"></path><path id="Path_10718" data-name="Path 10718" d="M663.021,466.206c-.548-.165-.606-.594-.124-.932.788-.56,2.156-.36,1.981.293a.529.529,0,0,1-.157.251,1.931,1.931,0,0,1-1.7.389" transform="translate(-295.259 -158.172)" fill="#3dafe9"></path><path id="Path_10719" data-name="Path 10719" d="M641.953,447.861c-.668-.152-.772-.647-.227-1.052.89-.663,2.576-.511,2.4.222a.641.641,0,0,1-.178.3,2.387,2.387,0,0,1-1.994.528" transform="translate(-285.815 -127.832)" fill="#3dafe9"></path><path id="Path_10720" data-name="Path 10720" d="M621.859,429.326c-.717-.121-.9-.563-.426-1.009.873-.809,2.948-.784,2.811.04a.71.71,0,0,1-.176.326,2.79,2.79,0,0,1-2.209.643" transform="translate(-276.809 -97.23)" fill="#3dafe9"></path><path id="Path_10721" data-name="Path 10721" d="M602.744,410.622c-.789-.091-1.023-.524-.541-1,.86-.833,3.107-.9,3.039-.092a.58.58,0,0,1-.152.327,3.134,3.134,0,0,1-2.346.76" transform="translate(-268.246 -66.396)" fill="#3dafe9"></path><path id="Path_10722" data-name="Path 10722" d="M584.566,391.795c-.846-.049-1.139-.488-.661-.976.869-.892,3.287-1.068,3.281-.239a.646.646,0,0,1-.15.345,3.457,3.457,0,0,1-2.47.87" transform="translate(-260.101 -35.343)" fill="#3dafe9"></path><path id="Path_10723" data-name="Path 10723" d="M567.474,372.849c-.875-.013-1.212-.423-.758-.919.845-.915,3.336-1.2,3.383-.384a.558.558,0,0,1-.13.337,3.641,3.641,0,0,1-2.5.965" transform="translate(-252.454 -4.137)" fill="#3dafe9"></path><path id="Path_10724" data-name="Path 10724" d="M551.357,353.847c-.95.03-1.351-.364-.89-.894.878-1,3.675-1.357,3.608-.46a.565.565,0,0,1-.107.262,3.932,3.932,0,0,1-2.61,1.092" transform="translate(-245.217 27.186)" fill="#3dafe9"></path><path id="Path_10725" data-name="Path 10725" d="M536.578,334.948c-.976.072-1.424-.287-1-.8.8-.971,3.7-1.445,3.7-.613a.493.493,0,0,1-.086.259,4.083,4.083,0,0,1-2.613,1.153" transform="translate(-238.596 58.265)" fill="#3dafe9"></path><path id="Path_10726" data-name="Path 10726" d="M523.334,316.483c-.957.107-1.433-.2-1.053-.687.747-.967,3.562-1.527,3.626-.719a.51.51,0,0,1-.066.24,4.057,4.057,0,0,1-2.506,1.167" transform="translate(-232.684 88.611)" fill="#3dafe9"></path><path id="Path_10727" data-name="Path 10727" d="M511.536,298.416c-.96.15-1.451-.1-1.108-.574.652-.89,3.4-1.524,3.536-.81a.31.31,0,0,1-.043.212,3.933,3.933,0,0,1-2.385,1.172" transform="translate(-227.411 118.255)" fill="#3dafe9"></path><path id="Path_10728" data-name="Path 10728" d="M501.148,280.807c-.938.17-1.438-.039-1.145-.472.586-.872,3.452-1.567,3.449-.843a.589.589,0,0,1-.04.145,3.866,3.866,0,0,1-2.264,1.171" transform="translate(-222.777 147.171)" fill="#3dafe9"></path><path id="Path_10729" data-name="Path 10729" d="M492.221,263.649c-.893.2-1.4.041-1.149-.351.494-.8,3.168-1.527,3.215-.883a.392.392,0,0,1-.023.13,3.6,3.6,0,0,1-2.043,1.1" transform="translate(-218.806 175.295)" fill="#3dafe9"></path><path id="Path_10730" data-name="Path 10730" d="M484.715,247.011c-.82.205-1.3.09-1.1-.265.415-.72,2.862-1.461,2.977-.9a.276.276,0,0,1-.014.107,3.308,3.308,0,0,1-1.864,1.056" transform="translate(-215.492 202.584)" fill="#3dafe9"></path><path id="Path_10731" data-name="Path 10731" d="M478.595,230.86c-.736.208-1.187.124-1.03-.185.318-.625,2.541-1.364,2.677-.889a.229.229,0,0,1-.006.1c-.168.4-1.063.814-1.641.974" transform="translate(-212.802 229.062)" fill="#3dafe9"></path><path id="Path_10732" data-name="Path 10732" d="M473.881,215.218c-.639.2-1.035.156-.92-.1.229-.5,2.134-1.19,2.289-.818a.232.232,0,0,1,0,.076c-.12.322-.875.681-1.372.839" transform="translate(-210.755 254.664)" fill="#3dafe9"></path><path id="Path_10733" data-name="Path 10733" d="M470.565,200.157c-.5.163-.837.146-.76-.048.174-.41,1.766-1,1.817-.666a.041.041,0,0,0,0,.03c-.079.25-.675.557-1.055.685" transform="translate(-209.353 279.329)" fill="#3dafe9"></path><path id="Path_10734" data-name="Path 10734" d="M467.93,185.683l.729-.513.643-.031-.686.484Z" transform="translate(-208.522 303.086)" fill="#3dafe9"></path><path id="Path_10735" data-name="Path 10735" d="M467.624,171.746l.374-.285.374-.03-.376.277Z" transform="translate(-208.385 325.875)" fill="#3dafe9"></path><path id="Path_10736" data-name="Path 10736" d="M468.571,158.407l.08-.062.089-.014-.083.065Z" transform="translate(-208.807 347.672)" fill="#3dafe9"></path><path id="Path_10737" data-name="Path 10737" d="M894.447,655.8l.075.011-.024.075-.049-.027Z" transform="translate(-398.589 -471.029)" fill="#3dafe9"></path><path id="Path_10738" data-name="Path 10738" d="M865.386,639.176l.417.056-.109.408-.415-.052Z" transform="translate(-385.591 -444.055)" fill="#3dafe9"></path><path id="Path_10739" data-name="Path 10739" d="M836.413,622.692c-.236-.391.175-.893.66-.8a.5.5,0,0,1,.215.9.23.23,0,0,1-.048.031.594.594,0,0,1-.828-.13" transform="translate(-372.697 -416.18)" fill="#3dafe9"></path><path id="Path_10740" data-name="Path 10740" d="M808.041,605.443c-.392-.537.192-1.274.931-1.179a.7.7,0,0,1,.372,1.252c-.02.02-.047.037-.066.056a.9.9,0,0,1-1.237-.129" transform="translate(-360.028 -387.622)" fill="#3dafe9"></path><path id="Path_10741" data-name="Path 10741" d="M780.159,587.8c-.552-.641.074-1.578,1.052-1.57.909.01,1.367.865.793,1.5-.043.047-.108.105-.156.149a1.264,1.264,0,0,1-1.688-.079" transform="translate(-347.568 -358.385)" fill="#3dafe9"></path><path id="Path_10742" data-name="Path 10742" d="M752.836,569.766c-.7-.7-.075-1.81,1.077-1.924s1.913.832,1.341,1.649a1.609,1.609,0,0,1-.274.287,1.692,1.692,0,0,1-2.144-.013" transform="translate(-335.353 -328.5)" fill="#3dafe9"></path><path id="Path_10743" data-name="Path 10743" d="M726.217,551.36c-.824-.7-.287-1.893.972-2.166,1.407-.3,2.527.755,1.869,1.762a1.935,1.935,0,0,1-.3.341,2.126,2.126,0,0,1-2.542.062" transform="translate(-323.446 -298.027)" fill="#3dafe9"></path><path id="Path_10744" data-name="Path 10744" d="M700.226,532.657c-1.032-.745-.492-2.093.981-2.447,1.612-.389,2.992.719,2.3,1.861a1.916,1.916,0,0,1-.324.38,2.579,2.579,0,0,1-2.959.205" transform="translate(-311.802 -267.03)" fill="#3dafe9"></path><path id="Path_10745" data-name="Path 10745" d="M674.964,513.6c-1.168-.719-.782-2.092.742-2.62,1.709-.6,3.554.439,3.035,1.7a1.62,1.62,0,0,1-.418.572,3.018,3.018,0,0,1-3.359.351" transform="translate(-300.477 -235.481)" fill="#3dafe9"></path><path id="Path_10746" data-name="Path 10746" d="M650.467,494.312c-1.3-.683-1.089-2.074.414-2.757,1.957-.892,4.343.119,3.808,1.614a1.624,1.624,0,0,1-.428.63,3.6,3.6,0,0,1-3.793.512" transform="translate(-289.484 -203.509)" fill="#3dafe9"></path><path id="Path_10747" data-name="Path 10747" d="M626.884,474.769c-1.469-.655-1.322-2.109.289-2.892,2.089-1.008,4.759-.065,4.27,1.508a1.7,1.7,0,0,1-.425.676,4.131,4.131,0,0,1-4.134.707" transform="translate(-278.903 -171.155)" fill="#3dafe9"></path><path id="Path_10748" data-name="Path 10748" d="M604.237,454.944c-1.52-.566-1.574-1.938-.112-2.826,2.082-1.264,5.347-.447,4.916,1.235a1.65,1.65,0,0,1-.413.7,4.552,4.552,0,0,1-4.39.891" transform="translate(-268.74 -138.394)" fill="#3dafe9"></path><path id="Path_10749" data-name="Path 10749" d="M582.562,434.962c-1.64-.5-1.783-1.888-.3-2.854,2.141-1.379,5.675-.686,5.331,1.045a1.677,1.677,0,0,1-.4.74,5.043,5.043,0,0,1-4.633,1.069" transform="translate(-259.014 -105.363)" fill="#3dafe9"></path><path id="Path_10750" data-name="Path 10750" d="M561.841,414.8c-1.675-.417-2.028-1.685-.742-2.711,2.05-1.638,6.23-1.169,5.967.672a1.561,1.561,0,0,1-.372.751,5.469,5.469,0,0,1-4.853,1.288" transform="translate(-249.694 -72.045)" fill="#3dafe9"></path><path id="Path_10751" data-name="Path 10751" d="M542.141,394.472c-1.793-.351-2.258-1.643-.979-2.714,2.067-1.738,6.565-1.431,6.42.436a1.5,1.5,0,0,1-.345.774,5.971,5.971,0,0,1-5.1,1.5" transform="translate(-240.833 -38.463)" fill="#3dafe9"></path><path id="Path_10752" data-name="Path 10752" d="M523.7,374.042c-1.885-.27-2.445-1.476-1.187-2.588,2.128-1.88,6.991-1.62,6.591.354a1.833,1.833,0,0,1-.287.591c-1.232,1.464-3.729,1.842-5.117,1.643" transform="translate(-232.547 -4.806)" fill="#3dafe9"></path><path id="Path_10753" data-name="Path 10753" d="M506.325,353.515c-1.965-.19-2.64-1.4-1.413-2.544,2.081-1.936,7.185-1.866,6.911.089a1.484,1.484,0,0,1-.248.586c-1.2,1.525-3.792,2.009-5.251,1.87" transform="translate(-224.727 29.063)" fill="#3dafe9"></path><path id="Path_10754" data-name="Path 10754" d="M490.411,333.114c-2.027-.1-2.812-1.235-1.655-2.366,1.979-1.927,7.209-2.062,7.087-.182a1.33,1.33,0,0,1-.21.569c-1.1,1.495-3.722,2.058-5.222,1.979" transform="translate(-217.563 62.607)" fill="#3dafe9"></path><path id="Path_10755" data-name="Path 10755" d="M476.16,313.141c-1.935-.021-2.837-.891-2.018-1.942,1.541-1.983,7.243-2.474,7.262-.629a1.242,1.242,0,0,1-.167.546c-.979,1.425-3.562,2.039-5.077,2.026" transform="translate(-211.155 95.377)" fill="#3dafe9"></path><path id="Path_10756" data-name="Path 10756" d="M463.445,293.637c-1.944.054-2.914-.734-2.172-1.754,1.389-1.9,7.07-2.578,7.236-.861a1.023,1.023,0,0,1-.125.512c-.874,1.382-3.419,2.06-4.94,2.1" transform="translate(-205.444 127.395)" fill="#3dafe9"></path><path id="Path_10757" data-name="Path 10757" d="M452.345,274.644c-1.892.118-2.91-.566-2.261-1.53,1.269-1.863,6.751-2.681,7.072-1.051a.851.851,0,0,1-.078.473c-.751,1.282-3.269,2.015-4.733,2.108" transform="translate(-200.482 158.547)" fill="#3dafe9"></path><path id="Path_10758" data-name="Path 10758" d="M442.74,256.056c-1.867.179-2.927-.409-2.363-1.311,1.11-1.767,6.851-2.674,6.9-1.092a.95.95,0,0,1-.061.3c-.643,1.208-3,1.955-4.478,2.1" transform="translate(-196.176 188.968)" fill="#3dafe9"></path><path id="Path_10759" data-name="Path 10759" d="M434.754,238.057c-1.894.246-2.942-.336-2.245-1.245,1.222-1.585,6.259-2.424,6.411-1.069a.884.884,0,0,1-.038.275c-.528,1.112-2.731,1.858-4.128,2.039" transform="translate(-192.641 218.417)" fill="#3dafe9"></path><path id="Path_10760" data-name="Path 10760" d="M428.173,220.61c-1.819.287-2.887-.2-2.279-1.05,1.067-1.5,5.938-2.455,6.2-1.216a.662.662,0,0,1-.016.252c-.432,1.031-2.548,1.8-3.906,2.013" transform="translate(-189.713 247.002)" fill="#3dafe9"></path><path id="Path_10761" data-name="Path 10761" d="M423.113,203.69c-1.72.325-2.779-.07-2.266-.837.955-1.441,5.81-2.433,5.836-1.195,0,.037-.011.085-.012.114-.334.93-2.276,1.678-3.558,1.917" transform="translate(-187.483 274.66)" fill="#3dafe9"></path><path id="Path_10762" data-name="Path 10762" d="M419.622,187.388c-1.546.333-2.54.018-2.127-.671.773-1.274,5.172-2.295,5.288-1.222a.632.632,0,0,1,0,.1c-.242.825-1.993,1.542-3.159,1.8" transform="translate(-186.005 301.309)" fill="#3dafe9"></path><path id="Path_10763" data-name="Path 10763" d="M417.547,171.667c-1.39.337-2.324.108-2-.486.618-1.119,4.539-2.128,4.713-1.211a.708.708,0,0,1,0,.085c-.152.7-1.679,1.363-2.717,1.612" transform="translate(-185.151 326.971)" fill="#3dafe9"></path><path id="Path_10764" data-name="Path 10764" d="M416.9,156.573c-1.237.328-2.1.178-1.842-.326.481-.941,3.945-1.921,4.166-1.179a.372.372,0,0,1,.007.074c-.087.581-1.417,1.184-2.331,1.431" transform="translate(-184.943 351.609)" fill="#3dafe9"></path><path id="Path_10765" data-name="Path 10765" d="M417.775,142.158c-.985.288-1.722.181-1.543-.22.333-.746,3.164-1.622,3.406-1.051,0,.016.007.039.012.056-.033.471-1.114.99-1.875,1.215" transform="translate(-185.472 375.142)" fill="#3dafe9"></path><path id="Path_10766" data-name="Path 10766" d="M420.011,128.378c-.779.249-1.37.2-1.255-.1.208-.557,2.429-1.3,2.638-.879a.081.081,0,0,1,.02.041c0,.362-.859.772-1.4.943" transform="translate(-186.602 397.599)" fill="#3dafe9"></path><path id="Path_10767" data-name="Path 10767" d="M423.632,115.321c-.544.183-1.072.19-.926-.082.2-.371,1.747-.971,1.911-.616.022.24-.577.559-.985.7" transform="translate(-188.358 418.922)" fill="#3dafe9"></path><path id="Path_10768" data-name="Path 10768" d="M428.014,103.053l.534-.409.664-.068-.528.413Z" transform="translate(-190.734 439.029)" fill="#3dafe9"></path><path id="Path_10769" data-name="Path 10769" d="M434.8,91.416l.162-.146.268-.037-.207.152Z" transform="translate(-193.758 457.991)" fill="#3dafe9"></path><path id="Path_10770" data-name="Path 10770" d="M941.4,713.2l.327.1-.135.41-.339-.13Z" transform="translate(-419.445 -565.93)" fill="#3dafe9"></path><path id="Path_10771" data-name="Path 10771" d="M909.225,697.159c-.171-.506.387-1.058.842-.823a.656.656,0,0,1-.056,1.1.516.516,0,0,1-.786-.282" transform="translate(-405.161 -538.816)" fill="#3dafe9"></path><path id="Path_10772" data-name="Path 10772" d="M877.434,680.238a1.093,1.093,0,0,1,1.372-1.395,1.016,1.016,0,0,1-.033,1.777.882.882,0,0,1-1.339-.382" transform="translate(-390.977 -510.763)" fill="#3dafe9"></path><path id="Path_10773" data-name="Path 10773" d="M846.1,662.8a1.43,1.43,0,0,1,1.651-1.915,1.284,1.284,0,0,1,.221,2.324,1.258,1.258,0,0,1-1.872-.41" transform="translate(-376.992 -481.851)" fill="#3dafe9"></path><path id="Path_10774" data-name="Path 10774" d="M815.232,644.857a1.725,1.725,0,0,1,1.973-2.405,1.528,1.528,0,0,1,.548,2.732c-.041.034-.1.069-.139.107a1.641,1.641,0,0,1-2.381-.433" transform="translate(-363.201 -452.116)" fill="#3dafe9"></path><path id="Path_10775" data-name="Path 10775" d="M784.81,626.437c-.9-1.366.536-3.21,2.262-2.9a1.781,1.781,0,0,1,.841,3.171c-.045.037-.112.09-.162.128a2.075,2.075,0,0,1-2.941-.4" transform="translate(-349.608 -421.557)" fill="#3dafe9"></path><path id="Path_10776" data-name="Path 10776" d="M755.021,607.608c-1.078-1.407.288-3.441,2.247-3.344a1.985,1.985,0,0,1,1.544,3.335,3.256,3.256,0,0,1-.335.313,2.509,2.509,0,0,1-3.456-.3" transform="translate(-336.288 -390.321)" fill="#3dafe9"></path><path id="Path_10777" data-name="Path 10777" d="M725.816,588.323c-1.338-1.516.088-3.8,2.346-3.747,2.122.041,3.258,2.1,2,3.612a4.142,4.142,0,0,1-.368.355,2.982,2.982,0,0,1-3.975-.221" transform="translate(-323.212 -358.35)" fill="#3dafe9"></path><path id="Path_10778" data-name="Path 10778" d="M697.261,568.7c-1.521-1.5-.272-3.9,2.147-4.142,2.364-.236,4.048,1.852,2.907,3.6a3.187,3.187,0,0,1-.557.623,3.485,3.485,0,0,1-4.5-.084" transform="translate(-310.422 -325.777)" fill="#3dafe9"></path><path id="Path_10779" data-name="Path 10779" d="M669.328,548.728c-1.7-1.489-.651-4.042,1.877-4.554,2.806-.574,5.112,1.671,3.856,3.755a3.269,3.269,0,0,1-.585.687,4.14,4.14,0,0,1-5.148.112" transform="translate(-297.899 -292.579)" fill="#3dafe9"></path><path id="Path_10780" data-name="Path 10780" d="M642.337,528.413c-1.969-1.517-.991-4.174,1.781-4.822,3.027-.714,5.663,1.539,4.4,3.777a3.441,3.441,0,0,1-.6.734,4.648,4.648,0,0,1-5.586.311" transform="translate(-285.781 -258.89)" fill="#3dafe9"></path><path id="Path_10781" data-name="Path 10781" d="M616.191,507.816c-2.1-1.411-1.425-4.065,1.268-4.986,3.318-1.136,6.694,1.164,5.385,3.671a3.552,3.552,0,0,1-.606.8,5.225,5.225,0,0,1-6.047.513" transform="translate(-274.039 -224.726)" fill="#3dafe9"></path><path id="Path_10782" data-name="Path 10782" d="M590.909,486.937c-2.355-1.387-1.782-4.16,1.088-5.207,3.492-1.281,7.266.968,6.024,3.594a3.6,3.6,0,0,1-.6.834,5.82,5.82,0,0,1-6.511.779" transform="translate(-262.672 -190.1)" fill="#3dafe9"></path><path id="Path_10783" data-name="Path 10783" d="M566.673,465.808c-2.427-1.25-2.2-3.91.444-5.183,3.574-1.723,8.228.457,7.023,3.285a3.493,3.493,0,0,1-.6.88,6.358,6.358,0,0,1-6.87,1.018" transform="translate(-251.773 -155.109)" fill="#3dafe9"></path><path id="Path_10784" data-name="Path 10784" d="M543.441,444.479c-2.632-1.171-2.541-3.881.171-5.274,3.681-1.9,8.732.15,7.6,3.081a3.388,3.388,0,0,1-.58.915,6.872,6.872,0,0,1-7.193,1.278" transform="translate(-241.316 -119.788)" fill="#3dafe9"></path><path id="Path_10785" data-name="Path 10785" d="M521.223,422.954c-2.87-1.1-2.943-3.859-.142-5.368,3.76-2.026,9.233-.123,8.251,2.861a3.283,3.283,0,0,1-.548.939c-2.134,2.266-5.706,2.281-7.561,1.568" transform="translate(-231.291 -84.155)" fill="#3dafe9"></path><path id="Path_10786" data-name="Path 10786" d="M500.3,401.256c-2.826-.927-3.244-3.44-.842-5.079,3.6-2.458,9.943-.845,9.061,2.3a3.244,3.244,0,0,1-.512.956c-2.072,2.317-5.752,2.456-7.707,1.822" transform="translate(-221.874 -48.313)" fill="#3dafe9"></path><path id="Path_10787" data-name="Path 10787" d="M480.583,379.441c-2.938-.814-3.516-3.274-1.159-4.979,3.55-2.566,10.149-1.2,9.414,1.952a2.953,2.953,0,0,1-.472.964c-1.977,2.354-5.741,2.625-7.783,2.063" transform="translate(-212.994 -12.304)" fill="#3dafe9"></path><path id="Path_10788" data-name="Path 10788" d="M462.042,357.549c-3.077-.7-3.817-3.125-1.482-4.9,3.5-2.672,10.375-1.548,9.815,1.6a2.884,2.884,0,0,1-.426.967c-1.906,2.418-5.772,2.827-7.906,2.339" transform="translate(-204.626 23.845)" fill="#3dafe9"></path><path id="Path_10789" data-name="Path 10789" d="M445.2,335.738c-3.13-.564-4.041-2.839-1.84-4.594,3.306-2.639,10.271-1.789,9.935,1.2a2.563,2.563,0,0,1-.355.932c-1.73,2.345-5.568,2.846-7.741,2.458" transform="translate(-197.032 59.653)" fill="#3dafe9"></path><path id="Path_10790" data-name="Path 10790" d="M429.945,314.432c-3-.409-4.2-2.34-2.522-4.042,2.859-2.913,10.59-2.493,10.467.57a2.232,2.232,0,0,1-.292.9c-1.572,2.287-5.422,2.882-7.653,2.572" transform="translate(-190.132 94.655)" fill="#3dafe9"></path><path id="Path_10791" data-name="Path 10791" d="M416.468,293.553c-3.015-.3-4.35-2.065-2.806-3.713,2.6-2.766,10.308-2.606,10.431.216a1.83,1.83,0,0,1-.207.847c-1.4,2.191-5.181,2.864-7.418,2.649" transform="translate(-184.051 128.855)" fill="#3dafe9"></path><path id="Path_10792" data-name="Path 10792" d="M404.668,273.2c-2.975-.188-4.414-1.8-3.025-3.379,2.459-2.786,10.546-2.676,10.3.14a2.231,2.231,0,0,1-.16.544c-1.2,2.067-4.959,2.827-7.119,2.694" transform="translate(-178.745 162.184)" fill="#3dafe9"></path><path id="Path_10793" data-name="Path 10793" d="M394.48,253.4c-2.938-.083-4.474-1.537-3.22-3.052,2.215-2.678,10.19-2.819,10.154-.178a2.208,2.208,0,0,1-.117.515c-1.045,1.977-4.616,2.777-6.817,2.715" transform="translate(-174.16 194.609)" fill="#3dafe9"></path><path id="Path_10794" data-name="Path 10794" d="M386.023,234.109c-2.837.01-4.415-1.271-3.311-2.68,1.928-2.47,9.583-2.84,9.75-.47a1.505,1.505,0,0,1-.07.464c-.868,1.845-4.247,2.68-6.369,2.687" transform="translate(-170.389 226.102)" fill="#3dafe9"></path><path id="Path_10795" data-name="Path 10795" d="M379.119,215.472c-2.727.094-4.341-1.031-3.388-2.36,1.7-2.361,9.066-2.921,9.392-.715a1.427,1.427,0,0,1-.039.433c-.633,1.528-3.587,2.564-5.964,2.642" transform="translate(-167.313 256.586)" fill="#3dafe9"></path><path id="Path_10796" data-name="Path 10796" d="M373.82,197.382c-2.646.164-4.239-.778-3.418-2.017,1.522-2.288,8.965-2.9,8.953-.731,0,.061-.021.143-.028.2-.543,1.552-3.55,2.421-5.506,2.549" transform="translate(-164.964 286.104)" fill="#3dafe9"></path><path id="Path_10797" data-name="Path 10797" d="M370.165,179.912c-2.588.23-4.172-.685-3.208-1.855,1.62-1.951,8.045-2.517,8.186-.723a.772.772,0,0,1-.009.172c-.388,1.375-3.2,2.245-4.969,2.405" transform="translate(-163.399 314.561)" fill="#3dafe9"></path><path id="Path_10798" data-name="Path 10798" d="M368.069,163.1c-2.39.282-3.888-.462-3.075-1.537,1.352-1.771,7.219-2.447,7.476-.857,0,.047,0,.107.008.154-.267,1.222-2.738,2.044-4.409,2.24" transform="translate(-162.552 341.966)" fill="#3dafe9"></path><path id="Path_10799" data-name="Path 10799" d="M367.4,146.985c-2.221.315-3.683-.3-3.005-1.262,1.021-1.46,6.781-2.575,6.99-.838-.16,1.079-2.425,1.877-3.985,2.1" transform="translate(-162.31 368.264)" fill="#3dafe9"></path><path id="Path_10800" data-name="Path 10800" d="M368.391,131.507c-1.934.318-3.306-.167-2.766-.982.806-1.22,5.853-2.31,6.157-.9-.057.916-2.058,1.665-3.392,1.883" transform="translate(-162.879 393.438)" fill="#3dafe9"></path><path id="Path_10801" data-name="Path 10801" d="M370.794,116.77c-1.746.329-2.988-.025-2.563-.739.634-1.048,5.094-2.111,5.474-.936.015.768-1.73,1.452-2.911,1.675" transform="translate(-164.056 417.438)" fill="#3dafe9"></path><path id="Path_10802" data-name="Path 10802" d="M374.745,102.784c-1.284.272-2.576.1-2.244-.528.461-.872,4.206-1.847,4.625-.9.063.614-1.383,1.212-2.381,1.424" transform="translate(-165.972 440.211)" fill="#3dafe9"></path><path id="Path_10803" data-name="Path 10803" d="M380.151,89.555c-1.185.28-2.106.111-1.888-.342.334-.705,3.326-1.567,3.757-.822.108.474-1.028.969-1.869,1.164" transform="translate(-168.55 461.736)" fill="#3dafe9"></path><path id="Path_10804" data-name="Path 10804" d="M387.041,77.089c-.939.237-1.669.1-1.451-.269.313-.521,2.462-1.1,2.8-.621.116.344-.721.727-1.35.89" transform="translate(-171.812 482.024)" fill="#3dafe9"></path><path id="Path_10805" data-name="Path 10805" d="M395.322,65.452c-.65.178-1.163.112-1.036-.139.185-.36,1.674-.8,1.949-.475.111.226-.5.5-.913.613" transform="translate(-175.695 500.969)" fill="#3dafe9"></path><path id="Path_10806" data-name="Path 10806" d="M404.579,54.684l.343-.282.6-.035-.376.3Z" transform="translate(-180.291 518.527)" fill="#3dafe9"></path><path id="Path_10807" data-name="Path 10807" d="M416.138,44.69l.022-.034.1,0-.06.043Z" transform="translate(-185.442 534.79)" fill="#3dafe9"></path><path id="Path_10808" data-name="Path 10808" d="M995.927,774.98l.293.127-.168.335-.257-.111Z" transform="translate(-443.753 -667.549)" fill="#3dafe9"></path><path id="Path_10809" data-name="Path 10809" d="M961.284,759.224c-.156-.666.526-1.183.951-.889a.764.764,0,0,1-.175,1.244.507.507,0,0,1-.777-.355" transform="translate(-428.363 -640.959)" fill="#3dafe9"></path><path id="Path_10810" data-name="Path 10810" d="M927.042,742.479c-.292-1.021.784-1.866,1.5-1.435a1.185,1.185,0,0,1-.173,1.959.864.864,0,0,1-1.327-.524" transform="translate(-413.092 -613.267)" fill="#3dafe9"></path><path id="Path_10811" data-name="Path 10811" d="M893.134,725.172c-.412-1.217.907-2.537,1.961-1.952a1.524,1.524,0,0,1-.132,2.579,1.205,1.205,0,0,1-1.828-.627" transform="translate(-397.969 -584.59)" fill="#3dafe9"></path><path id="Path_10812" data-name="Path 10812" d="M859.336,707.232a2.043,2.043,0,0,1,2.573-2.664,1.955,1.955,0,0,1-.041,3.4,1.677,1.677,0,0,1-2.532-.739" transform="translate(-382.881 -554.81)" fill="#3dafe9"></path><path id="Path_10813" data-name="Path 10813" d="M826.2,688.754a2.375,2.375,0,0,1,2.74-3.251,2.233,2.233,0,0,1,.343,4.018,2.048,2.048,0,0,1-3.082-.767" transform="translate(-368.081 -524.188)" fill="#3dafe9"></path><path id="Path_10814" data-name="Path 10814" d="M793.338,669.752a2.765,2.765,0,0,1,3.133-3.885c1.951.515,2.625,3.1.628,4.66a2.557,2.557,0,0,1-3.761-.775" transform="translate(-353.398 -492.625)" fill="#3dafe9"></path><path id="Path_10815" data-name="Path 10815" d="M761.107,650.278c-1.353-2.193.826-5.026,3.427-4.454a2.85,2.85,0,0,1,.939,5.172,3.03,3.03,0,0,1-4.365-.719" transform="translate(-338.985 -460.272)" fill="#3dafe9"></path><path id="Path_10816" data-name="Path 10816" d="M729.393,630.315c-1.582-2.268.462-5.378,3.366-5.111a3.166,3.166,0,0,1,1.976,5.527c-.077.075-.184.157-.268.226a3.583,3.583,0,0,1-5.073-.642" transform="translate(-324.791 -427.102)" fill="#3dafe9"></path><path id="Path_10817" data-name="Path 10817" d="M698.358,609.928c-1.892-2.4.238-5.833,3.509-5.652,3.25.179,4.744,3.719,2.492,5.924-.084.077-.2.174-.285.249a4.133,4.133,0,0,1-5.716-.521" transform="translate(-310.89 -393.227)" fill="#3dafe9"></path><path id="Path_10818" data-name="Path 10818" d="M668.013,589.166c-2.127-2.405-.279-6.007,3.193-6.211,3.6-.214,5.84,3.364,3.745,5.982a6.526,6.526,0,0,1-.574.581,4.717,4.717,0,0,1-6.364-.351" transform="translate(-297.281 -358.687)" fill="#3dafe9"></path><path id="Path_10819" data-name="Path 10819" d="M638.427,568c-2.482-2.5-.627-6.393,3.2-6.711,3.922-.331,6.575,3.39,4.436,6.219a7.922,7.922,0,0,1-.594.637,5.344,5.344,0,0,1-7.04-.145" transform="translate(-283.997 -323.504)" fill="#3dafe9"></path><path id="Path_10820" data-name="Path 10820" d="M609.712,546.491c-2.837-2.558-1.018-6.74,3.146-7.211,4.286-.488,7.367,3.364,5.145,6.444a6.466,6.466,0,0,1-.621.7,5.913,5.913,0,0,1-7.669.069" transform="translate(-271.093 -287.752)" fill="#3dafe9"></path><path id="Path_10821" data-name="Path 10821" d="M581.963,524.685c-2.957-2.393-1.563-6.6,2.484-7.5,4.464-.995,8.433,2.622,6.637,6.052a5.322,5.322,0,0,1-.866,1.137,6.611,6.611,0,0,1-8.256.31" transform="translate(-258.633 -251.518)" fill="#3dafe9"></path><path id="Path_10822" data-name="Path 10822" d="M555.126,502.619c-3.3-2.385-2.01-6.8,2.288-7.869,4.716-1.172,9.146,2.449,7.4,6.048a5.12,5.12,0,0,1-.866,1.2,7.241,7.241,0,0,1-8.824.617" transform="translate(-246.55 -214.842)" fill="#3dafe9"></path><path id="Path_10823" data-name="Path 10823" d="M529.352,480.292c-3.443-2.234-2.682-6.474,1.432-7.957,5-1.8,10.442,1.816,8.686,5.778a4.986,4.986,0,0,1-.851,1.259,7.807,7.807,0,0,1-9.267.921" transform="translate(-234.923 -177.773)" fill="#3dafe9"></path><path id="Path_10824" data-name="Path 10824" d="M504.675,457.708c-3.745-2.172-3.163-6.517,1.1-8.165,5.161-1.994,11.08,1.529,9.455,5.622a4.815,4.815,0,0,1-.831,1.317,8.4,8.4,0,0,1-9.724,1.226" transform="translate(-223.789 -140.312)" fill="#3dafe9"></path><path id="Path_10825" data-name="Path 10825" d="M481.215,434.942c-3.952-2.048-3.567-6.553.718-8.307,5.252-2.154,11.6,1.211,10.137,5.378a4.836,4.836,0,0,1-.788,1.341c-2.98,3.151-7.681,2.824-10.068,1.588" transform="translate(-213.22 -102.565)" fill="#3dafe9"></path><path id="Path_10826" data-name="Path 10826" d="M459.018,411.977c-3.961-1.827-4.1-5.956-.266-8.035,5.128-2.784,12.613.389,11.288,4.777a4.821,4.821,0,0,1-.739,1.366c-2.892,3.231-7.758,3.05-10.282,1.892" transform="translate(-203.188 -64.584)" fill="#3dafe9"></path><path id="Path_10827" data-name="Path 10827" d="M438.06,388.912c-4.182-1.7-4.552-5.822-.718-8.022,5.126-2.94,13.014,0,11.887,4.432a4.573,4.573,0,0,1-.689,1.395c-2.8,3.311-7.811,3.278-10.48,2.2" transform="translate(-193.705 -26.434)" fill="#3dafe9"></path><path id="Path_10828" data-name="Path 10828" d="M418.477,365.722c-4.359-1.555-4.963-5.628-1.169-7.92,5.048-3.047,13.221-.391,12.324,4.008a4.215,4.215,0,0,1-.618,1.391c-2.671,3.38-7.766,3.511-10.536,2.521" transform="translate(-184.845 11.863)" fill="#3dafe9"></path><path id="Path_10829" data-name="Path 10829" d="M400.712,342.619c-4.436-1.371-5.3-5.239-1.69-7.523,5.044-3.189,13.785-.41,12.469,3.967a4.838,4.838,0,0,1-.423.893c-2.438,3.289-7.523,3.539-10.356,2.664" transform="translate(-176.813 49.776)" fill="#3dafe9"></path><path id="Path_10830" data-name="Path 10830" d="M384.734,320.038c-4.2-1.115-5.514-4.47-2.665-6.772,4.271-3.449,13.535-1.555,13.21,2.7a3.418,3.418,0,0,1-.427,1.3c-2.194,3.177-7.237,3.53-10.117,2.77" transform="translate(-169.584 86.81)" fill="#3dafe9"></path><path id="Path_10831" data-name="Path 10831" d="M370.56,297.967c-4.2-.942-5.715-4.078-3.061-6.322,4.193-3.55,13.9-1.61,13.144,2.625a3.939,3.939,0,0,1-.3.823c-1.948,3.064-6.889,3.527-9.784,2.873" transform="translate(-163.179 122.964)" fill="#3dafe9"></path><path id="Path_10832" data-name="Path 10832" d="M358.155,276.386c-4.169-.788-5.87-3.682-3.425-5.846,3.85-3.4,13.477-1.829,13.04,2.143a3.52,3.52,0,0,1-.231.771c-1.525,2.616-6.057,3.562-9.384,2.932" transform="translate(-157.574 158.254)" fill="#3dafe9"></path><path id="Path_10833" data-name="Path 10833" d="M347.511,255.425c-4.095-.626-5.94-3.285-3.723-5.36,3.529-3.306,13-2.066,12.821,1.678a2.946,2.946,0,0,1-.174.735c-1.449,2.761-6.089,3.386-8.924,2.946" transform="translate(-152.778 192.528)" fill="#3dafe9"></path><path id="Path_10834" data-name="Path 10834" d="M338.609,234.955c-4-.489-5.965-2.894-3.965-4.855,3.271-3.2,13.06-1.972,12.473,1.581a3.447,3.447,0,0,1-.093.339c-1.082,2.315-5.211,3.326-8.415,2.935" transform="translate(-148.774 225.895)" fill="#3dafe9"></path><path id="Path_10835" data-name="Path 10835" d="M331.46,215.153c-3.827-.349-5.867-2.482-4.111-4.307,2.891-3,12.271-2.1,11.949,1.146-.009.093-.044.216-.062.309-.968,2.368-5.126,3.092-7.776,2.851" transform="translate(-145.592 258.156)" fill="#3dafe9"></path><path id="Path_10836" data-name="Path 10836" d="M326,195.987c-3.624-.229-5.687-2.117-4.169-3.808,2.523-2.8,11.463-2.214,11.383.757,0,.085-.027.2-.037.286-.672,1.945-4.25,2.947-7.177,2.764" transform="translate(-143.191 289.389)" fill="#3dafe9"></path><path id="Path_10837" data-name="Path 10837" d="M322.221,177.462c-3.394-.118-5.454-1.742-4.156-3.28,2.141-2.533,10.52-2.214,10.672.41a1.631,1.631,0,0,1-.016.256c-.486,1.74-3.754,2.711-6.5,2.614" transform="translate(-141.563 319.498)" fill="#3dafe9"></path><path id="Path_10838" data-name="Path 10838" d="M320.067,159.646c-3.143-.028-5.163-1.421-4.083-2.808,1.806-2.318,9.6-2.224,9.925.121a1.955,1.955,0,0,1,0,.23c-.327,1.547-3.291,2.483-5.844,2.458" transform="translate(-140.68 348.487)" fill="#3dafe9"></path><path id="Path_10839" data-name="Path 10839" d="M319.444,142.528c-2.99.047-4.952-1.118-4.035-2.395,1.365-1.9,9.053-2.438,9.328.079-.191,1.383-2.9,2.279-5.293,2.316" transform="translate(-140.453 376.348)" fill="#3dafe9"></path><path id="Path_10840" data-name="Path 10840" d="M320.569,126.127c-2.835.105-4.717-.989-3.672-2.134,1.468-1.6,7.854-1.949,8.249.03-.066,1.194-2.428,2.019-4.577,2.1" transform="translate(-141.087 402.976)" fill="#3dafe9"></path><path id="Path_10841" data-name="Path 10841" d="M323.2,110.5c-2.55.156-4.337-.74-3.482-1.747,1.2-1.408,6.948-1.859,7.466-.158.033,1.024-2.042,1.786-3.984,1.9" transform="translate(-142.377 428.381)" fill="#3dafe9"></path><path id="Path_10842" data-name="Path 10842" d="M327.449,95.657c-2.2.187-3.837-.515-3.175-1.355.941-1.2,5.929-1.7,6.512-.3.118.936-1.882,1.534-3.337,1.652" transform="translate(-144.439 452.477)" fill="#3dafe9"></path><path id="Path_10843" data-name="Path 10843" d="M333.179,81.636c-1.92.2-3.407-.349-2.9-1.067.728-1.018,5.064-1.544,5.693-.386.182.783-1.526,1.319-2.8,1.453" transform="translate(-147.137 475.29)" fill="#3dafe9"></path><path id="Path_10844" data-name="Path 10844" d="M340.5,68.414c-1.609.2-2.868-.192-2.5-.779.522-.825,4.1-1.324,4.712-.421.221.608-1.162,1.067-2.214,1.2" transform="translate(-150.595 496.76)" fill="#3dafe9"></path><path id="Path_10845" data-name="Path 10845" d="M349.337,56.052c-1.26.184-2.293-.078-2.049-.516.346-.633,3.159-1.077,3.734-.416.189.4-.725.8-1.685.932" transform="translate(-154.745 516.825)" fill="#3dafe9"></path><path id="Path_10846" data-name="Path 10846" d="M359.669,44.566c-.988.159-1.8-.038-1.54-.378a3.049,3.049,0,0,1,2.718-.314c.2.309-.567.589-1.178.693" transform="translate(-159.57 535.496)" fill="#3dafe9"></path><path id="Path_10847" data-name="Path 10847" d="M371.5,33.99c-.573.106-1.189.028-1.034-.2a2.029,2.029,0,0,1,1.752-.235c.134.168-.265.356-.718.434" transform="translate(-165.078 552.687)" fill="#3dafe9"></path><path id="Path_10848" data-name="Path 10848" d="M384.2,24.355l.316-.22.613,0-.327.216Z" transform="translate(-171.208 568.378)" fill="#3dafe9"></path><path id="Path_10849" data-name="Path 10849" d="M1020.752,824.152l.267.13-.149.339-.3-.111Z" transform="translate(-454.793 -748.48)" fill="#3dafe9"></path><path id="Path_10850" data-name="Path 10850" d="M984.058,808.273c-.136-.723.576-1.363,1.093-.973a.9.9,0,0,1-.209,1.422.6.6,0,0,1-.883-.449" transform="translate(-438.515 -721.697)" fill="#3dafe9"></path><path id="Path_10851" data-name="Path 10851" d="M947.769,791.372c-.27-1.126.863-2.169,1.729-1.59a1.377,1.377,0,0,1-.272,2.254.961.961,0,0,1-1.457-.664" transform="translate(-422.333 -693.737)" fill="#3dafe9"></path><path id="Path_10852" data-name="Path 10852" d="M911.755,773.788c-.428-1.471,1.089-2.938,2.289-2.2a1.847,1.847,0,0,1-.232,3.036,1.352,1.352,0,0,1-2.057-.835" transform="translate(-406.269 -664.628)" fill="#3dafe9"></path><path id="Path_10853" data-name="Path 10853" d="M875.854,755.567c-.657-1.921,1.29-3.878,2.936-2.953a2.346,2.346,0,0,1-.16,3.952,1.831,1.831,0,0,1-2.776-1" transform="translate(-390.245 -634.385)" fill="#3dafe9"></path><path id="Path_10854" data-name="Path 10854" d="M840.464,736.718c-.854-2.158,1.151-4.472,3.208-3.691a2.72,2.72,0,0,1,.206,4.791,2.277,2.277,0,0,1-3.414-1.1" transform="translate(-374.443 -603.123)" fill="#3dafe9"></path><path id="Path_10855" data-name="Path 10855" d="M805.453,717.314c-1.09-2.416,1.242-5.21,3.667-4.4,2.134.713,2.754,3.8.462,5.521a2.771,2.771,0,0,1-4.129-1.123" transform="translate(-358.808 -570.878)" fill="#3dafe9"></path><path id="Path_10856" data-name="Path 10856" d="M770.91,697.318a3.592,3.592,0,0,1,4.052-5.085c2.507.738,3.363,4.2.786,6.213a3.266,3.266,0,0,1-4.838-1.127" transform="translate(-343.368 -537.661)" fill="#3dafe9"></path><path id="Path_10857" data-name="Path 10857" d="M736.844,676.8a4.037,4.037,0,0,1,4.467-5.855,3.935,3.935,0,0,1,1.167,6.978,3.859,3.859,0,0,1-5.634-1.123" transform="translate(-328.127 -503.544)" fill="#3dafe9"></path><path id="Path_10858" data-name="Path 10858" d="M703.456,655.817a4.4,4.4,0,0,1,4.341-6.624,4.261,4.261,0,0,1,2.4,7.369c-.1.088-.233.2-.337.285a4.43,4.43,0,0,1-6.4-1.029" transform="translate(-313.183 -468.636)" fill="#3dafe9"></path><path id="Path_10859" data-name="Path 10859" d="M670.776,634.413a4.713,4.713,0,0,1,4.512-7.3,4.612,4.612,0,0,1,2.967,7.882c-.1.1-.257.227-.364.32a5,5,0,0,1-7.115-.9" transform="translate(-298.537 -433.009)" fill="#3dafe9"></path><path id="Path_10860" data-name="Path 10860" d="M638.79,612.563c-2.7-3.418.131-8.276,4.651-8,4.488.27,6.651,5.292,3.615,8.393-.112.112-.273.247-.385.354a5.63,5.63,0,0,1-7.881-.744" transform="translate(-284.192 -396.634)" fill="#3dafe9"></path><path id="Path_10861" data-name="Path 10861" d="M607.634,590.339c-2.963-3.4-.56-8.42,4.156-8.668,4.861-.252,8.006,4.775,5.25,8.408a9.117,9.117,0,0,1-.754.805,6.294,6.294,0,0,1-8.652-.546" transform="translate(-270.198 -359.63)" fill="#3dafe9"></path><path id="Path_10862" data-name="Path 10862" d="M577.314,567.73c-3.383-3.522-1-8.914,4.118-9.314,5.256-.405,8.893,4.829,6.082,8.75a7.874,7.874,0,0,1-.78.878,6.974,6.974,0,0,1-9.42-.314" transform="translate(-256.565 -321.98)" fill="#3dafe9"></path><path id="Path_10863" data-name="Path 10863" d="M548.033,544.818c-3.781-3.581-1.464-9.295,4-9.865,5.6-.582,9.716,4.779,6.882,8.963a8.942,8.942,0,0,1-.807.943,7.6,7.6,0,0,1-10.077-.041" transform="translate(-243.39 -283.841)" fill="#3dafe9"></path><path id="Path_10864" data-name="Path 10864" d="M519.713,521.62c-3.949-3.4-2.188-9.207,3.136-10.345,6.172-1.322,11.5,4.365,8.507,9.079a7.918,7.918,0,0,1-.808,1.006,8.314,8.314,0,0,1-10.835.26" transform="translate(-230.641 -245.205)" fill="#3dafe9"></path><path id="Path_10865" data-name="Path 10865" d="M492.485,498.144c-4.366-3.424-2.766-9.495,2.847-10.824,6.5-1.539,12.406,4.2,9.442,9.165a8.12,8.12,0,0,1-12.289,1.66" transform="translate(-218.349 -206.137)" fill="#3dafe9"></path><path id="Path_10866" data-name="Path 10866" d="M466.489,474.427c-4.733-3.386-3.34-9.661,2.484-11.188,6.729-1.773,13.206,3.951,10.342,9.144a8.794,8.794,0,0,1-.8,1.116c-3.829,3.836-9.339,2.846-12.027.927" transform="translate(-206.61 -166.716)" fill="#3dafe9"></path><path id="Path_10867" data-name="Path 10867" d="M441.641,450.561c-5.146-3.348-3.994-9.825,2.058-11.56,6.948-1.986,14.012,3.695,11.278,9.076a9,9,0,0,1-.784,1.169c-3.831,4.048-9.644,3.2-12.552,1.314" transform="translate(-195.356 -127.028)" fill="#3dafe9"></path><path id="Path_10868" data-name="Path 10868" d="M418.217,426.458c-5.115-3.023-4.682-9.257.8-11.493,7-2.852,15.542,2.853,12.867,8.6a8.738,8.738,0,0,1-.748,1.2c-3.77,4.21-9.825,3.526-12.923,1.69" transform="translate(-184.77 -87.042)" fill="#3dafe9"></path><path id="Path_10869" data-name="Path 10869" d="M396.154,402.225c-5.414-2.912-5.284-9.189.237-11.586,7.038-3.055,16.1,2.454,13.656,8.305a7.922,7.922,0,0,1-.708,1.228c-3.658,4.338-9.914,3.81-13.185,2.053" transform="translate(-174.762 -46.887)" fill="#3dafe9"></path><path id="Path_10870" data-name="Path 10870" d="M375.741,377.869c-5.579-2.71-5.758-8.9-.334-11.405,6.905-3.192,16.265,1.98,14.115,7.8a8.052,8.052,0,0,1-.646,1.229c-3.458,4.369-9.762,4.024-13.134,2.381" transform="translate(-165.526 -6.687)" fill="#3dafe9"></path><path id="Path_10871" data-name="Path 10871" d="M357.048,353.611c-5.72-2.512-6.279-8.482-1.035-11.017,6.69-3.236,16.35,1.578,14.565,7.253a7.139,7.139,0,0,1-.572,1.2c-3.175,4.293-9.489,4.086-12.959,2.566" transform="translate(-157.037 33.169)" fill="#3dafe9"></path><path id="Path_10872" data-name="Path 10872" d="M340.36,329.817c-5.48-2.164-6.691-7.346-2.353-10.082,6.076-3.821,16.863.551,15.4,6.246a6.454,6.454,0,0,1-.484,1.149c-2.852,4.149-9.06,4.066-12.559,2.687" transform="translate(-149.455 72.119)" fill="#3dafe9"></path><path id="Path_10873" data-name="Path 10873" d="M325.711,306.559c-5.414-1.915-6.893-6.736-2.878-9.375,5.607-3.69,16.308.194,15.268,5.544a5.524,5.524,0,0,1-.392,1.074c-2.5,3.943-8.524,3.987-12,2.757" transform="translate(-142.845 110.087)" fill="#3dafe9"></path><path id="Path_10874" data-name="Path 10874" d="M312.846,283.9c-5.353-1.7-7.095-6.17-3.383-8.7,5.493-3.749,16.54.244,14.967,5.405-.049.158-.14.359-.2.512-2.162,3.724-7.958,3.874-11.383,2.784" transform="translate(-137.025 147.081)" fill="#3dafe9"></path><path id="Path_10875" data-name="Path 10875" d="M301.848,261.794c-5.219-1.47-7.167-5.567-3.795-7.968,5.007-3.568,15.835-.077,14.667,4.729-.033.146-.112.33-.159.47-1.824,3.484-7.362,3.714-10.713,2.769" transform="translate(-132.074 183.088)" fill="#3dafe9"></path><path id="Path_10876" data-name="Path 10876" d="M292.683,240.308c-5.03-1.253-7.138-4.968-4.1-7.233,4.5-3.35,14.974-.354,14.185,4.06-.024.131-.081.3-.118.436-1.5,3.226-6.731,3.543-9.965,2.737" transform="translate(-127.972 218.06)" fill="#3dafe9"></path><path id="Path_10877" data-name="Path 10877" d="M285.306,219.45c-4.725-1.034-6.993-4.443-4.34-6.517,4.013-3.126,14.085-.584,13.646,3.45-.016.12-.06.277-.086.4-1.082,2.664-5.627,3.462-9.22,2.671" transform="translate(-124.704 251.983)" fill="#3dafe9"></path><path id="Path_10878" data-name="Path 10878" d="M279.683,199.23c-4.533-.861-6.83-3.823-4.473-5.764,3.266-2.684,13.45-.949,12.868,3.229-.9,2.649-5.546,3.079-8.4,2.535" transform="translate(-122.222 284.785)" fill="#3dafe9"></path><path id="Path_10879" data-name="Path 10879" d="M275.725,179.749c-4.294-.706-6.643-3.344-4.576-5.135,2.861-2.481,12.51-1.09,12.262,2.689-.6,2.188-4.458,2.972-7.685,2.446" transform="translate(-120.492 316.463)" fill="#3dafe9"></path><path id="Path_10880" data-name="Path 10880" d="M273.54,160.984c-3.986-.55-6.335-2.85-4.571-4.474,2.455-2.253,11.43-1.189,11.476,2.179-.395,1.951-3.9,2.709-6.9,2.294" transform="translate(-119.595 346.93)" fill="#3dafe9"></path><path id="Path_10881" data-name="Path 10881" d="M273.056,142.969c-3.685-.421-5.994-2.394-4.5-3.844,2.077-2.013,10.353-1.216,10.639,1.728-.219,1.715-3.358,2.433-6.14,2.116" transform="translate(-119.47 376.159)" fill="#3dafe9"></path><path id="Path_10882" data-name="Path 10882" d="M274.29,125.73c-3.32-.3-5.528-1.964-4.3-3.231,1.705-1.769,9.155-1.22,9.629,1.306-.076,1.655-3.162,2.123-5.328,1.925" transform="translate(-120.161 404.111)" fill="#3dafe9"></path><path id="Path_10883" data-name="Path 10883" d="M277.113,109.3c-2.986-.209-5.092-1.609-4.1-2.717,1.391-1.56,8.111-1.21,8.737.982.06,1.423-2.67,1.87-4.634,1.734" transform="translate(-121.55 430.791)" fill="#3dafe9"></path><path id="Path_10884" data-name="Path 10884" d="M281.522,93.7c-2.7-.134-4.72-1.3-3.924-2.285,1.114-1.377,7.206-1.18,7.959.713.154,1.1-1.973,1.673-4.035,1.572" transform="translate(-123.627 456.155)" fill="#3dafe9"></path><path id="Path_10885" data-name="Path 10885" d="M287.653,78.922c-2.316-.069-4.143-.992-3.545-1.8.846-1.138,6.078-1.074,6.878.462.248,1-1.8,1.379-3.334,1.341" transform="translate(-126.555 480.101)" fill="#3dafe9"></path><path id="Path_10886" data-name="Path 10886" d="M295.343,65.013c-2.12-.022-3.78-.821-3.111-1.5.858-.874,5.09-.783,5.854.362.3.812-1.422,1.157-2.743,1.14" transform="translate(-130.159 502.672)" fill="#3dafe9"></path><path id="Path_10887" data-name="Path 10887" d="M304.682,52.012c-1.737.012-3.128-.572-2.65-1.113.6-.7,4.068-.7,4.807.2.277.555-.9.9-2.158.916" transform="translate(-134.551 523.764)" fill="#3dafe9"></path><path id="Path_10888" data-name="Path 10888" d="M315.55,39.921c-1.377.038-2.56-.39-2.219-.8.431-.522,3.2-.567,3.852.074.31.469-.767.709-1.633.728" transform="translate(-139.602 543.392)" fill="#3dafe9"></path><path id="Path_10889" data-name="Path 10889" d="M327.97,28.793c-1.024.037-1.954-.254-1.748-.551.267-.382,2.344-.45,2.911.01.279.325-.528.513-1.163.541" transform="translate(-145.36 561.486)" fill="#3dafe9"></path><path id="Path_10890" data-name="Path 10890" d="M341.94,18.621c-.665.04-1.266-.111-1.156-.289a2.356,2.356,0,0,1,1.857-.032c.182.174-.259.277-.519.307-.056,0-.124.014-.182.015" transform="translate(-151.857 577.986)" fill="#3dafe9"></path><path id="Path_10891" data-name="Path 10891" d="M356.885,9.387l.276-.149.616.063-.271.149Z" transform="translate(-159.037 592.901)" fill="#3dafe9"></path><path id="Path_10892" data-name="Path 10892" d="M1009.612,859.753l.524.224-.279.669-.533-.255Z" transform="translate(-449.781 -807.493)" fill="#3dafe9"></path><path id="Path_10893" data-name="Path 10893" d="M971.085,843.4c-.2-.93.745-1.773,1.444-1.284a1.2,1.2,0,0,1-.237,1.9.823.823,0,0,1-1.207-.613" transform="translate(-432.729 -779.482)" fill="#3dafe9"></path><path id="Path_10894" data-name="Path 10894" d="M933.209,825.746c-.349-1.347,1.01-2.621,2.048-1.917a1.711,1.711,0,0,1-.266,2.767,1.213,1.213,0,0,1-1.783-.85" transform="translate(-415.838 -750.276)" fill="#3dafe9"></path><path id="Path_10895" data-name="Path 10895" d="M895.395,807.367c-.549-1.82,1.283-3.6,2.754-2.677a2.283,2.283,0,0,1-.215,3.735,1.7,1.7,0,0,1-2.539-1.058" transform="translate(-398.967 -719.804)" fill="#3dafe9"></path><path id="Path_10896" data-name="Path 10896" d="M857.929,788.3c-.738-2.146,1.293-4.405,3.2-3.551,1.647.733,1.973,3.488.073,4.8a2.2,2.2,0,0,1-3.271-1.25" transform="translate(-382.247 -688.179)" fill="#3dafe9"></path><path id="Path_10897" data-name="Path 10897" d="M820.893,768.6c-.977-2.529,1.341-5.21,3.706-4.286,2.013.791,2.513,4.008.261,5.633a2.659,2.659,0,0,1-3.967-1.348" transform="translate(-365.709 -655.49)" fill="#3dafe9"></path><path id="Path_10898" data-name="Path 10898" d="M784.238,748.316c-1.259-2.871,1.419-6.123,4.216-5.111a3.721,3.721,0,0,1,.541,6.52,3.16,3.16,0,0,1-4.757-1.409" transform="translate(-349.335 -621.772)" fill="#3dafe9"></path><path id="Path_10899" data-name="Path 10899" d="M748.026,727.421c-1.562-3.207,1.432-6.986,4.713-5.951,2.833.9,3.812,5.094.874,7.4a3.756,3.756,0,0,1-5.587-1.444" transform="translate(-333.15 -587.013)" fill="#3dafe9"></path><path id="Path_10900" data-name="Path 10900" d="M712.556,705.988c-1.9-3.5,1.3-7.745,5.039-6.677a4.607,4.607,0,0,1,1.263,8.123,4.268,4.268,0,0,1-6.3-1.445" transform="translate(-317.282 -551.403)" fill="#3dafe9"></path><path id="Path_10901" data-name="Path 10901" d="M677.551,684.053a5.009,5.009,0,1,1,7.185,1.383,4.9,4.9,0,0,1-7.185-1.383" transform="translate(-301.609 -514.872)" fill="#3dafe9"></path><path id="Path_10902" data-name="Path 10902" d="M643.433,661.648a5.438,5.438,0,1,1,8.334.938c-.115.114-.287.249-.413.362a5.456,5.456,0,0,1-7.921-1.3" transform="translate(-286.329 -477.602)" fill="#3dafe9"></path><path id="Path_10903" data-name="Path 10903" d="M610.027,638.781a5.78,5.78,0,0,1,5.29-9.12,5.887,5.887,0,0,1,3.84,9.878c-.126.131-.3.282-.433.4a6.044,6.044,0,0,1-8.7-1.16" transform="translate(-271.354 -439.546)" fill="#3dafe9"></path><path id="Path_10904" data-name="Path 10904" d="M577.378,615.549a6.143,6.143,0,0,1,5.41-9.95c5.411.394,8.171,6.679,4.619,10.512-.129.14-.317.307-.456.444a6.738,6.738,0,0,1-9.572-1.006" transform="translate(-256.687 -400.833)" fill="#3dafe9"></path><path id="Path_10905" data-name="Path 10905" d="M545.723,591.914a6.44,6.44,0,0,1,5.423-10.675c5.828.276,9.054,6.852,5.387,10.993-.135.152-.329.329-.473.472a7.351,7.351,0,0,1-10.338-.79" transform="translate(-242.462 -361.475)" fill="#3dafe9"></path><path id="Path_10906" data-name="Path 10906" d="M514.988,567.975c-4.072-4.4-1.347-11.033,4.7-11.456,6.613-.458,10.966,6.731,6.95,11.481-.141.168-.345.366-.493.525a8.034,8.034,0,0,1-11.154-.55" transform="translate(-228.63 -321.559)" fill="#3dafe9"></path><path id="Path_10907" data-name="Path 10907" d="M485.243,543.738c-4.572-4.557-1.915-11.657,4.582-12.258,7.067-.651,12.045,6.828,7.952,11.943-.144.181-.352.393-.5.565a8.765,8.765,0,0,1-12.031-.249" transform="translate(-215.217 -281.117)" fill="#3dafe9"></path><path id="Path_10908" data-name="Path 10908" d="M456.833,519.213c-4.946-4.542-2.4-12.139,4.319-12.9,7.45-.845,13.038,6.829,8.929,12.258-.143.192-.358.42-.51.6-4.332,4.116-10.058,2.505-12.737.039" transform="translate(-202.426 -240.275)" fill="#3dafe9"></path><path id="Path_10909" data-name="Path 10909" d="M429.372,494.463c-5.2-4.419-3.415-11.99,3.19-13.5,7.633-1.743,14.713,5.64,11.309,11.787a10.406,10.406,0,0,1-.942,1.318c-4.442,4.439-10.6,2.9-13.557.39" transform="translate(-189.99 -198.978)" fill="#3dafe9"></path><path id="Path_10910" data-name="Path 10910" d="M403.288,469.518c-5.7-4.477-4.142-12.384,2.772-14.1,7.936-1.971,15.708,5.493,12.415,11.928a10.426,10.426,0,0,1-.928,1.378c-4.493,4.745-11.046,3.317-14.258.795" transform="translate(-178.164 -157.399)" fill="#3dafe9"></path><path id="Path_10911" data-name="Path 10911" d="M378.54,444.4c-6.179-4.478-4.919-12.69,2.245-14.64,8.224-2.246,16.719,5.284,13.567,12.019a11.135,11.135,0,0,1-.911,1.452c-4.482,5-11.41,3.7-14.9,1.169" transform="translate(-166.92 -115.565)" fill="#3dafe9"></path><path id="Path_10912" data-name="Path 10912" d="M355.159,419.149c-6.679-4.469-5.735-12.984,1.684-15.188,8.83-2.624,18.341,5.9,14.335,12.84-.139.239-.348.526-.5.75-4.459,5.283-11.764,4.121-15.522,1.6" transform="translate(-156.267 -73.495)" fill="#3dafe9"></path><path id="Path_10913" data-name="Path 10913" d="M333.643,393.764c-6.9-4.266-6.336-13.022.993-15.366,8.879-2.837,19,5.522,15.26,12.595-.129.239-.328.533-.471.766-4.3,5.443-11.82,4.446-15.783,2" transform="translate(-146.516 -31.388)" fill="#3dafe9"></path><path id="Path_10914" data-name="Path 10914" d="M314.389,368.4c-6.622-3.77-7.037-11.56-.769-14.382,8-3.6,19.161,3.525,16.811,10.732a8.982,8.982,0,0,1-.72,1.5c-3.9,5.276-11.31,4.434-15.323,2.15" transform="translate(-137.77 10.152)" fill="#3dafe9"></path><path id="Path_10915" data-name="Path 10915" d="M297.42,343.5c-6.512-3.411-7.35-10.665-1.552-13.375,7.776-3.632,19.264,3.71,16.389,10.482-.089.213-.246.483-.353.7-3.41,4.965-10.525,4.273-14.485,2.2" transform="translate(-130.116 50.703)" fill="#3dafe9"></path><path id="Path_10916" data-name="Path 10916" d="M282.4,319.157c-6.332-3.064-7.534-9.75-2.22-12.333,7.129-3.474,18.4,3.145,16.086,9.437-.078.2-.207.455-.3.649-2.95,4.655-9.713,4.112-13.571,2.248" transform="translate(-123.361 90.292)" fill="#3dafe9"></path><path id="Path_10917" data-name="Path 10917" d="M269.3,295.359c-6.119-2.73-7.642-8.818-2.808-11.239,6.449-3.222,17.408,2.68,15.635,8.429-.059.183-.169.42-.239.594-2.491,4.3-8.863,3.881-12.588,2.216" transform="translate(-117.481 128.905)" fill="#3dafe9"></path><path id="Path_10918" data-name="Path 10918" d="M258,272.264c-5.874-2.418-7.665-7.986-3.3-10.267,5.864-3.071,16.506,2.206,15.178,7.525-.042.169-.131.387-.186.549-1.863,3.566-7.521,3.913-11.692,2.194" transform="translate(-112.42 166.461)" fill="#3dafe9"></path><path id="Path_10919" data-name="Path 10919" d="M248.524,249.76c-5.636-2.135-7.65-7.184-3.715-9.317,5.111-2.773,16.053,1.6,14.521,7.169-1.7,3.662-7.337,3.462-10.806,2.148" transform="translate(-108.182 202.986)" fill="#3dafe9"></path><path id="Path_10920" data-name="Path 10920" d="M240.953,227.992c-5.31-1.849-7.48-6.384-4-8.362,4.546-2.584,14.918,1.233,13.842,6.3-1.2,2.977-6.044,3.386-9.843,2.06" transform="translate(-104.839 238.324)" fill="#3dafe9"></path><path id="Path_10921" data-name="Path 10921" d="M235.1,206.893c-5.031-1.608-7.337-5.684-4.249-7.509,4.046-2.4,13.909.925,13.24,5.536-1.024,3.019-5.874,2.971-8.991,1.973" transform="translate(-102.251 272.585)" fill="#3dafe9"></path><path id="Path_10922" data-name="Path 10922" d="M231.1,186.544c-4.684-1.378-7.052-4.979-4.367-6.646,3.528-2.194,12.751.652,12.452,4.771-.733,2.717-5.171,2.729-8.085,1.876" transform="translate(-100.537 305.602)" fill="#3dafe9"></path><path id="Path_10923" data-name="Path 10923" d="M228.809,166.9c-4.382-1.177-6.8-4.366-4.463-5.882,2.985-1.939,11.729.56,11.748,4.126-.436,2.179-4.119,2.607-7.285,1.756" transform="translate(-99.57 337.465)" fill="#3dafe9"></path><path id="Path_10924" data-name="Path 10924" d="M228.319,148.1c-4.052-1-6.463-3.762-4.452-5.106,2.634-1.762,10.632.294,10.919,3.5-.242,1.91-3.543,2.323-6.467,1.6" transform="translate(-99.439 367.975)" fill="#3dafe9"></path><path id="Path_10925" data-name="Path 10925" d="M229.586,130.113c-3.673-.816-6.033-3.18-4.347-4.366,2.217-1.551,9.492.145,9.991,2.92-.073,1.831-3.414,1.944-5.644,1.446" transform="translate(-100.125 397.134)" fill="#3dafe9"></path><path id="Path_10926" data-name="Path 10926" d="M232.518,112.9c-3.338-.678-5.63-2.708-4.232-3.749,1.805-1.338,8.526.1,9.167,2.446.075,1.435-2.5,1.8-4.935,1.3" transform="translate(-101.544 425.057)" fill="#3dafe9"></path><path id="Path_10927" data-name="Path 10927" d="M237.211,96.6c-3-.548-5.115-2.205-3.983-3.116,1.45-1.16,7.416,0,8.176,1.983.2,1.335-2.382,1.465-4.193,1.133" transform="translate(-103.795 451.499)" fill="#3dafe9"></path><path id="Path_10928" data-name="Path 10928" d="M243.549,81.172c-2.662-.438-4.653-1.819-3.739-2.6,1.161-.983,6.459-.063,7.291,1.6.3,1.125-1.943,1.261-3.552,1" transform="translate(-106.765 476.552)" fill="#3dafe9"></path><path id="Path_10929" data-name="Path 10929" d="M251.625,66.645c-2.25-.327-4.046-1.424-3.365-2.062.87-.813,5.388-.108,6.253,1.235.317.817-1.25,1.068-2.888.827" transform="translate(-110.566 500.106)" fill="#3dafe9"></path><path id="Path_10930" data-name="Path 10930" d="M261.309,53.065c-1.907-.249-3.506-1.111-3-1.615.65-.655,4.49-.123,5.34.943.377.714-1.175.824-2.339.672" transform="translate(-115.067 522.157)" fill="#3dafe9"></path><path id="Path_10931" data-name="Path 10931" d="M272.647,40.45c-1.552-.179-2.907-.815-2.547-1.2.476-.5,3.52-.134,4.31.675.379.543-.8.633-1.762.523" transform="translate(-120.338 542.627)" fill="#3dafe9"></path><path id="Path_10932" data-name="Path 10932" d="M285.61,28.806c-1.2-.125-2.315-.574-2.086-.858.3-.359,2.739-.1,3.422.475.32.356-.513.407-.685.409a5.814,5.814,0,0,1-.652-.026" transform="translate(-126.333 561.545)" fill="#3dafe9"></path><path id="Path_10933" data-name="Path 10933" d="M300.234,18.18c-.885-.081-1.685-.378-1.472-.562a3.673,3.673,0,0,1,2.337.314c.046.04.192.174-.167.238a2.74,2.74,0,0,1-.7.01" transform="translate(-133.12 578.801)" fill="#3dafe9"></path><path id="Path_10934" data-name="Path 10934" d="M316.412,8.588c-.477-.032-1.052-.2-.932-.3a2.489,2.489,0,0,1,1.416.158c.034.023.125.087-.027.132a1.265,1.265,0,0,1-.457.014" transform="translate(-140.579 594.399)" fill="#3dafe9"></path><path id="Path_10935" data-name="Path 10935" d="M333.989.037,334.067,0l.286.057-.121.025Z" transform="translate(-148.834 608.236)" fill="#3dafe9"></path><path id="Path_10936" data-name="Path 10936" d="M996.882,897.565l.566.274-.273.7-.571-.272Z" transform="translate(-444.113 -869.807)" fill="#3dafe9"></path><path id="Path_10937" data-name="Path 10937" d="M956.972,880.624c-.2-.865.629-1.8,1.376-1.251a1.169,1.169,0,0,1-.189,1.863.833.833,0,0,1-1.187-.613" transform="translate(-426.439 -840.739)" fill="#3dafe9"></path><path id="Path_10938" data-name="Path 10938" d="M917.594,862.26c-.36-1.3.846-2.565,1.9-2a1.73,1.73,0,0,1-.1,2.874,1.246,1.246,0,0,1-1.8-.876" transform="translate(-408.875 -810.373)" fill="#3dafe9"></path><path id="Path_10939" data-name="Path 10939" d="M878.282,843.187c-.551-1.776,1.09-3.567,2.584-2.814a2.3,2.3,0,0,1-.013,3.887,1.72,1.72,0,0,1-2.571-1.073" transform="translate(-391.337 -778.731)" fill="#3dafe9"></path><path id="Path_10940" data-name="Path 10940" d="M839.463,823.368c-.777-2.209,1.184-4.432,3.128-3.546a2.8,2.8,0,0,1,.095,4.8,2.157,2.157,0,0,1-3.223-1.258" transform="translate(-374.009 -745.898)" fill="#3dafe9"></path><path id="Path_10941" data-name="Path 10941" d="M800.971,802.879c-1-2.593,1.282-5.281,3.645-4.3a3.293,3.293,0,0,1,.283,5.689,2.642,2.642,0,0,1-3.928-1.393" transform="translate(-356.826 -711.908)" fill="#3dafe9"></path><path id="Path_10942" data-name="Path 10942" d="M762.871,781.754c-1.269-2.976,1.394-6.257,4.2-5.163a3.867,3.867,0,0,1,.557,6.676,3.194,3.194,0,0,1-4.753-1.513" transform="translate(-339.811 -676.821)" fill="#3dafe9"></path><path id="Path_10943" data-name="Path 10943" d="M725.252,759.991c-1.571-3.354,1.428-7.188,4.72-6.045a4.394,4.394,0,0,1,.874,7.632,3.757,3.757,0,0,1-5.594-1.587" transform="translate(-323 -640.654)" fill="#3dafe9"></path><path id="Path_10944" data-name="Path 10944" d="M688.327,737.7c-1.9-3.693,1.349-8.043,5.109-6.843a4.868,4.868,0,0,1,1.237,8.452,4.279,4.279,0,0,1-6.346-1.609" transform="translate(-306.488 -603.613)" fill="#3dafe9"></path><path id="Path_10945" data-name="Path 10945" d="M652.14,714.883c-2.233-3.974,1.216-8.817,5.425-7.623a5.3,5.3,0,0,1,1.674,9.214,4.8,4.8,0,0,1-7.1-1.59" transform="translate(-290.298 -565.697)" fill="#3dafe9"></path><path id="Path_10946" data-name="Path 10946" d="M616.514,691.563c-2.5-4.1.709-9.356,5.271-8.651a5.845,5.845,0,0,1,3.115,9.827c-.119.116-.289.256-.415.369a5.407,5.407,0,0,1-7.971-1.545" transform="translate(-274.346 -526.867)" fill="#3dafe9"></path><path id="Path_10947" data-name="Path 10947" d="M581.859,667.771c-2.857-4.342.433-10.062,5.417-9.418A6.3,6.3,0,0,1,591,668.839c-.126.13-.306.289-.439.41a5.945,5.945,0,0,1-8.708-1.478" transform="translate(-258.819 -487.32)" fill="#3dafe9"></path><path id="Path_10948" data-name="Path 10948" d="M547.909,643.629c-3.306-4.66.094-10.936,5.6-10.333a6.775,6.775,0,0,1,3.977,11.643,6.563,6.563,0,0,1-9.578-1.31" transform="translate(-243.583 -447.061)" fill="#3dafe9"></path><path id="Path_10949" data-name="Path 10949" d="M515.09,619.04c-3.715-4.845-.3-11.587,5.626-11.1,5.748.474,9.341,7.523,4.678,12.272a7.115,7.115,0,0,1-10.3-1.176" transform="translate(-228.849 -406.16)" fill="#3dafe9"></path><path id="Path_10950" data-name="Path 10950" d="M483.213,594.112c-4.162-5.048-.752-12.264,5.609-11.882,6.154.365,10.251,7.74,5.444,12.866a7.686,7.686,0,0,1-11.054-.984" transform="translate(-214.519 -364.656)" fill="#3dafe9"></path><path id="Path_10951" data-name="Path 10951" d="M452.5,568.859c-4.364-4.913-1.612-12.217,4.742-12.59,6.964-.41,11.683,7.593,7.538,12.784-.142.18-.35.4-.5.57-4.251,3.841-9.447,1.864-11.776-.764" transform="translate(-200.701 -322.639)" fill="#3dafe9"></path><path id="Path_10952" data-name="Path 10952" d="M422.888,543.339c-4.819-5.078-2.178-12.8,4.547-13.327,7.336-.575,12.626,7.706,8.455,13.226-.143.192-.361.427-.513.612-4.361,4.124-9.927,2.184-12.489-.511" transform="translate(-187.352 -280.136)" fill="#3dafe9"></path><path id="Path_10953" data-name="Path 10953" d="M394.607,517.574c-5.249-5.17-2.8-13.25,4.227-13.94,7.641-.756,13.5,7.718,9.356,13.523-.146.205-.36.453-.516.642-4.394,4.389-10.286,2.508-13.067-.224" transform="translate(-174.589 -237.273)" fill="#3dafe9"></path><path id="Path_10954" data-name="Path 10954" d="M367.7,491.6c-5.587-5.14-3.32-13.691,3.851-14.522,7.905-.921,14.348,7.691,10.292,13.75-.14.209-.354.473-.506.675-4.423,4.652-10.634,2.858-13.637.1" transform="translate(-162.463 -194.068)" fill="#3dafe9"></path><path id="Path_10955" data-name="Path 10955" d="M342.135,465.451c-6.009-5.166-4.014-14.024,3.39-15.051,8.175-1.14,15.215,7.594,11.249,13.948-.142.222-.352.5-.5.71-4.378,4.882-10.9,3.167-14.138.394" transform="translate(-150.889 -150.598)" fill="#3dafe9"></path><path id="Path_10956" data-name="Path 10956" d="M318.151,439.116c-6.048-4.858-4.961-13.367,1.945-15.165,8.3-2.167,16.908,6.949,12.981,13.74-.131.23-.335.513-.482.729-4.272,5.051-11.019,3.451-14.444.7" transform="translate(-140.016 -106.933)" fill="#3dafe9"></path><path id="Path_10957" data-name="Path 10957" d="M295.862,412.689c-6.309-4.751-5.583-13.286,1.294-15.224,8.234-2.323,17.286,6.605,13.645,13.448-.121.23-.314.515-.45.739-4.085,5.161-10.932,3.711-14.49,1.036" transform="translate(-129.916 -63.205)" fill="#3dafe9"></path><path id="Path_10958" data-name="Path 10958" d="M275.859,386.3c-6.35-4.463-6.086-12.662.463-14.62,7.9-2.361,17.18,6.118,13.988,12.774-.109.219-.284.5-.4.71-3.7,4.993-10.444,3.671-14.051,1.136" transform="translate(-120.876 -19.981)" fill="#3dafe9"></path><path id="Path_10959" data-name="Path 10959" d="M257.909,360.474c-6.364-4.184-6.563-11.98-.355-13.908,7.486-2.32,16.89,5.648,14.173,12-.094.216-.243.475-.347.681-3.289,4.784-9.857,3.592-13.471,1.222" transform="translate(-112.75 22.252)" fill="#3dafe9"></path><path id="Path_10960" data-name="Path 10960" d="M242.131,335.183c-6.247-3.853-6.852-11.143-1.076-13,6.7-2.161,16.863,5.012,13.806,11.732-2.862,4.523-9.17,3.466-12.73,1.273" transform="translate(-105.641 63.466)" fill="#3dafe9"></path><path id="Path_10961" data-name="Path 10961" d="M228.34,310.521c-6.081-3.513-7.052-10.27-1.734-12.051,6.182-2.067,16.135,4.491,13.639,10.756-2.44,4.22-8.432,3.3-11.905,1.295" transform="translate(-99.436 103.629)" fill="#3dafe9"></path><path id="Path_10962" data-name="Path 10962" d="M216.468,286.516c-5.6-3.037-7.149-8.817-2.915-10.857,5.437-2.622,16.087,3.435,14,9.586-2.046,3.913-7.717,3.092-11.087,1.27" transform="translate(-94.088 142.688)" fill="#3dafe9"></path><path id="Path_10963" data-name="Path 10963" d="M206.592,263.192c-5.35-2.725-7.124-8-3.324-9.9,4.881-2.44,15.1,3,13.533,8.636-1.671,3.606-6.977,2.913-10.209,1.267" transform="translate(-89.677 180.616)" fill="#3dafe9"></path><path id="Path_10964" data-name="Path 10964" d="M198.533,240.579c-5.135-2.464-7.1-7.3-3.69-9.069,4.393-2.281,14.231,2.639,13.115,7.835-1.335,3.323-6.316,2.726-9.425,1.233" transform="translate(-86.068 217.42)" fill="#3dafe9"></path><path id="Path_10965" data-name="Path 10965" d="M192.5,218.665c-4.81-2.177-6.9-6.49-3.909-8.1,3.842-2.076,13.085,2.27,12.4,6.932-1.008,2.989-5.568,2.482-8.487,1.167" transform="translate(-83.426 252.989)" fill="#3dafe9"></path><path id="Path_10966" data-name="Path 10966" d="M188.254,197.537c-4.524-1.921-6.7-5.777-4.09-7.237,3.366-1.875,12.081,1.96,11.754,6.146-.719,2.688-4.913,2.254-7.664,1.091" transform="translate(-81.567 287.306)" fill="#3dafe9"></path><path id="Path_10967" data-name="Path 10967" d="M185.844,177.185c-4.222-1.69-6.457-5.113-4.2-6.428,2.923-1.7,11.077,1.674,11.072,5.412-.47,2.405-4.3,2.039-6.874,1.016" transform="translate(-80.547 320.373)" fill="#3dafe9"></path><path id="Path_10968" data-name="Path 10968" d="M185.26,157.653c-3.894-1.469-6.15-4.485-4.229-5.664,2.5-1.54,10.076,1.412,10.34,4.744-.247,2.129-3.722,1.817-6.111.92" transform="translate(-80.361 352.106)" fill="#3dafe9"></path><path id="Path_10969" data-name="Path 10969" d="M186.511,138.944c-3.567-1.26-5.785-3.868-4.162-4.883,2.087-1.316,8.984,1.211,9.465,4.055-.056,1.853-3.135,1.6-5.3.828" transform="translate(-81.018 382.456)" fill="#3dafe9"></path><path id="Path_10970" data-name="Path 10970" d="M189.527,121.138c-3.221-1.082-5.382-3.322-4.054-4.208,1.733-1.166,8.014,1.006,8.672,3.494.09,1.586-2.645,1.373-4.618.714" transform="translate(-82.474 411.389)" fill="#3dafe9"></path><path id="Path_10971" data-name="Path 10971" d="M194.381,104.182c-2.851-.9-4.881-2.769-3.816-3.511,1.393-.97,6.963.845,7.737,2.923.208,1.314-2.217,1.127-3.921.588" transform="translate(-84.793 438.894)" fill="#3dafe9"></path><path id="Path_10972" data-name="Path 10972" d="M200.935,88.175c-2.515-.754-4.424-2.324-3.586-2.941,1.1-.818,6.028.693,6.885,2.434.3,1.107-1.787.956-3.3.507" transform="translate(-87.854 464.915)" fill="#3dafe9"></path><path id="Path_10973" data-name="Path 10973" d="M209.235,73.091c-2.176-.614-3.93-1.895-3.29-2.4.838-.666,5.121.569,6.012,1.994.365.906-1.409.781-2.721.406" transform="translate(-91.715 489.415)" fill="#3dafe9"></path><path id="Path_10974" data-name="Path 10974" d="M219.316,58.98c-1.778-.48-3.308-1.464-2.87-1.862.57-.515,4.157.473,5,1.557.341.63-.834.651-2.127.3" transform="translate(-96.42 512.323)" fill="#3dafe9"></path><path id="Path_10975" data-name="Path 10975" d="M231.045,45.878c-1.448-.36-2.761-1.115-2.457-1.41.392-.379,3.312.375,4.092,1.195.343.478-.567.4-.857.371a6.181,6.181,0,0,1-.778-.156" transform="translate(-101.845 533.61)" fill="#3dafe9"></path><path id="Path_10976" data-name="Path 10976" d="M244.5,33.8c-1.1-.265-2.127-.788-1.937-.985.225-.232,2.358.225,3.081.845.056.067.231.262-.239.267a3.854,3.854,0,0,1-.905-.127" transform="translate(-108.083 553.234)" fill="#3dafe9"></path><path id="Path_10977" data-name="Path 10977" d="M259.674,22.778c-.681-.159-1.451-.474-1.344-.6a3.7,3.7,0,0,1,2.036.53c.044.037.141.123-.016.15a2.21,2.21,0,0,1-.676-.076" transform="translate(-115.114 571.163)" fill="#3dafe9"></path><path id="Path_10978" data-name="Path 10978" d="M275.747,12.591l.329-.032.758.247-.284.051Z" transform="translate(-122.88 587.351)" fill="#3dafe9"></path><path id="Path_10979" data-name="Path 10979" d="M294.721,3.942l.064-.006.162.052L294.916,4Z" transform="translate(-131.335 601.776)" fill="#3dafe9"></path><path id="Path_10980" data-name="Path 10980" d="M982.9,937.972l.092.047-.043.114-.091-.047Z" transform="translate(-437.986 -935.488)" fill="#3dafe9"></path><path id="Path_10981" data-name="Path 10981" d="M942.225,919.107l.7.313-.294.853-.7-.313Z" transform="translate(-419.749 -905.446)" fill="#3dafe9"></path><path id="Path_10982" data-name="Path 10982" d="M901.14,900.861c-.291-1,.582-1.93,1.4-1.476a1.293,1.293,0,0,1-.051,2.151.954.954,0,0,1-1.345-.675" transform="translate(-401.546 -874.005)" fill="#3dafe9"></path><path id="Path_10983" data-name="Path 10983" d="M860.6,881.067c-.451-1.43.825-2.84,2.01-2.213a1.852,1.852,0,0,1,.042,3.11,1.393,1.393,0,0,1-2.052-.9" transform="translate(-383.467 -841.244)" fill="#3dafe9"></path><path id="Path_10984" data-name="Path 10984" d="M820.323,860.522c-.661-1.911,1.03-3.83,2.7-3.065a2.5,2.5,0,0,1,.119,4.23,1.922,1.922,0,0,1-2.817-1.166" transform="translate(-365.492 -807.215)" fill="#3dafe9"></path><path id="Path_10985" data-name="Path 10985" d="M780.623,839.317c-.864-2.263,1.106-4.6,3.153-3.741a2.968,2.968,0,0,1,.279,5.046,2.332,2.332,0,0,1-3.432-1.3" transform="translate(-347.773 -772.094)" fill="#3dafe9"></path><path id="Path_10986" data-name="Path 10986" d="M741.285,817.447c-1.094-2.64,1.245-5.526,3.685-4.542a3.519,3.519,0,0,1,.509,5.959,2.823,2.823,0,0,1-4.194-1.417" transform="translate(-330.213 -735.803)" fill="#3dafe9"></path><path id="Path_10987" data-name="Path 10987" d="M702.419,794.962c-1.4-3.07,1.28-6.53,4.209-5.442a4.072,4.072,0,0,1,.776,6.985,3.348,3.348,0,0,1-4.984-1.542" transform="translate(-312.846 -698.459)" fill="#3dafe9"></path><path id="Path_10988" data-name="Path 10988" d="M664.362,771.882c-1.656-3.372,1.256-7.292,4.578-6.166a4.5,4.5,0,0,1,1.049,7.741,3.77,3.77,0,0,1-5.627-1.575" transform="translate(-295.844 -660.164)" fill="#3dafe9"></path><path id="Path_10989" data-name="Path 10989" d="M626.924,748.208c-1.981-3.726,1.153-8.155,4.93-6.969a5.005,5.005,0,0,1,1.448,8.576,4.243,4.243,0,0,1-6.378-1.607" transform="translate(-279.101 -620.875)" fill="#3dafe9"></path><path id="Path_10990" data-name="Path 10990" d="M590.2,724.087c-2.191-3.857.728-8.67,4.806-7.923a5.49,5.49,0,0,1,2.327,9.526,4.778,4.778,0,0,1-7.133-1.6" transform="translate(-262.676 -580.769)" fill="#3dafe9"></path><path id="Path_10991" data-name="Path 10991" d="M554.433,699.452c-2.489-4.085.536-9.332,4.975-8.644a5.9,5.9,0,0,1,2.805,10.2,5.227,5.227,0,0,1-7.78-1.552" transform="translate(-246.67 -539.862)" fill="#3dafe9"></path><path id="Path_10992" data-name="Path 10992" d="M519.485,674.357c-2.862-4.377.248-10.124,5.122-9.466a6.41,6.41,0,0,1,3.41,10.962c-3.635,2.854-7.162.6-8.532-1.5" transform="translate(-231.008 -498.184)" fill="#3dafe9"></path><path id="Path_10993" data-name="Path 10993" d="M485.607,648.9c-3.193-4.572-.043-10.758,5.183-10.188,5.03.556,8.18,7.356,4,11.607-3.591,2.945-7.533.947-9.187-1.42" transform="translate(-215.827 -455.886)" fill="#3dafe9"></path><path id="Path_10994" data-name="Path 10994" d="M452.779,623.051c-3.551-4.769-.414-11.379,5.165-10.878,5.359.477,8.925,7.587,4.64,12.165-3.721,3.2-7.971,1.171-9.8-1.287" transform="translate(-201.099 -412.945)" fill="#3dafe9"></path><path id="Path_10995" data-name="Path 10995" d="M421.174,596.932c-3.907-4.934-.841-11.909,5.053-11.482,5.74.416,9.677,7.637,5.27,12.587-3.807,3.421-8.326,1.415-10.322-1.1" transform="translate(-186.908 -369.565)" fill="#3dafe9"></path><path id="Path_10996" data-name="Path 10996" d="M390.772,570.465c-4.25-5.053-1.289-12.362,4.867-12.04,6,.322,10.35,7.735,5.933,12.953-3.85,3.644-8.633,1.656-10.8-.913" transform="translate(-173.249 -325.635)" fill="#3dafe9"></path><path id="Path_10997" data-name="Path 10997" d="M361.639,543.754c-4.364-4.884-2.088-12.176,3.926-12.581,6.627-.444,11.5,7.52,7.785,12.726-.127.179-.322.406-.457.575-3.871,3.859-8.909,1.9-11.253-.719" transform="translate(-160.145 -281.304)" fill="#3dafe9"></path><path id="Path_10998" data-name="Path 10998" d="M333.94,516.792c-4.675-4.931-2.6-12.448,3.577-12.974,6.774-.573,12.095,7.5,8.492,12.885-.124.19-.309.413-.446.594-3.847,4.047-9.113,2.144-11.624-.505" transform="translate(-147.675 -236.625)" fill="#3dafe9"></path><path id="Path_10999" data-name="Path 10999" d="M307.75,489.683c-4.947-4.926-3.126-12.611,3.145-13.253,6.6-.678,12.984,7.431,8.666,13.534-3.762,4.18-9.168,2.352-11.811-.281" transform="translate(-135.877 -191.736)" fill="#3dafe9"></path><path id="Path_11000" data-name="Path 11000" d="M283.128,462.389c-5.178-4.869-3.647-12.633,2.641-13.4,6.622-.8,13.364,7.242,9.253,13.465-3.614,4.264-9.129,2.525-11.894-.069" transform="translate(-124.779 -146.612)" fill="#3dafe9"></path><path id="Path_11001" data-name="Path 11001" d="M260.129,434.99c-5.357-4.758-4.141-12.534,2.1-13.414,6.57-.936,13.62,6.957,9.771,13.243-3.44,4.337-9.015,2.714-11.874.171" transform="translate(-114.411 -101.369)" fill="#3dafe9"></path><path id="Path_11002" data-name="Path 11002" d="M239.256,407.707c-5.429-4.552-4.63-12.084,1.385-12.99,6.346-.963,13.575,6.619,10.139,12.742-3.126,4.215-8.62,2.68-11.524.248" transform="translate(-104.998 -56.605)" fill="#3dafe9"></path><path id="Path_11003" data-name="Path 11003" d="M220.517,380.984c-5.115-4.049-5.126-10.986-.012-12.371,6.005-1.625,14.327,5.873,11.165,12.083-2.807,4.071-8.208,2.62-11.153.288" transform="translate(-96.556 -12.821)" fill="#3dafe9"></path><path id="Path_11004" data-name="Path 11004" d="M203.911,354.868c-5.08-3.816-5.434-10.4-.63-11.747,5.637-1.582,13.972,5.477,11.288,11.38-2.477,3.91-7.723,2.565-10.658.367" transform="translate(-89.072 29.912)" fill="#3dafe9"></path><path id="Path_11005" data-name="Path 11005" d="M189.337,329.426C184.3,325.834,183.6,319.6,188.1,318.3c5.279-1.519,13.585,5.123,11.342,10.724-2.144,3.71-7.2,2.466-10.1.4" transform="translate(-82.488 71.517)" fill="#3dafe9"></path><path id="Path_11006" data-name="Path 11006" d="M176.931,304.628c-4.9-3.307-5.89-9.083-1.772-10.3,4.839-1.432,12.95,4.7,11.165,9.907-1.792,3.44-6.57,2.3-9.393.4" transform="translate(-76.909 111.96)" fill="#3dafe9"></path><path id="Path_11007" data-name="Path 11007" d="M166.513,280.516c-4.708-3.034-5.944-8.367-2.2-9.514,4.409-1.352,12.288,4.27,10.936,9.1-1.486,3.2-6,2.171-8.731.416" transform="translate(-72.242 151.283)" fill="#3dafe9"></path><path id="Path_11008" data-name="Path 11008" d="M158.045,257.157c-4.529-2.775-5.987-7.674-2.606-8.739,4-1.262,11.6,3.891,10.635,8.335-1.179,2.95-5.4,2.011-8.029.4" transform="translate(-68.441 189.364)" fill="#3dafe9"></path><path id="Path_11009" data-name="Path 11009" d="M151.593,234.537c-4.278-2.5-5.9-6.947-2.9-7.929,3.567-1.167,10.817,3.49,10.2,7.556-.9,2.675-4.805,1.83-7.3.373" transform="translate(-65.576 226.204)" fill="#3dafe9"></path><path id="Path_11010" data-name="Path 11010" d="M147.042,212.725c-3.853-2.15-5.695-5.881-3.457-7.01,2.914-1.471,10.371,2.81,10.053,6.667-.636,2.413-4.239,1.65-6.6.343" transform="translate(-63.554 261.721)" fill="#3dafe9"></path><path id="Path_11011" data-name="Path 11011" d="M144.423,191.7c-3.607-1.92-5.515-5.261-3.578-6.273,2.521-1.314,9.52,2.518,9.494,5.97-.409,2.161-3.708,1.478-5.916.3" transform="translate(-62.421 295.959)" fill="#3dafe9"></path><path id="Path_11012" data-name="Path 11012" d="M143.768,171.494c-3.307-1.683-5.214-4.594-3.588-5.466,2.132-1.136,8.553,2.231,8.771,5.23-.21,1.879-3.158,1.268-5.183.236" transform="translate(-62.205 328.783)" fill="#3dafe9"></path><path id="Path_11013" data-name="Path 11013" d="M144.915,152.2c-3.051-1.492-4.958-4.06-3.584-4.82,1.792-.991,7.724,1.973,8.144,4.611-.038,1.66-2.691,1.119-4.56.209" transform="translate(-62.779 360.217)" fill="#3dafe9"></path><path id="Path_11014" data-name="Path 11014" d="M147.981,133.771c-2.727-1.282-4.567-3.479-3.456-4.12,1.454-.842,6.782,1.713,7.365,3.964.093,1.416-2.23.94-3.909.156" transform="translate(-64.258 390.182)" fill="#3dafe9"></path><path id="Path_11015" data-name="Path 11015" d="M152.888,116.28c-2.4-1.084-4.141-2.924-3.265-3.455,1.153-.7,5.874,1.471,6.556,3.368.195,1.169-1.808.754-3.291.087" transform="translate(-66.574 418.621)" fill="#3dafe9"></path><path id="Path_11016" data-name="Path 11016" d="M159.616,99.744c-2.081-.909-3.688-2.423-3.024-2.855.89-.568,4.981,1.243,5.727,2.8.279.964-1.415.615-2.7.055" transform="translate(-69.714 445.529)" fill="#3dafe9"></path><path id="Path_11017" data-name="Path 11017" d="M168.109,84.17c-1.8-.752-3.286-2-2.785-2.35.648-.442,4.259,1.1,5.009,2.336.329.789-1.106.487-2.224.015" transform="translate(-73.629 470.894)" fill="#3dafe9"></path><path id="Path_11018" data-name="Path 11018" d="M178.482,69.61c-1.447-.584-2.673-1.513-2.344-1.77.433-.336,3.3.85,4.014,1.793.262.465-.42.355-.726.287a5.688,5.688,0,0,1-.945-.311" transform="translate(-78.468 494.567)" fill="#3dafe9"></path><path id="Path_11019" data-name="Path 11019" d="M190.585,56.076c-1.117-.431-2.13-1.123-1.91-1.286.294-.226,2.487.65,3.124,1.326.055.075.205.28-.177.249a4.236,4.236,0,0,1-1.036-.29" transform="translate(-84.065 516.593)" fill="#3dafe9"></path><path id="Path_11020" data-name="Path 11020" d="M204.446,43.617c-.791-.3-1.559-.762-1.436-.868a4.634,4.634,0,0,1,2.244.92c.048.054.147.158-.03.158a2.686,2.686,0,0,1-.778-.21" transform="translate(-90.461 536.898)" fill="#3dafe9"></path><path id="Path_11021" data-name="Path 11021" d="M220.048,32.248c-.517-.2-1-.461-.9-.5a3.8,3.8,0,0,1,1.393.56c.019.015.044.023.049.056-.049.063-.486-.1-.538-.114" transform="translate(-97.651 555.445)" fill="#3dafe9"></path><path id="Path_11022" data-name="Path 11022" d="M237.193,21.894l.091.011.263.114-.1-.012Z" transform="translate(-105.699 572.162)" fill="#3dafe9"></path><path id="Path_11023" data-name="Path 11023" d="M884.065,940.9l.483.169-.184.588-.463-.225Z" transform="translate(-393.889 -940.896)" fill="#3dafe9"></path><path id="Path_11024" data-name="Path 11024" d="M842.237,921.026c-.214-.68.391-1.489,1.048-1.152a1,1,0,0,1,.044,1.643.761.761,0,0,1-1.092-.49" transform="translate(-375.303 -907.228)" fill="#3dafe9"></path><path id="Path_11025" data-name="Path 11025" d="M800.859,899.848c-.419-1.2.634-2.412,1.655-1.9a1.618,1.618,0,0,1,.108,2.672,1.22,1.22,0,0,1-1.763-.768" transform="translate(-356.842 -872.211)" fill="#3dafe9"></path><path id="Path_11026" data-name="Path 11026" d="M759.967,877.969c-.595-1.583.764-3.207,2.177-2.59a2.1,2.1,0,0,1,.2,3.539,1.626,1.626,0,0,1-2.379-.949" transform="translate(-338.597 -836.007)" fill="#3dafe9"></path><path id="Path_11027" data-name="Path 11027" d="M719.443,855.4c-.812-1.993.932-4.152,2.736-3.4a2.693,2.693,0,0,1,.4,4.517,2.119,2.119,0,0,1-3.138-1.116" transform="translate(-320.511 -798.602)" fill="#3dafe9"></path><path id="Path_11028" data-name="Path 11028" d="M679.526,832.187c-1.067-2.432.99-5.106,3.236-4.211a3.3,3.3,0,0,1,.605,5.507,2.6,2.6,0,0,1-3.841-1.3" transform="translate(-302.685 -760.134)" fill="#3dafe9"></path><path id="Path_11029" data-name="Path 11029" d="M640.445,808.371c-1.285-2.735.942-5.75,3.554-4.814a3.669,3.669,0,0,1,.813,6.172,2.927,2.927,0,0,1-4.367-1.357" transform="translate(-285.232 -720.707)" fill="#3dafe9"></path><path id="Path_11030" data-name="Path 11030" d="M601.942,784.016c-1.522-3.035.968-6.569,3.918-5.562a4.173,4.173,0,0,1,1.124,6.971,3.371,3.371,0,0,1-5.042-1.409" transform="translate(-268.036 -680.311)" fill="#3dafe9"></path><path id="Path_11031" data-name="Path 11031" d="M564.24,759.086c-1.776-3.322.921-7.336,4.244-6.307a4.627,4.627,0,0,1,1.435,7.751,3.778,3.778,0,0,1-5.68-1.443" transform="translate(-251.189 -638.971)" fill="#3dafe9"></path><path id="Path_11032" data-name="Path 11032" d="M527.432,733.678c-2.077-3.637.774-8.107,4.488-7.029a5.078,5.078,0,0,1,1.8,8.519c-2.628,1.961-5.26.314-6.285-1.49" transform="translate(-234.725 -596.848)" fill="#3dafe9"></path><path id="Path_11033" data-name="Path 11033" d="M491.633,707.808c-2.231-3.678.317-8.4,4.193-7.769,3.758.613,5.923,6.051,2.664,9.234-2.792,2.186-5.691.463-6.858-1.464" transform="translate(-218.714 -553.97)" fill="#3dafe9"></path><path id="Path_11034" data-name="Path 11034" d="M456.839,681.53c-2.507-3.9.082-8.994,4.259-8.385a5.858,5.858,0,0,1,3.1,9.794c-2.926,2.394-6.068.619-7.363-1.41" transform="translate(-203.14 -510.406)" fill="#3dafe9"></path><path id="Path_11035" data-name="Path 11035" d="M423.129,654.875c-2.765-4.073-.161-9.545,4.289-9.006,4.311.525,7.087,6.59,3.576,10.343-3.032,2.6-6.425.784-7.865-1.337" transform="translate(-188.05 -466.208)" fill="#3dafe9"></path><path id="Path_11036" data-name="Path 11036" d="M390.7,627.892c-3.008-4.195-.452-9.961,4.209-9.491,4.508.454,7.593,6.719,4.049,10.7-3.1,2.792-6.7.971-8.258-1.211" transform="translate(-173.525 -421.505)" fill="#3dafe9"></path><path id="Path_11037" data-name="Path 11037" d="M359.45,600.573c-3.3-4.352-.832-10.414,4.072-9.971,4.8.427,8.19,6.809,4.573,11.1-3.132,2.953-6.94,1.116-8.645-1.13" transform="translate(-159.509 -376.269)" fill="#3dafe9"></path><path id="Path_11038" data-name="Path 11038" d="M329.652,573c-3.5-4.386-1.16-10.647,3.852-10.309,4.942.335,8.6,6.812,5.022,11.294-3.112,3.092-7.063,1.283-8.874-.985" transform="translate(-146.158 -330.652)" fill="#3dafe9"></path><path id="Path_11039" data-name="Path 11039" d="M301.148,545.218c-3.766-4.479-1.567-10.974,3.614-10.689,5.058.283,9.033,6.872,5.541,11.518-3.108,3.252-7.228,1.471-9.155-.829" transform="translate(-133.357 -284.659)" fill="#3dafe9"></path><path id="Path_11040" data-name="Path 11040" d="M274.232,517.206c-3.756-4.248-2.205-10.55,2.671-10.876,5.207-.348,10.089,6.627,6.6,11.573-3.014,3.342-7.235,1.6-9.267-.7" transform="translate(-121.273 -238.389)" fill="#3dafe9"></path><path id="Path_11041" data-name="Path 11041" d="M248.95,489.061c-3.857-4.159-2.537-10.476,2.28-10.909,5.171-.46,10.263,6.417,6.937,11.444-2.871,3.385-7.118,1.723-9.218-.535" transform="translate(-109.936 -191.944)" fill="#3dafe9"></path><path id="Path_11042" data-name="Path 11042" d="M225.2,460.814c-4.008-4.109-2.921-10.474,1.878-10.986,5.129-.55,10.454,6.262,7.333,11.349-2.739,3.457-7.036,1.871-9.211-.363" transform="translate(-99.259 -145.317)" fill="#3dafe9"></path><path id="Path_11043" data-name="Path 11043" d="M203.505,432.693c-4.1-3.986-3.335-10.211,1.319-10.742,4.98-.566,10.491,6.058,7.685,11.063-2.511,3.382-6.776,1.849-9-.322" transform="translate(-89.499 -99.117)" fill="#3dafe9"></path><path id="Path_11044" data-name="Path 11044" d="M184.127,405.155c-4.1-3.8-3.673-9.758.726-10.272,4.741-.553,10.334,5.779,7.893,10.574-2.239,3.236-6.391,1.773-8.618-.3" transform="translate(-80.787 -53.997)" fill="#3dafe9"></path><path id="Path_11045" data-name="Path 11045" d="M166.854,378.287c-4.1-3.632-3.988-9.309.2-9.8,4.463-.515,10.089,5.5,8.015,10.042-1.97,3.107-5.988,1.725-8.211-.246" transform="translate(-73.014 -9.968)" fill="#3dafe9"></path><path id="Path_11046" data-name="Path 11046" d="M151.677,352.075c-3.863-3.268-4.286-8.363-.766-9.233,4.1-1.02,10.39,4.9,8.566,9.455-1.707,2.951-5.588,1.647-7.8-.223" transform="translate(-66.179 32.973)" fill="#3dafe9"></path><path id="Path_11047" data-name="Path 11047" d="M138.658,326.545c-3.791-3.073-4.46-7.856-1.218-8.677,3.794-.952,10.016,4.62,8.548,8.9-1.445,2.773-5.161,1.536-7.33-.224" transform="translate(-60.322 74.733)" fill="#3dafe9"></path><path id="Path_11048" data-name="Path 11048" d="M127.728,301.757c-3.632-2.818-4.528-7.375-1.6-8.116,3.477-.881,9.579,4.322,8.446,8.315-1.2,2.6-4.728,1.453-6.85-.2" transform="translate(-55.428 115.277)" fill="#3dafe9"></path><path id="Path_11049" data-name="Path 11049" d="M118.825,277.7c-3.578-2.669-4.642-6.792-1.939-7.481,3.149-.807,9.061,4.016,8.249,7.7-.955,2.393-4.264,1.311-6.31-.217" transform="translate(-51.411 154.574)" fill="#3dafe9"></path><path id="Path_11050" data-name="Path 11050" d="M112.064,254.435c-3.341-2.4-4.536-6.116-2.17-6.75,2.786-.74,8.373,3.62,7.85,6.97-.713,2.147-3.755,1.165-5.681-.22" transform="translate(-48.421 192.53)" fill="#3dafe9"></path><path id="Path_11051" data-name="Path 11051" d="M107.251,231.979c-3.144-2.171-4.443-5.533-2.361-6.1,2.454-.661,7.734,3.284,7.476,6.3-.505,1.948-3.3,1.056-5.115-.2" transform="translate(-46.291 229.189)" fill="#3dafe9"></path><path id="Path_11052" data-name="Path 11052" d="M104.427,210.345c-2.925-1.947-4.3-4.945-2.5-5.438,2.135-.582,7.093,2.972,7.066,5.67-.324,1.727-2.865.907-4.565-.233" transform="translate(-45.06 264.475)" fill="#3dafe9"></path><path id="Path_11053" data-name="Path 11053" d="M103.6,189.585c-2.664-1.717-4.063-4.339-2.536-4.753,1.81-.488,6.345,2.642,6.506,4.99-.159,1.5-2.415.764-3.97-.237" transform="translate(-44.757 298.325)" fill="#3dafe9"></path><path id="Path_11054" data-name="Path 11054" d="M104.723,169.725c-2.4-1.489-3.777-3.738-2.512-4.075,1.506-.4,5.6,2.315,5.914,4.317-.026,1.279-2.007.631-3.4-.242" transform="translate(-45.334 330.694)" fill="#3dafe9"></path><path id="Path_11055" data-name="Path 11055" d="M107.767,150.789c-1.99-1.206-3.342-3.021-2.536-3.407,1.057-.509,4.965,1.888,5.4,3.646.082,1.064-1.661.481-2.866-.239" transform="translate(-46.788 361.584)" fill="#3dafe9"></path><path id="Path_11056" data-name="Path 11056" d="M112.673,132.783c-1.776-1.042-3.031-2.544-2.4-2.87.828-.432,4.281,1.622,4.808,3.12.157.895-1.312.39-2.4-.25" transform="translate(-49.066 390.951)" fill="#3dafe9"></path><path id="Path_11057" data-name="Path 11057" d="M119.5,115.8c-1.482-.848-2.648-2.093-2.189-2.35.616-.331,3.554,1.37,4.118,2.578.216.725-1,.3-1.93-.229" transform="translate(-52.231 418.678)" fill="#3dafe9"></path><path id="Path_11058" data-name="Path 11058" d="M128.239,99.789c-1.166-.648-2.142-1.588-1.838-1.767.4-.236,2.763,1.1,3.28,1.975.216.5-.624.18-.791.11a5.334,5.334,0,0,1-.65-.317" transform="translate(-56.303 444.768)" fill="#3dafe9"></path><path id="Path_11059" data-name="Path 11059" d="M138.793,84.817c-.894-.483-1.652-1.135-1.451-1.241a4.767,4.767,0,0,1,2.462,1.432c.034.057.134.235-.179.164a3.512,3.512,0,0,1-.832-.355" transform="translate(-61.189 469.17)" fill="#3dafe9"></path><path id="Path_11060" data-name="Path 11060" d="M151.19,70.932c-.6-.315-1.145-.748-1.051-.816a3.865,3.865,0,0,1,1.7.954c.027.038.093.119-.012.114a1.892,1.892,0,0,1-.642-.252" transform="translate(-66.901 491.865)" fill="#3dafe9"></path><path id="Path_11061" data-name="Path 11061" d="M164.938,57.818l.231.045.578.366-.256-.058Z" transform="translate(-73.501 512.755)" fill="#3dafe9"></path><path id="Path_11062" data-name="Path 11062" d="M181.368,46.41l0,0,.093.051-.049-.022Z" transform="translate(-80.823 531.893)" fill="#3dafe9"></path><path id="Path_11063" data-name="Path 11063" d="M780.974,940.885l.32.117-.112.328-.268-.094Z" transform="translate(-347.996 -940.565)" fill="#3dafe9"></path><path id="Path_11064" data-name="Path 11064" d="M739.232,917.778l.91.312-.267,1.017-.856-.292Z" transform="translate(-329.326 -903.422)" fill="#3dafe9"></path><path id="Path_11065" data-name="Path 11065" d="M697.587,895.517c-.354-.892.342-1.988,1.261-1.591a1.285,1.285,0,0,1,.183,2.134.991.991,0,0,1-1.445-.543" transform="translate(-310.821 -865.068)" fill="#3dafe9"></path><path id="Path_11066" data-name="Path 11066" d="M656.678,871.671c-.576-1.344.537-2.811,1.752-2.312a1.842,1.842,0,0,1,.322,3.049,1.409,1.409,0,0,1-2.074-.737" transform="translate(-292.564 -825.616)" fill="#3dafe9"></path><path id="Path_11067" data-name="Path 11067" d="M616.424,847.2c-.79-1.737.6-3.646,2.228-3.046a2.356,2.356,0,0,1,.483,3.936,1.827,1.827,0,0,1-2.711-.89" transform="translate(-274.593 -785.095)" fill="#3dafe9"></path><path id="Path_11068" data-name="Path 11068" d="M577.021,822.162c-1.007-2.1.588-4.4,2.546-3.674a2.785,2.785,0,0,1,.718,4.637,2.17,2.17,0,0,1-3.264-.963" transform="translate(-256.997 -743.656)" fill="#3dafe9"></path><path id="Path_11069" data-name="Path 11069" d="M538.482,796.544c-1.219-2.383.559-5.069,2.839-4.29a3.216,3.216,0,0,1,.916,5.35,2.478,2.478,0,0,1-3.755-1.06" transform="translate(-239.785 -701.288)" fill="#3dafe9"></path><path id="Path_11070" data-name="Path 11070" d="M500.768,770.384c-1.434-2.666.5-5.731,3.094-4.9a3.666,3.666,0,0,1,1.2,6.06,2.854,2.854,0,0,1-4.3-1.16" transform="translate(-222.938 -658.016)" fill="#3dafe9"></path><path id="Path_11071" data-name="Path 11071" d="M464.156,743.83c-1.512-2.666.286-6,2.959-5.5,2.6.492,4.049,4.411,1.764,6.642-1.947,1.522-3.934.25-4.723-1.145" transform="translate(-206.594 -614.075)" fill="#3dafe9"></path><path id="Path_11072" data-name="Path 11072" d="M428.524,716.822c-1.75-2.923.063-6.528,3.037-6.024a4.316,4.316,0,0,1,2.078,7.162c-2.17,1.772-4.29.24-5.115-1.138" transform="translate(-190.656 -569.392)" fill="#3dafe9"></path><path id="Path_11073" data-name="Path 11073" d="M394.033,689.41c-1.922-3.059-.045-7.02,3.091-6.525a4.691,4.691,0,0,1,2.434,7.681c-2.15,1.838-4.524.428-5.524-1.156" transform="translate(-175.245 -524.047)" fill="#3dafe9"></path><path id="Path_11074" data-name="Path 11074" d="M360.77,661.709c-2.1-3.2-.238-7.418,3.067-6.942a4.962,4.962,0,0,1,2.767,7.995c-2.23,2-4.755.589-5.835-1.052" transform="translate(-160.373 -478.204)" fill="#3dafe9"></path><path id="Path_11075" data-name="Path 11075" d="M328.821,633.6c-2.266-3.282-.45-7.716,2.988-7.3a5.231,5.231,0,0,1,3.119,8.334c-2.255,2.121-4.931.674-6.108-1.032" transform="translate(-146.084 -431.769)" fill="#3dafe9"></path><path id="Path_11076" data-name="Path 11076" d="M298.165,605.3c-2.469-3.4-.721-8.076,2.877-7.684,3.546.381,6.09,5.359,3.464,8.648-2.264,2.246-5.071.786-6.341-.964" transform="translate(-132.357 -384.97)" fill="#3dafe9"></path><path id="Path_11077" data-name="Path 11077" d="M269.032,576.682c-2.6-3.421-.967-8.225,2.689-7.913,3.546.307,6.343,5.442,3.818,8.8-2.367,2.476-5.244.768-6.507-.89" transform="translate(-119.321 -337.758)" fill="#3dafe9"></path><path id="Path_11078" data-name="Path 11078" d="M241.424,547.95c-2.713-3.43-1.226-8.312,2.449-8.039,3.559.263,6.517,5.414,4.1,8.835-2.17,2.4-5.133.982-6.546-.8" transform="translate(-106.965 -290.328)" fill="#3dafe9"></path><path id="Path_11079" data-name="Path 11079" d="M215.367,519c-2.831-3.418-1.5-8.367,2.177-8.144,3.562.211,6.687,5.361,4.385,8.849-2.091,2.456-5.1,1.071-6.562-.7" transform="translate(-95.293 -242.586)" fill="#3dafe9"></path><path id="Path_11080" data-name="Path 11080" d="M190.955,490c-2.929-3.389-1.791-8.394,1.879-8.239,3.565.15,6.861,5.289,4.689,8.843-2,2.509-5.042,1.157-6.568-.6" transform="translate(-84.354 -194.74)" fill="#3dafe9"></path><path id="Path_11081" data-name="Path 11081" d="M168.586,461.126c-2.849-3.156-2.232-7.83,1.064-8.07,3.57-.261,7.42,4.956,5.345,8.658-1.832,2.459-4.852,1.137-6.409-.588" transform="translate(-74.317 -147.292)" fill="#3dafe9"></path><path id="Path_11082" data-name="Path 11082" d="M148.518,432.875c-2.857-3.032-2.482-7.534.65-7.766,3.4-.251,7.3,4.769,5.484,8.334-1.634,2.365-4.571,1.093-6.135-.568" transform="translate(-65.32 -100.923)" fill="#3dafe9"></path><path id="Path_11083" data-name="Path 11083" d="M130.65,405.317c-2.861-2.9-2.72-7.219.249-7.448,3.216-.244,7.175,4.572,5.614,8-1.44,2.268-4.293,1.046-5.863-.551" transform="translate(-57.301 -55.705)" fill="#3dafe9"></path><path id="Path_11084" data-name="Path 11084" d="M114.938,378.436c-2.883-2.823-2.961-6.841-.137-7.048,3-.221,6.947,4.346,5.647,7.578-1.24,2.141-3.969.977-5.51-.529" transform="translate(-50.235 -11.629)" fill="#3dafe9"></path><path id="Path_11085" data-name="Path 11085" d="M101.533,352.213c-2.74-2.575-3-6.354-.463-6.522,2.738-.179,6.58,4.076,5.555,7.055-1.033,1.971-3.6.877-5.092-.533" transform="translate(-44.256 31.283)" fill="#3dafe9"></path><path id="Path_11086" data-name="Path 11086" d="M90.144,326.811c-2.522-2.308-3.094-5.627-1.033-6.025,2.481-.484,6.546,3.578,5.712,6.487-.85,1.849-3.246.841-4.679-.462" transform="translate(-39.151 72.92)" fill="#3dafe9"></path><path id="Path_11087" data-name="Path 11087" d="M80.9,302.118c-2.392-2.108-3.09-5.158-1.254-5.531,2.153-.437,6.141,3.364,5.553,6.01-.674,1.687-2.918.736-4.3-.479" transform="translate(-35.029 113.318)" fill="#3dafe9"></path><path id="Path_11088" data-name="Path 11088" d="M73.707,278.287c-2.3-1.957-3.109-4.762-1.465-5.08,2-.4,5.755,3.083,5.357,5.555-.5,1.529-2.582.644-3.892-.475" transform="translate(-31.807 152.342)" fill="#3dafe9"></path><path id="Path_11089" data-name="Path 11089" d="M68.652,255.246C66.528,253.5,65.66,251,67.07,250.721c1.671-.334,5.237,2.828,5.049,4.982-.356,1.368-2.241.558-3.467-.457" transform="translate(-29.581 190.01)" fill="#3dafe9"></path><path id="Path_11090" data-name="Path 11090" d="M65.664,233.1c-1.913-1.534-2.81-3.7-1.625-3.928,1.39-.267,4.6,2.48,4.574,4.333-.216,1.176-1.852.471-2.948-.4" transform="translate(-28.299 226.22)" fill="#3dafe9"></path><path id="Path_11091" data-name="Path 11091" d="M64.658,211.8c-1.711-1.333-2.623-3.214-1.645-3.413,1.17-.236,4.1,2.191,4.207,3.827-.108,1.011-1.562.368-2.562-.413" transform="translate(-27.902 261.037)" fill="#3dafe9"></path><path id="Path_11092" data-name="Path 11092" d="M65.668,191.439c-1.508-1.138-2.389-2.719-1.593-2.861.945-.168,3.521,1.9,3.72,3.244-.011.885-1.313.235-2.127-.383" transform="translate(-28.42 294.299)" fill="#3dafe9"></path><path id="Path_11093" data-name="Path 11093" d="M68.661,172.053c-1.286-.952-2.109-2.242-1.493-2.347.742-.119,2.954,1.6,3.221,2.691.045.607-.865.3-1.727-.344" transform="translate(-29.839 326.014)" fill="#3dafe9"></path><path id="Path_11094" data-name="Path 11094" d="M73.655,153.625c-.958-.695-1.649-1.605-1.324-1.745.434-.187,2.3,1.17,2.588,2.032.089.5-.686.127-1.264-.287" transform="translate(-32.196 356.108)" fill="#3dafe9"></path><path id="Path_11095" data-name="Path 11095" d="M80.544,136.207c-.746-.525-1.337-1.224-1.109-1.312.3-.109,1.745.917,2.027,1.536.1.338-.371.1-.519.027s-.268-.159-.4-.251" transform="translate(-35.376 384.61)" fill="#3dafe9"></path><path id="Path_11096" data-name="Path 11096" d="M89.4,119.8c-.452-.307-.913-.763-.763-.8a2.823,2.823,0,0,1,1.322.969c.018.041.067.152-.157.065a2.043,2.043,0,0,1-.4-.234" transform="translate(-39.488 411.406)" fill="#3dafe9"></path><path id="Path_11097" data-name="Path 11097" d="M99.853,104.187l.2.046.388.334-.205-.06Z" transform="translate(-44.497 436.475)" fill="#3dafe9"></path><path id="Path_11098" data-name="Path 11098" d="M633.443,913.075l.113.031-.027.134-.109-.034Z" transform="translate(-282.268 -894.518)" fill="#3dafe9"></path><path id="Path_11099" data-name="Path 11099" d="M592.655,887.613l.533.116-.13.611-.5-.145Z" transform="translate(-264.059 -853.176)" fill="#3dafe9"></path><path id="Path_11100" data-name="Path 11100" d="M552.183,862.465c-.283-.626.185-1.466.85-1.21a.978.978,0,0,1,.244,1.566.747.747,0,0,1-1.094-.357" transform="translate(-246.03 -810.734)" fill="#3dafe9"></path><path id="Path_11101" data-name="Path 11101" d="M512.816,836.262c-.425-.885.18-2.065,1.139-1.72a1.345,1.345,0,0,1,.36,2.181,1,1,0,0,1-1.5-.461" transform="translate(-228.463 -767.442)" fill="#3dafe9"></path><path id="Path_11102" data-name="Path 11102" d="M474.334,809.508c-.619-1.217.271-2.616,1.421-2.229a1.681,1.681,0,0,1,.483,2.777,1.24,1.24,0,0,1-1.9-.548" transform="translate(-211.285 -723.247)" fill="#3dafe9"></path><path id="Path_11103" data-name="Path 11103" d="M436.823,782.274c-.745-1.408.155-3.1,1.487-2.79a2.1,2.1,0,0,1,.88,3.428,1.538,1.538,0,0,1-2.367-.638" transform="translate(-194.54 -678.251)" fill="#3dafe9"></path><path id="Path_11104" data-name="Path 11104" d="M400.369,754.632c-.9-1.621.124-3.63,1.683-3.308a2.455,2.455,0,0,1,1.082,4.008,1.8,1.8,0,0,1-2.764-.7" transform="translate(-178.266 -632.554)" fill="#3dafe9"></path><path id="Path_11105" data-name="Path 11105" d="M365.266,726.565c-1.022-1.756-.014-3.894,1.685-3.57a2.659,2.659,0,0,1,1.258,4.3,1.917,1.917,0,0,1-2.943-.728" transform="translate(-162.589 -586.261)" fill="#3dafe9"></path><path id="Path_11106" data-name="Path 11106" d="M331.125,698.148c-1.2-1.955-.117-4.4,1.806-4.09a3.058,3.058,0,0,1,1.554,4.84c-1.365,1.222-2.786.185-3.36-.75" transform="translate(-147.334 -539.289)" fill="#3dafe9"></path><path id="Path_11107" data-name="Path 11107" d="M298.464,669.4c-1.295-2.023-.2-4.686,1.8-4.383a3.251,3.251,0,0,1,1.753,5.125c-1.4,1.322-2.925.251-3.554-.742" transform="translate(-132.754 -491.848)" fill="#3dafe9"></path><path id="Path_11108" data-name="Path 11108" d="M267.18,640.372c-1.408-2.122-.359-4.886,1.747-4.623,2.06.258,3.538,3.409,1.969,5.374-1.34,1.326-2.984.358-3.716-.751" transform="translate(-118.776 -443.954)" fill="#3dafe9"></path><path id="Path_11109" data-name="Path 11109" d="M237.329,611.154c-1.511-2.189-.5-5.15,1.673-4.883,1.935.241,3.838,3.393,2.193,5.578-1.431,1.5-3.131.371-3.866-.695" transform="translate(-105.439 -395.727)" fill="#3dafe9"></path><path id="Path_11110" data-name="Path 11110" d="M209.028,581.677c-1.587-2.211-.649-5.255,1.551-5.009,2.14.237,3.872,3.553,2.381,5.668-1.4,1.552-3.154.42-3.932-.659" transform="translate(-92.795 -347.139)" fill="#3dafe9"></path><path id="Path_11111" data-name="Path 11111" d="M182.32,552.086c-1.7-2.279-.875-5.337,1.379-5.115,2.166.215,4.015,3.581,2.579,5.755-1.279,1.5-3.089.53-3.958-.639" transform="translate(-80.843 -298.358)" fill="#3dafe9"></path><path id="Path_11112" data-name="Path 11112" d="M157.357,522.381c-1.7-2.2-.972-5.315,1.212-5.124,2.124.182,4.036,3.5,2.7,5.684-1.214,1.527-3.019.59-3.913-.56" transform="translate(-69.703 -249.421)" fill="#3dafe9"></path><path id="Path_11113" data-name="Path 11113" d="M134.348,492.844c-1.782-2.21-1.211-5.216.953-5.024,2.071.181,4.057,3.437,2.853,5.575-1.108,1.5-2.9.582-3.806-.551" transform="translate(-59.398 -200.851)" fill="#3dafe9"></path><path id="Path_11114" data-name="Path 11114" d="M113.723,463.957c-1.659-1.99-1.394-4.729.463-4.8,2.012-.084,4.256,3.149,3.137,5.339-.981,1.426-2.7.547-3.6-.535" transform="translate(-50.187 -153.402)" fill="#3dafe9"></path><path id="Path_11115" data-name="Path 11115" d="M95.347,435.748c-1.628-1.869-1.5-4.505.219-4.557,1.869-.055,4.121,3.028,3.177,5.085-.9,1.423-2.564.431-3.4-.528" transform="translate(-41.978 -107.1)" fill="#3dafe9"></path><path id="Path_11116" data-name="Path 11116" d="M79.212,408.214c-1.577-1.757-1.576-4.155,0-4.215,1.672-.057,3.894,2.864,3.136,4.747-.757,1.307-2.322.369-3.137-.533" transform="translate(-34.772 -61.947)" fill="#3dafe9"></path><path id="Path_11117" data-name="Path 11117" d="M65.251,381.476c-1.527-1.646-1.649-3.858-.215-3.88,1.548-.023,3.672,2.642,3.071,4.394-.594,1.127-2.025.376-2.857-.515" transform="translate(-28.533 -18.064)" fill="#3dafe9"></path><path id="Path_11118" data-name="Path 11118" d="M53.482,355.482c-1.445-1.508-1.658-3.532-.375-3.557,1.388-.018,3.429,2.423,2.969,4.025-.5,1.1-1.858.3-2.594-.468" transform="translate(-23.288 24.581)" fill="#3dafe9"></path><path id="Path_11119" data-name="Path 11119" d="M43.874,330.257c-1.275-1.293-1.627-3.076-.64-3.229,1.186-.189,3.34,2.173,3,3.7-.376.942-1.607.291-2.359-.474" transform="translate(-19.013 65.956)" fill="#3dafe9"></path><path id="Path_11120" data-name="Path 11120" d="M36.477,305.9c-1.031-1.023-1.564-2.619-.7-2.749,1.009-.145,2.866,1.834,2.65,3.149-.261.795-1.3.241-1.952-.4" transform="translate(-15.751 105.881)" fill="#3dafe9"></path><path id="Path_11121" data-name="Path 11121" d="M31.149,282.345c-1-.961-1.4-2.257-.728-2.343.8-.1,2.5,1.631,2.4,2.715-.176.681-1.088.195-1.674-.371" transform="translate(-13.407 144.467)" fill="#3dafe9"></path><path id="Path_11122" data-name="Path 11122" d="M27.879,259.722c-.82-.766-1.345-1.924-.746-1.986a3.078,3.078,0,0,1,2.127,2.32c-.1.562-.873.143-1.381-.334" transform="translate(-11.976 181.566)" fill="#3dafe9"></path><path id="Path_11123" data-name="Path 11123" d="M26.766,237.96c-.7-.646-1.063-1.469-.666-1.525.472-.062,1.7,1.123,1.733,1.825-.043.424-.651.076-1.067-.3" transform="translate(-11.557 217.193)" fill="#3dafe9"></path><path id="Path_11124" data-name="Path 11124" d="M27.672,217.206c-.485-.433-.857-1.075-.564-1.1.328-.028,1.234.818,1.31,1.319-.006.3-.447.051-.746-.218" transform="translate(-12.034 251.212)" fill="#3dafe9"></path><path id="Path_11125" data-name="Path 11125" d="M30.237,196.866l.378.1.458.583-.377-.1Z" transform="translate(-13.474 283.644)" fill="#3dafe9"></path><path id="Path_11126" data-name="Path 11126" d="M35.452,178.316l.132.025.218.26-.164-.065Z" transform="translate(-15.799 314.575)" fill="#3dafe9"></path><path id="Path_11127" data-name="Path 11127" d="M372.575,794.748l.09-.011-.01.135-.11-.026Z" transform="translate(-166.016 -699.736)" fill="#3dafe9"></path><path id="Path_11128" data-name="Path 11128" d="M336.765,765.85l.306.03-.017.408-.3-.1Z" transform="translate(-150.065 -652.5)" fill="#3dafe9"></path><path id="Path_11129" data-name="Path 11129" d="M302.083,736.52l.6.115.012.779-.63-.157Z" transform="translate(-134.608 -604.686)" fill="#3dafe9"></path><path id="Path_11130" data-name="Path 11130" d="M268.764,707.006l.781.112,0,1-.813-.148Z" transform="translate(-119.756 -556.333)" fill="#3dafe9"></path><path id="Path_11131" data-name="Path 11131" d="M236.87,677.267l.88.113.03,1.135-.879-.181Z" transform="translate(-105.555 -507.525)" fill="#3dafe9"></path><path id="Path_11132" data-name="Path 11132" d="M206.164,648.368c-.387-.626-.149-1.575.523-1.466a1.164,1.164,0,0,1,.637,1.721c-.414.43-.937.1-1.16-.256" transform="translate(-91.789 -458.227)" fill="#3dafe9"></path><path id="Path_11133" data-name="Path 11133" d="M177.261,618.293c-.48-.737-.186-1.685.5-1.587a1.3,1.3,0,0,1,.736,1.875c-.421.457-.972.105-1.232-.288" transform="translate(-78.887 -408.697)" fill="#3dafe9"></path><path id="Path_11134" data-name="Path 11134" d="M149.923,588.073c-.536-.792-.242-1.851.488-1.735a1.446,1.446,0,0,1,.829,2.024c-.431.5-1.027.134-1.317-.289" transform="translate(-66.688 -358.896)" fill="#3dafe9"></path><path id="Path_11135" data-name="Path 11135" d="M124.406,557.755c-.505-.72-.35-1.81.415-1.717a1.455,1.455,0,0,1,.878,2c-.4.5-1,.141-1.293-.282" transform="translate(-55.308 -309.005)" fill="#3dafe9"></path><path id="Path_11136" data-name="Path 11136" d="M100.847,527.634c-.517-.71-.414-1.785.334-1.683a1.492,1.492,0,0,1,.924,1.96c-.375.493-.96.136-1.257-.278" transform="translate(-44.797 -259.448)" fill="#3dafe9"></path><path id="Path_11137" data-name="Path 11137" d="M79.674,498.2c-.531-.71-.388-1.616.248-1.539a1.4,1.4,0,0,1,.879,1.8c-.312.441-.847.112-1.127-.26" transform="translate(-35.36 -211.05)" fill="#3dafe9"></path><path id="Path_11138" data-name="Path 11138" d="M60.8,469.456c-.413-.535-.425-1.393.093-1.379a1.32,1.32,0,0,1,.915,1.591c-.264.41-.756.118-1.007-.212" transform="translate(-26.96 -163.802)" fill="#3dafe9"></path><path id="Path_11139" data-name="Path 11139" d="M44.182,441.414c-.419-.522-.405-1.2.021-1.205a1.2,1.2,0,0,1,.845,1.427c-.206.362-.64.058-.866-.222" transform="translate(-19.552 -117.737)" fill="#3dafe9"></path><path id="Path_11140" data-name="Path 11140" d="M29.544,413.293l.682.092.333,1.008-.7-.15Z" transform="translate(-13.166 -72.949)" fill="#3dafe9"></path><path id="Path_11141" data-name="Path 11141" d="M17.485,387.046l.491.063.282.753-.52-.092Z" transform="translate(-7.792 -29.469)" fill="#3dafe9"></path><path id="Path_11142" data-name="Path 11142" d="M7.564,361.5l.349.073.242.54-.379-.1Z" transform="translate(-3.371 12.77)" fill="#3dafe9"></path><path id="Path_11143" data-name="Path 11143" d="M0,336.947l.121,0,.1.22L.08,337.12Z" transform="translate(0 53.572)" fill="#3dafe9"></path></g></g></g></svg>