<svg xmlns="http://www.w3.org/2000/svg" width="58.4" height="58.6" viewBox="0 0 58.4 58.6"><defs><style>.a{fill:#f78585;}</style></defs><path class="a" d="M13-109a10.95,10.95,0,0,1-9.5-5.1Q0-119.2,0-127.2q0-6.8,3.7-16.5a73.674,73.674,0,0,1,8.8-16.8q5.1-7.1,9.3-7.1a5.35,5.35,0,0,1,4.2,1.8,6.387,6.387,0,0,1,1.6,4.4,8.151,8.151,0,0,1-.6,2.8q-4.8,11-4.8,18.4a39.813,39.813,0,0,0,1.6,9.8,52.474,52.474,0,0,1,1.4,9.4,11.412,11.412,0,0,1-3.6,8.5A11.906,11.906,0,0,1,13-109Zm30.8,0a10.95,10.95,0,0,1-9.5-5.1q-3.5-5.1-3.5-13.1,0-6.8,3.7-16.5a73.674,73.674,0,0,1,8.8-16.8q5.1-7.1,9.3-7.1a5.35,5.35,0,0,1,4.2,1.8,6.387,6.387,0,0,1,1.6,4.4,8.151,8.151,0,0,1-.6,2.8q-4.8,11-4.8,18.4a39.813,39.813,0,0,0,1.6,9.8A52.474,52.474,0,0,1,56-121a11.412,11.412,0,0,1-3.6,8.5A11.906,11.906,0,0,1,43.8-109Z" transform="translate(0 167.6)"></path></svg>