<svg xmlns="http://www.w3.org/2000/svg" width="65.29" height="25.044" viewBox="0 0 65.29 25.044"><defs><style>.a{fill:#004b87;}</style></defs><g transform="translate(0 5.352)"><path class="a" d="M1561.7,643.645h-58.8c-1.8,0-3.244-5.385-3.244-9.842,0-3.872.489-8.3,1.581-9.462a.922.922,0,0,1,.981-.35l13.438,4.277a25.3,25.3,0,0,0,7.687,1.194h17.9a25.3,25.3,0,0,0,7.677-1.191l13.466-4.281a.918.918,0,0,1,.983.351c1.09,1.162,1.579,5.59,1.579,9.461C1564.941,638.26,1563.494,643.645,1561.7,643.645Zm-59.618-18.426c-.537.728-1.217,3.731-1.217,8.585,0,5.028,1.562,8.391,2.1,8.642l58.685-.012c.559-.329,2.081-3.668,2.081-8.63,0-4.906-.7-7.922-1.211-8.586l-13.239,4.208a26.507,26.507,0,0,1-8.044,1.249h-17.9a26.5,26.5,0,0,1-8.054-1.252Z" transform="translate(-1499.651 -623.953)"/><g transform="translate(2.841 3.861)"><g transform="translate(0 0.001)"><path class="a" d="M1519.686,637.036a.42.42,0,0,1-.121-.017l-.415-.12a.433.433,0,1,1,.241-.831l.415.12a.433.433,0,0,1-.12.848Zm-2.906-.846a.448.448,0,0,1-.12-.016l-.416-.121a.433.433,0,0,1,.241-.831l.416.121a.432.432,0,0,1-.121.848Zm4.563-.234a.454.454,0,0,1-.121-.017.433.433,0,0,1-.3-.536l.121-.414a.433.433,0,0,1,.831.241l-.121.414A.434.434,0,0,1,1521.343,635.956Zm-7.47-.611a.455.455,0,0,1-.121-.017l-.414-.12a.433.433,0,1,1,.241-.831l.415.12a.433.433,0,0,1-.121.848Zm-2.906-.846a.456.456,0,0,1-.121-.016l-.415-.121a.433.433,0,1,1,.241-.831l.415.121a.432.432,0,0,1-.12.848Zm-2.906-.845a.418.418,0,0,1-.12-.017l-.416-.121a.433.433,0,0,1-.295-.536.429.429,0,0,1,.536-.294l.416.12a.433.433,0,0,1-.121.848Zm12.254-.022a.443.443,0,0,1-.12-.016l-.416-.121a.433.433,0,0,1,.241-.831l.416.121a.432.432,0,0,1-.121.847Zm-15.161-.824a.49.49,0,0,1-.121-.016l-.414-.121a.433.433,0,1,1,.241-.831l.415.121a.432.432,0,0,1-.121.847Zm12.255-.021a.421.421,0,0,1-.121-.017l-.415-.12a.434.434,0,0,1-.295-.537.429.429,0,0,1,.536-.294l.415.12a.433.433,0,0,1-.12.848Zm-2.906-.846a.489.489,0,0,1-.121-.016l-.415-.121a.433.433,0,0,1,.242-.831l.414.121a.432.432,0,0,1-.12.847Zm-2.906-.845a.411.411,0,0,1-.12-.017l-.416-.121a.432.432,0,1,1,.241-.83l.416.12a.433.433,0,0,1-.121.848Zm-8.228-.2a.454.454,0,0,1-.121-.016.434.434,0,0,1-.295-.537l.121-.415a.433.433,0,0,1,.831.241l-.121.416A.433.433,0,0,1,1503.369,630.9Zm5.323-.649a.454.454,0,0,1-.121-.016l-.415-.121a.433.433,0,1,1,.241-.831l.415.121a.432.432,0,0,1-.12.848Zm-2.907-.845a.428.428,0,0,1-.121-.018l-.415-.122a.432.432,0,1,1,.244-.829l.414.122a.433.433,0,0,1-.122.847Z" transform="translate(-1502.936 -628.42)"/></g><g transform="translate(40.649)"><path class="a" d="M1552.153,637.035a.433.433,0,0,1-.121-.848l.416-.12a.433.433,0,0,1,.241.831l-.415.12A.421.421,0,0,1,1552.153,637.035Zm2.906-.846a.432.432,0,0,1-.12-.848l.415-.121a.433.433,0,0,1,.241.831l-.415.121A.454.454,0,0,1,1555.059,636.19Zm-4.562-.234a.432.432,0,0,1-.415-.312l-.121-.415a.433.433,0,1,1,.831-.241l.12.415a.432.432,0,0,1-.294.536A.423.423,0,0,1,1550.5,635.956Zm7.47-.611a.433.433,0,0,1-.121-.848l.415-.12a.433.433,0,1,1,.241.831l-.415.12A.449.449,0,0,1,1557.966,635.345Zm2.906-.846a.432.432,0,0,1-.121-.848l.416-.121a.433.433,0,0,1,.241.831l-.415.121A.456.456,0,0,1,1560.872,634.5Zm2.906-.845a.433.433,0,0,1-.12-.848l.415-.12a.428.428,0,0,1,.536.294.433.433,0,0,1-.294.536l-.416.121A.423.423,0,0,1,1563.777,633.654Zm-12.253-.022a.432.432,0,0,1-.12-.848l.415-.121a.433.433,0,0,1,.242.831l-.416.121A.454.454,0,0,1,1551.524,633.632Zm15.161-.823a.432.432,0,0,1-.121-.847l.415-.121a.433.433,0,0,1,.241.831l-.415.121A.479.479,0,0,1,1566.684,632.808Zm-12.253-.022a.433.433,0,0,1-.121-.848l.415-.12a.433.433,0,1,1,.241.831l-.415.12A.444.444,0,0,1,1554.431,632.787Zm2.906-.846a.432.432,0,0,1-.12-.847l.415-.121a.433.433,0,0,1,.241.831l-.415.121A.453.453,0,0,1,1557.337,631.941Zm2.906-.845a.433.433,0,0,1-.121-.848l.415-.12a.432.432,0,0,1,.242.83l-.416.121A.422.422,0,0,1,1560.243,631.1Zm8.227-.195a.432.432,0,0,1-.415-.311l-.121-.416a.433.433,0,1,1,.831-.241l.121.415a.435.435,0,0,1-.295.537A.455.455,0,0,1,1568.47,630.9Zm-5.321-.651a.432.432,0,0,1-.121-.847l.415-.121a.433.433,0,1,1,.241.831l-.415.121A.477.477,0,0,1,1563.149,630.25Zm2.906-.845a.433.433,0,0,1-.12-.848l.415-.121a.433.433,0,1,1,.241.831l-.415.121A.421.421,0,0,1,1566.055,629.406Z" transform="translate(-1549.943 -628.418)"/></g></g></g><path class="a" d="M1543.885,629.813a.6.6,0,0,1-.605-.605V618.975H1528.9v10.233a.605.605,0,0,1-1.211,0V618.369a.6.6,0,0,1,.605-.605h15.593a.6.6,0,0,1,.605.605v10.838A.6.6,0,0,1,1543.885,629.813Z" transform="translate(-1503.443 -617.764)"/></svg>